<?xml version="1.0" encoding="utf-8"?>
<!-- Generator: Adobe Adobe Illustrator 24.2.0, SVG Export Plug-In . SVG Version: 6.00 Build 0)  -->
<svg version="1.1" id="Camada_1" xmlns="http://www.w3.org/2000/svg" xmlns:xlink="http://www.w3.org/1999/xlink" x="0px" y="0px"
	 width="1080px" height="1080px" viewBox="0 0 1080 1080" style="enable-background:new 0 0 1080 1080;" xml:space="preserve">
<style type="text/css">
	.st0{fill:#FFFFFF;stroke:#000000;stroke-width:5;stroke-miterlimit:10;}
</style>
<g>
	<path class="st0" d="M903.33,187H176.67C116.65,187,68,235.65,68,295.67v592.67C68,948.35,116.65,997,176.67,997h726.67
		c60.01,0,108.67-48.65,108.67-108.67V295.67C1012,235.65,963.35,187,903.33,187z M132.92,350.67
		c0-58.91,47.76-106.67,106.67-106.67h602.36c57.71,0,104.5,46.79,104.5,104.5V456H132.92V350.67z M947,843.37
		c0,59.09-47.91,107-107,107H241.5c-59.92,0-108.5-48.58-108.5-108.5V517.21h814V843.37z"/>
	<path class="st0" d="M236.5,321L236.5,321c-19.05,0-34.5-15.45-34.5-34.5v-169c0-19.05,15.45-34.5,34.5-34.5h0
		c19.05,0,34.5,15.45,34.5,34.5v169C271,305.55,255.55,321,236.5,321z"/>
	<path class="st0" d="M844.5,321L844.5,321c-19.05,0-34.5-15.45-34.5-34.5v-169c0-19.05,15.45-34.5,34.5-34.5h0
		c19.05,0,34.5,15.45,34.5,34.5v169C879,305.55,863.55,321,844.5,321z"/>
</g>
</svg>
