<?xml version="1.0" encoding="utf-8"?>
<!-- Generator: Adobe Illustrator 26.0.3, SVG Export Plug-In . SVG Version: 6.00 Build 0)  -->
<svg version="1.1" id="Layer_1" xmlns="http://www.w3.org/2000/svg" xmlns:xlink="http://www.w3.org/1999/xlink" x="0px" y="0px"
	 viewBox="0 0 1080 1080" style="enable-background:new 0 0 1080 1080;" xml:space="preserve">
<style type="text/css">
	.st0{fill:#FFFFFF;stroke:#FFFFFF;stroke-width:7;stroke-miterlimit:10;}
	.st1{stroke:#000000;stroke-width:7;stroke-miterlimit:10;}
	
		.st2{clip-path:url(#SVGID_00000157274781087589384840000013607837840665631884_);fill:#FFFFFF;stroke:#FFFFFF;stroke-width:7;stroke-miterlimit:10;}
	
		.st3{clip-path:url(#SVGID_00000111872346345822281100000016455124068083901592_);fill:#FFFFFF;stroke:#FFFFFF;stroke-width:7;stroke-miterlimit:10;}
</style>
<path class="st0" d="M702.3,51.5H378.4c-41.4,0-75,33.6-75,75v827.1c0,41.4,33.6,75,75,75h323.9c41.4,0,75-33.6,75-75V126.6
	C777.3,85.1,743.7,51.5,702.3,51.5z M775,953.1c0,40.5-32.8,73.3-73.3,73.3H379c-40.5,0-73.3-32.8-73.3-73.3V127.2
	c0-40.5,32.8-73.3,73.3-73.3h322.7c40.5,0,73.3,32.8,73.3,73.3V953.1z"/>
<g>
	<g>
		<rect x="779.6" y="300.1" class="st0" width="2.8" height="118.3"/>
		<path class="st0" d="M782.4,418.4V300.1l1.4,1.5c-0.7,12.6-0.7,102.7,0,115.2L782.4,418.4z"/>
	</g>
	<g>
		<rect x="297.8" y="275.2" class="st0" width="1.6" height="75"/>
		<path class="st0" d="M297.8,350.1v-74.9l-0.8,1c0.4,8,0.4,65,0,73L297.8,350.1z"/>
		<rect x="299.4" y="275.2" class="st0" width="1.7" height="75"/>
	</g>
	<g>
		<rect x="297.8" y="369.5" class="st0" width="1.6" height="75"/>
		<path class="st0" d="M297.8,444.4v-74.9l-0.8,1c0.4,8,0.4,65,0,73L297.8,444.4z"/>
		<rect x="299.4" y="369.5" class="st0" width="1.7" height="75"/>
	</g>
	<g>
		<rect x="297.8" y="204.4" class="st0" width="1.6" height="38.5"/>
		<path class="st0" d="M297.8,242.8v-38.5l-0.8,0.9c0.4,7.5,0.4,29.1,0,36.6L297.8,242.8z"/>
		<rect x="299.4" y="204.4" class="st0" width="1.7" height="38.5"/>
	</g>
</g>
<g>
	<path class="st0" d="M576.5,117.9H500c-8.6,0-15.6-7-15.6-15.6l0,0c0-8.6,7-15.6,15.6-15.6h76.4c8.6,0,15.6,7,15.6,15.6l0,0
		C592.1,111,585.1,117.9,576.5,117.9z"/>
	<g>
		<circle class="st1" cx="572.2" cy="102.4" r="6.8"/>
		<image style="overflow:visible;" width="14" height="13" xlink:href="482ED74.png"  transform="matrix(1 0 0 1 565 96)">
		</image>
		<circle class="st1" cx="572.2" cy="102.4" r="3.9"/>
		<g id="Camera_00000181771962106803296260000008551096653390836141_">
			<path class="st1" d="M575.6,102.4c0,1.9-1.5,3.4-3.4,3.4c-1.9,0-3.4-1.5-3.4-3.4c0-1.9,1.5-3.4,3.4-3.4
				C574,99,575.6,100.5,575.6,102.4z"/>
			<path class="st1" d="M575.6,102.4c0,1.9-1.5,3.4-3.4,3.4c-1.9,0-3.4-1.5-3.4-3.4c0-1.9,1.5-3.4,3.4-3.4
				C574,99,575.6,100.5,575.6,102.4z"/>
		</g>
		<path class="st1" d="M575.3,104.1c0-0.7-0.5-1.2-1.2-1.2s-1.2,0.5-1.2,1.2s0.5,1.2,1.2,1.2S575.3,104.8,575.3,104.1z"/>
	</g>
</g>
<g>
	<defs>
		<path id="SVGID_1_" d="M702.3,51.5H378.4c-41.4,0-75,33.6-75,75v827.1c0,41.4,33.6,75,75,75h323.9c41.4,0,75-33.6,75-75V126.6
			C777.3,85.1,743.7,51.5,702.3,51.5z M775,953.1c0,40.5-32.8,73.3-73.3,73.3H379c-40.5,0-73.3-32.8-73.3-73.3V127.2
			c0-40.5,32.8-73.3,73.3-73.3h322.7c40.5,0,73.3,32.8,73.3,73.3V953.1z"/>
	</defs>
	<use xlink:href="#SVGID_1_"  style="overflow:visible;fill:#FFFFFF;"/>
	<clipPath id="SVGID_00000129200469967613331950000011083900004693581487_">
		<use xlink:href="#SVGID_1_"  style="overflow:visible;"/>
	</clipPath>
	
		<path style="clip-path:url(#SVGID_00000129200469967613331950000011083900004693581487_);fill:#FFFFFF;stroke:#FFFFFF;stroke-width:7;stroke-miterlimit:10;" d="
		M701,56.7H379.7c-39,0-70.5,31.6-70.5,70.5V953c0,39,31.6,70.5,70.5,70.5H701c39,0,70.5-31.6,70.5-70.5V127.3
		C771.5,88.3,739.9,56.7,701,56.7z"/>
	<use xlink:href="#SVGID_1_"  style="overflow:visible;fill:none;stroke:#FFFFFF;stroke-width:7;stroke-miterlimit:10;"/>
</g>
<g>
	<defs>
		<path id="SVGID_00000121244857004367029860000001916201139879474865_" d="M702.3,51.5H378.4c-41.4,0-75,33.6-75,75v827.1
			c0,41.4,33.6,75,75,75h323.9c41.4,0,75-33.6,75-75V126.6C777.3,85.1,743.7,51.5,702.3,51.5z M775,953.1
			c0,40.5-32.8,73.3-73.3,73.3H379c-40.5,0-73.3-32.8-73.3-73.3V127.2c0-40.5,32.8-73.3,73.3-73.3h322.7c40.5,0,73.3,32.8,73.3,73.3
			V953.1z"/>
	</defs>
	<use xlink:href="#SVGID_00000121244857004367029860000001916201139879474865_"  style="overflow:visible;fill:#FFFFFF;"/>
	<clipPath id="SVGID_00000105418721906051581690000014928197753994270882_">
		<use xlink:href="#SVGID_00000121244857004367029860000001916201139879474865_"  style="overflow:visible;"/>
	</clipPath>
	
		<path style="clip-path:url(#SVGID_00000105418721906051581690000014928197753994270882_);fill:#FFFFFF;stroke:#FFFFFF;stroke-width:7;stroke-miterlimit:10;" d="
		M702.9,1031H377.8c-42.4,0-76.7-34.3-76.7-76.7V126c0-42.4,34.3-76.7,76.7-76.7h325.1c42.4,0,76.7,34.3,76.7,76.7v828.3
		C779.6,996.7,745.3,1031,702.9,1031z"/>
	
		<use xlink:href="#SVGID_00000121244857004367029860000001916201139879474865_"  style="overflow:visible;fill:none;stroke:#FFFFFF;stroke-width:7;stroke-miterlimit:10;"/>
</g>
</svg>
