<?xml version="1.0" encoding="utf-8"?>
<!-- Generator: Adobe Illustrator 26.0.3, SVG Export Plug-In . SVG Version: 6.00 Build 0)  -->
<svg version="1.1" id="Camada_1" xmlns="http://www.w3.org/2000/svg" xmlns:xlink="http://www.w3.org/1999/xlink" x="0px" y="0px"
	 viewBox="0 0 1080 1080" style="enable-background:new 0 0 1080 1080;" xml:space="preserve">
<style type="text/css">
	.st0{fill:none;stroke:#FFFFFF;stroke-width:12;stroke-miterlimit:10;}
	.st1{fill:none;stroke:#FFFFFF;stroke-width:12;stroke-miterlimit:10;stroke-dasharray:20.6072,20.6072;}
</style>
<path class="st0" d="M672.94,226.61c-23.43,23.43-18.86,60.99,4.57,84.43s60.99,23.01,84.43-0.43l0.48-0.04l78.83,78.83
	c10.86,10.86,10.86,28.47,0,39.33L350.59,919.4c-10.86,10.86-28.47,10.86-39.33,0l-74.33-74.33c0,0,9.5-112.5-91.5-91.5
	l-87.76-87.76c-10.89-10.89-10.86-28.56,0.07-39.41l490.02-486.32c10.87-10.79,28.43-10.76,39.26,0.07l86.41,86.41"/>
<path class="st0" d="M823.5,199.5c-23.43,23.43-18.86,60.99,4.57,84.43c23.43,23.43,60.99,23.01,84.43-0.43l0.48-0.04l78.83,78.83
	c10.86,10.86,10.86,28.47,0,39.33L501.14,892.29c-10.86,10.86-28.47,10.86-39.33,0l-74.33-74.33c0,0,9.5-112.5-91.5-91.5
	l-87.76-87.76c-10.89-10.89-10.86-28.56,0.07-39.41l490.02-486.32c10.87-10.79,28.43-10.76,39.26,0.07l86.41,86.41"/>
<g>
	<g>
		<line class="st0" x1="622.83" y1="191.17" x2="629.9" y2="198.24"/>
		<line class="st1" x1="644.48" y1="212.81" x2="899.48" y2="467.81"/>
		<line class="st0" x1="906.76" y1="475.1" x2="913.83" y2="482.17"/>
	</g>
</g>
<path class="st0" d="M587.09,140.09l86.41,86.41c0,0-20,118,89,84l78.83,78.83c10.86,10.86,10.86,28.47,0,39.33L350.67,919.33
	c-10.86,10.86-28.47,10.86-39.33,0L237,845c0,0,9.5-112.5-91.5-91.5l-87.76-87.76c-10.89-10.89-10.86-28.56,0.07-39.41
	l490.02-486.32C558.71,129.23,576.26,129.26,587.09,140.09z"/>
<g>
	<g>
		<line class="st0" x1="461.5" y1="225.5" x2="468.57" y2="232.57"/>
		<line class="st1" x1="483.14" y1="247.14" x2="738.14" y2="502.14"/>
		<line class="st0" x1="745.43" y1="509.43" x2="752.5" y2="516.5"/>
	</g>
</g>
<line class="st0" x1="823.98" y1="199.46" x2="823.5" y2="199.5"/>
</svg>
