<?xml version="1.0" encoding="utf-8"?>
<!-- Generator: Adobe Illustrator 26.0.3, SVG Export Plug-In . SVG Version: 6.00 Build 0)  -->
<svg version="1.1" id="Camada_1" xmlns="http://www.w3.org/2000/svg" xmlns:xlink="http://www.w3.org/1999/xlink" x="0px" y="0px"
	 viewBox="0 0 1080 1080" style="enable-background:new 0 0 1080 1080;" xml:space="preserve">
<style type="text/css">
	.st0{fill:none;stroke:#FFFFFF;stroke-width:20;stroke-miterlimit:10;}
	.st1{fill:none;stroke:#FFFFFF;stroke-width:5;stroke-miterlimit:10;}
</style>
<circle class="st0" cx="539.4" cy="548.4" r="436.4"/>
<line class="st1" x1="764.9" y1="276.6" x2="764.5" y2="276.7"/>
<polygon class="st0" points="719.8,694.6 595.2,836.6 421.6,762 438.9,573.9 623.2,532.2 "/>
<line class="st0" x1="438.8" y1="573.9" x2="274.1" y2="413.3"/>
<line class="st0" x1="622.9" y1="532.6" x2="704.1" y2="327.4"/>
<line class="st0" x1="719.5" y1="694.8" x2="878.4" y2="680.2"/>
<line class="st0" x1="595.4" y1="836.7" x2="614.8" y2="926.8"/>
<line class="st0" x1="272.5" y1="805.9" x2="421.8" y2="762.1"/>
<path class="st0" d="M265.8,888.4l0.2-83.3L164.7,687.5l-56.1-68.9C108.7,618.6,117.9,768.1,265.8,888.4z"/>
<path class="st0" d="M166.3,453.9c0,0-39,87.7-19.9,210.9"/>
<path class="st0" d="M261.4,212l85.7,46.8c-50.3,34.4-73,154.6-73,154.6l-107.1,48l-12.9-121.1C154.1,340.2,200,254.8,261.4,212z"/>
<path class="st0" d="M347.2,258.8c0,0,132.2-89.6,243.3-59.6"/>
<path class="st0" d="M787.6,189.5c76.5,57.4,40.6,137.1,40.6,137.1l-121.7-4.1c0,0-113.6-113.6-116-123.3s83.5-66.5,83.5-66.5
	S729.2,145.7,787.6,189.5z"/>
<path class="st0" d="M828.2,326.5c0,0,86,69.8,118.4,147.6"/>
<path class="st0" d="M896.5,799.3l-18-119.1c0,0,73-64.9,73-275C951.4,405.2,1035.4,578.5,896.5,799.3z"/>
<path class="st0" d="M783.5,910.2l-168.7,16.6l-159.1,50C455.7,976.8,613.1,1022.6,783.5,910.2z"/>
</svg>
