<?xml version="1.0" encoding="utf-8"?>
<!-- Generator: Adobe Illustrator 26.0.3, SVG Export Plug-In . SVG Version: 6.00 Build 0)  -->
<svg version="1.1" id="Camada_1" xmlns="http://www.w3.org/2000/svg" xmlns:xlink="http://www.w3.org/1999/xlink" x="0px" y="0px"
	 viewBox="0 0 1080 1080" style="enable-background:new 0 0 1080 1080;" xml:space="preserve">
<style type="text/css">
	.st0{fill:#FFFFFF;stroke:#000000;stroke-width:5;stroke-miterlimit:10;}
	.st1{fill:#FFFFFF;stroke:#000000;stroke-width:10;stroke-miterlimit:10;}
	.st2{stroke:#000000;stroke-width:4.605;stroke-miterlimit:10;}
	.st3{fill:#FFFFFF;stroke:#000000;stroke-width:5.3336;stroke-miterlimit:10;}
	.st4{fill:none;stroke:#000000;stroke-width:21.3346;stroke-miterlimit:10;}
	.st5{fill:none;stroke:#000000;stroke-width:21.3346;stroke-miterlimit:10;stroke-dasharray:21.9823,21.9823;}
	.st6{fill:none;stroke:#000000;stroke-width:5.3336;stroke-miterlimit:10;}
	.st7{fill:#FFFFFF;stroke:#000000;stroke-width:20.7183;stroke-miterlimit:10;}
	.st8{fill:none;stroke:#000000;stroke-width:5.1796;stroke-miterlimit:10;}
	.st9{stroke:#000000;stroke-width:20.7183;stroke-miterlimit:10;}
	.st10{fill:none;stroke:#000000;stroke-width:20.7183;stroke-miterlimit:10;}
	.st11{fill:none;stroke:#FFFFFF;stroke-width:12;stroke-miterlimit:10;}
	.st12{fill:#FFFFFF;stroke:#FFFFFF;stroke-width:1.5405;stroke-miterlimit:10;}
	.st13{stroke:#000000;stroke-width:10;stroke-miterlimit:10;}
	.st14{stroke:#000000;stroke-width:2.5494;stroke-miterlimit:10;}
	.st15{fill:#FFFFFF;stroke:#000000;stroke-width:1.9278;stroke-miterlimit:10;}
	.st16{stroke:#000000;stroke-width:1.9278;stroke-miterlimit:10;}
	.st17{stroke:#000000;stroke-width:2.3787;stroke-miterlimit:10;}
</style>
<g>
	<path class="st0" d="M-2396.17-1793.5h-726.67c-60.01,0-108.67,48.65-108.67,108.67v592.67c0,60.02,48.65,108.67,108.67,108.67
		h726.67c60.01,0,108.67-48.65,108.67-108.67v-592.67C-2287.5-1744.85-2336.15-1793.5-2396.17-1793.5z"/>
	<path class="st0" d="M-3063-1659.5L-3063-1659.5c-19.05,0-34.5-15.45-34.5-34.5v-169c0-19.05,15.45-34.5,34.5-34.5l0,0
		c19.05,0,34.5,15.45,34.5,34.5v169C-3028.5-1674.95-3043.95-1659.5-3063-1659.5z"/>
	<path class="st0" d="M-2455-1659.5L-2455-1659.5c-19.05,0-34.5-15.45-34.5-34.5v-169c0-19.05,15.45-34.5,34.5-34.5l0,0
		c19.05,0,34.5,15.45,34.5,34.5v169C-2420.5-1674.95-2435.95-1659.5-2455-1659.5z"/>
	<text transform="matrix(1 0 0 1 -3068.4087 -1439.4414)" style="font-family:'BerlinSansFBDemi-Bold'; font-size:181.2477px;">MATCH</text>
	<text transform="matrix(1 0 0 1 -2943.2688 -1221.9414)" style="font-family:'BerlinSansFBDemi-Bold'; font-size:181.2477px;">DAY</text>
</g>
<g>
	<path class="st1" d="M-2983.59,47L-2983.59,47c173.96,0,314.98-141.02,314.98-314.98l0,0c0-173.96-141.02-314.98-314.98-314.98l0,0
		c-173.96,0-314.98,141.02-314.98,314.98l0,0c0,51.39,12.31,99.91,34.13,142.76c15.22,29.87-41.08,138.66-17.56,162.09
		c23.75,23.66,127.4-38.12,157.69-22.97C-3081.96,35.08-3034.17,47-2983.59,47z"/>
	<g>
		<path class="st2" d="M-2807.68-289.63h-351.82c-24.42,0-44.21-19.79-44.21-44.21l0,0c0-24.42,19.79-44.21,44.21-44.21h351.82
			c24.42,0,44.21,19.79,44.21,44.21l0,0C-2763.47-309.42-2783.27-289.63-2807.68-289.63z"/>
		<path class="st2" d="M-2807.68-157.92h-351.82c-24.42,0-44.21-19.79-44.21-44.21l0,0c0-24.42,19.79-44.21,44.21-44.21h351.82
			c24.42,0,44.21,19.79,44.21,44.21l0,0C-2763.47-177.72-2783.27-157.92-2807.68-157.92z"/>
	</g>
	<path class="st1" d="M-2682.41-241.03L-2682.41-241.03c-173.96,0-314.98-141.02-314.98-314.98l0,0
		c0-173.96,141.02-314.98,314.98-314.98l0,0c173.96,0,314.98,141.02,314.98,314.98l0,0c0,51.39-12.31,99.91-34.13,142.76
		c-15.22,29.87,41.08,138.66,17.56,162.09c-23.75,23.66-127.4-38.12-157.69-22.97C-2584.04-252.95-2631.83-241.03-2682.41-241.03z"
		/>
	<circle class="st2" cx="-2691.16" cy="-427.54" r="23.49"/>
	<path class="st2" d="M-2689.77-595.62c17.04,0,30.85-14.73,30.85-31.77s-13.81-30.85-30.85-30.85s-30.85,13.81-30.85,30.85v-0.81
		c0,14.88-12.06,26.94-26.94,26.94s-26.94-12.06-26.94-26.94v0.81c0-47.05,37.52-85.19,83.81-85.19s83.81,38.14,83.81,85.19
		c0,36.86-23.03,68.25-55.26,80.12v0.01v30.39c0,15.51-12.58,28.09-28.09,28.09l0,0c-15.51,0-28.09-12.58-28.09-28.09v-55.62
		c0-12.77,10.35-23.13,23.13-23.13H-2689.77z"/>
</g>
<g>
	<path class="st3" d="M-4137.83,757.56c-25,24.99-20.12,65.07,4.88,90.06s65.07,24.54,90.06-0.45l0.51-0.05l84.09,84.09
		c11.59,11.59,11.59,30.37,0,41.96l-523.41,523.41c-11.59,11.59-30.37,11.59-41.96,0l-79.29-79.29c0,0,10.13-120.01-97.61-97.61
		l-93.61-93.61c-11.62-11.62-11.58-30.46,0.08-42.04l522.72-518.77c11.6-11.51,30.32-11.48,41.88,0.08l92.17,92.17"/>
	<path class="st3" d="M-3977.23,728.64c-24.99,24.99-20.12,65.07,4.88,90.06s65.07,24.54,90.06-0.45l0.51-0.05l84.09,84.09
		c11.59,11.59,11.59,30.37,0,41.96l-523.41,523.41c-11.59,11.59-30.37,11.59-41.96,0l-79.29-79.29c0,0,10.13-120.01-97.61-97.61
		l-93.61-93.61c-11.62-11.62-11.58-30.46,0.08-42.04l522.72-518.77c11.6-11.51,30.32-11.48,41.88,0.08l92.17,92.17"/>
	<g>
		<g>
			<line class="st4" x1="-4191.29" y1="719.75" x2="-4183.75" y2="727.29"/>
			<line class="st5" x1="-4168.2" y1="742.83" x2="-3896.19" y2="1014.85"/>
			<line class="st4" x1="-3888.41" y1="1022.62" x2="-3880.87" y2="1030.17"/>
		</g>
	</g>
	<path class="st3" d="M-4229.41,665.26l92.17,92.17c0,0-21.33,125.87,94.94,89.61l84.09,84.09c11.59,11.59,11.59,30.37,0,41.96
		l-523.41,523.41c-11.59,11.59-30.37,11.59-41.96,0l-79.29-79.29c0,0,10.13-120.01-97.61-97.61l-93.61-93.61
		c-11.62-11.62-11.58-30.46,0.08-42.04l522.72-518.77C-4259.69,653.67-4240.97,653.71-4229.41,665.26z"/>
	<g>
		<g>
			<line class="st4" x1="-4363.39" y1="756.37" x2="-4355.84" y2="763.91"/>
			<line class="st5" x1="-4340.3" y1="779.46" x2="-4068.28" y2="1051.47"/>
			<line class="st4" x1="-4060.51" y1="1059.25" x2="-4052.97" y2="1066.79"/>
		</g>
	</g>
	<line class="st6" x1="-3976.72" y1="728.59" x2="-3977.23" y2="728.64"/>
</g>
<g>
	<circle class="st7" cx="-2630.6" cy="695.06" r="452.06"/>
	<line class="st8" x1="-2397.03" y1="413.54" x2="-2397.43" y2="413.57"/>
	<polygon class="st9" points="-2443.77,846.48 -2572.79,993.59 -2752.58,916.34 -2734.66,721.48 -2543.8,678.31 	"/>
	<line class="st10" x1="-2734.8" y1="721.53" x2="-2905.37" y2="555.16"/>
	<line class="st10" x1="-2544.06" y1="678.68" x2="-2460.03" y2="466.09"/>
	<line class="st10" x1="-2444.06" y1="846.73" x2="-2279.37" y2="831.61"/>
	<line class="st10" x1="-2572.63" y1="993.78" x2="-2552.46" y2="1087.05"/>
	<line class="st10" x1="-2907.05" y1="961.85" x2="-2752.44" y2="916.48"/>
	<path class="st9" d="M-2914.02,1047.27l0.25-86.26l-104.94-121.84l-58.07-71.42C-3076.79,767.75-3067.2,922.63-2914.02,1047.27z"/>
	<path class="st10" d="M-3017.13,597.17c0,0-40.39,90.86-20.62,218.52"/>
	<path class="st9" d="M-2918.57,346.57l88.82,48.47c-52.1,35.66-75.62,160.12-75.62,160.12l-110.92,49.76l-13.41-125.48
		C-3029.7,479.44-2982.18,390.9-2918.57,346.57z"/>
	<path class="st10" d="M-2829.75,395.04c0,0,136.96-92.8,252.08-61.71"/>
	<path class="st9" d="M-2373.48,323.25c79.25,59.44,42.01,142.01,42.01,142.01l-126.04-4.2c0,0-117.64-117.64-120.16-127.77
		c-2.52-10.13,86.55-68.85,86.55-68.85S-2433.98,277.87-2373.48,323.25z"/>
	<path class="st10" d="M-2331.47,465.25c0,0,89.07,72.26,122.68,152.93"/>
	<path class="st9" d="M-2260.67,954.95l-18.7-123.34c0,0,75.62-67.22,75.62-284.85C-2203.75,546.76-2116.78,726.22-2260.67,954.95z"
		/>
	<path class="st9" d="M-2377.75,1069.85l-174.71,17.2l-164.84,51.77C-2717.3,1138.82-2554.26,1186.26-2377.75,1069.85z"/>
</g>
<path class="st11" d="M923.65,240.84H747.77h-0.09c-6.88-55.58-54.27-98.59-111.71-98.59H438.24c-59.54,0-110.26,43.35-124.13,98.59
	H142.86c-59.84,0-108.35,48.51-108.35,108.35v451.89c0,59.84,48.51,108.35,108.35,108.35h780.79c59.84,0,108.35-48.51,108.35-108.35
	V349.19C1032,289.35,983.49,240.84,923.65,240.84z"/>
<path class="st12" d="M532.87,345.59c-119.11,0-215.67,96.56-215.67,215.67s96.56,215.67,215.67,215.67s215.67-96.56,215.67-215.67
	S651.98,345.59,532.87,345.59z M529.79,715.32c-86.78,0-157.13-70.35-157.13-157.13s70.35-157.13,157.13-157.13
	s157.13,70.35,157.13,157.13S616.57,715.32,529.79,715.32z"/>
<g>
	<path class="st13" d="M-2329.79,2616.4c0-0.05,0-0.1,0-0.14C-2329.79,2616.31-2329.79,2616.35-2329.79,2616.4z"/>
	<path class="st13" d="M-2329.79,2616.53c0,0,0-0.06,0-0.13C-2329.79,2616.44-2329.79,2616.47-2329.79,2616.53z"/>
	<path class="st13" d="M-2329.79,2616.26C-2329.79,2616.16-2329.79,2616.1-2329.79,2616.26L-2329.79,2616.26z"/>
	<path class="st1" d="M-2266.41,2743.31c-51.57-40.34-63.49-99.89-63.39-126.78l2.55-785.22h-948.38v828.84
		c0,46.31,37.54,83.85,83.85,83.85h925.72C-2266.06,2744-2266.25,2743.43-2266.41,2743.31z"/>
</g>
<rect x="-3140.5" y="1968.98" class="st14" width="693.44" height="79.03"/>
<rect x="-3140.5" y="2104.1" class="st14" width="693.44" height="76.48"/>
<rect x="-3140.5" y="2236.67" class="st14" width="349.27" height="351.82"/>
<rect x="-2740.25" y="2236.67" class="st14" width="293.18" height="81.58"/>
<rect x="-2740.25" y="2381.98" class="st14" width="293.18" height="76.48"/>
<rect x="-2740.25" y="2522.2" class="st14" width="293.18" height="79.03"/>
<path class="st1" d="M-2236.74,2744L-2236.74,2744c-34.1-20.61-73.07-96.95-75.21-132.57v-563.42h150.41v620.78
	C-2165.21,2699.47-2198.88,2733.14-2236.74,2744z"/>
<g>
	<path class="st15" d="M-4457-1979.47c-254.46,0-460.74,206.28-460.74,460.74S-4711.46-1058-4457-1058s460.74-206.28,460.74-460.74
		S-4202.54-1979.47-4457-1979.47z"/>
	<path class="st16" d="M-4457-1979.47c-254.46,0-460.74,206.28-460.74,460.74S-4711.46-1058-4457-1058s460.74-206.28,460.74-460.74
		S-4202.54-1979.47-4457-1979.47z M-4457-1096.56c-235.29,0-426.04-190.74-426.04-426.04s190.74-426.04,426.04-426.04
		s426.04,190.74,426.04,426.04S-4221.71-1096.56-4457-1096.56z"/>
	<circle class="st16" cx="-4457" cy="-1632.47" r="179.28"/>
	<path class="st16" d="M-4216.03-1156.21v-32.88c0-133.08-107.89-240.97-240.97-240.97l0,0c-133.08,0-240.97,107.89-240.97,240.97
		v39.73C-4697.97-1149.35-4453.14-984.53-4216.03-1156.21z"/>
</g>
<g>
	<path class="st1" d="M-4540.56-234.23v-228.36c0-63.72,51.65-115.37,115.37-115.37l0,0c63.72,0,115.37,51.65,115.37,115.37v228.36
		v-1.19h54.71v-224.35c0-95.49-77.41-172.9-172.9-172.9l0,0c-91.06,0-164.88,73.82-164.88,164.88v233.55h52.33V-234.23z"/>
	<path class="st17" d="M-4563.15-178.33h-7.14c-29.56,0-53.52-23.96-53.52-53.52l0,0c0-29.56,23.96-53.52,53.52-53.52h7.14
		c29.56,0,53.52,23.96,53.52,53.52l0,0C-4509.63-202.3-4533.6-178.33-4563.15-178.33z"/>
	<path class="st17" d="M-4282.47-178.33L-4282.47-178.33c-29.56,0-53.52-23.96-53.52-53.52l0,0c0-29.56,23.96-53.52,53.52-53.52l0,0
		c29.56,0,53.52,23.96,53.52,53.52l0,0C-4228.95-202.3-4252.91-178.33-4282.47-178.33z"/>
	<path class="st1" d="M-4027.28,243.96l-56.52-623.92c-1.37-15.14-14.06-26.73-29.26-26.73h-621.87c-15.2,0-27.89,11.59-29.26,26.73
		l-56.52,623.92c-1.56,17.21,11.99,32.04,29.26,32.04h734.91C-4039.27,276-4025.72,261.17-4027.28,243.96z"/>
</g>
</svg>
