<?xml version="1.0" encoding="utf-8"?>
<!-- Generator: Adobe Illustrator 26.0.3, SVG Export Plug-In . SVG Version: 6.00 Build 0)  -->
<svg version="1.1" id="Camada_1" xmlns="http://www.w3.org/2000/svg" xmlns:xlink="http://www.w3.org/1999/xlink" x="0px" y="0px"
	 viewBox="0 0 1080 1080" style="enable-background:new 0 0 1080 1080;" xml:space="preserve">
<style type="text/css">
	.st0{fill:#FFFFFF;stroke:#000000;stroke-width:1.9992;stroke-miterlimit:10;}
</style>
<g>
	<g>
		<path class="st0" d="M844.88,797.8c0-0.04,0-0.08,0-0.11C844.88,797.73,844.88,797.76,844.88,797.8z"/>
		<path class="st0" d="M844.88,797.9c0,0,0-0.05,0-0.1C844.88,797.83,844.88,797.86,844.88,797.9z"/>
		<path class="st0" d="M844.88,797.69C844.88,797.61,844.88,797.57,844.88,797.69L844.88,797.69z"/>
		<path class="st0" d="M894.59,897.32c-40.44-31.64-49.79-78.33-49.71-99.42l2-615.76H103.17v649.97
			c0,36.31,29.44,65.75,65.75,65.75h725.94C894.86,897.86,894.71,897.41,894.59,897.32z M217.68,836.89
			c-31.22,0-56.54-24.63-56.54-55.01V238.12h639.48c-4.08-3.73-2.32,552.9-2.32,552.9s7.72,40.32,13.35,47.41
			c0.08,0.1,0.23,0.46,0.23,0.46L217.68,836.89z"/>
	</g>
	<rect x="209.13" y="290.1" class="st0" width="543.79" height="61.98"/>
	<rect x="209.13" y="396.06" class="st0" width="543.79" height="59.98"/>
	<rect x="209.13" y="500.02" class="st0" width="273.89" height="275.89"/>
	<rect x="523.01" y="500.02" class="st0" width="229.91" height="63.98"/>
	<rect x="523.01" y="613.97" class="st0" width="229.91" height="59.98"/>
	<rect x="523.01" y="723.93" class="st0" width="229.91" height="61.98"/>
	<path class="st0" d="M917.86,897.86L917.86,897.86c-26.74-16.17-57.3-76.03-58.98-103.96V352.07h117.95v486.81
		C973.95,862.94,947.55,889.35,917.86,897.86z"/>
</g>
</svg>
