<?xml version="1.0" encoding="utf-8"?>
<!-- Generator: Adobe Illustrator 26.0.3, SVG Export Plug-In . SVG Version: 6.00 Build 0)  -->
<svg version="1.1" id="Camada_1" xmlns="http://www.w3.org/2000/svg" xmlns:xlink="http://www.w3.org/1999/xlink" x="0px" y="0px"
	 viewBox="0 0 1080 1080" style="enable-background:new 0 0 1080 1080;" xml:space="preserve">
<style type="text/css">
	.st0{fill:#FFFFFF;stroke:#000000;stroke-width:5;stroke-miterlimit:10;}
	.st1{fill:#FFFFFF;stroke:#000000;stroke-width:10;stroke-miterlimit:10;}
	.st2{stroke:#000000;stroke-width:4.605;stroke-miterlimit:10;}
	.st3{fill:#FFFFFF;stroke:#000000;stroke-width:5.5856;stroke-miterlimit:10;}
	.st4{fill:none;stroke:#000000;stroke-width:22.3424;stroke-miterlimit:10;}
	.st5{fill:none;stroke:#000000;stroke-width:22.3424;stroke-miterlimit:10;stroke-dasharray:23.0206,23.0206;}
	.st6{fill:none;stroke:#000000;stroke-width:5.5856;stroke-miterlimit:10;}
	.st7{fill:#FFFFFF;stroke:#000000;stroke-width:20.7183;stroke-miterlimit:10;}
	.st8{fill:none;stroke:#000000;stroke-width:5.1796;stroke-miterlimit:10;}
	.st9{stroke:#000000;stroke-width:20.7183;stroke-miterlimit:10;}
	.st10{fill:none;stroke:#000000;stroke-width:20.7183;stroke-miterlimit:10;}
	.st11{stroke:#000000;stroke-width:1.84;stroke-miterlimit:10;}
	.st12{stroke:#000000;stroke-width:10;stroke-miterlimit:10;}
	.st13{stroke:#000000;stroke-width:2.5494;stroke-miterlimit:10;}
	.st14{fill:#FFFFFF;stroke:#000000;stroke-width:1.9278;stroke-miterlimit:10;}
	.st15{stroke:#000000;stroke-width:1.9278;stroke-miterlimit:10;}
	.st16{fill:none;stroke:#FFFFFF;stroke-width:12;stroke-miterlimit:10;}
</style>
<g>
	<path class="st0" d="M-2396.17-1793.5h-726.67c-60.01,0-108.67,48.65-108.67,108.67v592.67c0,60.02,48.65,108.67,108.67,108.67
		h726.67c60.01,0,108.67-48.65,108.67-108.67v-592.67C-2287.5-1744.85-2336.15-1793.5-2396.17-1793.5z"/>
	<path class="st0" d="M-3063-1659.5L-3063-1659.5c-19.05,0-34.5-15.45-34.5-34.5v-169c0-19.05,15.45-34.5,34.5-34.5l0,0
		c19.05,0,34.5,15.45,34.5,34.5v169C-3028.5-1674.95-3043.95-1659.5-3063-1659.5z"/>
	<path class="st0" d="M-2455-1659.5L-2455-1659.5c-19.05,0-34.5-15.45-34.5-34.5v-169c0-19.05,15.45-34.5,34.5-34.5l0,0
		c19.05,0,34.5,15.45,34.5,34.5v169C-2420.5-1674.95-2435.95-1659.5-2455-1659.5z"/>
	<text transform="matrix(1 0 0 1 -3068.4087 -1439.4414)" style="font-family:'BerlinSansFBDemi-Bold'; font-size:181.2477px;">MATCH</text>
	<text transform="matrix(1 0 0 1 -2943.2688 -1221.9414)" style="font-family:'BerlinSansFBDemi-Bold'; font-size:181.2477px;">DAY</text>
</g>
<g>
	<path class="st1" d="M-2983.59,47L-2983.59,47c173.96,0,314.98-141.02,314.98-314.98l0,0c0-173.96-141.02-314.98-314.98-314.98l0,0
		c-173.96,0-314.98,141.02-314.98,314.98l0,0c0,51.39,12.31,99.91,34.13,142.76c15.22,29.87-41.08,138.66-17.56,162.09
		c23.75,23.66,127.4-38.12,157.69-22.97C-3081.96,35.08-3034.17,47-2983.59,47z"/>
	<g>
		<path class="st2" d="M-2807.68-289.63h-351.82c-24.42,0-44.21-19.79-44.21-44.21l0,0c0-24.42,19.79-44.21,44.21-44.21h351.82
			c24.42,0,44.21,19.79,44.21,44.21l0,0C-2763.47-309.42-2783.27-289.63-2807.68-289.63z"/>
		<path class="st2" d="M-2807.68-157.92h-351.82c-24.42,0-44.21-19.79-44.21-44.21l0,0c0-24.42,19.79-44.21,44.21-44.21h351.82
			c24.42,0,44.21,19.79,44.21,44.21l0,0C-2763.47-177.72-2783.27-157.92-2807.68-157.92z"/>
	</g>
	<path class="st1" d="M-2682.41-241.03L-2682.41-241.03c-173.96,0-314.98-141.02-314.98-314.98l0,0
		c0-173.96,141.02-314.98,314.98-314.98l0,0c173.96,0,314.98,141.02,314.98,314.98l0,0c0,51.39-12.31,99.91-34.13,142.76
		c-15.22,29.87,41.08,138.66,17.56,162.09c-23.75,23.66-127.4-38.12-157.69-22.97C-2584.04-252.95-2631.83-241.03-2682.41-241.03z"
		/>
	<circle class="st2" cx="-2691.16" cy="-427.54" r="23.49"/>
	<path class="st2" d="M-2689.77-595.62c17.04,0,30.85-14.73,30.85-31.77s-13.81-30.85-30.85-30.85s-30.85,13.81-30.85,30.85v-0.81
		c0,14.88-12.06,26.94-26.94,26.94s-26.94-12.06-26.94-26.94v0.81c0-47.05,37.52-85.19,83.81-85.19s83.81,38.14,83.81,85.19
		c0,36.86-23.03,68.25-55.26,80.12v0.01v30.39c0,15.51-12.58,28.09-28.09,28.09l0,0c-15.51,0-28.09-12.58-28.09-28.09v-55.62
		c0-12.77,10.35-23.13,23.13-23.13H-2689.77z"/>
</g>
<g>
	<path class="st3" d="M-4117.42,897.96c-26.18,26.18-21.07,68.14,5.11,94.31c26.18,26.18,68.14,25.7,94.31-0.48l0.53-0.05
		l88.07,88.07c12.13,12.13,12.13,31.81,0,43.94l-548.13,548.13c-12.13,12.13-31.81,12.13-43.94,0l-83.04-83.04
		c0,0,10.61-125.68-102.22-102.22l-98.04-98.04c-12.17-12.17-12.13-31.9,0.08-44.02l547.41-543.27
		c12.15-12.06,31.76-12.02,43.86,0.08l96.53,96.53"/>
	<path class="st3" d="M-3949.23,867.68c-26.18,26.18-21.07,68.14,5.11,94.31c26.18,26.18,68.14,25.7,94.31-0.48l0.53-0.05
		l88.07,88.07c12.13,12.13,12.13,31.81,0,43.94l-548.13,548.13c-12.13,12.13-31.81,12.13-43.94,0l-83.04-83.04
		c0,0,10.61-125.68-102.22-102.22l-98.04-98.04c-12.17-12.17-12.13-31.9,0.08-44.02l547.41-543.27
		c12.15-12.06,31.76-12.02,43.86,0.08l96.53,96.53"/>
	<g>
		<g>
			<line class="st4" x1="-4173.4" y1="858.37" x2="-4165.5" y2="866.27"/>
			<line class="st5" x1="-4149.22" y1="882.55" x2="-3864.36" y2="1167.41"/>
			<line class="st4" x1="-3856.22" y1="1175.55" x2="-3848.32" y2="1183.45"/>
		</g>
	</g>
	<path class="st3" d="M-4213.33,801.31l96.53,96.53c0,0-22.34,131.82,99.42,93.84l88.07,88.07c12.13,12.13,12.13,31.81,0,43.94
		l-548.13,548.13c-12.13,12.13-31.81,12.13-43.94,0l-83.04-83.04c0,0,10.61-125.68-102.22-102.22l-98.04-98.04
		c-12.17-12.17-12.13-31.9,0.08-44.02l547.41-543.27C-4245.04,789.17-4225.43,789.21-4213.33,801.31z"/>
	<g>
		<g>
			<line class="st4" x1="-4353.63" y1="896.72" x2="-4345.73" y2="904.62"/>
			<line class="st5" x1="-4329.45" y1="920.9" x2="-4044.59" y2="1205.77"/>
			<line class="st4" x1="-4036.45" y1="1213.9" x2="-4028.55" y2="1221.8"/>
		</g>
	</g>
	<line class="st6" x1="-3948.7" y1="867.63" x2="-3949.23" y2="867.68"/>
</g>
<g>
	<circle class="st7" cx="-2630.6" cy="695.06" r="452.06"/>
	<line class="st8" x1="-2397.03" y1="413.54" x2="-2397.43" y2="413.57"/>
	<polygon class="st9" points="-2443.77,846.48 -2572.79,993.59 -2752.58,916.34 -2734.66,721.48 -2543.8,678.31 	"/>
	<line class="st10" x1="-2734.8" y1="721.53" x2="-2905.37" y2="555.16"/>
	<line class="st10" x1="-2544.06" y1="678.68" x2="-2460.03" y2="466.09"/>
	<line class="st10" x1="-2444.06" y1="846.73" x2="-2279.37" y2="831.61"/>
	<line class="st10" x1="-2572.63" y1="993.78" x2="-2552.46" y2="1087.05"/>
	<line class="st10" x1="-2907.05" y1="961.85" x2="-2752.44" y2="916.48"/>
	<path class="st9" d="M-2914.02,1047.27l0.25-86.26l-104.94-121.84l-58.07-71.42C-3076.79,767.75-3067.2,922.63-2914.02,1047.27z"/>
	<path class="st10" d="M-3017.13,597.17c0,0-40.39,90.86-20.62,218.52"/>
	<path class="st9" d="M-2918.57,346.57l88.82,48.47c-52.1,35.66-75.62,160.12-75.62,160.12l-110.92,49.76l-13.41-125.48
		C-3029.7,479.44-2982.18,390.9-2918.57,346.57z"/>
	<path class="st10" d="M-2829.75,395.04c0,0,136.96-92.8,252.08-61.71"/>
	<path class="st9" d="M-2373.48,323.25c79.25,59.44,42.01,142.01,42.01,142.01l-126.04-4.2c0,0-117.64-117.64-120.16-127.77
		c-2.52-10.13,86.55-68.85,86.55-68.85S-2433.98,277.87-2373.48,323.25z"/>
	<path class="st10" d="M-2331.47,465.25c0,0,89.07,72.26,122.68,152.93"/>
	<path class="st9" d="M-2260.67,954.95l-18.7-123.34c0,0,75.62-67.22,75.62-284.85C-2203.75,546.76-2116.78,726.22-2260.67,954.95z"
		/>
	<path class="st9" d="M-2377.75,1069.85l-174.71,17.2l-164.84,51.77C-2717.3,1138.82-2554.26,1186.26-2377.75,1069.85z"/>
</g>
<path class="st1" d="M-3917.48,2003.43h-210.07h-0.11c-8.22-66.38-64.83-117.76-133.43-117.76h-236.17
	c-71.12,0-131.7,51.78-148.26,117.76h-204.55c-71.47,0-129.42,57.94-129.42,129.42v539.74c0,71.47,57.94,129.42,129.42,129.42
	h932.59c71.47,0,129.42-57.94,129.42-129.42v-539.74C-3788.07,2061.37-3846.01,2003.43-3917.48,2003.43z"/>
<path class="st11" d="M-4384.24,2128.55c-142.27,0-257.6,115.33-257.6,257.6s115.33,257.6,257.6,257.6s257.6-115.33,257.6-257.6
	C-4126.63,2243.88-4241.97,2128.55-4384.24,2128.55z M-4387.92,2570.16c-103.65,0-187.68-84.03-187.68-187.68
	s84.03-187.68,187.68-187.68s187.68,84.03,187.68,187.68S-4284.26,2570.16-4387.92,2570.16z"/>
<g>
	<path class="st12" d="M-2329.79,2616.4c0-0.05,0-0.1,0-0.14C-2329.79,2616.31-2329.79,2616.35-2329.79,2616.4z"/>
	<path class="st12" d="M-2329.79,2616.53c0,0,0-0.06,0-0.13C-2329.79,2616.44-2329.79,2616.47-2329.79,2616.53z"/>
	<path class="st12" d="M-2329.79,2616.26C-2329.79,2616.16-2329.79,2616.1-2329.79,2616.26L-2329.79,2616.26z"/>
	<path class="st1" d="M-2266.41,2743.31c-51.57-40.34-63.49-99.89-63.39-126.78l2.55-785.22h-948.38v828.84
		c0,46.31,37.54,83.85,83.85,83.85h925.72C-2266.06,2744-2266.25,2743.43-2266.41,2743.31z"/>
</g>
<rect x="-3140.5" y="1968.98" class="st13" width="693.44" height="79.03"/>
<rect x="-3140.5" y="2104.1" class="st13" width="693.44" height="76.48"/>
<rect x="-3140.5" y="2236.67" class="st13" width="349.27" height="351.82"/>
<rect x="-2740.25" y="2236.67" class="st13" width="293.18" height="81.58"/>
<rect x="-2740.25" y="2381.98" class="st13" width="293.18" height="76.48"/>
<rect x="-2740.25" y="2522.2" class="st13" width="293.18" height="79.03"/>
<path class="st1" d="M-2236.74,2744L-2236.74,2744c-34.1-20.61-73.07-96.95-75.21-132.57v-563.42h150.41v620.78
	C-2165.21,2699.47-2198.88,2733.14-2236.74,2744z"/>
<g>
	<path class="st14" d="M-4457-1979.47c-254.46,0-460.74,206.28-460.74,460.74S-4711.46-1058-4457-1058s460.74-206.28,460.74-460.74
		S-4202.54-1979.47-4457-1979.47z"/>
	<path class="st15" d="M-4457-1979.47c-254.46,0-460.74,206.28-460.74,460.74S-4711.46-1058-4457-1058s460.74-206.28,460.74-460.74
		S-4202.54-1979.47-4457-1979.47z M-4457-1096.56c-235.29,0-426.04-190.74-426.04-426.04s190.74-426.04,426.04-426.04
		s426.04,190.74,426.04,426.04S-4221.71-1096.56-4457-1096.56z"/>
	<circle class="st15" cx="-4457" cy="-1632.47" r="179.28"/>
	<path class="st15" d="M-4216.03-1156.21v-32.88c0-133.08-107.89-240.97-240.97-240.97l0,0c-133.08,0-240.97,107.89-240.97,240.97
		v39.73C-4697.97-1149.35-4453.14-984.53-4216.03-1156.21z"/>
</g>
<g>
	<path class="st16" d="M451.44,469.77V241.41c0-63.72,51.65-115.37,115.37-115.37l0,0c63.72,0,115.37,51.65,115.37,115.37v228.36
		v-1.19h54.71V244.23c0-95.49-77.41-172.9-172.9-172.9l0,0c-91.06,0-164.88,73.82-164.88,164.88v233.55L451.44,469.77L451.44,469.77
		z"/>
	<path class="st16" d="M428.85,525.67h-7.14c-29.56,0-53.52-23.96-53.52-53.52l0,0c0-29.56,23.96-53.52,53.52-53.52h7.14
		c29.56,0,53.52,23.96,53.52,53.52l0,0C482.37,501.7,458.4,525.67,428.85,525.67z"/>
	<path class="st16" d="M709.53,525.67L709.53,525.67c-29.56,0-53.52-23.96-53.52-53.52l0,0c0-29.56,23.96-53.52,53.52-53.52l0,0
		c29.56,0,53.52,23.96,53.52,53.52l0,0C763.05,501.7,739.09,525.67,709.53,525.67z"/>
	<path class="st16" d="M964.72,947.96L908.2,324.04c-1.37-15.14-14.06-26.73-29.26-26.73H257.07c-15.2,0-27.89,11.59-29.26,26.73
		l-56.52,623.92c-1.56,17.21,11.99,32.04,29.26,32.04h734.91C952.73,980,966.28,965.17,964.72,947.96z"/>
</g>
</svg>
