<?xml version="1.0" encoding="utf-8"?>
<!-- Generator: Adobe Illustrator 26.0.3, SVG Export Plug-In . SVG Version: 6.00 Build 0)  -->
<svg version="1.1" id="Layer_1" xmlns="http://www.w3.org/2000/svg" xmlns:xlink="http://www.w3.org/1999/xlink" x="0px" y="0px"
	 viewBox="0 0 1080 1080" style="enable-background:new 0 0 1080 1080;" xml:space="preserve">
<style type="text/css">
	.st0{fill:none;stroke:#FFFFFF;stroke-width:5;stroke-miterlimit:10;}
</style>
<g>
	<g>
		<path class="st0" d="M604.21,799.21c0,0,269.73-107.16,304.05-156.83c34.32-49.67-115.2-325.1-141.13-342.57
			s-183.68,69.22-183.68,69.22"/>
		<path class="st0" d="M605.47,806.21c-3.27,0.6-6.6-1.17-7.88-4.38c-1.46-3.65,0.33-7.79,3.99-9.23
			c74.47-29.6,273.68-114.98,300.83-154.27c3.22-4.66,6.06-15.45,1.35-40.38C886.01,504,783.05,319.1,763.15,305.7
			c-13.73-9.29-102.26,28.87-176.28,69.55c-3.43,1.9-7.76,0.65-9.67-2.8c-1.89-3.45-0.63-7.77,2.81-9.66
			c37.88-20.82,163.67-87.35,191.09-68.89c24.57,16.56,128.87,207.42,146.63,301.41c4.58,24.22,3.4,40.94-3.63,51.11
			c-35.13,50.85-296.18,155-307.28,159.4C606.39,806,605.94,806.12,605.47,806.21z"/>
	</g>
	<g>
		<path class="st0" d="M141.97,565.44C218.43,667.19,529.1,784,592.77,815.76s81.43-29.35,78.87-43.35
			c-5.12-28-66.23-45.76-66.23-45.76s124.78,49.52,161.66,13.85c36.88-35.67-12.79-69.99-12.79-69.99L643.5,618.43
			c0,0,127.34,63.52,166.77,41.85c39.44-21.67,20.32-47.11,1.21-72.55c-19.12-25.44-141.34-60.96-141.34-60.96
			s94.22,40.64,124.78,49.52c30.56,8.88,47.11,20.32,69.99-12.79c18.09-26.18-10.23-55.99-43.35-78.87
			c-42.21-29.17-365.45-179.13-555.11-187.86L141.97,565.44z"/>
		<path class="st0" d="M635.38,831.04c-11.65,2.13-26.75,0.59-45.79-8.91c-12.56-6.27-35.1-15.99-63.64-28.3
			c-114.41-49.34-327.36-141.21-389.67-224.12c-1.57-2.1-1.87-4.89-0.76-7.26L260,293.77c1.2-2.61,3.91-4.2,6.78-4.11
			c195.4,9,519.1,161.67,558.83,189.12c19.87,13.73,34.26,27.23,42.77,40.13c14.54,22.04,9.32,38.62,2.39,48.64
			c-16.4,23.74-31.48,27.11-47.34,24.33c10.69,14.74,19.66,29.9,16.3,45.46c-2.43,11.35-10.96,20.89-26.03,29.18
			c-11.7,6.41-29.53,6.46-49.39,3.01c8.54,7.44,21.88,21.81,23.37,39.72c1.07,13.04-4.2,25.28-15.66,36.37
			c-21.01,20.31-64.58,16.73-102.41,8.24c4.58,5.21,7.88,10.96,9.03,17.28c1.94,10.64-4.16,36.83-23.25,51.18
			C650.4,826.07,643.78,829.51,635.38,831.04z M150.25,564.5c63.29,79.07,269.72,168.12,381.34,216.26
			c28.74,12.41,51.45,22.18,64.35,28.63c21.13,10.56,38.24,11.02,50.9,1.55c14.89-11.2,18.69-32.36,17.8-37.24
			c-2.28-12.45-21.78-24.58-40.74-32.76c-10.63-3.58-18.27-6.53-21.11-7.67c-3.53-1.4-5.34-5.32-4.12-8.91
			c1.25-3.6,5.1-5.62,8.72-4.53c2.31,0.68,10.88,3.27,21.32,7.67c41.53,13.75,110.39,30.16,133.4,7.9
			c8.37-8.1,12.09-16.27,11.37-24.98c-1.29-15.63-17.23-29.88-23.26-34.05l-86.1-40.39c-12.04-5.37-20.73-9.63-23.81-11.17
			c-3.5-1.75-4.93-5.97-3.23-9.47c1.7-3.52,5.88-4.99,9.43-3.35l20.91,9.84c42.77,19.12,114.52,45.96,139.4,32.22
			c11.25-6.18,17.46-12.63,18.97-19.7c2.63-12.19-8.89-27.52-20.03-42.34c-1.79-2.39-4.79-4.96-8.76-7.65
			c-1.33-0.42-2.71-0.82-4.1-1.23c-30.63-8.91-121.75-48.16-125.61-49.82c-3.45-1.49-5.15-5.4-3.88-8.94s5.07-5.52,8.68-4.43
			c10.83,3.15,93.64,27.65,130.49,51.25c2.01,0.62,3.96,1.25,5.85,1.87c23.19,7.42,33.74,10.8,50.59-13.6
			c15.56-22.54-14-49.95-41.54-68.98c-37.46-25.89-356.99-175.37-546.63-186.36L150.25,564.5z"/>
	</g>
	<g>
		<path class="st0" d="M795.98,344.64c0,0-103.25-169.19-291.55-91.37c-188.3,77.81-186.95,164.36-184.39,178.36
			s12.79,69.99,91.66,26.64c83.66-45.98,99.19-90.46,99.19-90.46S603.91,481,686.55,379.1"/>
		<path class="st0" d="M374.16,480.32c-12.75,2.33-23.82,1.3-33.1-3.12c-21.81-10.37-26.48-35.9-28.01-44.29
			c-1.88-10.3-12.59-103.05,188.68-186.21c191.84-79.24,299.29,92.49,300.34,94.24c2.04,3.36,0.99,7.73-2.37,9.78
			c-3.32,2.08-7.72,0.99-9.78-2.36c-4.1-6.69-102.25-163.03-282.77-88.51c-194.2,80.25-180.77,166.86-180.1,170.51
			c1.34,7.32,4.89,26.77,20.13,34c13.78,6.55,34.36,2.4,61.11-12.31c79.66-43.77,95.77-86.18,95.91-86.6
			c0.87-2.41,3.65-4.32,5.49-4.61c2.52-0.43,5.09,0.5,6.71,2.47c0.43,0.51,42.99,51.43,93.62,51.24
			c25.66-0.11,49.64-13.54,71.03-39.9c2.47-3.04,6.93-3.52,10.01-1.05c3.05,2.47,3.52,6.95,1.04,10
			c-24.21,29.86-51.8,45.07-82.09,45.17c-44.77,0.14-82.18-32.85-97.37-48.48c-9.52,16.32-35.18,49.99-97.49,84.24
			C400,472.83,386.31,478.1,374.16,480.32z"/>
	</g>
	<g>
		<path class="st0" d="M406.12,680.58l-62.07,94.53c-14.72,22.42-44.42,29.39-67.58,15.85l-5.77-3.37
			c-25.94-15.17-32.93-49.51-14.99-73.61l67.84-91.16c16.62-22.34,48.2-26.97,70.53-10.35l0,0
			C415.49,628.41,420.77,658.28,406.12,680.58z"/>
		<path class="st0" d="M312.24,804.04c-13.08,2.39-27.03,0.28-39.37-6.93l-5.77-3.38c-14.09-8.24-24.05-22.15-27.31-38.15
			c-3.27-16.02,0.46-32.72,10.21-45.83l67.84-91.18c9.17-12.31,22.18-20.39,37.79-22.56c15.2-2.23,30.37,1.6,42.7,10.77
			c24.4,18.16,30.44,52.29,13.72,77.72L350,779.02C341.03,792.68,327.2,801.31,312.24,804.04z M356.14,610.33
			c-4.37,0.8-8.54,2.24-12.38,4.27c-5.64,2.97-10.59,7.19-14.51,12.46l-67.84,91.19c-7.34,9.86-10.14,22.44-7.68,34.49
			c2.44,12.04,9.95,22.51,20.56,28.72l5.77,3.38c19.87,11.63,45.36,5.64,58.04-13.62l62.04-94.53c0.01,0,0.01,0,0.01-0.02
			c12.57-19.12,8.03-44.81-10.33-58.48c-9.29-6.91-20.69-9.78-32.14-8.11C357.17,610.16,356.66,610.24,356.14,610.33z"/>
	</g>
	<g>
		<path class="st0" d="M320.77,609.39l-62.07,94.53c-14.72,22.42-44.42,29.39-67.58,15.85l-5.77-3.37
			c-25.93-15.17-32.93-49.51-15-73.61l67.84-91.16c16.62-22.33,48.2-26.97,70.53-10.35l0,0
			C330.14,557.22,335.42,587.08,320.77,609.39z"/>
		<path class="st0" d="M226.9,732.84c-13.08,2.39-27.03,0.28-39.37-6.93l-5.77-3.38c-14.09-8.24-24.05-22.15-27.32-38.15
			c-3.27-16.02,0.46-32.72,10.22-45.83l67.84-91.18c9.15-12.31,22.18-20.48,37.79-22.56c15.2-2.23,30.37,1.6,42.7,10.77
			c24.4,18.16,30.44,52.29,13.72,77.72l-62.05,94.52C255.69,721.48,241.85,730.11,226.9,732.84z M270.8,539.14
			c-10.8,1.98-20.3,7.88-26.89,16.73l-67.84,91.18c-7.34,9.86-10.14,22.44-7.68,34.49c2.44,12.04,9.95,22.51,20.56,28.72l5.77,3.38
			c19.87,11.63,45.36,5.64,58.04-13.62l62.05-94.53c0.01,0,0.01,0,0.01-0.02c12.57-19.12,8.03-44.81-10.33-58.47
			c-9.29-6.91-20.69-9.78-32.14-8.11C271.83,538.96,271.32,539.04,270.8,539.14z"/>
	</g>
	<g>
		<path class="st0" d="M493.61,710.61l-47.86,93.75c-11.35,22.24-38.13,31.69-60.92,21.5l-5.68-2.54
			c-25.53-11.41-35.48-42.47-21.33-66.59l53.54-91.22c13.12-22.35,41.87-29.83,64.21-16.71l0,0
			C496.99,661.39,504.9,688.49,493.61,710.61z"/>
		<path class="st0" d="M413.64,836.2c-10.38,1.9-21.4,0.77-31.74-3.83l-5.68-2.54c-14-6.26-24.72-18.21-29.41-32.84
			c-4.68-14.61-2.91-30.59,4.86-43.83l53.54-91.21c15.07-25.7,48.24-34.36,73.95-19.27c24.64,14.47,33.76,45.73,20.78,71.17
			l-47.86,93.75C444.15,823.15,429.66,833.27,413.64,836.2z M444.69,650.15c-11,2.01-21.12,8.61-27.2,18.99l-53.54,91.21
			c-5.73,9.76-7.03,21.53-3.58,32.3c3.44,10.77,11.34,19.58,21.66,24.2l5.69,2.53c19.35,8.65,42.06,0.62,51.68-18.25l47.86-93.75
			l0,0c9.57-18.74,2.85-41.77-15.29-52.43C463.43,649.94,453.76,648.49,444.69,650.15z"/>
	</g>
	<g>
		<path class="st0" d="M566.34,735.74l-26.6,83.92c-6.31,19.9-27.1,31.38-47.31,26.11l-5.03-1.31c-22.63-5.9-35.11-30.16-26.75-52
			l31.63-82.61c7.75-20.24,30.44-30.36,50.68-22.61l0,0C562.37,694.67,572.61,715.94,566.34,735.74z"/>
		<path class="st0" d="M510.64,853.43c-6.45,1.18-13.25,1-20-0.77l-5.03-1.31c-12.74-3.32-23.52-11.95-29.53-23.66
			c-6.03-11.71-6.79-25.47-2.09-37.78l31.65-82.61c9.15-23.85,36.01-35.87,59.86-26.71c22.89,8.76,35.02,33.93,27.61,57.3
			l-26.6,83.92C541.17,838.68,527.03,850.44,510.64,853.43z M523.21,692.29c-10.68,1.95-20.13,9.26-24.3,20.11L467.28,795
			c-3.26,8.52-2.73,18.07,1.45,26.18c4.17,8.13,11.63,14.09,20.46,16.41l5.03,1.31c16.58,4.31,33.55-5.09,38.73-21.39l26.6-83.92
			l0,0c5.13-16.2-3.26-33.63-19.14-39.72C534.73,691.71,528.81,691.27,523.21,692.29z"/>
	</g>
	<g>
		<polygon class="st0" points="143.89,584.92 51.37,525.07 166.51,237.31 277.9,280.21 		"/>
		<path class="st0" d="M145.17,591.92c-1.78,0.32-3.61-0.03-5.15-1.02L47.5,531.04c-2.85-1.85-4.01-5.46-2.73-8.63l115.14-287.74
			c1.45-3.61,5.52-5.42,9.16-4l111.39,42.89c1.81,0.7,3.27,2.11,4.01,3.91c0.75,1.79,0.73,3.82-0.05,5.6l-134,304.71
			c-0.84,1.91-2.47,3.35-4.48,3.95C145.69,591.81,145.43,591.87,145.17,591.92z M60.15,522.27l80.59,52.13l127.64-290.23
			l-97.88-37.69L60.15,522.27z"/>
	</g>
	<g>
		<path class="st0" d="M747.81,291.24l155.67-36.86c135.18,127,124.93,362.55,124.93,362.55l-127,32.77
			C909.61,604.63,889.13,461.25,747.81,291.24z"/>
		<path class="st0" d="M902.7,656.7c-2.2,0.4-4.47-0.26-6.12-1.79c-1.79-1.65-2.6-4.09-2.16-6.49
			c6.57-36.12-7.28-178.43-152.08-352.64c-1.57-1.89-2.06-4.46-1.28-6.8c0.79-2.33,2.73-4.1,5.12-4.67l155.66-36.86
			c2-0.58,4.77,0.1,6.51,1.74c136,127.77,127.59,358.29,127.17,368.04c-0.14,3.12-2.3,5.8-5.32,6.58l-127,32.78
			C903.03,656.64,902.86,656.67,902.7,656.7z M760.54,295.54c131.43,161.91,152.43,294.11,149.13,344.68l111.74-28.84
			c0.4-34.94-2.61-235.78-120.06-349.19L760.54,295.54z"/>
	</g>
</g>
</svg>
