<?xml version="1.0" encoding="utf-8"?>
<!-- Generator: Adobe Illustrator 26.0.3, SVG Export Plug-In . SVG Version: 6.00 Build 0)  -->
<svg version="1.1" id="Layer_1" xmlns="http://www.w3.org/2000/svg" xmlns:xlink="http://www.w3.org/1999/xlink" x="0px" y="0px"
	 viewBox="0 0 1080 1080" style="enable-background:new 0 0 1080 1080;" xml:space="preserve">
<style type="text/css">
	.st0{fill:#FFFFFF;}
</style>
<g>
	<g>
		<g>
			<g>
				<g>
					<path class="st0" d="M183,972.3c0-1.1,16.2-2.2,45.9-3.2c4.9-0.1,10.2-0.3,15.9-0.5c5.7-0.3,11.7-0.6,18.1-0.5
						c6.4,1.5,13.1-2.8,20.2-0.5c7.1,0.7,14.5,0,22.2-0.4c7.7-0.5,15.8,0.9,24.1-0.4c8.4-2.9,17,3.2,26-0.4c9-0.8,18.2-0.6,27.8-0.4
						c9.5,2.2,19.4,0,29.5-0.4c10.1,2.7,20.5,1.5,31.1-0.4c10.6,3.7,21.5,3.1,32.6-0.3c11.1-0.1,22.5,1.3,34.1-0.3
						c11.6-0.2,23.4-0.9,35.5-0.3c12.1-2.5,24.3-2.4,36.8-0.3c12.5-2.6,25.2-1.6,38.1-0.2c12.9,1.5,26-2.3,39.2-0.2
						c13.3,0.2,26.7-0.6,40.3-0.2c13.6,1.1,27.4,2.3,41.3-0.1c14-0.7,28.1-1.5,42.3-0.1c14.2-2.8,28.6-1.6,43.1-0.1
						c14.5-0.5,29.2,1.5,43.9,0c14.8,0.4,29.6-1.2,44.6,0l4.7,0.3l2.4,0.1l1.1,0.1l0.2,0.1c0.6,0.1,1.4,0.3,2.2,0.4
						c0.1-0.4,0.1-0.9,0.1-1.4l-0.1-3.3c-0.1-4.3-0.4-8.6-0.9-12.9c-1.8-14.8,0.8-29.4,0.1-43.9c2.6-14.5-0.9-28.9,0.1-43.1
						c-0.2-14.2,1.5-28.3,0.1-42.3c-0.5-14-1-27.7,0.1-41.4c-4.1-13.6,1-27.1,0.2-40.3c1.7-13.3-0.3-26.4,0.2-39.2
						c-0.8-12.9,1.9-25.6,0.2-38.1c0.3-12.5-1.3-24.8,0.3-36.8c-2-12,1.7-23.9,0.3-35.5c0-11.6-0.1-23,0.3-34.1
						c3.2-11.1,0.5-22,0.3-32.6c0.3-10.6-1.8-21,0.4-31.1c0.3-10.1,1.7-19.9,0.4-29.5c-0.5-9.5,4.6-18.8,0.4-27.8
						c-0.8-9,3.2-17.6,0.4-26c-2.6-8.4,0.3-16.4,0.4-24.1c0.2-7.7,0.3-15.1,0.4-22.2c0.7-31.8,1.4-56.8,2.2-73.9
						c0.8-17.1,1.6-26.2,2.4-26.2c0.9,0,1.9,11.2,2.7,32.2c0.9,20.9,1.7,51.4,2.4,90.1c0.1,7.7,2.4,15.8,0.4,24.1
						c0,8.4,1.7,17,0.4,26c2.9,9,0.5,18.2,0.4,27.8c0.1,9.5-0.8,19.4,0.4,29.5c1.7,10.1-0.8,20.5,0.3,31.1
						c-1.8,10.6-1.3,21.5,0.3,32.6c-1.8,11.1,0.4,22.5,0.3,34.1c-2.7,11.6-0.8,23.5,0.3,35.5c1,12.1-0.4,24.3,0.2,36.8
						c-0.5,12.5,0.7,25.2,0.2,38.1c1.3,12.9,1.7,26,0.2,39.2c0.9,13.3,0.2,26.7,0.2,40.3c1.1,13.6-0.1,27.4,0.1,41.4
						c0.6,13.9-2.9,28,0.1,42.3c0.4,14.2-0.5,28.6,0.1,43.1c-0.4,14.5-0.8,29.2,0,43.9c-0.9,4.3-1.3,8.6-1.5,12.9l-0.1,1.6l0,2.3
						v5.6c0,3.7,0.1,7.5,0.2,11.4c-5.3,0.2-10.7,0.4-16.4,0.6l-2.1,0.1l-1.2,0.1l-2.4,0.2l-4.7,0.4c-15,0.8-29.9,0.4-44.6,0
						c-14.8,0.3-29.4,0.1-43.9-0.1c-14.5,0.9-28.9-1.3-43.1-0.1c-14.2,1.3-28.3-1.3-42.3-0.1c-13.9,0.9-27.7,1.3-41.3-0.1
						c-13.6,0-27.1-2.7-40.3-0.2c-13.3,0.6-26.4,3.9-39.2-0.2c-12.9,1-25.6-2-38.1-0.2c-12.5-3-24.8-0.1-36.8-0.3
						c-12.1-0.6-23.9-1.6-35.5-0.3c-11.6,1.4-23-0.8-34.1-0.3c-11.1,1.7-22-2.2-32.6-0.3c-10.6-0.4-21,0.3-31.1-0.4
						c-10.1,4.1-19.9,0-29.5-0.4c-9.5-0.6-18.8,2.7-27.8-0.4c-9,3.1-17.6,0.4-26-0.4c-8.3-0.9-16.4,1.3-24.1-0.4
						c-7.7,2.2-15.1-1.2-22.2-0.4c-7.1-1.4-13.8-0.1-20.2-0.5c-6.4,0.5-12.4,0.3-18.1-0.5c-5.7-0.2-11-0.3-15.9-0.5
						C199.2,974.5,183,973.4,183,972.3z"/>
				</g>
				<g>
					<path class="st0" d="M145.3,953.3c1.1,0,2.2,0,3.2,0h0.5c0.3,0,0.3,0,0.5,0c0.3,0,0,0,0.5,0c-0.7,0,0,0,0.4,0
						c0.5,0-0.9,0,0.4,0c2.9,0-3.2,0,0.4,0c0.8,0,0.6,0,0.4,0c-2.2,0,0,0,0.4,0c-2.7,0-1.5,0,0.3,0c-3.7,0-3.1,0,0.3,0
						c0.1,0-1.3,0,0.3,0c0.2,0,0.9,0,0.3,0c2.5,0,2.4,0,0.3,0c2.6,0,1.6,0,0.2,0c-1.5,0,2.3,0,0.2,0c-0.2,0,0.6,0,0.2,0
						c-1.1,0-2.3,0,0.2,0c0.6,0,1.5,0,0.1,0c2.8,0,1.6,0,0.1,0c0.5,0-1.5,0,0.1,0c-0.4,0,1.2,0,0,0c-0.8,0-1.7,0,0,0
						c1.8,0-0.7,0-0.1,0c-2.6,0,0.9,0-0.1,0c0.3,0-1.5,0-0.1,0c0.5,0,1,0-0.2,0c4.1,0-1,0-0.2,0c-1.7,0,0.3,0-0.2,0
						c0.8,0-1.9,0-0.2,0c-0.3,0,1.3,0-0.3,0c2,0-1.7,0-0.3,0c0,0,0.1,0-0.3,0c-3.2,0-0.5,0-0.3,0c-0.3,0,1.8,0-0.4,0
						c-0.3,0-1.7,0-0.4,0c0.5,0-4.6,0-0.4,0c0.8,0-3.2,0-0.4,0c2.6,0-0.3,0-0.4,0H150C148.6,953.4,147,953.4,145.3,953.3
						c-1.9,0-3.6,0-5.1,0c-0.1,0-2.4,0-0.4,0c0,0-1.7,0-0.4,0c-2.9,0-0.5,0-0.4,0c-0.1,0,0.8,0-0.4,0c-1.7,0,0.8,0-0.3,0
						c1.8,0,1.3,0-0.3,0c1.8,0-0.4,0-0.3,0c2.7,0,0.8,0-0.3,0c-1,0,0.4,0-0.2,0c0.5,0-0.7,0-0.2,0c-1.3,0-1.7,0-0.2,0
						c-0.9,0-0.2,0-0.2,0c-1.1,0,0.1,0-0.1,0c-0.6,0,2.9,0-0.1,0c-0.4,0,0.5,0-0.1,0c0.4,0,0.8,0,0,0c2.9,0,1.1,0,0,0
						c-0.8,0-0.4,0,0,0c-0.3,0-0.1,0,0,0c-0.9,0,1.3,0,0.1,0c-1.3,0,1.3,0,0.1,0c-0.9,0-1.3,0,0.1,0c0,0,2.7,0,0.2,0
						c-0.6,0-3.9,0,0.2,0c-1,0,2,0,0.2,0c3,0,0.2,0,0.2,0c0.6,0,1.6,0,0.3,0c-1.4,0,0.8,0,0.3,0c-1.7,0,2.2,0,0.3,0
						c0.3,0-0.1,0,0.3,0c-4,0,0,0,0.4,0c0.6,0-2.7,0,0.4,0c-3.1,0-0.4,0,0.4,0c0.9,0-1.3,0,0.4,0c-2.2,0,1.2,0,0.5,0
						c0.6,0,0.3,0,0.5,0c0.3,0,0.1,0,0.5,0h0.5C143.1,953.3,144.2,953.3,145.3,953.3z"/>
				</g>
				<g>
					<path class="st0" d="M145.3,897c1.1,0,2.2,0,3.2,0h0.5c0.3,0,0.3,0,0.5,0c0.3,0,0,0,0.5,0c0.3,0,0.2,0,0.4,0c0.2,0-0.2,0,0.4,0
						c0.3,0,0,0,0.4,0c0.4,0,0.3,0,0.4,0c0.4,0,0.3,0,0.4,0c0.3,0,0.2,0,0.3,0c0.2,0,0.1,0,0.3,0c0,0-0.1,0,0.3,0c0.1,0,0,0,0.3,0
						c0.2,0,0.1,0,0.3,0c0.2,0,0.1,0,0.2,0c0.1,0,0,0,0.2,0c0.1,0,0,0,0.2,0c0.1,0,0,0,0.2,0c0,0,0,0,0.1,0c0.1,0,0,0,0.1,0
						c0,0,0,0,0.1,0c-0.4,0,1.2,0,0,0c-0.8,0-1.7,0,0,0c-0.1,0,0,0-0.1,0c-0.1,0,0,0-0.1,0c0,0,0,0-0.1,0c-0.1,0,0,0-0.2,0
						c-0.2,0-0.1,0-0.2,0c-0.3,0-0.1,0-0.2,0c-0.1,0,0,0-0.2,0c-0.1,0,0.1,0-0.3,0c-0.3,0-0.1,0-0.3,0c0,0,0.1,0-0.3,0
						c-0.4,0-0.3,0-0.3,0c-0.1,0,0.1,0-0.4,0c-0.1,0,0,0-0.4,0c0,0,0,0-0.4,0c-0.1,0,0,0-0.4,0c-0.4,0-0.4,0-0.4,0H150
						C148.6,897,147,897,145.3,897c-1.9,0-3.6,0-5.1,0c0,0,0,0-0.4,0c0,0,0,0-0.4,0c-0.4,0-0.4,0-0.4,0c-0.1,0,0.1,0-0.4,0
						c-0.4,0-0.1,0-0.3,0c-0.2,0-0.1,0-0.3,0c-0.3,0-0.3,0-0.3,0c-0.2,0-0.2,0-0.3,0c-0.3,0,0,0-0.2,0c-0.2,0-0.1,0-0.2,0
						c-0.1,0,0,0-0.2,0c-0.2,0-0.2,0-0.2,0c-0.2,0-0.1,0-0.1,0c0,0,0,0-0.1,0c-0.1,0,0,0-0.1,0c0,0,0,0,0,0c2.9,0,1.1,0,0,0
						c-0.8,0-0.4,0,0,0c0,0,0,0,0,0c0.1,0,0,0,0.1,0s0,0,0.1,0c0.1,0,0,0,0.1,0c0,0,0,0,0.2,0c0,0,0,0,0.2,0c0.1,0,0,0,0.2,0
						c0.3,0,0.2,0,0.2,0c0.1,0,0,0,0.3,0c0.3,0,0.2,0,0.3,0c0.2,0,0,0,0.3,0c0.3,0-0.1,0,0.3,0c0.4,0,0.3,0,0.4,0c0.1,0-0.1,0,0.4,0
						c0.4,0,0.3,0,0.4,0c0.3,0-0.1,0,0.4,0c0.5,0,0.3,0,0.5,0c0.6,0,0.3,0,0.5,0c0.3,0,0.1,0,0.5,0h0.5
						C143.1,897,144.2,897,145.3,897z"/>
				</g>
				<g>
					<path class="st0" d="M145.3,145.5c1.1,0,2.2,8.3,3.2,23.5c0.1,2.5,0.3,5.3,0.5,8.2c0.3,2.9,0.6,6,0.5,9.3
						c-1.5,3.3,2.8,6.7,0.5,10.4c-0.7,3.6,0,7.4,0.4,11.4c0.5,4-0.9,8.1,0.4,12.4c2.9,4.3-3.2,8.7,0.4,13.3
						c0.8,4.6,0.6,9.4,0.4,14.2c-2.2,4.9,0,9.9,0.4,15.1c-2.7,5.2-1.5,10.5,0.3,15.9c-3.7,5.4-3.1,11,0.3,16.7
						c0.1,5.7-1.3,11.5,0.3,17.5c0.2,5.9,0.9,12,0.3,18.2c2.5,6.2,2.4,12.5,0.3,18.9c2.6,6.4,1.6,12.9,0.2,19.5
						c-1.5,6.6,2.3,13.3,0.2,20.1c-0.2,6.8,0.6,13.7,0.2,20.7c-1.1,7-2.3,14.1,0.2,21.2c0.6,7.2,1.5,14.4,0.1,21.7
						c2.8,7.3,1.6,14.7,0.1,22.1c0.5,7.4-1.5,15,0.1,22.5c-0.4,7.6,1.2,15.2,0,22.9c-0.8,7.7-1.7,15.3,0,22.9
						c1.8,7.6-0.7,15.1-0.1,22.5c-2.6,7.5,0.9,14.8-0.1,22.1c0.3,7.3-1.5,14.5-0.1,21.7c0.5,7.2,1,14.2-0.2,21.2
						c4.1,7-1,13.9-0.2,20.7c-1.7,6.8,0.3,13.5-0.2,20.1c0.8,6.6-1.9,13.1-0.2,19.5c-0.3,6.4,1.3,12.7-0.3,18.9
						c2,6.2-1.7,12.3-0.3,18.2c0,6,0.1,11.8-0.3,17.5c-3.2,5.7-0.5,11.3-0.3,16.7c-0.3,5.5,1.8,10.8-0.4,15.9
						c-0.3,5.2-1.7,10.2-0.4,15.1c0.5,4.9-4.6,9.6-0.4,14.2c0.8,4.6-3.2,9-0.4,13.3c2.6,4.3-0.3,8.4-0.4,12.4
						c-0.2,4-0.3,7.8-0.4,11.4c-1.4,32.6-3,51.3-4.7,51.3c-1.9,0-3.6-23.1-5.1-62.7c-0.1-4-2.4-8.1-0.4-12.4c0-4.3-1.7-8.7-0.4-13.3
						c-2.9-4.6-0.5-9.3-0.4-14.2c-0.1-4.9,0.8-9.9-0.4-15.1c-1.7-5.2,0.8-10.5-0.3-15.9c1.8-5.4,1.3-11-0.3-16.7
						c1.8-5.7-0.4-11.5-0.3-17.5c2.7-6,0.8-12-0.3-18.2c-1-6.2,0.4-12.5-0.2-18.9c0.5-6.4-0.7-12.9-0.2-19.5
						c-1.3-6.6-1.7-13.3-0.2-20.1c-0.9-6.8-0.2-13.7-0.2-20.7c-1.1-7,0.1-14-0.1-21.2c-0.6-7.2,2.9-14.4-0.1-21.7
						c-0.4-7.3,0.5-14.7-0.1-22.1c0.4-7.4,0.8-14.9,0-22.5c2.9-7.6,1.1-15.2,0-22.9c-0.8-7.7-0.4-15.3,0-22.9
						c-0.3-7.6-0.1-15.1,0-22.5c-0.9-7.4,1.3-14.8,0.1-22.1c-1.3-7.3,1.3-14.5,0.1-21.7c-0.9-7.2-1.3-14.2,0.1-21.2
						c0-7,2.7-13.9,0.2-20.7c-0.6-6.8-3.9-13.5,0.2-20.1c-1-6.6,2-13.1,0.2-19.5c3-6.4,0.2-12.7,0.2-18.9c0.6-6.2,1.6-12.3,0.3-18.2
						c-1.4-6,0.8-11.8,0.3-17.5c-1.7-5.7,2.2-11.3,0.3-16.7c0.4-5.4-0.3-10.8,0.3-15.9c-4-5.2,0-10.2,0.4-15.1
						c0.6-4.9-2.7-9.6,0.4-14.2c-3.1-4.6-0.4-9,0.4-13.3c0.9-4.3-1.3-8.4,0.4-12.4c-2.2-4,1.2-7.8,0.5-11.4
						c1.4-3.6,0.1-7.1,0.5-10.4c-0.5-3.3-0.3-6.4,0.5-9.3c0.2-2.9,0.3-5.6,0.5-8.2C143.1,153.8,144.2,145.5,145.3,145.5z"/>
				</g>
				<g>
					<path class="st0" d="M164.3,107.7c0,1.1,0,2.2,0,3.2v0.5c0,0.3,0,0.3,0,0.5c0,0.3,0,0,0,0.5c0-0.7,0,0,0,0.5c0,0.5,0-1,0,0.4
						c0,2.9,0-3.2,0,0.4c0,0.8,0,0.6,0,0.4c0-2.2,0,0,0,0.4c0-2.7,0-1.5,0,0.3c0-3.7,0-3.1,0,0.3c0,0.1,0-1.3,0,0.3
						c0,0.2,0,0.9,0,0.3c0,2.4,0,2.3,0,0.2c0,2.6,0,1.6,0,0.2c0-1.5,0,2.3,0,0.2c0-0.2,0,0.6,0,0.2c0-1.1,0-2.3,0,0.1
						c0,0.7,0,1.5,0,0.1c0,2.8,0,1.6,0,0.1c0,0.5,0-1.5,0,0c0-0.4,0,1.2,0,0c0-0.8,0-1.7,0,0c0,1.8,0-0.7,0,0c0-2.6,0,0.8,0-0.1
						c0,0.3,0-1.5,0-0.1c0,0.5,0,1,0-0.1c0,4.1,0-1,0-0.2c0-1.7,0,0.2,0-0.2c0,0.8,0-1.9,0-0.2c0-0.3,0,1.3,0-0.2c0,2,0-1.7,0-0.3
						c0,0,0,0.1,0-0.3c0-3.2,0-0.5,0-0.3c0-0.3,0,1.8,0-0.3c0-0.3,0-1.6,0-0.4c0,0.5,0-4.6,0-0.4c0,0.7,0-3.2,0-0.4
						c0,2.6,0-0.3,0-0.4v-0.5C164.2,111,164.2,109.4,164.3,107.7c0-1.9,0-3.6,0-5.1c0-0.1,0-2.4,0-0.4c0,0,0-1.7,0-0.4
						c0-2.9,0-0.5,0-0.4c0-0.1,0,0.8,0-0.4c0-1.7,0,0.8,0-0.3c0,1.8,0,1.3,0-0.3c0,1.8,0-0.4,0-0.3c0,2.7,0,0.8,0-0.3
						c0-1,0,0.4,0-0.3c0,0.5,0-0.7,0-0.2c0-1.3,0-1.7,0-0.2c0-0.9,0-0.2,0-0.2c0-1.1,0,0.1,0-0.1c0-0.6,0,2.9,0-0.1
						c0-0.4,0,0.5,0-0.1c0,0.4,0,0.8,0,0c0,2.9,0,1.1,0,0c0-0.8,0-0.4,0,0c0-0.3,0-0.1,0,0c0-0.9,0,1.3,0,0.1c0-1.2,0,1.3,0,0.1
						c0-0.9,0-1.3,0,0.1c0,0,0,2.7,0,0.2c0-0.6,0-3.9,0,0.2c0-1,0,2,0,0.2c0,3,0,0.2,0,0.3c0,0.6,0,1.6,0,0.3c0-1.4,0,0.8,0,0.3
						c0-1.7,0,2.3,0,0.3c0,0.3,0-0.2,0,0.3c0-4.1,0,0,0,0.4c0,0.6,0-2.7,0,0.4c0-3.1,0-0.4,0,0.4c0,0.9,0-1.3,0,0.4
						c0-2.2,0,1.2,0,0.4c0,0.7,0,0.3,0,0.5c0,0.2,0,0.1,0,0.5v0.5C164.3,105.5,164.3,106.6,164.3,107.7z"/>
				</g>
				<g>
					<path class="st0" d="M220.6,107.7c0,1.1,0,2.2,0,3.2v0.5c0,0.3,0,0.3,0,0.5c0,0.3,0,0,0,0.5c0,0.3,0,0.2,0,0.5
						c0,0.2,0-0.2,0,0.4c0,0.3,0,0,0,0.4c0,0.4,0,0.3,0,0.4c0,0.4,0,0.3,0,0.4c0,0.3,0,0.2,0,0.3c0,0.2,0,0.1,0,0.3c0,0,0-0.1,0,0.3
						c0,0.1,0,0.1,0,0.3c0,0.2,0,0.1,0,0.2c0,0.2,0,0.1,0,0.2c0,0.1,0,0,0,0.2c0,0.1,0,0,0,0.2c0,0.1,0,0,0,0.1c0,0,0,0,0,0.1
						c0,0.1,0,0,0,0.1c0,0,0,0,0,0c0-0.4,0,1.2,0,0c0-0.8,0-1.7,0,0c0-0.1,0,0,0,0c0-0.1,0,0,0-0.1c0,0,0,0,0-0.1c0,0,0,0,0-0.1
						c0-0.2,0-0.1,0-0.2c0-0.3,0-0.1,0-0.2c0-0.1,0,0,0-0.2c0-0.1,0,0.1,0-0.2c0-0.3,0-0.1,0-0.3c0,0,0,0.1,0-0.3c0-0.4,0-0.3,0-0.3
						c0-0.1,0,0.1,0-0.3c0-0.1,0,0,0-0.4c0,0,0,0,0-0.4c0-0.1,0,0,0-0.4c0-0.4,0-0.4,0-0.4v-0.5C220.6,111,220.6,109.4,220.6,107.7
						c0-1.9,0-3.6,0-5.1c0,0,0,0,0-0.4c0,0,0,0,0-0.4c0-0.5,0-0.4,0-0.4c0-0.1,0,0.2,0-0.4c0-0.4,0-0.1,0-0.3c0-0.2,0-0.1,0-0.3
						c0-0.3,0-0.3,0-0.3c0-0.2,0-0.2,0-0.3c0-0.3,0,0,0-0.3c0-0.2,0-0.1,0-0.2c0-0.1,0-0.1,0-0.2c0-0.2,0-0.2,0-0.2
						c0-0.2,0-0.1,0-0.1c0,0,0,0,0-0.1c0-0.1,0,0,0-0.1c0,0,0,0,0,0c0,2.9,0,1.1,0,0c0-0.8,0-0.4,0,0c0,0,0,0,0,0c0,0.1,0,0,0,0.1
						c0,0.1,0,0,0,0.1c0,0.1,0,0,0,0.1c0,0,0,0,0,0.2c0,0,0,0,0,0.2c0,0.1,0,0,0,0.2c0,0.3,0,0.2,0,0.2c0,0.1,0,0.1,0,0.3
						c0,0.3,0,0.2,0,0.3c0,0.2,0,0.1,0,0.3c0,0.3,0-0.2,0,0.3c0,0.4,0,0.3,0,0.4c0,0.1,0-0.1,0,0.4c0,0.4,0,0.3,0,0.4
						c0,0.3,0-0.1,0,0.4c0,0.5,0,0.3,0,0.4c0,0.7,0,0.3,0,0.5c0,0.2,0,0.1,0,0.5v0.5C220.6,105.5,220.6,106.6,220.6,107.7z"/>
				</g>
				<g>
					<path class="st0" d="M934.7,145.5c-1.1,0-2.2-8.3-3.2-23.5c-0.1-1.2-0.2-2.5-0.2-3.8c-0.1-0.9-0.2-1.8-0.2-2.8
						c-0.2-1.2-0.4-2.3-0.5-3.4c-0.7,0-1.4,0-2.1,0c-0.6-0.7-2.2,0-3.2,0.5c-0.3,0.1-0.5,0.3-0.8,0.4c-0.3,0.1-0.4,0.2-0.9,0.2
						c-0.9,0.1-1.8-0.1-2.7-0.7c-3.6-0.7-7.4,0-11.4,0.5c-4,0.5-8.1-1-12.4,0.4c-4.3,2.9-8.7-3.2-13.3,0.4
						c-4.6,0.8-9.3,0.6-14.2,0.4c-4.9-2.2-9.9,0-15.1,0.4c-5.2-2.7-10.5-1.5-15.9,0.3c-5.4-3.7-11-3.1-16.7,0.3
						c-5.7,0.1-11.5-1.3-17.5,0.3c-6,0.2-12,0.9-18.2,0.3c-6.2,2.4-12.5,2.3-18.9,0.2c-6.4,2.6-12.9,1.6-19.5,0.2
						c-6.6-1.5-13.3,2.3-20.1,0.2c-6.8-0.2-13.7,0.6-20.7,0.2c-7-1.1-14.1-2.3-21.2,0.1c-7.2,0.7-14.4,1.5-21.7,0.1
						c-7.3,2.8-14.7,1.6-22.1,0.1c-7.4,0.5-15-1.5-22.5,0c-7.6-0.4-15.2,1.2-22.9,0c-7.7-0.8-15.3-1.7-22.9,0
						c-7.6,1.8-15.1-0.7-22.5,0c-7.4-2.6-14.8,0.8-22.1-0.1c-7.3,0.3-14.5-1.5-21.7-0.1c-7.2,0.5-14.2,1-21.2-0.1
						c-7,4.1-13.9-1-20.7-0.2c-6.8-1.7-13.5,0.2-20.1-0.2c-6.6,0.8-13.1-1.9-19.5-0.2c-6.4-0.3-12.7,1.3-18.9-0.2
						c-6.2,2-12.3-1.7-18.2-0.3c-6,0-11.8,0.1-17.5-0.3c-5.7-3.2-11.3-0.5-16.7-0.3c-5.5-0.3-10.8,1.8-16-0.3
						c-5.2-0.3-10.2-1.6-15.1-0.4c-4.9,0.5-9.6-4.6-14.2-0.4c-4.6,0.7-9-3.2-13.3-0.4c-4.3,2.6-8.4-0.3-12.4-0.4
						c-4-0.2-7.7-0.3-11.4-0.5c-32.6-1.4-51.3-3-51.3-4.7c0-1.9,23.1-3.6,62.7-5.1c4-0.1,8.1-2.4,12.4-0.4c4.3,0,8.7-1.7,13.3-0.4
						c4.6-2.9,9.3-0.5,14.2-0.4c4.9-0.1,9.9,0.8,15.1-0.4c5.2-1.7,10.5,0.8,16-0.3c5.4,1.8,11,1.3,16.7-0.3
						c5.7,1.8,11.5-0.4,17.5-0.3c6,2.7,12,0.8,18.2-0.3c6.2-1,12.5,0.4,18.9-0.3c6.4,0.5,12.9-0.7,19.5-0.2
						c6.6-1.3,13.3-1.7,20.1-0.2c6.8-0.9,13.7-0.2,20.7-0.2c7-1.1,14.1,0.1,21.2-0.1c7.2-0.6,14.4,2.9,21.7-0.1
						c7.3-0.4,14.7,0.5,22.1-0.1c7.4,0.4,15,0.8,22.5,0c7.6,2.9,15.2,1.1,22.9,0c7.7-0.8,15.3-0.4,22.9,0c7.6-0.3,15.1-0.1,22.5,0
						c7.4-0.9,14.8,1.3,22.1,0.1c7.3-1.2,14.5,1.3,21.7,0.1c7.2-0.9,14.2-1.3,21.2,0.1c7,0,13.9,2.7,20.7,0.2
						c6.8-0.6,13.5-3.9,20.1,0.2c6.6-1,13.1,2,19.5,0.2c6.4,3,12.7,0.2,18.9,0.3c6.2,0.6,12.3,1.6,18.2,0.3c6-1.4,11.8,0.8,17.5,0.3
						c5.7-1.7,11.3,2.3,16.7,0.3c5.4,0.4,10.8-0.3,15.9,0.3c5.2-4.1,10.2,0,15.1,0.4c4.9,0.6,9.6-2.7,14.2,0.4
						c4.6-3.1,9-0.4,13.3,0.4c4.3,0.9,8.4-1.3,12.4,0.4c4-2.2,7.8,1.2,11.4,0.4c0.9,0.4,1.8,0.5,2.7,0.6c0.4,0,1.1,0.1,1.7,0.1
						c0.6,0,1.2,0,1.8,0c2.4-0.1,5-0.4,7.1-0.2c1.7-0.2,3.4-0.3,5-0.3c0,2.9-0.2,6-0.7,8.8c-0.1,2-0.2,3.9-0.2,5.8
						c-0.1,1.4-0.2,2.8-0.3,4.1C936.9,137.1,935.8,145.5,934.7,145.5z"/>
				</g>
				<g>
					<path class="st0" d="M934.7,201.8c-1.1,0-2.2,0-3.2,0H931c-0.3,0-0.3,0-0.5,0c-0.3,0,0,0-0.5,0c0.7,0,0,0-0.4,0
						c-0.5,0,1,0-0.4,0c-2.9,0,3.2,0-0.4,0c-0.8,0-0.6,0-0.4,0c2.2,0,0,0-0.4,0c2.7,0,1.5,0-0.3,0c3.7,0,3.1,0-0.3,0
						c-0.1,0,1.3,0-0.3,0c-0.2,0-0.9,0-0.3,0c-2.5,0-2.3,0-0.3,0c-2.6,0-1.6,0-0.2,0c1.5,0-2.3,0-0.2,0c0.2,0-0.6,0-0.2,0
						c1.1,0,2.3,0-0.1,0c-0.7,0-1.5,0-0.1,0c-2.8,0-1.6,0-0.1,0c-0.5,0,1.5,0-0.1,0c0.4,0-1.2,0,0,0c0.8,0,1.7,0,0,0
						c-1.8,0,0.8,0,0.1,0c2.6,0-0.9,0,0.1,0c-0.2,0,1.5,0,0.1,0c-0.5,0-1,0,0.1,0c-4.1,0,1,0,0.2,0c1.7,0-0.3,0,0.2,0
						c-0.8,0,1.9,0,0.2,0c0.3,0-1.3,0,0.3,0c-2,0,1.7,0,0.3,0c0,0-0.1,0,0.3,0c3.2,0,0.5,0,0.3,0c0.3,0-1.8,0,0.4,0
						c0.3,0,1.7,0,0.4,0c-0.5,0,4.6,0,0.4,0c-0.8,0,3.2,0,0.4,0c-2.6,0,0.3,0,0.4,0h0.4C931.4,201.8,933,201.8,934.7,201.8
						c1.9,0,3.6,0,5.1,0c0.1,0,2.4,0,0.4,0c0,0,1.7,0,0.4,0c2.9,0,0.5,0,0.4,0c0.1,0-0.8,0,0.4,0c1.7,0-0.8,0,0.3,0
						c-1.8,0-1.3,0,0.3,0c-1.8,0,0.4,0,0.3,0c-2.7,0-0.8,0,0.3,0c1,0-0.4,0,0.2,0c-0.5,0,0.7,0,0.2,0c1.3,0,1.7,0,0.2,0
						c0.9,0,0.2,0,0.2,0c1.1,0-0.1,0,0.1,0c0.6,0-2.9,0,0.1,0c0.4,0-0.5,0,0.1,0c-0.4,0-0.8,0,0,0c-2.9,0-1.1,0,0,0c0.8,0,0.4,0,0,0
						c0.3,0,0.2,0,0,0c0.9,0-1.3,0-0.1,0c1.2,0-1.4,0-0.1,0c0.8,0,1.3,0-0.1,0c0,0-2.7,0-0.2,0c0.6,0,3.9,0-0.2,0c1,0-2,0-0.2,0
						c-3,0-0.1,0-0.2,0c-0.6,0-1.6,0-0.3,0c1.4,0-0.8,0-0.3,0c1.7,0-2.3,0-0.3,0c-0.3,0,0.1,0-0.3,0c4,0,0,0-0.4,0
						c-0.6,0,2.7,0-0.4,0c3.1,0,0.4,0-0.4,0c-0.9,0,1.3,0-0.4,0c2.2,0-1.2,0-0.5,0c-0.6,0-0.3,0-0.5,0c-0.2,0-0.1,0-0.5,0h-0.5
						C936.9,201.8,935.8,201.8,934.7,201.8z"/>
				</g>
				<g>
					<path class="st0" d="M934.7,258.2c-1.1,0-2.2,0-3.2,0H931c-0.3,0-0.3,0-0.5,0c-0.3,0,0,0-0.5,0c-0.3,0-0.2,0-0.4,0
						c-0.2,0,0.2,0-0.4,0c-0.3,0,0,0-0.4,0c-0.4,0-0.3,0-0.4,0c-0.4,0-0.3,0-0.4,0c-0.3,0-0.2,0-0.3,0c-0.2,0-0.1,0-0.3,0
						c0,0,0.1,0-0.3,0c-0.1,0,0,0-0.3,0c-0.2,0-0.1,0-0.3,0c-0.2,0-0.1,0-0.2,0c-0.1,0,0,0-0.2,0c-0.1,0,0,0-0.2,0c-0.1,0,0,0-0.1,0
						c0,0,0,0-0.1,0c-0.1,0,0,0-0.1,0c0,0,0,0-0.1,0c0.4,0-1.2,0,0,0c0.8,0,1.7,0,0,0c0.1,0,0,0,0.1,0c0.1,0,0,0,0.1,0
						c0,0,0,0,0.1,0c0.1,0,0,0,0.1,0c0.2,0,0.1,0,0.2,0c0.3,0,0.1,0,0.2,0c0.1,0,0,0,0.2,0c0.1,0-0.1,0,0.3,0c0.3,0,0.1,0,0.3,0
						c0,0-0.1,0,0.3,0c0.4,0,0.3,0,0.3,0c0.1,0-0.1,0,0.4,0c0.1,0,0,0,0.4,0c0,0,0,0,0.4,0c0.1,0,0,0,0.4,0c0.4,0,0.4,0,0.4,0h0.4
						C931.4,258.2,933,258.2,934.7,258.2c1.9,0,3.6,0,5.1,0c0,0,0,0,0.4,0c0,0,0,0,0.4,0c0.5,0,0.4,0,0.4,0c0.1,0-0.1,0,0.4,0
						c0.4,0,0.1,0,0.3,0c0.2,0,0.1,0,0.3,0c0.3,0,0.3,0,0.3,0c0.3,0,0.2,0,0.3,0c0.3,0,0,0,0.2,0c0.2,0,0.1,0,0.2,0c0.1,0,0,0,0.2,0
						c0.2,0,0.2,0,0.2,0c0.2,0,0.1,0,0.1,0c0,0,0,0,0.1,0c0.1,0,0,0,0.1,0c0,0,0,0,0,0c-2.9,0-1.1,0,0,0c0.8,0,0.4,0,0,0
						c0,0,0,0,0,0c-0.1,0,0,0-0.1,0c-0.1,0,0,0-0.1,0c-0.1,0,0,0-0.1,0c0,0,0,0-0.2,0c0,0,0,0-0.2,0c-0.1,0,0,0-0.2,0
						c-0.3,0-0.2,0-0.2,0c-0.1,0,0,0-0.3,0c-0.3,0-0.2,0-0.3,0c-0.3,0-0.1,0-0.3,0c-0.3,0,0.1,0-0.3,0c-0.4,0-0.3,0-0.4,0
						c-0.1,0,0.1,0-0.4,0c-0.4,0-0.3,0-0.4,0c-0.3,0,0.1,0-0.4,0c-0.5,0-0.3,0-0.5,0c-0.6,0-0.3,0-0.5,0c-0.2,0-0.1,0-0.5,0h-0.5
						C936.9,258.2,935.8,258.2,934.7,258.2z"/>
				</g>
			</g>
			<g>
				<g>
					<path class="st0" d="M201.7,840.6c1.1,0,2.2,11.2,3.2,31.7c0.2,3.4,0.3,7.1,0.5,11c0.3,3.9,0.6,8.1,0.5,12.5
						c-0.7,2.2-0.1,4.5,0.5,6.8c0.1,0.6,0.3,1.2,0.4,1.8c0.1,0.3,0.1,0.7,0.1,0.8c0,0.2,0.1,0.3,0.1,0.5c0,0.6-0.1,1.2-0.7,2.2
						c-0.3,1.2-0.3,2.5-0.3,3.7c1.9-0.1,4-0.4,5.8-0.7c0.2,0,0.4-0.1,0.5-0.1c0.2,0,0.6,0,0.9,0c0.7,0,1.4,0,2,0
						c1.4,0.1,2.8,0.1,4.2,0.2c2.8,0.1,5.6,0.1,8.5-0.5c5.8-2.9,11.8,3.2,18-0.4c6.2-0.8,12.6-0.6,19.2-0.4c6.6,2.2,13.4,0,20.4-0.4
						c7,2.7,14.2,1.5,21.5-0.3c7.4,3.7,14.9,3.1,22.6-0.3c7.7-0.1,15.6,1.3,23.6-0.3c8-0.3,16.2-0.9,24.6-0.3
						c8.3-2.4,16.9-2.3,25.5-0.2c8.6-2.6,17.4-1.6,26.4-0.2c8.9,1.5,18-2.3,27.2-0.2c9.2,0.2,18.5-0.6,27.9-0.2
						c9.4,1.1,19,2.3,28.6-0.1c9.6-0.7,19.4-1.5,29.3-0.1c9.9-2.8,19.8-1.6,29.9-0.1c10-0.5,20.2,1.5,30.4,0
						c10.2,0.4,20.5-1.2,30.9,0c10.4,0.8,20.7,1.7,30.9,0c10.2-1.8,20.4,0.7,30.4,0c10.1,2.6,20-0.9,29.9,0.1
						c9.9-0.3,19.6,1.5,29.3,0.1c9.6-0.5,19.2-1,28.6,0.1c9.4-4.1,18.7,1,27.9,0.2c9.2,1.7,18.2-0.3,27.2,0.2
						c8.9-0.8,17.7,1.9,26.4,0.2l1.7,0h1.4c0.3,0,0.6,0,0.8-0.1c0.5-0.1,0.9-0.2,1.3-0.3c-0.1-0.5-0.1-0.9,0-1.2
						c0-0.2,0.1-0.4,0.2-0.6l0.2-0.3c0-0.1,0,0,0.1-0.1l0.1-0.4l0.1-0.7c-2-8.3,1.7-16.5,0.3-24.6c0-8-0.1-15.9,0.3-23.6
						c3.2-7.7,0.5-15.2,0.3-22.6c0.3-7.3-1.8-14.5,0.4-21.5c0.3-7,1.6-13.8,0.4-20.4c-0.5-6.6,4.6-13,0.4-19.2
						c-0.8-6.2,3.2-12.2,0.4-18c-2.6-5.8,0.3-11.4,0.4-16.7c0.1-5.3,0.3-10.5,0.4-15.4c1.4-44,3-69.3,4.7-69.3
						c1.9,0,3.6,31.1,5.1,84.6c0.1,5.3,2.4,10.9,0.4,16.7c0,5.8,1.7,11.8,0.4,18c2.9,6.2,0.5,12.6,0.4,19.2
						c0.1,6.6-0.8,13.4,0.4,20.4c1.7,7-0.8,14.2,0.4,21.5c-1.8,7.4-1.3,14.9,0.3,22.6c-1.8,7.7,0.4,15.6,0.3,23.6
						c-2.7,8-0.8,16.2,0.3,24.6l0.1,0.7l0,0.4l0,0.6l0.1,2.6c0.1,1.8,0.1,3.5,0.1,5.3c0,3.5,0,7.1-0.1,10.6
						c-4.1-0.1-8.2-0.1-12.3-0.2c-2,0-4.1,0-6.1,0l-1.1,0l-0.9,0l-1.7,0.1c-8.6-0.5-17.4,0.7-26.4,0.2c-8.9,1.3-18,1.7-27.2,0.2
						c-9.2,0.9-18.5,0.2-27.9,0.2c-9.4,1.1-19-0.1-28.6,0.1c-9.7,0.6-19.4-2.9-29.3,0.1c-9.9,0.4-19.8-0.5-29.9,0.1
						c-10-0.4-20.2-0.8-30.4,0c-10.2-2.9-20.5-1.1-30.9,0c-10.4,0.8-20.7,0.4-30.9,0c-10.2,0.3-20.4,0.1-30.4,0
						c-10.1,0.9-20-1.3-29.9-0.1c-9.9,1.2-19.6-1.4-29.3-0.1c-9.7,0.8-19.2,1.3-28.6-0.1c-9.4,0-18.7-2.7-27.9-0.2
						c-9.2,0.6-18.3,3.9-27.2-0.2c-8.9,1-17.7-2-26.4-0.2c-8.6-3-17.1-0.2-25.5-0.3c-8.3-0.6-16.6-1.6-24.6-0.3
						c-8,1.4-15.9-0.8-23.6-0.3c-7.7,1.7-15.2-2.3-22.6-0.3c-7.4-0.4-14.5,0.3-21.5-0.3c-7,4-13.8,0-20.4-0.4
						c-6.6-0.6-13,2.7-19.2-0.4c-6.2,3.1-12.2,0.4-18-0.4c-2.9-0.4-5.7-0.1-8.5,0.1c-1.4,0.1-2.8,0.2-4.1,0.1c-0.7,0-1.4-0.1-2-0.2
						l-1.1-0.2c-0.5-0.1-1-0.2-1.5-0.3c-2.5,0.7-5.2,0.8-7.6,0.7c-2.4-0.1-4.6-0.4-6.6-0.7c0.4-3.4,0.7-6.4,0.4-9
						c0.7-3.8,0.7-7.3,0.6-9.3c-0.1-2.3-0.3-4.6-0.2-6.8c-0.5-4.4-0.3-8.6,0.5-12.5c0.2-3.9,0.3-7.6,0.5-11
						C199.5,851.8,200.5,840.6,201.7,840.6z"/>
				</g>
				<g>
					<path class="st0" d="M201.7,784.2c1.1,0,2.2,0,3.2,0h0.5c0.3,0,0.3,0,0.5,0c0.3,0,0,0,0.5,0c-0.7,0,0,0,0.4,0
						c0.5,0-0.9,0,0.4,0c2.9,0-3.2,0,0.4,0c0.8,0,0.6,0,0.4,0c-2.2,0,0,0,0.4,0c-2.7,0-1.5,0,0.4,0c-3.7,0-3.1,0,0.3,0
						c0.1,0-1.3,0,0.3,0c0.3,0,0.9,0,0.3,0c2.5,0,2.4,0,0.3,0c2.6,0,1.6,0,0.2,0c-1.5,0,2.3,0,0.2,0c-0.2,0,0.6,0,0.2,0
						c-1.1,0-2.3,0,0.2,0c0.6,0,1.5,0,0.1,0c2.8,0,1.6,0,0.1,0c0.5,0-1.5,0,0.1,0c-0.4,0,1.2,0,0,0c-0.9,0-1.7,0,0,0
						c1.8,0-0.8,0-0.1,0c-2.6,0,0.9,0-0.1,0c0.3,0-1.5,0-0.1,0c0.5,0,1,0-0.2,0c4.1,0-1,0-0.2,0c-1.7,0,0.2,0-0.2,0
						c0.7,0-1.9,0-0.2,0c-0.3,0,1.3,0-0.3,0c2,0-1.7,0-0.3,0c0,0,0.1,0-0.3,0c-3.2,0-0.5,0-0.3,0c-0.3,0,1.8,0-0.4,0
						c-0.3,0-1.6,0-0.4,0c0.5,0-4.6,0-0.4,0c0.8,0-3.2,0-0.4,0c2.6,0-0.3,0-0.4,0h-0.4C205,784.3,203.4,784.3,201.7,784.2
						c-1.9,0-3.6,0-5.1,0c-0.1,0-2.4,0-0.4,0c0,0-1.7,0-0.4,0c-2.9,0-0.5,0-0.4,0c-0.2,0,0.8,0-0.4,0c-1.7,0,0.8,0-0.4,0
						c1.8,0,1.3,0-0.3,0c1.8,0-0.4,0-0.3,0c2.7,0,0.8,0-0.3,0c-1,0,0.4,0-0.3,0c0.5,0-0.7,0-0.2,0c-1.3,0-1.7,0-0.2,0
						c-0.9,0-0.2,0-0.2,0c-1.1,0,0.1,0-0.1,0c-0.6,0,2.9,0-0.1,0c-0.4,0,0.5,0-0.1,0c0.4,0,0.8,0-0.1,0c3,0,1.1,0,0,0
						c-0.8,0-0.4,0,0,0c-0.3,0-0.1,0,0.1,0c-0.9,0,1.3,0,0.1,0c-1.2,0,1.4,0,0.1,0c-0.8,0-1.3,0,0.1,0c0,0,2.7,0,0.2,0
						c-0.6,0-3.9,0,0.2,0c-1,0,2,0,0.2,0c3,0,0.2,0,0.3,0c0.6,0,1.6,0,0.3,0c-1.4,0,0.8,0,0.3,0c-1.7,0,2.3,0,0.3,0
						c0.3,0-0.1,0,0.4,0c-4,0,0,0,0.4,0c0.6,0-2.7,0,0.4,0c-3.1,0-0.4,0,0.4,0c0.9,0-1.3,0,0.4,0c-2.2,0,1.2,0,0.4,0
						c0.6,0,0.3,0,0.5,0c0.2,0,0.1,0,0.5,0h0.5C199.5,784.2,200.5,784.2,201.7,784.2z"/>
				</g>
				<g>
					<path class="st0" d="M201.7,727.9c1.1,0,2.2,0,3.2,0h0.5c0.3,0,0.3,0,0.5,0c0.3,0,0,0,0.5,0c0.3,0,0.2,0,0.4,0
						c0.2,0-0.2,0,0.4,0c0.3,0,0,0,0.4,0c0.4,0,0.3,0,0.4,0c0.4,0,0.3,0,0.4,0c0.3,0,0.2,0,0.4,0c0.2,0,0.1,0,0.3,0c0,0-0.1,0,0.3,0
						c0.1,0,0.1,0,0.3,0c0.2,0,0.1,0,0.3,0c0.2,0,0.1,0,0.2,0c0.1,0,0,0,0.2,0c0.1,0,0,0,0.2,0c0.1,0,0,0,0.2,0c0,0,0,0,0.1,0
						c0.1,0,0,0,0.1,0c0,0,0,0,0.1,0c-0.4,0,1.2,0,0,0c-0.9,0-1.7,0,0,0c-0.1,0,0,0-0.1,0c-0.1,0,0,0-0.1,0c0,0,0,0-0.1,0
						c-0.1,0,0,0-0.2,0c-0.2,0-0.1,0-0.2,0c-0.3,0-0.1,0-0.2,0c-0.1,0,0,0-0.2,0c-0.1,0,0.1,0-0.3,0c-0.2,0-0.1,0-0.3,0
						c0,0,0.1,0-0.3,0c-0.4,0-0.3,0-0.3,0c-0.1,0,0.1,0-0.4,0c-0.1,0,0,0-0.4,0c0,0,0,0-0.4,0c-0.1,0,0,0-0.4,0c-0.4,0-0.4,0-0.4,0
						h-0.4C205,727.9,203.4,727.9,201.7,727.9c-1.9,0-3.6,0-5.1,0c0,0,0,0-0.4,0c0,0,0,0-0.4,0c-0.5,0-0.4,0-0.4,0
						c-0.1,0,0.1,0-0.4,0c-0.4,0-0.1,0-0.4,0c-0.2,0-0.1,0-0.3,0c-0.3,0-0.3,0-0.3,0c-0.2,0-0.2,0-0.3,0c-0.3,0-0.1,0-0.3,0
						c-0.2,0-0.1,0-0.2,0c-0.1,0-0.1,0-0.2,0c-0.2,0-0.2,0-0.2,0c-0.2,0-0.1,0-0.1,0c0,0,0,0-0.1,0c-0.1,0,0,0-0.1,0c0,0,0,0-0.1,0
						c3,0,1.1,0,0,0c-0.8,0-0.4,0,0,0c0,0,0,0,0.1,0c0.1,0,0,0,0.1,0c0.1,0,0,0,0.1,0c0.1,0,0,0,0.1,0c0,0,0,0,0.2,0c0,0,0,0,0.2,0
						c0.1,0,0,0,0.2,0c0.3,0,0.2,0,0.2,0c0.1,0,0.1,0,0.3,0c0.3,0,0.2,0,0.3,0c0.3,0,0,0,0.3,0c0.3,0-0.1,0,0.4,0c0.4,0,0.3,0,0.4,0
						c0.1,0-0.1,0,0.4,0c0.4,0,0.3,0,0.4,0c0.3,0-0.1,0,0.4,0c0.4,0,0.3,0,0.4,0c0.6,0,0.3,0,0.5,0c0.2,0,0.1,0,0.5,0h0.5
						C199.5,727.9,200.5,727.9,201.7,727.9z"/>
				</g>
				<g>
					<path class="st0" d="M389.7,164.1c0,1.1-8.3,2.2-23.5,3.2c-2.5,0.1-5.3,0.3-8.2,0.5c-2.9,0.3-6,0.6-9.3,0.5
						c-3.3-1.5-6.7,2.8-10.4,0.5c-3.6-0.7-7.4-0.1-11.4,0.4c-4,0.5-8.1-0.9-12.4,0.4c-4.3,2.9-8.7-3.2-13.3,0.4
						c-4.6,0.8-9.3,0.6-14.2,0.4c-4.9-2.2-9.9,0-15.1,0.4c-5.2-2.7-10.5-1.5-16,0.3c-5.4-3.7-11-3.1-16.7,0.3
						c-5.7,0.1-11.5-1.3-17.5,0.3c-3,0.1-6,0.3-9,0.5c-0.5,0-0.4,0-0.5,0l-0.3,0c-0.2,0-0.4,0-0.5,0c-0.4,0-0.8-0.1-1.3-0.3
						c0,0.2,0.1,0.4,0.2,0.6c0.9,1.5,1.3,1.7,1.2,2c0,0.1-0.1,0.1-0.1,0.2c-0.1,0.7-0.2,1.4-0.3,2.2c-0.3,1.4-0.6,2.9-1.1,4.3
						c2.6,6.4,1.6,12.9,0.2,19.5c-1.5,6.6,2.3,13.3,0.2,20.1c-0.2,6.8,0.6,13.7,0.2,20.7c-1.1,7-2.3,14.1,0.2,21.2
						c0.6,7.2,1.5,14.4,0.1,21.7c2.8,7.3,1.6,14.7,0.1,22.1c0.5,7.4-1.5,14.9,0.1,22.5c-0.4,7.6,1.2,15.2,0,22.9
						c-0.9,7.7-1.7,15.3,0,22.9c1.8,7.6-0.8,15.1-0.1,22.5c-2.6,7.4,0.9,14.8-0.1,22.1c0.3,7.3-1.5,14.5-0.1,21.7
						c0.5,7.2,1,14.2-0.2,21.2c4.1,7-1,13.9-0.2,20.7c-1.7,6.8,0.2,13.5-0.2,20.1c0.7,6.6-1.9,13.1-0.2,19.5
						c-0.3,6.4,1.3,12.7-0.3,18.9c2,6.2-1.7,12.3-0.3,18.2c0,6,0.1,11.8-0.3,17.5c-3.2,5.7-0.5,11.3-0.3,16.7
						c-0.3,5.4,1.8,10.8-0.4,15.9c-0.3,5.2-1.6,10.2-0.4,15.1c0.5,4.9-4.6,9.6-0.4,14.2c0.8,4.6-3.2,9-0.4,13.3
						c2.6,4.3-0.3,8.4-0.4,12.4c-0.1,4-0.3,7.8-0.4,11.4c-1.4,32.6-3,51.3-4.7,51.3c-1.9,0-3.6-23.1-5.1-62.7
						c-0.1-4-2.4-8.1-0.4-12.4c0-4.3-1.7-8.7-0.4-13.3c-2.9-4.6-0.5-9.3-0.4-14.2c-0.2-4.9,0.8-9.9-0.4-15.1
						c-1.7-5.2,0.8-10.5-0.4-15.9c1.8-5.4,1.3-11-0.3-16.7c1.8-5.7-0.4-11.5-0.3-17.5c2.7-6,0.8-12-0.3-18.2
						c-1-6.2,0.4-12.5-0.3-18.9c0.5-6.4-0.7-12.9-0.2-19.5c-1.3-6.6-1.7-13.3-0.2-20.1c-0.9-6.8-0.2-13.7-0.2-20.7
						c-1.1-7,0.1-14.1-0.1-21.2c-0.6-7.2,2.9-14.4-0.1-21.7c-0.4-7.3,0.5-14.7-0.1-22.1c0.4-7.4,0.8-15-0.1-22.5
						c3-7.6,1.1-15.2,0-22.9c-0.8-7.7-0.4-15.3,0-22.9c-0.3-7.6-0.1-15.1,0.1-22.5c-0.9-7.4,1.3-14.8,0.1-22.1
						c-1.2-7.3,1.4-14.5,0.1-21.7c-0.8-7.2-1.3-14.2,0.1-21.2c0-7,2.7-13.9,0.2-20.7c-0.6-6.8-3.9-13.5,0.2-20.1
						c-1-6.6,2-13.1,0.2-19.5c0.7-1.4,1.1-2.9,1.2-4.3c0.1-0.7,0.1-1.4,0.1-2.2c0-1.2,0-2.4-0.1-3.6c-0.2-4.8-0.8-10-1-15.2
						c1,0,2,0,3.1,0c2.8,0.2,5.6,0.3,8.3,0.5c1.3,0.1,2.7,0.1,4,0.2c1.2,0.1,2.4,0.1,3.6,0.2c3,0.2,6,0.1,9-0.6
						c6-1.4,11.8,0.8,17.5,0.3c5.7-1.7,11.3,2.2,16.7,0.3c5.5,0.4,10.8-0.3,16,0.3c5.2-4,10.2,0,15.1,0.4c4.9,0.6,9.6-2.7,14.2,0.4
						c4.6-3.1,9-0.4,13.3,0.4c4.3,0.9,8.4-1.3,12.4,0.4c4-2.2,7.7,1.2,11.4,0.5c3.6,1.4,7.1,0.1,10.4,0.5c3.3-0.5,6.4-0.3,9.3,0.5
						c2.9,0.2,5.6,0.3,8.2,0.5C381.4,161.9,389.7,163,389.7,164.1z"/>
				</g>
				<g>
					<path class="st0" d="M446.1,164.1c0,1.1,0,2.2,0,3.2v0.5c0,0.3,0,0.3,0,0.5c0,0.3,0,0,0,0.5c0-0.7,0-0.1,0,0.4
						c0,0.5,0-0.9,0,0.4c0,2.9,0-3.2,0,0.4c0,0.8,0,0.6,0,0.4c0-2.2,0,0,0,0.4c0-2.7,0-1.5,0,0.3c0-3.7,0-3.1,0,0.3
						c0,0.1,0-1.3,0,0.3c0,0.2,0,0.9,0,0.3c0,2.5,0,2.4,0,0.3c0,2.6,0,1.6,0,0.2c0-1.5,0,2.3,0,0.2c0-0.2,0,0.6,0,0.2
						c0-1.1,0-2.3,0,0.1c0,0.7,0,1.5,0,0.1c0,2.8,0,1.6,0,0.1c0,0.5,0-1.5,0,0c0-0.4,0,1.2,0,0c0-0.8,0-1.7,0,0c0,1.8,0-0.7,0,0
						c0-2.6,0,0.9,0-0.1c0,0.3,0-1.5,0-0.1c0,0.5,0,1,0-0.1c0,4.1,0-1,0-0.2c0-1.7,0,0.3,0-0.2c0,0.8,0-1.9,0-0.2c0-0.3,0,1.3,0-0.3
						c0,2,0-1.7,0-0.3c0,0,0,0.1,0-0.3c0-3.2,0-0.5,0-0.3c0-0.3,0,1.8,0-0.3c0-0.3,0-1.7,0-0.4c0,0.5,0-4.6,0-0.4c0,0.7,0-3.2,0-0.4
						c0,2.6,0-0.3,0-0.4v-0.4C446,167.4,446,165.8,446.1,164.1c0-1.9,0-3.6,0-5.1c0-0.1,0-2.4,0-0.4c0,0,0-1.7,0-0.4
						c0-2.9,0-0.5,0-0.4c0-0.1,0,0.8,0-0.4c0-1.7,0,0.8,0-0.3c0,1.8,0,1.3,0-0.3c0,1.8,0-0.4,0-0.3c0,2.7,0,0.8,0-0.3
						c0-1,0,0.4,0-0.2c0,0.5,0-0.7,0-0.2c0-1.3,0-1.7,0-0.2c0-0.9,0-0.2,0-0.2c0-1.1,0,0.1,0-0.1c0-0.6,0,2.9,0-0.1
						c0-0.4,0,0.5,0-0.1c0,0.4,0,0.8,0,0c0,2.9,0,1.1,0,0c0-0.8,0-0.4,0,0c0-0.3,0-0.1,0,0c0-0.9,0,1.3,0,0.1c0-1.3,0,1.3,0,0.1
						c0-0.9,0-1.3,0,0.1c0,0,0,2.7,0,0.2c0-0.6,0-3.9,0,0.2c0-1,0,2,0,0.2c0,3,0,0.2,0,0.2c0,0.6,0,1.6,0,0.3c0-1.4,0,0.8,0,0.3
						c0-1.7,0,2.2,0,0.3c0,0.3,0-0.1,0,0.3c0-4,0,0,0,0.4c0,0.6,0-2.7,0,0.4c0-3.1,0-0.4,0,0.4c0,0.9,0-1.3,0,0.4c0-2.2,0,1.2,0,0.5
						c0,0.6,0,0.3,0,0.5c0,0.2,0,0.1,0,0.5v0.5C446.1,161.9,446.1,163,446.1,164.1z"/>
				</g>
				<g>
					<path class="st0" d="M502.4,164.1c0,1.1,0,2.2,0,3.2v0.5c0,0.3,0,0.3,0,0.5c0,0.3,0,0,0,0.5c0,0.3,0,0.2,0,0.4
						c0,0.2,0-0.2,0,0.4c0,0.3,0,0,0,0.4c0,0.4,0,0.3,0,0.4c0,0.4,0,0.3,0,0.4c0,0.3,0,0.2,0,0.3c0,0.2,0,0.1,0,0.3c0,0,0-0.1,0,0.3
						c0,0.1,0,0,0,0.3c0,0.2,0,0.1,0,0.3c0,0.2,0,0.1,0,0.2c0,0.1,0,0,0,0.2c0,0.1,0,0,0,0.2c0,0.1,0,0,0,0.1c0,0,0,0,0,0.1
						c0,0.1,0,0,0,0.1c0,0,0,0,0,0c0-0.4,0,1.2,0,0c0-0.8,0-1.7,0,0c0,0,0,0,0,0c0-0.1,0,0,0-0.1c0,0,0,0,0-0.1c0-0.1,0,0,0-0.1
						c0-0.2,0-0.1,0-0.2c0-0.3,0-0.1,0-0.2c0-0.1,0,0,0-0.2c0-0.1,0,0.1,0-0.3c0-0.3,0-0.1,0-0.3c0,0,0,0.1,0-0.3c0-0.4,0-0.3,0-0.3
						c0-0.1,0,0.1,0-0.3c0-0.1,0,0,0-0.4c0,0,0,0,0-0.4c0-0.1,0,0,0-0.4c0-0.4,0-0.4,0-0.4v-0.4
						C502.4,167.4,502.4,165.8,502.4,164.1c0-1.9,0-3.6,0-5.1c0,0,0,0,0-0.4c0,0,0,0,0-0.4c0-0.5,0-0.4,0-0.4c0-0.1,0,0.1,0-0.4
						c0-0.4,0-0.1,0-0.3c0-0.2,0-0.1,0-0.3c0-0.3,0-0.3,0-0.3c0-0.3,0-0.2,0-0.3c0-0.3,0,0,0-0.2c0-0.2,0-0.1,0-0.2c0-0.1,0,0,0-0.2
						c0-0.2,0-0.2,0-0.2c0-0.2,0-0.1,0-0.1c0,0,0,0,0-0.1c0-0.1,0,0,0-0.1c0,0,0,0,0,0c0,2.9,0,1.1,0,0c0-0.8,0-0.4,0,0c0,0,0,0,0,0
						c0,0.1,0,0,0,0.1c0,0.1,0,0,0,0.1c0,0.1,0,0,0,0.1c0,0,0,0,0,0.2c0,0,0,0,0,0.2c0,0.1,0,0,0,0.2c0,0.3,0,0.2,0,0.2
						c0,0.1,0,0,0,0.3c0,0.3,0,0.2,0,0.3c0,0.2,0,0,0,0.3c0,0.3,0-0.1,0,0.3c0,0.4,0,0.3,0,0.4c0,0.1,0-0.1,0,0.4c0,0.4,0,0.3,0,0.4
						c0,0.3,0-0.1,0,0.4c0,0.5,0,0.3,0,0.5c0,0.6,0,0.3,0,0.5c0,0.2,0,0.1,0,0.5v0.5C502.4,161.9,502.4,163,502.4,164.1z"/>
				</g>
				<g>
					<path class="st0" d="M878.3,540c-1.1,0-2.2-8.3-3.2-23.5c-0.2-2.5-0.3-5.3-0.5-8.2c-0.3-2.9-0.6-6-0.5-9.3
						c1.5-3.3-2.8-6.7-0.5-10.4c0.7-3.6,0-7.4-0.4-11.4c-0.5-4,0.9-8.1-0.4-12.4c-2.9-4.3,3.2-8.7-0.4-13.3
						c-0.8-4.6-0.6-9.3-0.4-14.2c2.2-4.9,0-9.9-0.4-15.1c2.7-5.2,1.5-10.5-0.4-15.9c3.7-5.4,3.1-11-0.3-16.7
						c-0.1-5.7,1.3-11.5-0.3-17.5c-0.2-5.9-0.9-12-0.3-18.2c-2.5-6.2-2.4-12.5-0.3-18.9c-2.6-6.4-1.6-12.9-0.2-19.5
						c1.5-6.6-2.3-13.3-0.2-20.1c0.2-6.8-0.6-13.7-0.2-20.7c1.1-7,2.3-14.1-0.2-21.2c-0.6-7.2-1.5-14.4-0.1-21.7
						c-2.8-7.3-1.6-14.7-0.1-22.1c-0.5-7.4,1.5-14.9,0-22.5c0.2-3.8-0.1-7.6-0.3-11.4l0-0.7c0-0.2,0-0.2,0-0.2l0,0l-0.1-0.1
						c0-0.1,0-0.2,0-0.3c0-0.2,0.2-0.5,0.4-1l0,0c-0.1-0.2-0.2-0.4-0.5-0.6c-0.1-0.1-0.3-0.2-0.5-0.2l-0.3-0.1l-0.1,0c0,0,0,0-0.2,0
						l-0.7,0c-3.8-0.1-7.6,0.1-11.4,0.9c-7.6,1.8-15.1-0.7-22.5,0c-7.4-2.6-14.8,0.9-22.1-0.1c-7.3,0.3-14.5-1.5-21.7-0.1
						c-7.2,0.5-14.2,1-21.2-0.1c-7,4.1-13.9-1-20.7-0.2c-6.8-1.7-13.5,0.3-20.1-0.2c-6.6,0.8-13.1-1.9-19.5-0.2
						c-6.4-0.3-12.7,1.3-18.9-0.3c-6.2,2-12.3-1.7-18.2-0.3c-6,0-11.8,0.1-17.5-0.3c-5.7-3.2-11.3-0.5-16.7-0.3
						c-5.4-0.3-10.8,1.8-15.9-0.3c-5.2-0.3-10.2-1.7-15.1-0.4c-4.9,0.5-9.6-4.6-14.2-0.4c-4.6,0.7-9-3.2-13.3-0.4
						c-4.3,2.6-8.4-0.3-12.4-0.4c-4-0.2-7.7-0.3-11.4-0.4c-32.6-1.4-51.3-3-51.3-4.7c0-1.9,23.1-3.6,62.7-5.1
						c4-0.1,8.1-2.4,12.4-0.4c4.3,0,8.7-1.7,13.3-0.4c4.6-2.9,9.3-0.5,14.2-0.4c4.9-0.1,9.9,0.8,15.1-0.4c5.2-1.7,10.5,0.8,15.9-0.3
						c5.4,1.8,11,1.3,16.7-0.3c5.7,1.8,11.5-0.4,17.5-0.3c6,2.7,12,0.8,18.2-0.3c6.2-1,12.5,0.4,18.9-0.2c6.4,0.5,12.9-0.7,19.5-0.2
						c6.6-1.3,13.3-1.7,20.1-0.2c6.8-0.9,13.7-0.2,20.7-0.2c7-1.1,14.1,0.1,21.2-0.1c7.1-0.6,14.4,2.9,21.7-0.1
						c7.3-0.4,14.7,0.5,22.1-0.1c7.4,0.4,15,0.8,22.5,0c3.8,1.5,7.6,1.8,11.4,1.5c1.5-0.1,2.9-0.2,4.4-0.3c1.7-0.1,3.5-0.3,5.2-0.4
						c3.7-0.3,7.5-0.6,11.2-0.9l0,0c0.2,3.4,0.3,7,0.4,10.6l0.1,5.5l0,4.7c-0.1,3.8-0.3,7.6-0.5,11.4c0.3,7.6,0.1,15.1-0.1,22.5
						c0.9,7.4-1.3,14.8-0.1,22.1c1.2,7.3-1.3,14.5-0.1,21.7c0.9,7.2,1.3,14.2-0.1,21.2c0,7-2.7,13.9-0.2,20.7
						c0.6,6.8,3.9,13.5-0.2,20.1c1,6.6-2,13.1-0.2,19.5c-3,6.4-0.2,12.7-0.3,18.9c-0.6,6.2-1.6,12.3-0.3,18.2
						c1.4,6-0.8,11.8-0.3,17.5c1.7,5.7-2.3,11.3-0.3,16.7c-0.4,5.5,0.3,10.8-0.4,15.9c4.1,5.2,0,10.2-0.4,15.1
						c-0.6,4.9,2.7,9.6-0.4,14.2c3.1,4.6,0.4,9-0.4,13.3c-0.9,4.3,1.3,8.4-0.4,12.4c2.2,4-1.2,7.7-0.4,11.4
						c-1.4,3.6-0.1,7.1-0.5,10.4c0.5,3.3,0.3,6.4-0.5,9.3c-0.2,2.9-0.3,5.6-0.5,8.2C880.5,531.7,879.5,540,878.3,540z"/>
				</g>
				<g>
					<path class="st0" d="M878.3,596.4c-1.1,0-2.2,0-3.2,0h-0.5c-0.3,0-0.3,0-0.5,0c-0.3,0,0,0-0.5,0c0.7,0,0,0-0.4,0
						c-0.5,0,0.9,0-0.4,0c-2.9,0,3.2,0-0.4,0c-0.8,0-0.6,0-0.4,0c2.2,0,0,0-0.4,0c2.7,0,1.5,0-0.4,0c3.7,0,3.1,0-0.3,0
						c-0.1,0,1.3,0-0.3,0c-0.2,0-0.9,0-0.3,0c-2.5,0-2.4,0-0.3,0c-2.6,0-1.6,0-0.2,0c1.5,0-2.3,0-0.2,0c0.2,0-0.6,0-0.2,0
						c1.1,0,2.3,0-0.2,0c-0.6,0-1.5,0-0.1,0c-2.8,0-1.6,0-0.1,0c-0.5,0,1.5,0,0,0c0.4,0-1.2,0,0,0c0.9,0,1.7,0,0,0c-1.8,0,0.7,0,0,0
						c2.6,0-0.9,0,0.1,0c-0.3,0,1.5,0,0.1,0c-0.5,0-1,0,0.2,0c-4.1,0,1,0,0.2,0c1.7,0-0.2,0,0.2,0c-0.7,0,1.9,0,0.2,0
						c0.3,0-1.3,0,0.3,0c-2,0,1.7,0,0.3,0c0,0-0.1,0,0.3,0c3.2,0,0.5,0,0.3,0c0.3,0-1.8,0,0.4,0c0.3,0,1.6,0,0.4,0
						c-0.5,0,4.6,0,0.4,0c-0.8,0,3.2,0,0.4,0c-2.6,0,0.3,0,0.4,0h0.4C875,596.4,876.6,596.4,878.3,596.4c1.9,0,3.6,0,5.1,0
						c0.1,0,2.4,0,0.4,0c0,0,1.7,0,0.4,0c2.9,0,0.5,0,0.4,0c0.1,0-0.8,0,0.4,0c1.7,0-0.8,0,0.4,0c-1.8,0-1.3,0,0.3,0
						c-1.8,0,0.4,0,0.3,0c-2.7,0-0.8,0,0.3,0c1,0-0.4,0,0.3,0c-0.5,0,0.7,0,0.2,0c1.3,0,1.7,0,0.2,0c0.9,0,0.2,0,0.2,0
						c1.1,0-0.1,0,0.1,0c0.6,0-2.9,0,0.1,0c0.4,0-0.5,0,0.1,0c-0.4,0-0.8,0,0.1,0c-3,0-1.1,0,0,0c0.8,0,0.4,0,0,0c0.3,0,0.1,0-0.1,0
						c0.9,0-1.3,0-0.1,0c1.2,0-1.3,0-0.1,0c0.9,0,1.3,0-0.1,0c0,0-2.7,0-0.2,0c0.6,0,3.9,0-0.2,0c1,0-2,0-0.2,0c-3,0-0.2,0-0.3,0
						c-0.6,0-1.6,0-0.3,0c1.4,0-0.8,0-0.3,0c1.7,0-2.3,0-0.3,0c-0.3,0,0.1,0-0.4,0c4.1,0,0,0-0.4,0c-0.6,0,2.7,0-0.4,0
						c3.1,0,0.4,0-0.4,0c-0.9,0,1.3,0-0.4,0c2.2,0-1.2,0-0.4,0c-0.6,0-0.3,0-0.5,0c-0.2,0-0.1,0-0.5,0h-0.5
						C880.5,596.4,879.5,596.4,878.3,596.4z"/>
				</g>
				<g>
					<path class="st0" d="M878.3,652.7c-1.1,0-2.2,0-3.2,0h-0.5c-0.3,0-0.3,0-0.5,0c-0.3,0,0,0-0.5,0c-0.3,0-0.2,0-0.4,0
						c-0.2,0,0.2,0-0.4,0c-0.3,0,0,0-0.4,0c-0.4,0-0.3,0-0.4,0c-0.4,0-0.3,0-0.4,0c-0.3,0-0.2,0-0.4,0c-0.2,0-0.1,0-0.3,0
						c0,0,0.1,0-0.3,0c-0.1,0-0.1,0-0.3,0c-0.2,0-0.1,0-0.3,0c-0.2,0-0.1,0-0.2,0c-0.1,0,0,0-0.2,0c-0.1,0,0,0-0.2,0
						c-0.1,0,0,0-0.2,0c0,0,0,0-0.1,0c-0.1,0,0,0-0.1,0c0,0,0,0,0,0c0.4,0-1.2,0,0,0c0.9,0,1.7,0,0,0c0.1,0,0,0,0,0
						c0.1,0,0.1,0,0.1,0c0,0,0,0,0.1,0c0.1,0,0,0,0.2,0c0.2,0,0.1,0,0.2,0c0.3,0,0.1,0,0.2,0c0.1,0,0,0,0.2,0c0.1,0-0.1,0,0.3,0
						c0.3,0,0.1,0,0.3,0c0,0-0.1,0,0.3,0c0.4,0,0.3,0,0.3,0c0.1,0-0.1,0,0.4,0c0.1,0,0,0,0.4,0c0,0,0,0,0.4,0c0.1,0,0,0,0.4,0
						c0.4,0,0.4,0,0.4,0h0.4C875,652.7,876.6,652.7,878.3,652.7c1.9,0,3.6,0,5.1,0c0,0,0,0,0.4,0c0,0,0,0,0.4,0c0.5,0,0.4,0,0.4,0
						c0.1,0-0.2,0,0.4,0c0.4,0,0.1,0,0.4,0c0.2,0,0.1,0,0.3,0c0.3,0,0.3,0,0.3,0c0.2,0,0.2,0,0.3,0c0.3,0,0.1,0,0.3,0
						c0.2,0,0.1,0,0.2,0c0.1,0,0.1,0,0.2,0c0.2,0,0.2,0,0.2,0c0.2,0,0.1,0,0.1,0c0,0,0,0,0.1,0c0.1,0,0,0,0.1,0c0,0,0,0,0.1,0
						c-3,0-1.1,0,0,0c0.8,0,0.4,0,0,0c0,0,0,0-0.1,0c-0.1,0,0,0-0.1,0c-0.1,0,0,0-0.1,0c-0.1,0,0,0-0.1,0c0,0,0,0-0.2,0
						c0,0,0,0-0.2,0c-0.1,0,0,0-0.2,0c-0.3,0-0.2,0-0.3,0c-0.1,0,0,0-0.3,0c-0.3,0-0.2,0-0.3,0c-0.2,0,0,0-0.3,0c-0.3,0,0.1,0-0.4,0
						c-0.4,0-0.3,0-0.4,0c-0.1,0,0.1,0-0.4,0c-0.4,0-0.3,0-0.4,0c-0.3,0,0.1,0-0.4,0c-0.5,0-0.3,0-0.4,0c-0.6,0-0.3,0-0.5,0
						c-0.2,0-0.1,0-0.5,0h-0.5C880.5,652.7,879.5,652.7,878.3,652.7z"/>
				</g>
			</g>
			<g>
				<path class="st0" d="M502.6,389.7c-1.1,0-2.2-8.3-3.2-23.5c-0.2-2.5-0.3-5.2-0.5-8.2c-0.3-2.9-0.6-6-0.5-9.3
					c1.5-3.3-2.8-6.7-0.5-10.3c0.7-3.6,0-7.4-0.4-11.4c-0.5-4,0.9-8.1-0.4-12.4c-2.9-4.3,3.2-8.7-0.4-13.3
					c-0.8-4.6-0.6-9.3-0.4-14.2c2.2-4.9,0-9.9-0.4-15.1c2.7-5.2,1.5-10.5-0.4-15.9c0.9-1.4,1.6-2.7,2-4.1c0.2-0.7,0.3-1.4,0.4-2
					c0.1-0.4,0.1-0.8,0.1-1.2c-0.1-1.6-1.1-2.9-2.8-2.1l-0.1,0c-0.9,0.1-1.6-0.3-2.7-0.4l-0.4,0c-0.2,0-0.1,0-0.6,0
					c-0.7,0-1.5,0-2.2,0.1c-1.5,0.1-3,0.3-4.5,0.7c-6,0.2-12,0.9-18.2,0.3c-6.2,2.5-12.5,2.3-18.9,0.3c-6.4,2.6-12.9,1.6-19.5,0.2
					c-6.6-1.5-13.3,2.3-20.1,0.2c-6.8-0.2-13.7,0.6-20.7,0.2c-7-1.1-14.1-2.3-21.2,0.1c-7.1,0.7-14.4,1.6-21.7,0.1
					c-7.3,2.8-14.7,1.6-22.1,0.1c-7.4,0.5-14.9-1.5-22.5,0c-3.8-0.2-7.6,0.1-11.4,0.3l-0.7,0c-0.2,0-0.2,0-0.2,0l0,0l-0.2,0.1
					c-0.1,0-0.2,0-0.3,0c-0.2,0-0.5-0.2-1-0.4l0,0c-0.2,0.1-0.4,0.2-0.6,0.5c-0.1,0.2-0.2,0.3-0.2,0.5l-0.1,0.3l0,0.1c0,0,0,0,0,0.2
					l0,0.7c-0.1,3.8,0.1,7.6,0.9,11.4c1.8,7.6-0.7,15.1,0,22.5c-2.6,7.5,0.9,14.8-0.1,22.1c0.3,7.3-1.5,14.5-0.1,21.7
					c0.5,7.1,1,14.2-0.1,21.2c4.1,7-1,13.9-0.2,20.7c-0.4,1.6-0.6,3.2-0.7,4.8c0,0.8,0,1.6,0,2.4l0,1.2c0,0.3,0,0.3,0.1,0.4
					c0.2,0.8,0.6,1.2,0.4,2c0.1,0,0.1,0,0.2,0.1c1.1-0.4,1.1,0.1,2.3,0.4c3.2,0.4,6.5,0.6,9.7-0.2c6.4,0.3,12.7-1.3,18.9,0.3
					c6.2-2,12.2,1.7,18.2,0.3c6,0,11.8-0.1,17.5,0.3c5.7,3.2,11.3,0.5,16.7,0.3c5.4,0.3,10.8-1.8,15.9,0.4
					c5.2,0.3,10.2,1.7,15.1,0.4c4.9-0.5,9.6,4.6,14.2,0.4c4.6-0.8,9,3.2,13.3,0.4c4.3-2.6,8.4,0.3,12.4,0.4c4,0.1,7.7,0.3,11.4,0.4
					c32.6,1.4,51.3,3,51.3,4.7c0,1.9-23.1,3.6-62.7,5.1c-4,0.1-8.1,2.4-12.4,0.4c-4.3,0-8.7,1.7-13.3,0.4c-4.6,2.9-9.3,0.5-14.2,0.4
					c-4.9,0.2-9.9-0.8-15.1,0.4c-5.2,1.7-10.5-0.8-15.9,0.4c-5.5-1.8-11-1.3-16.7,0.3c-5.7-1.8-11.5,0.4-17.5,0.3
					c-6-2.7-12-0.8-18.2,0.3c-6.2,1-12.5-0.4-18.9,0.3c-3.2-0.3-6.4-0.1-9.7,0.1c-5.6,0.2-11.9,0.4-17.7,0.1c-0.6,0-1.2,0.1-1.9,0.2
					c-0.6-5.2-0.9-11.1-1-17.3l0-2.2l0-1.2c0-0.8,0.1-1.6,0.2-2.4c0.2-1.6,0.4-3.2,0.8-4.8c-0.9-6.8-0.2-13.7-0.2-20.7
					c-1.1-7,0.1-14.1-0.1-21.2c-0.6-7.2,2.9-14.4-0.1-21.7c-0.4-7.3,0.5-14.7-0.1-22.1c0.4-7.4,0.8-14.9,0-22.5
					c1.5-3.8,1.8-7.6,1.5-11.4c-0.1-1.5-0.2-2.9-0.3-4.4c-0.1-1.7-0.3-3.5-0.4-5.2c-0.3-3.8-0.6-7.5-0.9-11.3l0,0
					c3.4-0.2,7-0.3,10.7-0.4l5.5-0.1h4.7c3.8,0.1,7.6,0.3,11.4,0.5c7.6-0.3,15.1-0.1,22.5,0c7.5-0.9,14.8,1.3,22.1,0.1
					c7.3-1.2,14.5,1.3,21.7,0.1c7.2-0.8,14.2-1.3,21.2,0.2c7,0,13.9,2.7,20.7,0.2c6.8-0.6,13.5-3.9,20.1,0.2c6.6-1,13.1,2,19.5,0.2
					c6.4,3,12.7,0.1,18.9,0.3c6.2,0.6,12.3,1.6,18.2,0.3c1.5-0.4,3-0.5,4.5-0.5c0.7,0,1.5,0,2.2,0.1l3.6,0.2
					c5.1,0.3,9.6,0.8,14.7,0.5l0.2,0c0.8,4.1,0.2,9.8-0.3,14.5c-0.1,1.2-0.2,2.3-0.4,3.5c-0.1,0.9-0.2,1.4-0.2,2.1
					c-0.1,1.4,0,2.7,0.5,4.1c-0.4,5.4,0.2,10.8-0.4,15.9c4,5.2,0,10.2-0.4,15.1c-0.6,4.9,2.7,9.6-0.4,14.2c3.1,4.6,0.4,9-0.4,13.3
					c-0.9,4.3,1.3,8.4-0.4,12.4c2.2,4-1.2,7.7-0.5,11.4c-1.4,3.6-0.1,7.1-0.5,10.3c0.5,3.3,0.3,6.4-0.5,9.3
					c-0.2,2.9-0.3,5.6-0.5,8.2C504.8,381.4,503.7,389.7,502.6,389.7z"/>
			</g>
			<g>
				<path class="st0" d="M803.2,389.7c-1.1,0-2.2-8.3-3.2-23.5c-0.2-2.5-0.3-5.2-0.5-8.2c-0.3-2.9-0.6-6-0.5-9.3
					c1.5-3.3-2.8-6.7-0.5-10.3c0.7-3.6,0.1-7.4-0.4-11.4c-0.5-4,1-8.1-0.4-12.4c-2.9-4.3,3.2-8.7-0.4-13.3
					c-0.8-4.6-0.6-9.3-0.4-14.2c2.2-4.9,0-9.9-0.4-15.1c2.7-5.2,1.5-10.5-0.3-15.9c0.9-1.4,1.6-2.7,2-4.1c0.2-0.7,0.4-1.4,0.4-2
					c0.1-0.4,0.1-0.8,0.1-1.2c-0.1-1.6-1.1-2.9-2.8-2.1l-0.1,0c-0.9,0.1-1.6-0.3-2.7-0.4l-0.4,0c-0.2,0-0.1,0-0.6,0
					c-0.7,0-1.5,0-2.2,0.1c-1.5,0.1-2.9,0.3-4.4,0.7c-6,0.2-12,0.9-18.2,0.3c-6.2,2.5-12.5,2.3-18.9,0.3c-6.4,2.6-12.9,1.6-19.5,0.2
					c-6.6-1.5-13.3,2.3-20.1,0.2c-6.8-0.2-13.7,0.6-20.7,0.2c-7-1.1-14.1-2.3-21.2,0.1c-7.1,0.7-14.4,1.6-21.7,0.1
					c-7.3,2.8-14.7,1.6-22.1,0.1c-7.4,0.5-15-1.5-22.5,0c-3.8-0.2-7.6,0.1-11.4,0.3l-0.7,0c-0.2,0-0.2,0-0.2,0l0,0l-0.2,0.1
					c-0.1,0-0.2,0-0.3,0c-0.2,0-0.5-0.2-1-0.4l0,0c-0.2,0.1-0.4,0.2-0.6,0.5c-0.1,0.2-0.2,0.3-0.2,0.5l-0.1,0.3l0,0.1c0,0,0,0,0,0.2
					l0,0.7c-0.1,3.8,0.1,7.6,0.9,11.4c1.8,7.6-0.7,15.1,0,22.5c-2.6,7.5,0.9,14.8-0.1,22.1c0.3,7.3-1.5,14.5-0.1,21.7
					c0.5,7.1,1,14.2-0.1,21.2c4.1,7-1,13.9-0.2,20.7c-0.4,1.6-0.6,3.2-0.7,4.8c0,0.8,0,1.6,0,2.4l0,1.2c0,0.3,0,0.3,0.1,0.4
					c0.2,0.8,0.6,1.2,0.4,2c0.1,0,0.1,0,0.1,0.1c1.1-0.4,1.1,0.1,2.3,0.4c3.3,0.4,6.5,0.6,9.7-0.2c6.4,0.3,12.7-1.3,18.9,0.3
					c6.2-2,12.3,1.7,18.2,0.3c6,0,11.8-0.1,17.5,0.3c5.7,3.2,11.3,0.5,16.7,0.3c5.5,0.3,10.8-1.8,15.9,0.4
					c5.2,0.3,10.2,1.7,15.1,0.4c4.9-0.5,9.6,4.6,14.2,0.4c4.6-0.8,9,3.2,13.3,0.4c4.3-2.6,8.4,0.3,12.4,0.4c4,0.1,7.7,0.3,11.4,0.4
					c32.6,1.4,51.3,3,51.3,4.7c0,1.9-23.1,3.6-62.7,5.1c-4,0.1-8.1,2.4-12.4,0.4c-4.3,0-8.7,1.7-13.3,0.4c-4.6,2.9-9.3,0.5-14.2,0.4
					c-4.9,0.2-9.9-0.8-15.1,0.4c-5.2,1.7-10.5-0.8-15.9,0.4c-5.4-1.8-11-1.3-16.7,0.3c-5.7-1.8-11.5,0.4-17.5,0.3
					c-6-2.7-12-0.8-18.2,0.3c-6.2,1-12.5-0.4-18.9,0.3c-3.2-0.3-6.4-0.1-9.7,0.1c-5.6,0.2-11.9,0.4-17.7,0.1c-0.6,0-1.2,0.1-1.9,0.2
					c-0.6-5.2-0.9-11.1-1-17.3V379l0-1.2c0-0.8,0.1-1.6,0.2-2.4c0.1-1.6,0.4-3.2,0.8-4.8c-0.9-6.8-0.2-13.7-0.2-20.7
					c-1.1-7,0.1-14.1-0.1-21.2c-0.6-7.2,2.9-14.4-0.1-21.7c-0.4-7.3,0.5-14.7-0.1-22.1c0.4-7.4,0.8-14.9-0.1-22.5
					c1.5-3.8,1.8-7.6,1.5-11.4c-0.1-1.5-0.2-2.9-0.3-4.4c-0.1-1.7-0.3-3.5-0.4-5.2c-0.3-3.8-0.6-7.5-0.9-11.3l0,0
					c3.4-0.2,7-0.3,10.6-0.4l5.5-0.1h4.7c3.8,0.1,7.6,0.3,11.4,0.5c7.6-0.3,15.1-0.1,22.5,0c7.4-0.9,14.8,1.3,22.1,0.1
					c7.3-1.2,14.5,1.3,21.7,0.1c7.2-0.8,14.2-1.3,21.2,0.2c7,0,13.9,2.7,20.7,0.2c6.8-0.6,13.5-3.9,20.1,0.2c6.6-1,13.1,2,19.5,0.2
					c6.4,3,12.7,0.1,18.9,0.3c6.2,0.6,12.3,1.6,18.2,0.3c1.5-0.4,3-0.5,4.4-0.5c0.7,0,1.5,0,2.2,0.1l3.6,0.2
					c5.1,0.3,9.6,0.8,14.7,0.5l0.2,0c0.8,4.1,0.3,9.8-0.3,14.5c-0.1,1.2-0.2,2.3-0.4,3.5c-0.1,0.9-0.2,1.4-0.2,2.1
					c-0.1,1.4,0,2.7,0.5,4.1c-0.4,5.4,0.3,10.8-0.3,15.9c4,5.2,0,10.2-0.4,15.1c-0.6,4.9,2.7,9.6-0.4,14.2c3.1,4.6,0.4,9-0.4,13.3
					c-0.9,4.3,1.3,8.4-0.4,12.4c2.2,4-1.2,7.7-0.4,11.4c-1.4,3.6-0.1,7.1-0.5,10.3c0.5,3.3,0.3,6.4-0.5,9.3
					c-0.2,2.9-0.3,5.6-0.5,8.2C805.4,381.4,804.3,389.7,803.2,389.7z"/>
			</g>
			<g>
				<path class="st0" d="M502.4,464.7c0,1.1-2.5,2.2-7,3.2c-0.8,0.1-1.6,0.3-2.5,0.5c-0.9,0.3-1.8,0.6-2.8,0.5c-1-1.5-2,2.8-3.1,0.5
					c-1.1-0.7-2.2,0-3.4,0.5c-1.2,0.5-2.4-1-3.7,0.4c-1.3,2.9-2.6-3.2-4,0.4c-1.4,0.8-2.8,0.6-4.3,0.4c-1.5-2.2-3,0-4.5,0.4
					c-1.5-2.7-3.1-1.5-4.8,0.3c-1.6-3.7-3.3-3.1-5,0.3c-1.7,0.1-3.5-1.3-5.2,0.3c-1.8,0.2-3.6,0.9-5.5,0.3c-1.8,2.5-3.7,2.4-5.7,0.3
					c-1.9,2.6-3.9,1.6-5.8,0.2c-2-1.5-4,2.3-6,0.2c-2-0.2-4.1,0.6-6.2,0.2c-2.1-1.1-4.2-2.3-6.4,0.1c-2.1,0.7-4.3,1.5-6.5,0.1
					c-2.2,2.8-4.4,1.6-6.6,0.1c-2.2,0.5-4.5-1.5-6.8,0c-2.3-0.4-4.6,1.2-6.9,0c-2.3-0.8-4.6-1.7-6.9,0c-2.3,1.8-4.5-0.7-6.8,0
					c-2.2-2.6-4.4,0.8-6.6-0.1c-2.2,0.3-4.4-1.5-6.5-0.1c-2.1,0.5-4.3,1-6.4-0.1c-2.1,4.1-4.2-1-6.2-0.2c-2.1-1.7-4.1,0.3-6-0.2
					c-2,0.8-3.9-1.9-5.9-0.2c-1.9-0.3-3.8,1.3-5.7-0.3c-1.9,2-3.7-1.7-5.5-0.3c-1.8,0-3.5,0.1-5.2-0.3c-1.7-3.2-3.4-0.5-5-0.3
					c-1.6-0.3-3.2,1.8-4.8-0.3c-1.6-0.3-3.1-1.7-4.5-0.4c-1.5,0.5-2.9-4.6-4.3-0.4c-1.4,0.7-2.7-3.2-4-0.4c-1.3,2.6-2.5-0.3-3.7-0.4
					c-1.2-0.2-2.3-0.3-3.4-0.5c-9.8-1.4-15.4-3-15.4-4.7c0-1.9,6.9-3.6,18.8-5.1c1.2-0.2,2.4-2.4,3.7-0.4c1.3,0,2.6-1.7,4-0.4
					c1.4-2.9,2.8-0.5,4.3-0.4c1.5-0.1,3,0.8,4.5-0.4c1.5-1.7,3.1,0.8,4.8-0.3c1.6,1.8,3.3,1.3,5-0.3c1.7,1.8,3.5-0.4,5.2-0.3
					c1.8,2.7,3.6,0.8,5.5-0.3c1.9-1,3.8,0.4,5.7-0.3c1.9,0.5,3.9-0.7,5.9-0.2c2-1.3,4-1.7,6-0.2c2-0.9,4.1-0.2,6.2-0.2
					c2.1-1.1,4.2,0.1,6.4-0.2c2.1-0.6,4.3,2.9,6.5-0.1c2.2-0.4,4.4,0.5,6.6-0.1c2.2,0.4,4.5,0.8,6.8,0c2.3,2.9,4.6,1.1,6.9,0
					c2.3-0.8,4.6-0.4,6.9,0c2.3-0.3,4.5-0.1,6.8,0c2.2-0.9,4.4,1.3,6.6,0.1c2.2-1.2,4.4,1.3,6.5,0.1c2.1-0.9,4.3-1.3,6.4,0.2
					c2.1,0,4.2,2.7,6.2,0.2c2-0.6,4.1-3.9,6,0.2c2-1,3.9,2,5.8,0.2c1.9,3,3.8,0.1,5.7,0.3c1.9,0.6,3.7,1.6,5.5,0.3
					c1.8-1.4,3.5,0.8,5.2,0.3c1.7-1.7,3.4,2.3,5,0.3c1.6,0.4,3.2-0.3,4.8,0.3c1.6-4.1,3.1,0,4.5,0.4c1.5,0.6,2.9-2.7,4.3,0.4
					c1.4-3.1,2.7-0.4,4,0.4c1.3,0.9,2.5-1.3,3.7,0.4c1.2-2.2,2.3,1.2,3.4,0.4c1.1,1.4,2.1,0.1,3.1,0.5c1-0.5,1.9-0.3,2.8,0.5
					c0.9,0.2,1.7,0.3,2.5,0.5C499.9,462.5,502.4,463.6,502.4,464.7z"/>
			</g>
			<g>
				<path class="st0" d="M803,464.7c0,1.1-2.5,2.2-7,3.2c-0.8,0.1-1.6,0.3-2.4,0.5c-0.9,0.3-1.8,0.6-2.8,0.5c-1-1.5-2,2.8-3.1,0.5
					c-1.1-0.7-2.2,0-3.4,0.5c-1.2,0.5-2.4-1-3.7,0.4c-1.3,2.9-2.6-3.2-4,0.4c-1.4,0.8-2.8,0.6-4.3,0.4c-1.5-2.2-3,0-4.5,0.4
					c-1.6-2.7-3.2-1.5-4.8,0.3c-1.6-3.7-3.3-3.1-5,0.3c-1.7,0.1-3.5-1.3-5.2,0.3c-1.8,0.2-3.6,0.9-5.5,0.3c-1.9,2.5-3.7,2.4-5.7,0.3
					c-1.9,2.6-3.9,1.6-5.9,0.2c-2-1.5-4,2.3-6,0.2c-2-0.2-4.1,0.6-6.2,0.2c-2.1-1.1-4.2-2.3-6.4,0.1c-2.1,0.7-4.3,1.5-6.5,0.1
					c-2.2,2.8-4.4,1.6-6.6,0.1c-2.2,0.5-4.5-1.5-6.8,0c-2.3-0.4-4.6,1.2-6.9,0c-2.3-0.8-4.6-1.7-6.9,0c-2.3,1.8-4.5-0.7-6.8,0
					c-2.2-2.6-4.4,0.8-6.6-0.1c-2.2,0.3-4.4-1.5-6.5-0.1c-2.1,0.5-4.3,1-6.4-0.1c-2.1,4.1-4.2-1-6.2-0.2c-2-1.7-4,0.3-6-0.2
					c-2,0.8-3.9-1.9-5.9-0.2c-1.9-0.3-3.8,1.3-5.7-0.3c-1.8,2-3.7-1.7-5.5-0.3c-1.8,0-3.5,0.1-5.2-0.3c-1.7-3.2-3.4-0.5-5-0.3
					c-1.6-0.3-3.2,1.8-4.8-0.3c-1.6-0.3-3.1-1.7-4.5-0.4c-1.5,0.5-2.9-4.6-4.3-0.4c-1.4,0.7-2.7-3.2-4-0.4c-1.3,2.6-2.5-0.3-3.7-0.4
					c-1.2-0.2-2.3-0.3-3.4-0.5c-9.8-1.4-15.4-3-15.4-4.7c0-1.9,6.9-3.6,18.8-5.1c1.2-0.2,2.4-2.4,3.7-0.4c1.3,0,2.6-1.7,4-0.4
					c1.4-2.9,2.8-0.5,4.3-0.4c1.5-0.1,3,0.8,4.5-0.4c1.5-1.7,3.1,0.8,4.8-0.3c1.6,1.8,3.3,1.3,5-0.3c1.7,1.8,3.5-0.4,5.2-0.3
					c1.8,2.7,3.6,0.8,5.5-0.3c1.9-1,3.7,0.4,5.7-0.3c1.9,0.5,3.9-0.7,5.9-0.2c2-1.3,4-1.7,6-0.2c2-0.9,4.1-0.2,6.2-0.2
					c2.1-1.1,4.2,0.1,6.4-0.2c2.2-0.6,4.3,2.9,6.5-0.1c2.2-0.4,4.4,0.5,6.6-0.1c2.2,0.4,4.5,0.8,6.8,0c2.3,2.9,4.6,1.1,6.9,0
					c2.3-0.8,4.6-0.4,6.9,0c2.3-0.3,4.5-0.1,6.8,0c2.2-0.9,4.4,1.3,6.6,0.1c2.2-1.2,4.4,1.3,6.5,0.1c2.1-0.9,4.3-1.3,6.4,0.2
					c2.1,0,4.2,2.7,6.2,0.2c2-0.6,4.1-3.9,6,0.2c2-1,3.9,2,5.9,0.2c1.9,3,3.8,0.1,5.7,0.3c1.9,0.6,3.7,1.6,5.5,0.3
					c1.8-1.4,3.5,0.8,5.2,0.3c1.7-1.7,3.4,2.3,5,0.3c1.6,0.4,3.2-0.3,4.8,0.3c1.5-4.1,3.1,0,4.5,0.4c1.5,0.6,2.9-2.7,4.3,0.4
					c1.4-3.1,2.7-0.4,4,0.4c1.3,0.9,2.5-1.3,3.7,0.4c1.2-2.2,2.3,1.2,3.4,0.4c1.1,1.4,2.1,0.1,3.1,0.5c1-0.5,1.9-0.3,2.8,0.5
					c0.9,0.2,1.7,0.3,2.5,0.5C800.5,462.5,803,463.6,803,464.7z"/>
			</g>
			<g>
				<path class="st0" d="M502.4,615c0,1.1-2.5,2.2-7,3.2c-0.8,0.2-1.6,0.3-2.5,0.5c-0.9,0.3-1.8,0.6-2.8,0.5c-1-1.5-2,2.8-3.1,0.5
					c-1.1-0.7-2.2,0-3.4,0.4c-1.2,0.5-2.4-0.9-3.7,0.4c-1.3,2.9-2.6-3.2-4,0.4c-1.4,0.8-2.8,0.6-4.3,0.4c-1.5-2.2-3,0-4.5,0.4
					c-1.5-2.7-3.1-1.5-4.8,0.4c-1.6-3.7-3.3-3.1-5,0.3c-1.7,0.1-3.5-1.3-5.2,0.3c-1.8,0.2-3.6,0.9-5.5,0.3c-1.8,2.5-3.7,2.4-5.7,0.3
					c-1.9,2.6-3.9,1.6-5.8,0.2c-2-1.5-4,2.3-6,0.2c-2-0.2-4.1,0.6-6.2,0.2c-2.1-1.1-4.2-2.3-6.4,0.1c-2.1,0.7-4.3,1.5-6.5,0.1
					c-2.2,2.8-4.4,1.6-6.6,0.1c-2.2,0.5-4.5-1.5-6.8,0c-2.3-0.4-4.6,1.2-6.9,0c-2.3-0.8-4.6-1.7-6.9,0c-2.3,1.8-4.5-0.7-6.8,0
					c-2.2-2.6-4.4,0.8-6.6-0.1c-2.2,0.3-4.4-1.5-6.5-0.1c-2.1,0.5-4.3,1-6.4-0.1c-2.1,4.1-4.2-1-6.2-0.2c-2.1-1.7-4.1,0.2-6-0.2
					c-2,0.8-3.9-1.9-5.9-0.2c-1.9-0.3-3.8,1.3-5.7-0.3c-1.9,2-3.7-1.7-5.5-0.3c-1.8,0-3.5,0.1-5.2-0.3c-1.7-3.1-3.4-0.5-5-0.3
					c-1.6-0.3-3.2,1.8-4.8-0.4c-1.6-0.2-3.1-1.7-4.5-0.4c-1.5,0.5-2.9-4.6-4.3-0.4c-1.4,0.7-2.7-3.2-4-0.4c-1.3,2.6-2.5-0.3-3.7-0.4
					c-1.2-0.1-2.3-0.3-3.4-0.4c-9.8-1.4-15.4-3-15.4-4.7c0-1.9,6.9-3.6,18.8-5.1c1.2-0.1,2.4-2.4,3.7-0.4c1.3,0,2.6-1.7,4-0.4
					c1.4-2.9,2.8-0.5,4.3-0.4c1.5-0.1,3,0.8,4.5-0.4c1.5-1.7,3.1,0.8,4.8-0.4c1.6,1.8,3.3,1.3,5-0.3c1.7,1.8,3.5-0.4,5.2-0.3
					c1.8,2.7,3.6,0.8,5.5-0.3c1.9-1,3.8,0.4,5.7-0.3c1.9,0.5,3.9-0.7,5.9-0.2c2-1.3,4-1.8,6-0.2c2-0.9,4.1-0.2,6.2-0.2
					c2.1-1.1,4.2,0.1,6.4-0.1c2.1-0.6,4.3,2.9,6.5-0.1c2.2-0.4,4.4,0.5,6.6-0.1c2.2,0.4,4.5,0.8,6.8-0.1c2.3,2.9,4.6,1.1,6.9,0
					c2.3-0.8,4.6-0.4,6.9,0c2.3-0.3,4.5-0.1,6.8,0.1c2.2-0.9,4.4,1.3,6.6,0.1c2.2-1.3,4.4,1.3,6.5,0.1c2.1-0.9,4.3-1.3,6.4,0.1
					c2.1,0,4.2,2.7,6.2,0.2c2-0.6,4.1-3.9,6,0.2c2-1,3.9,2,5.8,0.2c1.9,3,3.8,0.2,5.7,0.3c1.9,0.6,3.7,1.6,5.5,0.3
					c1.8-1.4,3.5,0.8,5.2,0.3c1.7-1.7,3.4,2.2,5,0.3c1.6,0.4,3.2-0.3,4.8,0.4c1.6-4.1,3.1,0,4.5,0.4c1.5,0.6,2.9-2.7,4.3,0.4
					c1.4-3.1,2.7-0.4,4,0.4c1.3,0.9,2.5-1.3,3.7,0.4c1.2-2.2,2.3,1.2,3.4,0.4c1.1,1.4,2.1,0.1,3.1,0.5c1-0.5,1.9-0.3,2.8,0.5
					c0.9,0.2,1.7,0.3,2.5,0.5C499.9,612.8,502.4,613.9,502.4,615z"/>
			</g>
			<g>
				<path class="st0" d="M803,615c0,1.1-2.5,2.2-7,3.2c-0.8,0.2-1.6,0.3-2.4,0.5c-0.9,0.3-1.8,0.6-2.8,0.5c-1-1.5-2,2.8-3.1,0.5
					c-1.1-0.7-2.2,0-3.4,0.4c-1.2,0.5-2.4-0.9-3.7,0.4c-1.3,2.9-2.6-3.2-4,0.4c-1.4,0.8-2.8,0.6-4.3,0.4c-1.5-2.2-3,0-4.5,0.4
					c-1.6-2.7-3.2-1.5-4.8,0.4c-1.6-3.7-3.3-3.1-5,0.3c-1.7,0.1-3.5-1.3-5.2,0.3c-1.8,0.2-3.6,0.9-5.5,0.3c-1.9,2.5-3.7,2.4-5.7,0.3
					c-1.9,2.6-3.9,1.6-5.9,0.2c-2-1.5-4,2.3-6,0.2c-2-0.2-4.1,0.6-6.2,0.2c-2.1-1.1-4.2-2.3-6.4,0.1c-2.1,0.7-4.3,1.5-6.5,0.1
					c-2.2,2.8-4.4,1.6-6.6,0.1c-2.2,0.5-4.5-1.5-6.8,0c-2.3-0.4-4.6,1.2-6.9,0c-2.3-0.8-4.6-1.7-6.9,0c-2.3,1.8-4.5-0.7-6.8,0
					c-2.2-2.6-4.4,0.8-6.6-0.1c-2.2,0.3-4.4-1.5-6.5-0.1c-2.1,0.5-4.3,1-6.4-0.1c-2.1,4.1-4.2-1-6.2-0.2c-2-1.7-4,0.2-6-0.2
					c-2,0.8-3.9-1.9-5.9-0.2c-1.9-0.3-3.8,1.3-5.7-0.3c-1.8,2-3.7-1.7-5.5-0.3c-1.8,0-3.5,0.1-5.2-0.3c-1.7-3.1-3.4-0.5-5-0.3
					c-1.6-0.3-3.2,1.8-4.8-0.4c-1.6-0.2-3.1-1.7-4.5-0.4c-1.5,0.5-2.9-4.6-4.3-0.4c-1.4,0.7-2.7-3.2-4-0.4c-1.3,2.6-2.5-0.3-3.7-0.4
					c-1.2-0.1-2.3-0.3-3.4-0.4c-9.8-1.4-15.4-3-15.4-4.7c0-1.9,6.9-3.6,18.8-5.1c1.2-0.1,2.4-2.4,3.7-0.4c1.3,0,2.6-1.7,4-0.4
					c1.4-2.9,2.8-0.5,4.3-0.4c1.5-0.1,3,0.8,4.5-0.4c1.5-1.7,3.1,0.8,4.8-0.4c1.6,1.8,3.3,1.3,5-0.3c1.7,1.8,3.5-0.4,5.2-0.3
					c1.8,2.7,3.6,0.8,5.5-0.3c1.9-1,3.7,0.4,5.7-0.3c1.9,0.5,3.9-0.7,5.9-0.2c2-1.3,4-1.8,6-0.2c2-0.9,4.1-0.2,6.2-0.2
					c2.1-1.1,4.2,0.1,6.4-0.1c2.2-0.6,4.3,2.9,6.5-0.1c2.2-0.4,4.4,0.5,6.6-0.1c2.2,0.4,4.5,0.8,6.8-0.1c2.3,2.9,4.6,1.1,6.9,0
					c2.3-0.8,4.6-0.4,6.9,0c2.3-0.3,4.5-0.1,6.8,0.1c2.2-0.9,4.4,1.3,6.6,0.1c2.2-1.3,4.4,1.3,6.5,0.1c2.1-0.9,4.3-1.3,6.4,0.1
					c2.1,0,4.2,2.7,6.2,0.2c2-0.6,4.1-3.9,6,0.2c2-1,3.9,2,5.9,0.2c1.9,3,3.8,0.2,5.7,0.3c1.9,0.6,3.7,1.6,5.5,0.3
					c1.8-1.4,3.5,0.8,5.2,0.3c1.7-1.7,3.4,2.2,5,0.3c1.6,0.4,3.2-0.3,4.8,0.4c1.5-4.1,3.1,0,4.5,0.4c1.5,0.6,2.9-2.7,4.3,0.4
					c1.4-3.1,2.7-0.4,4,0.4c1.3,0.9,2.5-1.3,3.7,0.4c1.2-2.2,2.3,1.2,3.4,0.4c1.1,1.4,2.1,0.1,3.1,0.5c1-0.5,1.9-0.3,2.8,0.5
					c0.9,0.2,1.7,0.3,2.5,0.5C800.5,612.8,803,613.9,803,615z"/>
			</g>
			<g>
				<path class="st0" d="M502.4,765.3c0,1.1-2.5,2.2-7,3.2c-0.8,0.2-1.6,0.3-2.5,0.5c-0.9,0.3-1.8,0.6-2.8,0.5c-1-1.5-2,2.8-3.1,0.5
					c-1.1-0.7-2.2,0-3.4,0.4c-1.2,0.5-2.4-1-3.7,0.4c-1.3,2.9-2.6-3.2-4,0.4c-1.4,0.8-2.8,0.6-4.3,0.4c-1.5-2.2-3,0-4.5,0.4
					c-1.5-2.7-3.1-1.5-4.8,0.3c-1.6-3.7-3.3-3.1-5,0.3c-1.7,0.1-3.5-1.3-5.2,0.3c-1.8,0.2-3.6,0.9-5.5,0.3c-1.8,2.5-3.7,2.4-5.7,0.3
					c-1.9,2.6-3.9,1.6-5.8,0.2c-2-1.5-4,2.3-6,0.2c-2-0.2-4.1,0.6-6.2,0.2c-2.1-1.1-4.2-2.3-6.4,0.1c-2.1,0.7-4.3,1.5-6.5,0.1
					c-2.2,2.8-4.4,1.6-6.6,0.1c-2.2,0.5-4.5-1.5-6.8,0.1c-2.3-0.4-4.6,1.2-6.9,0c-2.3-0.8-4.6-1.7-6.9,0c-2.3,1.8-4.5-0.8-6.8-0.1
					c-2.2-2.6-4.4,0.9-6.6-0.1c-2.2,0.3-4.4-1.5-6.5-0.1c-2.1,0.5-4.3,1-6.4-0.1c-2.1,4.1-4.2-1-6.2-0.2c-2.1-1.7-4.1,0.3-6-0.2
					c-2,0.8-3.9-1.9-5.9-0.2c-1.9-0.3-3.8,1.3-5.7-0.3c-1.9,2-3.7-1.7-5.5-0.3c-1.8,0-3.5,0.1-5.2-0.3c-1.7-3.2-3.4-0.5-5-0.3
					c-1.6-0.3-3.2,1.8-4.8-0.4c-1.6-0.3-3.1-1.7-4.5-0.4c-1.5,0.5-2.9-4.6-4.3-0.4c-1.4,0.8-2.7-3.2-4-0.4c-1.3,2.6-2.5-0.3-3.7-0.4
					c-1.2-0.2-2.3-0.3-3.4-0.4c-9.8-1.4-15.4-3-15.4-4.7c0-1.9,6.9-3.6,18.8-5.1c1.2-0.1,2.4-2.4,3.7-0.4c1.3,0,2.6-1.7,4-0.4
					c1.4-2.9,2.8-0.5,4.3-0.4c1.5-0.1,3,0.8,4.5-0.4c1.5-1.7,3.1,0.8,4.8-0.4c1.6,1.8,3.3,1.3,5-0.3c1.7,1.8,3.5-0.4,5.2-0.3
					c1.8,2.7,3.6,0.8,5.5-0.3c1.9-1,3.8,0.4,5.7-0.2c1.9,0.5,3.9-0.7,5.9-0.2c2-1.3,4-1.7,6-0.2c2-0.9,4.1-0.2,6.2-0.2
					c2.1-1.1,4.2,0.1,6.4-0.1c2.1-0.6,4.3,2.9,6.5-0.1c2.2-0.4,4.4,0.5,6.6-0.1c2.2,0.4,4.5,0.8,6.8,0c2.3,2.9,4.6,1.1,6.9,0
					c2.3-0.8,4.6-0.4,6.9,0c2.3-0.3,4.5-0.1,6.8,0c2.2-0.9,4.4,1.3,6.6,0.1c2.2-1.3,4.4,1.4,6.5,0.1c2.1-0.8,4.3-1.3,6.4,0.1
					c2.1,0,4.2,2.7,6.2,0.2c2-0.6,4.1-3.9,6,0.2c2-1,3.9,2,5.8,0.2c1.9,3,3.8,0.2,5.7,0.2c1.9,0.6,3.7,1.6,5.5,0.3
					c1.8-1.4,3.5,0.8,5.2,0.3c1.7-1.7,3.4,2.3,5,0.3c1.6,0.4,3.2-0.3,4.8,0.4c1.6-4.1,3.1,0,4.5,0.4c1.5,0.6,2.9-2.7,4.3,0.4
					c1.4-3.1,2.7-0.4,4,0.4c1.3,0.9,2.5-1.3,3.7,0.4c1.2-2.2,2.3,1.2,3.4,0.5c1.1,1.4,2.1,0.1,3.1,0.5c1-0.5,1.9-0.3,2.8,0.5
					c0.9,0.2,1.7,0.3,2.5,0.5C499.9,763.1,502.4,764.2,502.4,765.3z"/>
			</g>
			<g>
				<path class="st0" d="M803,765.3c0,1.1-2.5,2.2-7,3.2c-0.8,0.2-1.6,0.3-2.4,0.5c-0.9,0.3-1.8,0.6-2.8,0.5c-1-1.5-2,2.8-3.1,0.5
					c-1.1-0.7-2.2,0-3.4,0.4c-1.2,0.5-2.4-1-3.7,0.4c-1.3,2.9-2.6-3.2-4,0.4c-1.4,0.8-2.8,0.6-4.3,0.4c-1.5-2.2-3,0-4.5,0.4
					c-1.6-2.7-3.2-1.5-4.8,0.3c-1.6-3.7-3.3-3.1-5,0.3c-1.7,0.1-3.5-1.3-5.2,0.3c-1.8,0.2-3.6,0.9-5.5,0.3c-1.9,2.5-3.7,2.4-5.7,0.3
					c-1.9,2.6-3.9,1.6-5.9,0.2c-2-1.5-4,2.3-6,0.2c-2-0.2-4.1,0.6-6.2,0.2c-2.1-1.1-4.2-2.3-6.4,0.1c-2.1,0.7-4.3,1.5-6.5,0.1
					c-2.2,2.8-4.4,1.6-6.6,0.1c-2.2,0.5-4.5-1.5-6.8,0.1c-2.3-0.4-4.6,1.2-6.9,0c-2.3-0.8-4.6-1.7-6.9,0c-2.3,1.8-4.5-0.8-6.8-0.1
					c-2.2-2.6-4.4,0.9-6.6-0.1c-2.2,0.3-4.4-1.5-6.5-0.1c-2.1,0.5-4.3,1-6.4-0.1c-2.1,4.1-4.2-1-6.2-0.2c-2-1.7-4,0.3-6-0.2
					c-2,0.8-3.9-1.9-5.9-0.2c-1.9-0.3-3.8,1.3-5.7-0.3c-1.8,2-3.7-1.7-5.5-0.3c-1.8,0-3.5,0.1-5.2-0.3c-1.7-3.2-3.4-0.5-5-0.3
					c-1.6-0.3-3.2,1.8-4.8-0.4c-1.6-0.3-3.1-1.7-4.5-0.4c-1.5,0.5-2.9-4.6-4.3-0.4c-1.4,0.8-2.7-3.2-4-0.4c-1.3,2.6-2.5-0.3-3.7-0.4
					c-1.2-0.2-2.3-0.3-3.4-0.4c-9.8-1.4-15.4-3-15.4-4.7c0-1.9,6.9-3.6,18.8-5.1c1.2-0.1,2.4-2.4,3.7-0.4c1.3,0,2.6-1.7,4-0.4
					c1.4-2.9,2.8-0.5,4.3-0.4c1.5-0.1,3,0.8,4.5-0.4c1.5-1.7,3.1,0.8,4.8-0.4c1.6,1.8,3.3,1.3,5-0.3c1.7,1.8,3.5-0.4,5.2-0.3
					c1.8,2.7,3.6,0.8,5.5-0.3c1.9-1,3.7,0.4,5.7-0.2c1.9,0.5,3.9-0.7,5.9-0.2c2-1.3,4-1.7,6-0.2c2-0.9,4.1-0.2,6.2-0.2
					c2.1-1.1,4.2,0.1,6.4-0.1c2.2-0.6,4.3,2.9,6.5-0.1c2.2-0.4,4.4,0.5,6.6-0.1c2.2,0.4,4.5,0.8,6.8,0c2.3,2.9,4.6,1.1,6.9,0
					c2.3-0.8,4.6-0.4,6.9,0c2.3-0.3,4.5-0.1,6.8,0c2.2-0.9,4.4,1.3,6.6,0.1c2.2-1.3,4.4,1.4,6.5,0.1c2.1-0.8,4.3-1.3,6.4,0.1
					c2.1,0,4.2,2.7,6.2,0.2c2-0.6,4.1-3.9,6,0.2c2-1,3.9,2,5.9,0.2c1.9,3,3.8,0.2,5.7,0.2c1.9,0.6,3.7,1.6,5.5,0.3
					c1.8-1.4,3.5,0.8,5.2,0.3c1.7-1.7,3.4,2.3,5,0.3c1.6,0.4,3.2-0.3,4.8,0.4c1.5-4.1,3.1,0,4.5,0.4c1.5,0.6,2.9-2.7,4.3,0.4
					c1.4-3.1,2.7-0.4,4,0.4c1.3,0.9,2.5-1.3,3.7,0.4c1.2-2.2,2.3,1.2,3.4,0.5c1.1,1.4,2.1,0.1,3.1,0.5c1-0.5,1.9-0.3,2.8,0.5
					c0.9,0.2,1.7,0.3,2.5,0.5C800.5,763.1,803,764.2,803,765.3z"/>
			</g>
			<g>
				<path class="st0" d="M746.7,539.9c0,1.1-4.6,2.2-12.9,3.2c-1.4,0.2-2.9,0.3-4.5,0.5c-1.6,0.3-3.3,0.6-5.1,0.5
					c-1.8-1.5-3.7,2.8-5.7,0.5c-2-0.7-4.1-0.1-6.3,0.4c-2.2,0.5-4.5-1-6.8,0.4c-2.4,2.9-4.8-3.2-7.3,0.4c-2.5,0.8-5.1,0.6-7.8,0.4
					c-2.7-2.2-5.5,0-8.3,0.4c-2.8-2.7-5.8-1.5-8.8,0.3c-3-3.7-6.1-3.1-9.2,0.3c-3.1,0.1-6.3-1.3-9.6,0.3c-3.3,0.2-6.6,0.9-10,0.3
					c-3.4,2.5-6.9,2.4-10.4,0.3c-3.5,2.6-7.1,1.6-10.7,0.2c-3.6-1.5-7.3,2.3-11.1,0.2c-3.7-0.2-7.5,0.6-11.4,0.2
					c-3.9-1.1-7.7-2.3-11.7,0.2c-3.9,0.7-7.9,1.5-11.9,0.1c-4,2.8-8.1,1.6-12.2,0.1c-4.1,0.5-8.2-1.5-12.4,0.1
					c-4.2-0.4-8.4,1.2-12.6,0c-4.2-0.8-8.4-1.7-12.6,0c-4.2,1.8-8.3-0.8-12.4-0.1c-4.1-2.6-8.2,0.9-12.2-0.1c-4,0.3-8-1.5-11.9-0.1
					c-3.9,0.5-7.8,1-11.7-0.2c-3.8,4.1-7.6-1-11.4-0.2c-3.7-1.7-7.4,0.2-11.1-0.2c-3.6,0.8-7.2-1.9-10.7-0.2
					c-3.5-0.3-7,1.3-10.4-0.3c-3.4,2-6.7-1.7-10-0.3c-3.3,0-6.5,0.1-9.6-0.3c-3.1-3.2-6.2-0.5-9.2-0.3c-3-0.3-5.9,1.8-8.8-0.3
					c-2.9-0.3-5.6-1.7-8.3-0.4c-2.7,0.5-5.3-4.6-7.8-0.4c-2.5,0.8-5-3.2-7.3-0.4c-2.4,2.6-4.6-0.3-6.8-0.4c-2.2-0.2-4.3-0.3-6.3-0.4
					c-17.9-1.4-28.2-3-28.2-4.7c0-1.9,12.7-3.6,34.5-5.1c2.2-0.1,4.5-2.4,6.8-0.4c2.4,0,4.8-1.7,7.3-0.4c2.5-2.9,5.1-0.5,7.8-0.4
					c2.7-0.1,5.5,0.8,8.3-0.4c2.9-1.7,5.8,0.8,8.8-0.3c3,1.8,6.1,1.3,9.2-0.3c3.1,1.8,6.3-0.4,9.6-0.3c3.3,2.7,6.6,0.8,10-0.3
					c3.4-1,6.9,0.4,10.4-0.3c3.5,0.5,7.1-0.7,10.7-0.2c3.6-1.3,7.3-1.7,11.1-0.2c3.7-0.9,7.5-0.2,11.4-0.2c3.9-1.1,7.7,0.1,11.7-0.1
					c3.9-0.6,7.9,2.9,11.9-0.1c4-0.4,8.1,0.5,12.2-0.1c4.1,0.4,8.2,0.8,12.4,0c4.2,2.9,8.4,1.1,12.6,0c4.2-0.8,8.4-0.4,12.6,0
					c4.2-0.3,8.3-0.1,12.4,0c4.1-0.9,8.2,1.3,12.2,0.1c4-1.2,8,1.4,11.9,0.1c3.9-0.8,7.8-1.3,11.7,0.1c3.8,0,7.6,2.7,11.4,0.2
					c3.7-0.6,7.4-3.9,11.1,0.2c3.6-1,7.2,2,10.7,0.2c3.5,3,7,0.1,10.4,0.3c3.4,0.6,6.7,1.6,10,0.3c3.3-1.4,6.5,0.8,9.6,0.3
					c3.1-1.7,6.2,2.3,9.2,0.3c3,0.4,5.9-0.3,8.8,0.3c2.9-4,5.6,0,8.3,0.4c2.7,0.6,5.3-2.7,7.8,0.4c2.5-3.1,5-0.4,7.3,0.4
					c2.4,0.9,4.6-1.3,6.8,0.4c2.2-2.2,4.3,1.2,6.3,0.4c2,1.4,3.9,0.1,5.7,0.5c1.8-0.5,3.5-0.3,5.1,0.5c1.6,0.2,3.1,0.3,4.5,0.5
					C742.1,537.6,746.7,538.7,746.7,539.9z"/>
			</g>
			<g>
				<path class="st0" d="M746.7,690.2c0,1.1-4.6,2.2-12.9,3.2c-1.4,0.1-2.9,0.3-4.5,0.5c-1.6,0.3-3.3,0.6-5.1,0.5
					c-1.8-1.5-3.7,2.8-5.7,0.5c-2-0.7-4.1-0.1-6.3,0.4c-2.2,0.5-4.5-1-6.8,0.4c-2.4,2.9-4.8-3.2-7.3,0.4c-2.5,0.8-5.1,0.6-7.8,0.4
					c-2.7-2.2-5.5,0-8.3,0.4c-2.8-2.7-5.8-1.5-8.8,0.3c-3-3.7-6.1-3.1-9.2,0.3c-3.1,0.1-6.3-1.3-9.6,0.3c-3.3,0.2-6.6,0.9-10,0.3
					c-3.4,2.5-6.9,2.3-10.4,0.2c-3.5,2.6-7.1,1.6-10.7,0.2c-3.6-1.5-7.3,2.3-11.1,0.2c-3.7-0.2-7.5,0.6-11.4,0.2
					c-3.9-1.1-7.7-2.3-11.7,0.1c-3.9,0.7-7.9,1.5-11.9,0.1c-4,2.8-8.1,1.6-12.2,0.1c-4.1,0.5-8.2-1.5-12.4,0
					c-4.2-0.4-8.4,1.2-12.6,0c-4.2-0.8-8.4-1.7-12.6,0c-4.2,1.8-8.3-0.7-12.4,0c-4.1-2.6-8.2,0.9-12.2-0.1c-4,0.2-8-1.5-11.9-0.1
					c-3.9,0.5-7.8,1-11.7-0.1c-3.8,4.1-7.6-1-11.4-0.2c-3.7-1.7-7.4,0.3-11.1-0.2c-3.6,0.8-7.2-1.9-10.7-0.2
					c-3.5-0.3-7,1.3-10.4-0.2c-3.4,2-6.7-1.7-10-0.3c-3.3,0-6.5,0.1-9.6-0.3c-3.1-3.2-6.2-0.5-9.2-0.3c-3-0.3-5.9,1.8-8.8-0.3
					c-2.9-0.3-5.6-1.7-8.3-0.4c-2.7,0.5-5.3-4.6-7.8-0.4c-2.5,0.8-5-3.2-7.3-0.4c-2.4,2.6-4.6-0.3-6.8-0.4c-2.2-0.2-4.3-0.3-6.3-0.4
					c-17.9-1.4-28.2-3-28.2-4.7c0-1.9,12.7-3.6,34.5-5.1c2.2-0.1,4.5-2.4,6.8-0.4c2.4,0,4.8-1.7,7.3-0.4c2.5-2.9,5.1-0.5,7.8-0.4
					c2.7-0.1,5.5,0.8,8.3-0.4c2.9-1.7,5.8,0.8,8.8-0.3c3,1.8,6.1,1.3,9.2-0.3c3.1,1.8,6.3-0.4,9.6-0.3c3.3,2.7,6.6,0.8,10-0.3
					c3.4-1,6.9,0.4,10.4-0.2c3.5,0.5,7.1-0.7,10.7-0.2c3.6-1.3,7.3-1.7,11.1-0.2c3.7-0.9,7.5-0.2,11.4-0.2c3.9-1.1,7.7,0.1,11.7-0.1
					c3.9-0.6,7.9,2.9,11.9-0.1c4-0.4,8.1,0.5,12.2-0.1c4.1,0.4,8.2,0.8,12.4,0c4.2,2.9,8.4,1.1,12.6,0c4.2-0.8,8.4-0.4,12.6,0
					c4.2-0.3,8.3-0.2,12.4,0c4.1-0.9,8.2,1.3,12.2,0.1c4-1.2,8,1.3,11.9,0.1c3.9-0.9,7.8-1.3,11.7,0.1c3.8,0,7.6,2.7,11.4,0.2
					c3.7-0.6,7.4-3.9,11.1,0.2c3.6-1,7.2,2,10.7,0.2c3.5,3,7,0.1,10.4,0.2c3.4,0.6,6.7,1.6,10,0.3c3.3-1.4,6.5,0.8,9.6,0.3
					c3.1-1.7,6.2,2.3,9.2,0.3c3,0.4,5.9-0.3,8.8,0.3c2.9-4,5.6,0,8.3,0.4c2.7,0.6,5.3-2.7,7.8,0.4c2.5-3.1,5-0.4,7.3,0.4
					c2.4,0.9,4.6-1.3,6.8,0.4c2.2-2.2,4.3,1.2,6.3,0.4c2,1.4,3.9,0.1,5.7,0.5c1.8-0.5,3.5-0.3,5.1,0.5c1.6,0.2,3.1,0.3,4.5,0.5
					C742.1,687.9,746.7,689,746.7,690.2z"/>
			</g>
			<g>
				<path class="st0" d="M746.7,840.5c0,1.1-4.6,2.2-12.9,3.2c-1.4,0.1-2.9,0.3-4.5,0.5c-1.6,0.3-3.3,0.6-5.1,0.5
					c-1.8-1.5-3.7,2.8-5.7,0.5c-2-0.7-4.1,0-6.3,0.4c-2.2,0.5-4.5-0.9-6.8,0.4c-2.4,2.9-4.8-3.2-7.3,0.4c-2.5,0.8-5.1,0.6-7.8,0.4
					c-2.7-2.2-5.5,0-8.3,0.4c-2.8-2.7-5.8-1.5-8.8,0.4c-3-3.7-6.1-3.1-9.2,0.3c-3.1,0.1-6.3-1.3-9.6,0.3c-3.3,0.2-6.6,0.9-10,0.3
					c-3.4,2.5-6.9,2.4-10.4,0.3c-3.5,2.6-7.1,1.6-10.7,0.2c-3.6-1.5-7.3,2.3-11.1,0.2c-3.7-0.2-7.5,0.6-11.4,0.2
					c-3.9-1.1-7.7-2.3-11.7,0.2c-3.9,0.6-7.9,1.5-11.9,0.1c-4,2.8-8.1,1.6-12.2,0.1c-4.1,0.5-8.2-1.5-12.4,0
					c-4.2-0.4-8.4,1.2-12.6,0c-4.2-0.8-8.4-1.7-12.6,0c-4.2,1.8-8.3-0.7-12.4,0c-4.1-2.6-8.2,0.9-12.2-0.1c-4,0.3-8-1.5-11.9-0.1
					c-3.9,0.5-7.8,1-11.7-0.2c-3.8,4.1-7.6-1-11.4-0.2c-3.7-1.7-7.4,0.2-11.1-0.2c-3.6,0.8-7.2-1.9-10.7-0.2
					c-3.5-0.3-7,1.3-10.4-0.3c-3.4,2-6.7-1.7-10-0.3c-3.3,0-6.5,0.1-9.6-0.3c-3.1-3.2-6.2-0.5-9.2-0.3c-3-0.3-5.9,1.8-8.8-0.4
					c-2.9-0.3-5.6-1.7-8.3-0.4c-2.7,0.5-5.3-4.6-7.8-0.4c-2.5,0.8-5-3.2-7.3-0.4c-2.4,2.6-4.6-0.3-6.8-0.4c-2.2-0.1-4.3-0.3-6.3-0.4
					c-17.9-1.4-28.2-3-28.2-4.7c0-1.9,12.7-3.7,34.5-5.1c2.2-0.1,4.5-2.4,6.8-0.4c2.4,0,4.8-1.7,7.3-0.4c2.5-2.9,5.1-0.5,7.8-0.4
					c2.7-0.1,5.5,0.8,8.3-0.4c2.9-1.7,5.8,0.8,8.8-0.4c3,1.8,6.1,1.3,9.2-0.3c3.1,1.8,6.3-0.4,9.6-0.3c3.3,2.7,6.6,0.8,10-0.3
					c3.4-1,6.9,0.4,10.4-0.3c3.5,0.5,7.1-0.7,10.7-0.2c3.6-1.3,7.3-1.8,11.1-0.2c3.7-0.9,7.5-0.2,11.4-0.2c3.9-1.1,7.7,0.1,11.7-0.1
					c3.9-0.6,7.9,2.9,11.9-0.1c4-0.4,8.1,0.5,12.2-0.1c4.1,0.4,8.2,0.8,12.4-0.1c4.2,2.9,8.4,1.1,12.6,0c4.2-0.8,8.4-0.4,12.6,0
					c4.2-0.3,8.3-0.1,12.4,0.1c4.1-0.9,8.2,1.3,12.2,0.1c4-1.2,8,1.3,11.9,0.1c3.9-0.9,7.8-1.3,11.7,0.1c3.8,0,7.6,2.7,11.4,0.2
					c3.7-0.6,7.4-3.9,11.1,0.2c3.6-1,7.2,2,10.7,0.2c3.5,3,7,0.2,10.4,0.3c3.4,0.6,6.7,1.6,10,0.3c3.3-1.4,6.5,0.8,9.6,0.3
					c3.1-1.7,6.2,2.2,9.2,0.3c3,0.4,5.9-0.3,8.8,0.4c2.9-4.1,5.6,0,8.3,0.4c2.7,0.6,5.3-2.7,7.8,0.4c2.5-3.1,5-0.4,7.3,0.4
					c2.4,0.9,4.6-1.3,6.8,0.4c2.2-2.2,4.3,1.2,6.3,0.4c2,1.4,3.9,0.1,5.7,0.5c1.8-0.5,3.5-0.3,5.1,0.5c1.6,0.2,3.1,0.3,4.5,0.5
					C742.1,838.2,746.7,839.3,746.7,840.5z"/>
			</g>
		</g>
	</g>
</g>
</svg>
