<?xml version="1.0" encoding="utf-8"?>
<!-- Generator: Adobe Illustrator 26.0.3, SVG Export Plug-In . SVG Version: 6.00 Build 0)  -->
<svg version="1.1" id="Layer_1" xmlns="http://www.w3.org/2000/svg" xmlns:xlink="http://www.w3.org/1999/xlink" x="0px" y="0px"
	 viewBox="0 0 1080 1080" style="enable-background:new 0 0 1080 1080;" xml:space="preserve">
<style type="text/css">
	.st0{fill:#FFFFFF;stroke:#000000;stroke-miterlimit:10;}
</style>
<path class="st0" d="M976.7,998.6H101c-10.7,0-19.8-9.1-19.8-19.8v-57.9c0-184.3,109.7-348.7,277.2-420.3
	c-42.7-45.7-67-106.6-67-170.6c0-137.1,111.2-248.2,248.2-248.2C676.7,81.8,787.8,193,787.8,330c0,64-24.4,124.9-67,170.6
	C888.4,572.2,998,736.7,998,920.9v57.9C995,989.4,985.8,998.6,976.7,998.6z M119.3,960.5h837.6v-38.1
	c0-178.2-112.7-336.5-280.2-395.9c-6.1-1.5-10.7-7.6-12.2-15.2c-1.5-7.6,1.5-13.7,6.1-18.3c48.7-39.6,76.2-99,76.2-161.4
	c0-115.7-94.4-210.2-210.1-210.2c-115.7,0-210.2,94.4-210.2,210.2c0,62.4,27.4,121.8,76.2,161.4c4.6,4.6,7.6,10.7,6.1,18.3
	c-1.5,7.6-6.1,12.2-12.2,15.2C229,585.9,116.3,744.3,116.3,922.4v38.1H119.3z"/>
<path class="st0" d="M309.7,998.6c-10.7,0-19.8-9.1-19.8-19.8V750.4c0-10.7,9.1-19.8,19.8-19.8c10.7,0,19.8,9.1,19.8,19.8v228.4
	C329.5,989.4,320.3,998.6,309.7,998.6z"/>
<path class="st0" d="M766.5,998.6c-10.7,0-19.8-9.1-19.8-19.8V750.4c0-10.7,9.1-19.8,19.8-19.8c10.6,0,19.8,9.1,19.8,19.8v228.4
	C786.3,989.4,777.2,998.6,766.5,998.6z"/>
</svg>
