<?xml version="1.0" encoding="utf-8"?>
<!-- Generator: Adobe Illustrator 26.0.3, SVG Export Plug-In . SVG Version: 6.00 Build 0)  -->
<svg version="1.1" id="Layer_1" xmlns="http://www.w3.org/2000/svg" xmlns:xlink="http://www.w3.org/1999/xlink" x="0px" y="0px"
	 viewBox="0 0 1080 1080" style="enable-background:new 0 0 1080 1080;" xml:space="preserve">
<style type="text/css">
	.st0{fill:none;stroke:#FFFFFF;stroke-width:12;stroke-miterlimit:10;}
</style>
<g>
	<path class="st0" d="M554.5,721.8c0-70.5,20.9-100.8,26.5-107.6h-41h-41c5.6,6.8,26.5,37.1,26.5,107.6c0,65.9-10.5,89-21.5,104.3
		l36,23.1l36-24.4C565,809.5,554.5,787.7,554.5,721.8z"/>
	<path class="st0" d="M713.9,944.8l-116.5-76.3H482.6l-116.5,76.3c0,0,53.4,58.1,173.9,58.1C660.5,1002.8,713.9,944.8,713.9,944.8z"
		/>
	<path class="st0" d="M540,1002.8c-104.9,0-157-43.3-173.9-57.9v41.2c16.9,14.6,69,57.9,173.9,57.9c101.5,0,156.7-41.7,173.9-57.9
		v-41.2C696.7,961.1,641.5,1002.8,540,1002.8z"/>
	<g>
		<path class="st0" d="M689.7,474.3v-34.7c83.6,0,159.5-169.7,187.7-251.6l-59.8-27c-34.6,56.9-89.3,58.7-91.8,58.8l-0.7-34.6
			l0.3,17.3l-0.5-17.3c1.8-0.1,45.2-2.3,69.3-53.9l7.2-15.5l118.4,53.4l-4.6,14.7c-0.9,2.9-22.8,71.9-60.3,142.1
			C802.5,424.4,746.9,474.3,689.7,474.3z"/>
	</g>
	<path class="st0" d="M791.5,111.4l-7.2,15.5c-9.9,21.2-25.9,34.9-41.5,42.3V181l0.7-0.2c0,0,35-11.8,50.8-49.8l7.2-15.4
		L791.5,111.4z"/>
	<path class="st0" d="M715.6,434.3c73-29.3,136.5-173,161.7-246.3l-59.8-27c-2.1,3.5-4.4,6.8-6.7,10l52.9,23.8
		C840,263.5,782.8,394.1,715.6,434.3z"/>
	<g>
		<path class="st0" d="M390.3,474.3v-34.7c-83.6,0-159.5-169.7-187.7-251.6l59.8-27c34.6,56.9,89.3,58.7,91.8,58.8l0.7-34.6
			l-0.3,17.3l0.5-17.3c-1.8-0.1-45.2-2.3-69.3-53.9l-7.2-15.5l-118.5,53.4l4.6,14.7c0.9,2.9,22.8,71.9,60.3,142.1
			C277.5,424.4,333.1,474.3,390.3,474.3z"/>
	</g>
	<path class="st0" d="M288.5,111.4l7.2,15.5c9.9,21.2,25.9,34.9,41.5,42.3V181l-0.7-0.2c0,0-35-11.8-50.8-49.8l-7.1-15.4
		L288.5,111.4z"/>
	<path class="st0" d="M364.4,434.3C291.4,405,228,261.3,202.7,188l59.8-27c2.1,3.5,4.4,6.8,6.6,10l-52.9,23.8
		C240,263.5,297.2,394.1,364.4,434.3z"/>
	<path class="st0" d="M496.9,590h86.2c60.9-38,144.8-100.9,144.8-186.2L757,106.5c0,0-131.5-20.5-217-20.5
		c-85.4,0-217,20.5-217,20.5l29.1,297.3C352.1,489.1,436,552,496.9,590z"/>
	<path class="st0" d="M393.7,411.2c0,77.9,66.2,138,125.7,178.8h14.4c-25-36.4-78.1-122.6-78.1-198.4L426.4,93.1
		c-23.5,2.4-45.4,5.2-63.1,7.5L393.7,411.2z"/>
	<path class="st0" d="M683.5,411.2c0,77.9-66.2,138-125.7,178.8h-14.4c25-36.4,78.1-122.6,78.1-198.4l29.3-298.5
		c23.5,2.4,45.4,5.2,63.1,7.5L683.5,411.2z"/>
	<path class="st0" d="M592.3,607.2c0,5.4-4.4,9.8-9.8,9.8h-85.1c-5.4,0-9.8-4.4-9.8-9.8v-7.4c0-5.4,4.4-9.8,9.8-9.8h85.1
		c5.4,0,9.8,4.4,9.8,9.8V607.2z"/>
	<path class="st0" d="M504,826.1l-21.4,42.5c37.2,13.1,77.8,13.5,114.8-0.1L576,824.8C548.7,841.8,528.5,840.7,504,826.1z"/>
</g>
</svg>
