<?xml version="1.0" encoding="utf-8"?>
<!-- Generator: Adobe Illustrator 26.0.3, SVG Export Plug-In . SVG Version: 6.00 Build 0)  -->
<svg version="1.1" id="Layer_1" xmlns="http://www.w3.org/2000/svg" xmlns:xlink="http://www.w3.org/1999/xlink" x="0px" y="0px"
	 viewBox="0 0 43.8 43.8" style="enable-background:new 0 0 43.8 43.8;" xml:space="preserve">
<style type="text/css">
	.st0{fill:#FFFFFF;}
	.st1{opacity:0.8;fill:url(#SVGID_1_);enable-background:new    ;}
	.st2{fill:url(#SVGID_00000014600600229008646040000002637809926299434173_);}
	.st3{opacity:0.8;fill:url(#SVGID_00000039833248465246006160000018240208613796033719_);enable-background:new    ;}
	.st4{fill:url(#SVGID_00000070083292924731797710000011590210168806083239_);}
	.st5{opacity:0.8;fill:url(#SVGID_00000085217822798412039450000016281978527552060320_);enable-background:new    ;}
	.st6{fill:url(#SVGID_00000093885121386108088870000000233786110158683567_);}
	.st7{fill-rule:evenodd;clip-rule:evenodd;fill:#FFFFFF;}
	.st8{opacity:0.8;fill:url(#SVGID_00000051353193216396132920000010944449388616659616_);enable-background:new    ;}
	.st9{fill:url(#SVGID_00000085225984566998165400000005281763978052493222_);}
	.st10{opacity:0.8;fill:url(#SVGID_00000001664914023573906940000008449631802027117987_);enable-background:new    ;}
	.st11{fill:url(#SVGID_00000117671260472307048600000007482179750715033790_);}
	.st12{opacity:0.8;fill:url(#SVGID_00000111881274511746991540000007492521636995931290_);enable-background:new    ;}
	.st13{fill:url(#SVGID_00000178909545192703774810000014083531704671648402_);}
	.st14{opacity:0.8;fill:url(#SVGID_00000070109935167240522160000013875248657290528165_);enable-background:new    ;}
	.st15{fill:url(#SVGID_00000047032613513692064320000003326859231771644082_);}
	.st16{opacity:0.8;fill:url(#SVGID_00000159462378687891661130000007475447150810549929_);enable-background:new    ;}
	.st17{fill:url(#SVGID_00000093163353505829428410000000100516735696927616_);}
	.st18{fill-rule:evenodd;clip-rule:evenodd;fill:#EE1D52;}
	.st19{fill-rule:evenodd;clip-rule:evenodd;fill:#69C9D0;}
	.st20{opacity:0.8;fill:url(#SVGID_00000058586066340046143850000010457855048010315144_);enable-background:new    ;}
	.st21{fill:url(#SVGID_00000183222960338961892350000009947596674931436197_);}
	.st22{opacity:0.8;fill:url(#SVGID_00000044868827098939972350000014619914334413155260_);enable-background:new    ;}
	.st23{fill:url(#SVGID_00000083073748048250381310000005173443452934782653_);}
	.st24{opacity:0.8;fill:url(#SVGID_00000120558250772886505920000010470445237106590909_);enable-background:new    ;}
	.st25{fill:url(#SVGID_00000010998628669684303390000003052184492270830744_);}
	.st26{opacity:0.8;fill:url(#SVGID_00000062908090154326610260000011821868755157101237_);enable-background:new    ;}
	.st27{fill:url(#SVGID_00000027600200359054850390000012636969243026596281_);}
	.st28{opacity:0.8;fill:url(#SVGID_00000113331618487320167450000017582455778254106526_);enable-background:new    ;}
	.st29{opacity:0.8;fill:url(#SVGID_00000154424313016318225260000016591798366192170918_);enable-background:new    ;}
	.st30{opacity:0.8;fill:url(#SVGID_00000055685623640612994460000006987360890795253647_);enable-background:new    ;}
	.st31{opacity:0.8;fill:url(#SVGID_00000154399735828933479360000000936364668793431216_);enable-background:new    ;}
	.st32{opacity:0.8;fill:url(#SVGID_00000017500532577601432240000002896469447491286711_);enable-background:new    ;}
	.st33{opacity:0.8;fill:url(#SVGID_00000081616614588288768820000000963185034613432452_);enable-background:new    ;}
	.st34{opacity:0.8;fill:url(#SVGID_00000071518678122291409660000015705794228275182990_);enable-background:new    ;}
	.st35{opacity:0.8;fill:url(#SVGID_00000050631421905949866220000016366588982424199325_);enable-background:new    ;}
	.st36{opacity:0.8;fill:url(#SVGID_00000023267202898172826000000011135679131175051170_);enable-background:new    ;}
</style>
<rect x="12.9" y="9.3" class="st0" width="18.7" height="34.5"/>
<g id="BACKGROUND">
</g>
<g>
	<g>
		
			<radialGradient id="SVGID_1_" cx="33.6765" cy="150.5879" r="21.5" gradientTransform="matrix(1 0 0 -1 0 32.485)" gradientUnits="userSpaceOnUse">
			<stop  offset="0" style="stop-color:#000056"/>
			<stop  offset="0.2482" style="stop-color:#4C4C88;stop-opacity:0.7518"/>
			<stop  offset="0.5193" style="stop-color:#9898BB;stop-opacity:0.4807"/>
			<stop  offset="0.744" style="stop-color:#D0D0E0;stop-opacity:0.256"/>
			<stop  offset="0.9103" style="stop-color:#F2F2F6;stop-opacity:8.971435e-02"/>
			<stop  offset="1" style="stop-color:#FFFFFF;stop-opacity:0"/>
		</radialGradient>
		<circle class="st1" cx="33.7" cy="-118.1" r="21.5"/>
		
			<linearGradient id="SVGID_00000118386587210344521300000002593844048094540220_" gradientUnits="userSpaceOnUse" x1="188.0145" y1="1318.6631" x2="212.7632" y2="1293.9144" gradientTransform="matrix(0 1 1 0 -1277.8479 -326.7607)">
			<stop  offset="0" style="stop-color:#FEFB01"/>
			<stop  offset="1" style="stop-color:#FCBB45"/>
		</linearGradient>
		<path style="fill:url(#SVGID_00000118386587210344521300000002593844048094540220_);" d="M13.8-119.4v-13.9c0-4.2,3.4-7.6,7.6-7.6
			h14c4.2,0,7.6,3.4,7.6,7.6v13.9c0,4.2-3.4,7.6-7.6,7.6H21.5C17.3-111.8,13.8-115.2,13.8-119.4z"/>
		<path class="st0" d="M19.5-121.7c0-0.1,0-0.2,0-0.3c0.1-0.1,0.2-0.2,0.4-0.3c1.5-0.3,2.5-1.2,3.2-2.5c0.6-1,0.5-1.3-0.6-1.7
			c-0.1,0-0.1,0-0.2-0.1c-0.2-0.1-0.5-0.2-0.7-0.4c-0.5-0.4-0.2-1.1,0.4-1.2c0.4-0.1,0.8,0.2,1.3,0.2c0.3,0,0.4-0.1,0.4-0.4
			c-0.1-0.8-0.1-1.6-0.1-2.4c0.1-1.5,0.8-2.7,2.1-3.4c1.8-1.1,3.8-1.1,5.6,0c1.2,0.7,1.9,1.7,2.1,3.1c0.1,0.9,0.1,1.8,0,2.7
			c0,0.4,0,0.5,0.4,0.4c0.5-0.1,0.9-0.4,1.4-0.1c0.3,0.1,0.5,0.4,0.5,0.7c0,0.2-0.1,0.4-0.3,0.5c-0.2,0.2-0.5,0.3-0.8,0.4
			c-0.2,0.1-0.4,0.2-0.7,0.3c-0.4,0.2-0.6,0.5-0.4,0.9c0.7,1.5,1.7,2.6,3.4,3c0.2,0,0.4,0.1,0.5,0.3c0,0.1,0,0.2,0,0.3
			c-0.2,0.3-0.4,0.5-0.8,0.6c-0.3,0.1-0.7,0.3-1,0.3c-0.5,0-0.7,0.2-0.8,0.7s-0.2,0.5-0.7,0.5c-0.1,0-0.2,0-0.3-0.1
			c-1-0.2-1.9-0.1-2.6,0.6c-0.2,0.1-0.3,0.2-0.5,0.3c-1.3,0.9-2.7,1-4.1,0.2c-0.4-0.2-0.7-0.5-1.1-0.7c-0.3-0.2-0.6-0.3-1-0.4
			c-0.6-0.1-1.1,0-1.7,0.1c-0.3,0-0.6-0.1-0.6-0.4c0-0.7-0.5-0.9-1.1-1c-0.3,0-0.6-0.1-0.8-0.3C19.9-121.2,19.7-121.4,19.5-121.7z"
			/>
	</g>
	<g>
		
			<radialGradient id="SVGID_00000141414372053558195150000006564991446399928246_" cx="119.4765" cy="192.8425" r="20.9607" gradientTransform="matrix(1 0 0 -1 0 32.485)" gradientUnits="userSpaceOnUse">
			<stop  offset="0" style="stop-color:#000056"/>
			<stop  offset="0.2482" style="stop-color:#4C4C88;stop-opacity:0.7518"/>
			<stop  offset="0.5193" style="stop-color:#9898BB;stop-opacity:0.4807"/>
			<stop  offset="0.744" style="stop-color:#D0D0E0;stop-opacity:0.256"/>
			<stop  offset="0.9103" style="stop-color:#F2F2F6;stop-opacity:8.971435e-02"/>
			<stop  offset="1" style="stop-color:#FFFFFF;stop-opacity:0"/>
		</radialGradient>
		
			<circle style="opacity:0.8;fill:url(#SVGID_00000141414372053558195150000006564991446399928246_);enable-background:new    ;" cx="119.5" cy="-160.4" r="21"/>
		
			<linearGradient id="SVGID_00000163034357122790115980000001075835995276641971_" gradientUnits="userSpaceOnUse" x1="218.0601" y1="1408.7904" x2="242.8088" y2="1384.0416" gradientTransform="matrix(0 1 1 0 -1283.0063 -399.2751)">
			<stop  offset="0" style="stop-color:#33CCFF"/>
			<stop  offset="1" style="stop-color:#337FFF"/>
		</linearGradient>
		<path style="fill:url(#SVGID_00000163034357122790115980000001075835995276641971_);" d="M98.8-161.9v-13.9c0-4.2,3.4-7.6,7.6-7.6
			h14c4.2,0,7.6,3.4,7.6,7.6v13.9c0,4.2-3.4,7.6-7.6,7.6h-14C102.2-154.3,98.8-157.7,98.8-161.9z"/>
		<path class="st0" d="M121.5-173.9c-0.5,0.2-1.1,0.4-1.6,0.5c0.3,0,0.6-0.5,0.8-0.7c0.2-0.3,0.4-0.6,0.5-1v-0.1h-0.1
			c-0.6,0.3-1.2,0.6-1.9,0.7c-0.1,0-0.1,0-0.1,0c-0.1-0.1-0.1-0.1-0.2-0.2c-0.3-0.2-0.6-0.4-0.9-0.6c-0.4-0.2-0.9-0.3-1.4-0.2
			c-0.5,0-0.9,0.2-1.3,0.4c-0.4,0.2-0.8,0.5-1.1,0.9s-0.5,0.8-0.6,1.3s-0.1,0.9,0,1.4c0,0.1,0,0.1-0.1,0.1c-2.6-0.4-4.8-1.3-6.6-3.3
			c-0.1-0.1-0.1-0.1-0.2,0c-0.8,1.2-0.4,3,0.6,3.9c0.1,0.1,0.3,0.2,0.4,0.4c-0.1,0-0.7-0.1-1.3-0.4c-0.1,0-0.1,0-0.1,0.1
			s0,0.2,0,0.4c0.1,1.2,1,2.3,2.1,2.7c0.1,0.1,0.3,0.1,0.4,0.1c-0.3,0.1-0.5,0.1-1.2,0c-0.1,0-0.1,0-0.1,0.1
			c0.5,1.5,1.7,1.9,2.6,2.2c0.1,0,0.2,0,0.4,0l0,0c-0.3,0.4-1.3,0.8-1.8,0.9c-0.9,0.3-1.8,0.4-2.7,0.3c-0.1,0-0.2,0-0.2,0v0.1
			c0.2,0.1,0.4,0.2,0.6,0.3c0.6,0.3,1.2,0.6,1.8,0.7c3.3,0.9,6.9,0.2,9.4-2.2c1.9-1.9,2.6-4.5,2.6-7.2c0-0.1,0.1-0.2,0.2-0.2
			c0.5-0.4,0.9-0.8,1.3-1.3C121.6-173.8,121.6-173.9,121.5-173.9C121.6-173.9,121.6-173.9,121.5-173.9
			C121.6-174,121.6-173.9,121.5-173.9z"/>
	</g>
	<g>
		
			<radialGradient id="SVGID_00000073703884065685856080000008270513228736102037_" cx="119.4765" cy="150.5879" r="20.9773" gradientTransform="matrix(1 0 0 -1 0 32.485)" gradientUnits="userSpaceOnUse">
			<stop  offset="0" style="stop-color:#000056"/>
			<stop  offset="0.2482" style="stop-color:#4C4C88;stop-opacity:0.7518"/>
			<stop  offset="0.5193" style="stop-color:#9898BB;stop-opacity:0.4807"/>
			<stop  offset="0.744" style="stop-color:#D0D0E0;stop-opacity:0.256"/>
			<stop  offset="0.9103" style="stop-color:#F2F2F6;stop-opacity:8.971435e-02"/>
			<stop  offset="1" style="stop-color:#FFFFFF;stop-opacity:0"/>
		</radialGradient>
		
			<circle style="opacity:0.8;fill:url(#SVGID_00000073703884065685856080000008270513228736102037_);enable-background:new    ;" cx="119.5" cy="-118.1" r="21"/>
		
			<linearGradient id="SVGID_00000025438691045847977640000000248255687216294784_" gradientUnits="userSpaceOnUse" x1="248.1089" y1="1378.7576" x2="272.8577" y2="1354.0088" gradientTransform="matrix(0 1 1 0 -1252.9656 -386.8319)">
			<stop  offset="0" style="stop-color:#60FC7C"/>
			<stop  offset="1" style="stop-color:#4AB161"/>
		</linearGradient>
		<path style="fill:url(#SVGID_00000025438691045847977640000000248255687216294784_);" d="M98.8-119.4v-13.9c0-4.2,3.4-7.6,7.6-7.6
			h14c4.2,0,7.6,3.4,7.6,7.6v13.9c0,4.2-3.4,7.6-7.6,7.6h-14C102.2-111.8,98.8-115.2,98.8-119.4z"/>
		<path class="st0" d="M105.5-118.1l1.2-4.5c-0.7-1.2-1.1-2.6-1.1-4.1c0-4.6,3.8-8.4,8.4-8.4c4.6,0,8.4,3.8,8.4,8.4
			s-3.8,8.4-8.4,8.4c-1.4,0-2.8-0.4-4-1L105.5-118.1z M110.3-121.1l0.3,0.2c1.1,0.6,2.3,1,3.5,1c3.8,0,6.8-3.1,6.8-6.8
			c0-3.8-3.1-6.8-6.8-6.8c-3.8,0-6.8,3.1-6.8,6.8c0,1.2,0.3,2.5,1,3.5l0.2,0.3l-0.7,2.5L110.3-121.1z"/>
		<path class="st7" d="M117.2-125.6c-0.3-0.2-0.8-0.4-1.2-0.3c-0.3,0.1-0.5,0.6-0.7,0.9c-0.1,0.1-0.2,0.1-0.4,0.1
			c-1.2-0.5-2.1-1.3-2.7-2.3c-0.1-0.2-0.1-0.3,0-0.5c0.2-0.2,0.4-0.5,0.5-0.8s-0.1-0.7-0.2-0.9c-0.2-0.4-0.3-0.9-0.7-1.1
			c-0.3-0.2-0.8-0.1-1,0.2c-0.5,0.4-0.7,1-0.7,1.7c0,0.2,0,0.4,0.1,0.5c0.1,0.4,0.3,0.8,0.5,1.2c0.2,0.3,0.3,0.5,0.5,0.8
			c0.6,0.9,1.4,1.6,2.3,2.1c0.5,0.3,0.9,0.5,1.4,0.7c0.6,0.2,1.1,0.4,1.7,0.3c0.6-0.1,1.3-0.5,1.5-1.1c0.1-0.2,0.1-0.4,0.1-0.6
			C118.1-125.2,117.5-125.4,117.2-125.6z"/>
	</g>
	<g>
		
			<radialGradient id="SVGID_00000168839915378425822840000003421452339416432512_" cx="76.5765" cy="150.5879" r="20.9773" gradientTransform="matrix(1 0 0 -1 0 32.485)" gradientUnits="userSpaceOnUse">
			<stop  offset="0" style="stop-color:#000056"/>
			<stop  offset="0.2482" style="stop-color:#4C4C88;stop-opacity:0.7518"/>
			<stop  offset="0.5193" style="stop-color:#9898BB;stop-opacity:0.4807"/>
			<stop  offset="0.744" style="stop-color:#D0D0E0;stop-opacity:0.256"/>
			<stop  offset="0.9103" style="stop-color:#F2F2F6;stop-opacity:8.971435e-02"/>
			<stop  offset="1" style="stop-color:#FFFFFF;stop-opacity:0"/>
		</radialGradient>
		
			<circle style="opacity:0.8;fill:url(#SVGID_00000168839915378425822840000003421452339416432512_);enable-background:new    ;" cx="76.6" cy="-118.1" r="21"/>
		
			<linearGradient id="SVGID_00000037662124089158427950000007185661423212246945_" gradientUnits="userSpaceOnUse" x1="218.0351" y1="1348.684" x2="242.7838" y2="1323.9351" gradientTransform="matrix(0 1 1 0 -1265.4088 -356.7911)">
			<stop  offset="0" style="stop-color:#FF0000"/>
			<stop  offset="1" style="stop-color:#850000"/>
		</linearGradient>
		<path style="fill:url(#SVGID_00000037662124089158427950000007185661423212246945_);" d="M56.3-119.4v-13.9c0-4.2,3.4-7.6,7.6-7.6
			h13.9c4.2,0,7.6,3.4,7.6,7.6v13.9c0,4.2-3.4,7.6-7.6,7.6H64C59.7-111.8,56.3-115.2,56.3-119.4z"/>
		<path class="st0" d="M78.8-128.5c0-1.9-1.6-3.5-3.5-3.5h-9c-1.9,0-3.5,1.6-3.5,3.5v4.2c0,1.9,1.6,3.5,3.5,3.5h9
			c1.9,0,3.5-1.6,3.5-3.5V-128.5z M73.5-126.1l-4,2c-0.2,0.1-0.7,0-0.7-0.2v-4.1c0-0.2,0.5-0.3,0.7-0.2l3.9,2.1
			C73.5-126.5,73.6-126.2,73.5-126.1z"/>
	</g>
	<g>
		
			<radialGradient id="SVGID_00000109749459242785210790000014255112168144886956_" cx="76.5765" cy="192.8425" r="20.9698" gradientTransform="matrix(1 0 0 -1 0 32.485)" gradientUnits="userSpaceOnUse">
			<stop  offset="0" style="stop-color:#000056"/>
			<stop  offset="0.2482" style="stop-color:#4C4C88;stop-opacity:0.7518"/>
			<stop  offset="0.5193" style="stop-color:#9898BB;stop-opacity:0.4807"/>
			<stop  offset="0.744" style="stop-color:#D0D0E0;stop-opacity:0.256"/>
			<stop  offset="0.9103" style="stop-color:#F2F2F6;stop-opacity:8.971435e-02"/>
			<stop  offset="1" style="stop-color:#FFFFFF;stop-opacity:0"/>
		</radialGradient>
		
			<circle style="opacity:0.8;fill:url(#SVGID_00000109749459242785210790000014255112168144886956_);enable-background:new    ;" cx="76.6" cy="-160.4" r="21"/>
		
			<linearGradient id="SVGID_00000148640856141338228240000002863588529691218314_" gradientUnits="userSpaceOnUse" x1="185.438" y1="1381.265" x2="223.2572" y2="1343.4458" gradientTransform="matrix(0 1 1 0 -1295.4497 -369.2344)">
			<stop  offset="1.104800e-03" style="stop-color:#FBE18A"/>
			<stop  offset="0.2094" style="stop-color:#FCBB45"/>
			<stop  offset="0.3765" style="stop-color:#F75274"/>
			<stop  offset="0.5238" style="stop-color:#D53692"/>
			<stop  offset="0.7394" style="stop-color:#8F39CE"/>
			<stop  offset="1" style="stop-color:#5B4FE9"/>
		</linearGradient>
		<path style="fill:url(#SVGID_00000148640856141338228240000002863588529691218314_);" d="M56.3-161.9v-13.9c0-4.2,3.4-7.6,7.6-7.6
			h13.9c4.2,0,7.6,3.4,7.6,7.6v13.9c0,4.2-3.4,7.6-7.6,7.6H63.9C59.7-154.3,56.3-157.7,56.3-161.9z"/>
		<g>
			<circle class="st0" cx="75.5" cy="-173.4" r="1"/>
			<path class="st0" d="M71-173.1c-2.3,0-4.2,1.9-4.2,4.2s1.9,4.2,4.2,4.2c2.3,0,4.2-1.9,4.2-4.2C75.2-171.2,73.3-173.1,71-173.1z
				 M71-166.2c-1.5,0-2.7-1.2-2.7-2.7s1.2-2.7,2.7-2.7s2.7,1.2,2.7,2.7C73.7-167.4,72.5-166.2,71-166.2z"/>
			<path class="st0" d="M74.4-160.3h-6.8c-2.8,0-5.1-2.3-5.1-5.1v-6.8c0-2.8,2.3-5.1,5.1-5.1h6.8c2.8,0,5.1,2.3,5.1,5.1v6.8
				C79.5-162.6,77.2-160.3,74.4-160.3z M67.5-175.9c-2,0-3.5,1.6-3.5,3.5v6.8c0,2,1.6,3.5,3.5,3.5h6.9c2,0,3.5-1.6,3.5-3.5v-6.8
				c0-2-1.6-3.5-3.5-3.5H67.5z"/>
		</g>
	</g>
	
		<radialGradient id="SVGID_00000067940135708582753540000018438942486820961680_" cx="28.6765" cy="194.3425" r="21.5" gradientTransform="matrix(1 0 0 -1 0 32.485)" gradientUnits="userSpaceOnUse">
		<stop  offset="0" style="stop-color:#000056"/>
		<stop  offset="0.2482" style="stop-color:#4C4C88;stop-opacity:0.7518"/>
		<stop  offset="0.5193" style="stop-color:#9898BB;stop-opacity:0.4807"/>
		<stop  offset="0.744" style="stop-color:#D0D0E0;stop-opacity:0.256"/>
		<stop  offset="0.9103" style="stop-color:#F2F2F6;stop-opacity:8.971435e-02"/>
		<stop  offset="1" style="stop-color:#FFFFFF;stop-opacity:0"/>
	</radialGradient>
	
		<circle style="opacity:0.8;fill:url(#SVGID_00000067940135708582753540000018438942486820961680_);enable-background:new    ;" cx="28.7" cy="-161.9" r="21.5"/>
	<g>
		
			<linearGradient id="SVGID_00000049220065391717913400000013310210341664956585_" gradientUnits="userSpaceOnUse" x1="157.4658" y1="1348.6959" x2="182.2145" y2="1323.9473" gradientTransform="matrix(0 1 1 0 -1307.8887 -339.204)">
			<stop  offset="0" style="stop-color:#4676ED"/>
			<stop  offset="0.1854" style="stop-color:#436DE4"/>
			<stop  offset="0.487" style="stop-color:#3C55CD"/>
			<stop  offset="0.8651" style="stop-color:#302EA8"/>
			<stop  offset="1" style="stop-color:#2B1E99"/>
		</linearGradient>
		<path style="fill:url(#SVGID_00000049220065391717913400000013310210341664956585_);" d="M13.8-162.4v-13.9c0-4.2,3.4-7.6,7.6-7.6
			h14c4.2,0,7.6,3.4,7.6,7.6v13.9c0,4.2-3.4,7.6-7.6,7.6h-4.7l-2.5-0.6l-2.1,0.6h-4.7C17.3-154.8,13.8-158.2,13.8-162.4z"/>
		<g>
			<path class="st0" d="M34.2-164.7l0.6-4.2h-4.1v-2.7c0-1.2,0.6-2.3,2.4-2.3h1.8v-3.6c0,0-1.7-0.3-3.3-0.3c-3.3,0-5.5,2-5.5,5.7
				v3.2h-3.7v4.2h3.7v9.9h4.6v-9.9L34.2-164.7L34.2-164.7z"/>
		</g>
	</g>
	<g>
		
			<radialGradient id="SVGID_00000008140898929387047060000008881575804120489858_" cx="33.6765" cy="107.3425" r="21.5" gradientTransform="matrix(1 0 0 -1 0 32.485)" gradientUnits="userSpaceOnUse">
			<stop  offset="0" style="stop-color:#000056"/>
			<stop  offset="0.2482" style="stop-color:#4C4C88;stop-opacity:0.7518"/>
			<stop  offset="0.5193" style="stop-color:#9898BB;stop-opacity:0.4807"/>
			<stop  offset="0.744" style="stop-color:#D0D0E0;stop-opacity:0.256"/>
			<stop  offset="0.9103" style="stop-color:#F2F2F6;stop-opacity:8.971435e-02"/>
			<stop  offset="1" style="stop-color:#FFFFFF;stop-opacity:0"/>
		</radialGradient>
		
			<circle style="opacity:0.8;fill:url(#SVGID_00000008140898929387047060000008881575804120489858_);enable-background:new    ;" cx="33.7" cy="-74.9" r="21.5"/>
		
			<linearGradient id="SVGID_00000047052766272761224400000008042296027457446555_" gradientUnits="userSpaceOnUse" x1="218.0676" y1="1288.6049" x2="242.8163" y2="1263.8561" gradientTransform="matrix(0 1 1 0 -1247.7921 -314.3112)">
			<stop  offset="0" style="stop-color:#007AB5"/>
			<stop  offset="1" style="stop-color:#0046E5"/>
		</linearGradient>
		<path style="fill:url(#SVGID_00000047052766272761224400000008042296027457446555_);" d="M13.8-76.9v-13.9c0-4.2,3.4-7.6,7.6-7.6
			h14c4.2,0,7.6,3.4,7.6,7.6v13.9c0,4.2-3.4,7.6-7.6,7.6H21.5C17.3-69.3,13.8-72.7,13.8-76.9z"/>
		<path class="st0" d="M22.3-86.6h2.8v9.1h-2.8V-86.6z M23.7-91.2c0.9,0,1.6,0.7,1.6,1.6S24.6-88,23.7-88c-0.9,0-1.6-0.7-1.6-1.6
			C22.1-90.4,22.8-91.2,23.7-91.2"/>
		<path class="st0" d="M26.9-86.6h2.7v1.2l0,0c0.4-0.7,1.3-1.5,2.7-1.5c2.9,0,3.4,1.9,3.4,4.3v5h-2.8V-82c0-1.1,0-2.4-1.5-2.4
			c-1.5,0-1.7,1.1-1.7,2.3v4.5h-2.8C26.9-77.6,26.9-86.6,26.9-86.6z"/>
	</g>
	<g>
		
			<radialGradient id="SVGID_00000044861174756442165550000005536351346198744242_" cx="161.8765" cy="192.3425" r="21.028" gradientTransform="matrix(1 0 0 -1 0 32.485)" gradientUnits="userSpaceOnUse">
			<stop  offset="0" style="stop-color:#000056"/>
			<stop  offset="0.2482" style="stop-color:#4C4C88;stop-opacity:0.7518"/>
			<stop  offset="0.5193" style="stop-color:#9898BB;stop-opacity:0.4807"/>
			<stop  offset="0.744" style="stop-color:#D0D0E0;stop-opacity:0.256"/>
			<stop  offset="0.9103" style="stop-color:#F2F2F6;stop-opacity:8.971435e-02"/>
			<stop  offset="1" style="stop-color:#FFFFFF;stop-opacity:0"/>
		</radialGradient>
		
			<circle style="opacity:0.8;fill:url(#SVGID_00000044861174756442165550000005536351346198744242_);enable-background:new    ;" cx="161.9" cy="-159.9" r="21"/>
		
			<linearGradient id="SVGID_00000125575294944037943280000015390640562379357073_" gradientUnits="userSpaceOnUse" x1="193.1908" y1="1366.3521" x2="217.9395" y2="1391.1008" gradientTransform="matrix(0 1 1 0 -1222.9098 -374.3824)">
			<stop  offset="0" style="stop-color:#22004A"/>
			<stop  offset="0.9565" style="stop-color:#020003"/>
			<stop  offset="1" style="stop-color:#000000"/>
		</linearGradient>
		<path style="fill:url(#SVGID_00000125575294944037943280000015390640562379357073_);" d="M141.3-161.9v-13.9
			c0-4.2,3.4-7.6,7.6-7.6h13.9c4.2,0,7.6,3.4,7.6,7.6v13.9c0,4.2-3.4,7.6-7.6,7.6h-13.9C144.7-154.3,141.3-157.7,141.3-161.9z"/>
		<g>
			<path class="st18" d="M159.8-171.6c1.2,0.9,2.7,1.4,4.2,1.4v-3c-0.3,0-0.6,0-0.9-0.1v2.4c-1.6,0-3-0.5-4.2-1.4v6.2
				c0,3.1-2.5,5.6-5.6,5.6c-1.2,0-2.2-0.4-3.1-1c1,1,2.4,1.7,4,1.7c3.1,0,5.6-2.5,5.6-5.6V-171.6L159.8-171.6z M160.9-174.7
				c-0.6-0.7-1-1.5-1.1-2.5v-0.4H159C159.2-176.3,159.9-175.3,160.9-174.7L160.9-174.7z M152.1-163.8c-0.3-0.4-0.5-1-0.5-1.6
				c0-1.4,1.2-2.6,2.6-2.6c0.3,0,0.5,0,0.8,0.1v-3.1c-0.3,0-0.6-0.1-0.9-0.1v2.4c-0.3-0.1-0.5-0.1-0.8-0.1c-1.4,0-2.6,1.2-2.6,2.6
				C150.7-165.1,151.3-164.2,152.1-163.8z"/>
			<path class="st7" d="M158.9-172.3c1.2,0.9,2.7,1.4,4.2,1.4v-2.4c-0.9-0.2-1.7-0.6-2.3-1.3c-1-0.6-1.7-1.7-1.9-2.9h-2.2v12.2
				c0,1.4-1.2,2.6-2.6,2.6c-0.8,0-1.6-0.4-2.1-1c-0.8-0.4-1.4-1.3-1.4-2.3c0-1.4,1.2-2.6,2.6-2.6c0.3,0,0.5,0,0.8,0.1v-2.4
				c-3.1,0.1-5.5,2.6-5.5,5.6c0,1.5,0.6,2.9,1.6,3.9c0.9,0.6,2,1,3.1,1c3.1,0,5.6-2.5,5.6-5.6L158.9-172.3L158.9-172.3z"/>
			<path class="st19" d="M163.2-173.4v-0.6c-0.8,0-1.6-0.2-2.3-0.6C161.5-174,162.3-173.6,163.2-173.4z M159-177.5
				c0-0.1,0-0.2,0-0.3v-0.4h-3.1v12.2c0,1.4-1.2,2.6-2.6,2.6c-0.4,0-0.8-0.1-1.2-0.3c0.5,0.6,1.2,1,2.1,1c1.4,0,2.6-1.1,2.6-2.6
				v-12.2H159z M154.1-171v-0.7c-0.3,0-0.5-0.1-0.8-0.1c-3.1,0-5.6,2.5-5.6,5.6c0,1.9,1,3.7,2.5,4.7c-1-1-1.6-2.4-1.6-3.9
				C148.6-168.4,151-170.9,154.1-171L154.1-171z"/>
		</g>
	</g>
	<g>
		
			<radialGradient id="SVGID_00000079465473947099742880000016083048064256908937_" cx="76.5765" cy="107.3425" r="21" gradientTransform="matrix(1 0 0 -1 0 32.485)" gradientUnits="userSpaceOnUse">
			<stop  offset="0" style="stop-color:#000056"/>
			<stop  offset="0.2482" style="stop-color:#4C4C88;stop-opacity:0.7518"/>
			<stop  offset="0.5193" style="stop-color:#9898BB;stop-opacity:0.4807"/>
			<stop  offset="0.744" style="stop-color:#D0D0E0;stop-opacity:0.256"/>
			<stop  offset="0.9103" style="stop-color:#F2F2F6;stop-opacity:8.971435e-02"/>
			<stop  offset="1" style="stop-color:#FFFFFF;stop-opacity:0"/>
		</radialGradient>
		
			<circle style="opacity:0.8;fill:url(#SVGID_00000079465473947099742880000016083048064256908937_);enable-background:new    ;" cx="76.6" cy="-74.9" r="21"/>
		
			<linearGradient id="SVGID_00000096742779091133152310000016449775096444298675_" gradientUnits="userSpaceOnUse" x1="245.8484" y1="1306.1797" x2="275.0913" y2="1306.1797" gradientTransform="matrix(0 1 1 0 -1235.3531 -344.3416)">
			<stop  offset="0" style="stop-color:#F26798"/>
			<stop  offset="0.8664" style="stop-color:#C82093"/>
			<stop  offset="1" style="stop-color:#C11592"/>
		</linearGradient>
		<path style="fill:url(#SVGID_00000096742779091133152310000016449775096444298675_);" d="M56.3-76.9v-13.9c0-4.2,3.4-7.6,7.6-7.6
			h13.9c4.2,0,7.6,3.4,7.6,7.6v13.9c0,4.2-3.4,7.6-7.6,7.6H63.9C59.7-69.3,56.3-72.7,56.3-76.9z"/>
		<path class="st0" d="M70.9-92.1c-4.5,0-8.2,3.7-8.2,8.2c0,4.5,3.7,8.2,8.2,8.2s8.2-3.7,8.2-8.2C79.2-88.4,75.5-92.1,70.9-92.1
			L70.9-92.1z M76.3-88.3c0.9,1.2,1.5,2.6,1.5,4.2c-0.3-0.1-1.6-0.3-3.2-0.3c-0.5,0-1,0-1.6,0.1c0-0.1-0.1-0.2-0.1-0.3
			c-0.1-0.3-0.3-0.7-0.4-1C74.9-86.5,76.1-87.9,76.3-88.3L76.3-88.3z M70.9-90.8c1.8,0,3.4,0.7,4.6,1.7c-0.2,0.3-1.2,1.6-3.6,2.5
			c-1.1-2-2.3-3.6-2.6-4C69.9-90.8,70.4-90.8,70.9-90.8L70.9-90.8z M67.9-90.2c0.2,0.3,1.4,2,2.5,4c-3,0.8-5.6,0.8-6.3,0.8H64
			C64.6-87.5,66-89.3,67.9-90.2L67.9-90.2z M64-83.9c0-0.1,0-0.1,0-0.2c0,0,0.1,0,0.2,0c0.9,0,3.9-0.1,6.9-1
			c0.2,0.4,0.4,0.7,0.5,1.1c-0.1,0-0.2,0-0.2,0.1c-3.5,1.1-5.4,4.1-5.7,4.6C64.6-80.5,64-82.1,64-83.9L64-83.9z M70.9-77
			c-1.6,0-3.1-0.5-4.2-1.4c0.2-0.4,1.6-3,5.4-4.3l0,0c1,2.5,1.4,4.6,1.5,5.2C72.8-77.2,71.9-77,70.9-77L70.9-77z M74.9-78.2
			c-0.1-0.5-0.5-2.5-1.3-4.9c0.5-0.1,1-0.1,1.4-0.1c1.5,0,2.6,0.3,2.9,0.4C77.5-80.9,76.4-79.2,74.9-78.2L74.9-78.2z"/>
	</g>
	<g>
		
			<radialGradient id="SVGID_00000113348118002201084430000015843905837856761499_" cx="162.3214" cy="150.5879" r="21" gradientTransform="matrix(1 0 0 -1 0 32.485)" gradientUnits="userSpaceOnUse">
			<stop  offset="0" style="stop-color:#000056"/>
			<stop  offset="0.2482" style="stop-color:#4C4C88;stop-opacity:0.7518"/>
			<stop  offset="0.5193" style="stop-color:#9898BB;stop-opacity:0.4807"/>
			<stop  offset="0.744" style="stop-color:#D0D0E0;stop-opacity:0.256"/>
			<stop  offset="0.9103" style="stop-color:#F2F2F6;stop-opacity:8.971435e-02"/>
			<stop  offset="1" style="stop-color:#FFFFFF;stop-opacity:0"/>
		</radialGradient>
		
			<circle style="opacity:0.8;fill:url(#SVGID_00000113348118002201084430000015843905837856761499_);enable-background:new    ;" cx="162.3" cy="-118.1" r="21"/>
		
			<linearGradient id="SVGID_00000183212169842987403720000017335515169687863437_" gradientUnits="userSpaceOnUse" x1="278.1326" y1="1408.7814" x2="302.8813" y2="1384.0327" gradientTransform="matrix(0 1 1 0 -1240.5223 -416.8727)">
			<stop  offset="0" style="stop-color:#006EF5"/>
			<stop  offset="0.7752" style="stop-color:#2131AE"/>
			<stop  offset="1" style="stop-color:#2B1E99"/>
		</linearGradient>
		<path style="fill:url(#SVGID_00000183212169842987403720000017335515169687863437_);" d="M141.3-119.4v-13.9
			c0-4.2,3.4-7.6,7.6-7.6h13.9c4.2,0,7.6,3.4,7.6,7.6v13.9c0,4.2-3.4,7.6-7.6,7.6h-13.9C144.7-111.8,141.3-115.2,141.3-119.4z"/>
		<path class="st0" d="M156.7-123.8c0,0.4-0.1,0.8-0.3,1.2c-0.2,0.3-0.4,0.6-0.7,0.8c-0.3,0.2-0.7,0.4-1.1,0.5
			c-0.4,0.1-0.8,0.2-1.3,0.2h-5.1v-10.5h5.6c0.4,0,0.7,0.1,1,0.2c0.3,0.2,0.5,0.4,0.8,0.6c0.2,0.3,0.4,0.5,0.5,0.9
			c0.1,0.3,0.2,0.6,0.2,1c0,0.5-0.1,1-0.4,1.4c-0.3,0.5-0.6,0.8-1.1,1c0.6,0.2,1.1,0.5,1.4,1C156.5-125.1,156.7-124.5,156.7-123.8z
			 M150.3-129.9v2.7h2.7c0.3,0,0.6-0.1,0.9-0.4c0.2-0.2,0.4-0.6,0.4-1c0-0.4-0.1-0.7-0.3-1c-0.2-0.2-0.5-0.4-0.8-0.4h-2.9V-129.9z
			 M154.6-124.2c0-0.2,0-0.4-0.1-0.5c-0.1-0.2-0.2-0.3-0.3-0.5c-0.1-0.1-0.2-0.2-0.4-0.3c-0.1-0.1-0.3-0.1-0.5-0.1h-3.1v2.8h3
			c0.2,0,0.4,0,0.5-0.1c0.2-0.1,0.3-0.2,0.4-0.3c0.1-0.1,0.2-0.3,0.3-0.4C154.6-123.8,154.6-124,154.6-124.2z"/>
		<path class="st0" d="M161.1-121.1c-0.6,0-1.2-0.1-1.6-0.3c-1-0.4-1.7-1.1-2-2.1c-0.2-0.5-0.3-1-0.3-1.5s0.1-1,0.3-1.5
			c0.4-1,1.1-1.7,2-2.1c0.5-0.2,1-0.3,1.7-0.3c0.6,0,1.2,0.1,1.6,0.3c1.6,0.7,2.3,2.2,2.3,3.9c0,0.1,0,0.2,0,0.3h-5.8
			c0,0.3,0.1,0.6,0.2,0.8c0.1,0.2,0.3,0.4,0.4,0.6c0.2,0.2,0.4,0.3,0.6,0.4c0.2,0.1,0.5,0.1,0.7,0.1c0.4,0,0.7-0.1,1.1-0.3
			c0.3-0.2,0.6-0.4,0.7-0.7l1.7,0.5c-0.3,0.6-0.7,1-1.3,1.4C162.7-121.3,162-121.1,161.1-121.1z M163.1-125.6c0-0.6-0.3-1-0.6-1.4
			c-0.4-0.3-0.8-0.5-1.3-0.5c-0.3,0-0.5,0-0.7,0.1s-0.4,0.2-0.6,0.4c-0.2,0.2-0.3,0.4-0.4,0.6c-0.1,0.2-0.2,0.5-0.2,0.8H163.1
			L163.1-125.6z"/>
		<path class="st0" d="M158.6-131.1h5v1.3h-5V-131.1z"/>
	</g>
	<g>
		
			<radialGradient id="SVGID_00000173843535224336074650000010794773265752000146_" cx="162.3214" cy="107.3425" r="21.0163" gradientTransform="matrix(1 0 0 -1 0 32.485)" gradientUnits="userSpaceOnUse">
			<stop  offset="0" style="stop-color:#000056"/>
			<stop  offset="0.2482" style="stop-color:#4C4C88;stop-opacity:0.7518"/>
			<stop  offset="0.5193" style="stop-color:#9898BB;stop-opacity:0.4807"/>
			<stop  offset="0.744" style="stop-color:#D0D0E0;stop-opacity:0.256"/>
			<stop  offset="0.9103" style="stop-color:#F2F2F6;stop-opacity:8.971435e-02"/>
			<stop  offset="1" style="stop-color:#FFFFFF;stop-opacity:0"/>
		</radialGradient>
		
			<circle style="opacity:0.8;fill:url(#SVGID_00000173843535224336074650000010794773265752000146_);enable-background:new    ;" cx="162.3" cy="-74.9" r="21"/>
		
			<linearGradient id="SVGID_00000116928163354689966690000004779847656581663360_" gradientUnits="userSpaceOnUse" x1="349.3793" y1="638.584" x2="370.0573" y2="617.906" gradientTransform="matrix(0.7071 0.7071 0.7071 -0.7071 -542.7623 106.0035)">
			<stop  offset="0" style="stop-color:#00D95F"/>
			<stop  offset="0.9956" style="stop-color:#199250"/>
			<stop  offset="1" style="stop-color:#199250"/>
		</linearGradient>
		<path style="fill:url(#SVGID_00000116928163354689966690000004779847656581663360_);" d="M141.3-76.9v-13.9c0-4.2,3.4-7.6,7.6-7.6
			h13.9c4.2,0,7.6,3.4,7.6,7.6v13.9c0,4.2-3.4,7.6-7.6,7.6h-13.9C144.7-69.3,141.3-72.7,141.3-76.9z"/>
		<path class="st0" d="M161.5-78.1c-0.2,0.3-0.5,0.4-0.8,0.4c-0.2,0-0.3,0-0.4-0.1c-2.3-1.4-5-1.6-6.9-1.5c-2,0.1-3.5,0.5-3.6,0.5
			c-0.5,0.1-1-0.1-1.1-0.6s0.1-1,0.6-1.1c0.1,0,1.7-0.5,3.9-0.5c1.3,0,2.6,0,3.8,0.3c1.5,0.3,2.9,0.8,4.1,1.5
			C161.6-79,161.8-78.5,161.5-78.1z"/>
		<path class="st0" d="M163.2-81.5c-0.2,0.3-0.5,0.5-0.9,0.5c-0.2,0-0.4,0-0.5-0.1c-2.8-1.6-5.9-1.9-8.1-1.8
			c-2.4,0.1-4.2,0.6-4.2,0.6c-0.6,0.2-1.1-0.2-1.3-0.7c-0.2-0.6,0.2-1.1,0.7-1.3c0.1,0,2-0.5,4.6-0.6c1.6-0.1,3.1,0.1,4.5,0.3
			c1.8,0.3,3.4,0.9,4.8,1.8C163.3-82.6,163.5-82,163.2-81.5z"/>
		<path class="st0" d="M164.2-84.6c-0.2,0-0.4-0.1-0.6-0.2c-6.6-3.8-15.1-1.6-15.1-1.5c-0.7,0.2-1.4-0.2-1.6-0.9
			c-0.2-0.7,0.2-1.4,0.9-1.6c0.1,0,2.4-0.7,5.7-0.8c1.9-0.1,3.8,0.1,5.5,0.4c2.2,0.4,4.2,1.1,5.9,2.2c0.6,0.4,0.8,1.1,0.5,1.8
			C165.1-84.8,164.6-84.6,164.2-84.6z"/>
	</g>
	<g>
		
			<radialGradient id="SVGID_00000028299850387512861290000007115297821393366912_" cx="119.8765" cy="107.8425" r="20.9628" gradientTransform="matrix(1 0 0 -1 0 32.485)" gradientUnits="userSpaceOnUse">
			<stop  offset="0" style="stop-color:#000056"/>
			<stop  offset="0.2482" style="stop-color:#4C4C88;stop-opacity:0.7518"/>
			<stop  offset="0.5193" style="stop-color:#9898BB;stop-opacity:0.4807"/>
			<stop  offset="0.744" style="stop-color:#D0D0E0;stop-opacity:0.256"/>
			<stop  offset="0.9103" style="stop-color:#F2F2F6;stop-opacity:8.971435e-02"/>
			<stop  offset="1" style="stop-color:#FFFFFF;stop-opacity:0"/>
		</radialGradient>
		
			<circle style="opacity:0.8;fill:url(#SVGID_00000028299850387512861290000007115297821393366912_);enable-background:new    ;" cx="119.9" cy="-75.4" r="21"/>
		
			<linearGradient id="SVGID_00000165918826477725786400000015013610631269538230_" gradientUnits="userSpaceOnUse" x1="333.0977" y1="1396.3503" x2="357.8464" y2="1371.6017" gradientTransform="matrix(0 1 1 0 -1270.5631 -429.3159)">
			<stop  offset="0" style="stop-color:#FC4D3F"/>
			<stop  offset="1" style="stop-color:#CD083F"/>
		</linearGradient>
		<path style="fill:url(#SVGID_00000165918826477725786400000015013610631269538230_);" d="M98.8-76.9v-13.9c0-4.2,3.4-7.6,7.6-7.6
			h14c4.2,0,7.6,3.4,7.6,7.6v13.9c0,4.2-3.4,7.6-7.6,7.6h-14C102.2-69.3,98.8-72.7,98.8-76.9z"/>
		<path class="st7" d="M112.3-80.7C112.3-80.6,112.3-80.6,112.3-80.7c-0.7,2.7-0.7,3.2-1.4,4.4c-0.3,0.6-0.7,1.1-1.1,1.6
			c0,0.1-0.1,0.1-0.2,0.1s-0.1-0.1-0.1-0.2c-0.1-0.8-0.2-1.6-0.1-2.3c0-1,0.2-1.4,1.5-6.9c0-0.1,0-0.2,0-0.2
			c-0.3-0.8-0.4-1.7-0.1-2.6c0.6-1.9,2.7-2,3.1-0.5c0.2,1-0.4,2.2-0.8,4.1c-0.4,1.5,1.4,2.6,3,1.5c1.4-1,2-3.5,1.9-5.3
			c-0.2-3.5-4-4.3-6.5-3.1c-2.8,1.3-3.4,4.8-2.2,6.3c0.2,0.2,0.3,0.3,0.2,0.5c-0.1,0.3-0.2,0.6-0.2,1c-0.1,0.2-0.3,0.3-0.5,0.2
			c-0.5-0.2-0.9-0.5-1.2-0.9c-1.1-1.3-1.4-4,0-6.2c1.6-2.5,4.5-3.5,7.2-3.2c3.2,0.4,5.2,2.5,5.6,5c0.2,1.1,0,3.9-1.5,5.9
			c-1.8,2.3-4.8,2.4-6.1,1C112.5-80.5,112.4-80.6,112.3-80.7z"/>
	</g>
</g>
<g>
	
		<radialGradient id="SVGID_00000128463034017547882150000006222341358331798176_" cx="208.4765" cy="150.5879" r="21.4773" gradientTransform="matrix(1 0 0 -1 0 32.485)" gradientUnits="userSpaceOnUse">
		<stop  offset="0" style="stop-color:#000056"/>
		<stop  offset="0.2482" style="stop-color:#4C4C88;stop-opacity:0.7518"/>
		<stop  offset="0.5193" style="stop-color:#9898BB;stop-opacity:0.4807"/>
		<stop  offset="0.744" style="stop-color:#D0D0E0;stop-opacity:0.256"/>
		<stop  offset="0.9103" style="stop-color:#F2F2F6;stop-opacity:8.971435e-02"/>
		<stop  offset="1" style="stop-color:#FFFFFF;stop-opacity:0"/>
	</radialGradient>
	
		<circle style="opacity:0.8;fill:url(#SVGID_00000128463034017547882150000006222341358331798176_);enable-background:new    ;" cx="208.5" cy="-118.1" r="21.5"/>
	<path d="M188.6-119.4v-13.9c0-4.2,3.4-7.6,7.6-7.6h13.9c4.2,0,7.6,3.4,7.6,7.6v13.9c0,4.2-3.4,7.6-7.6,7.6h-13.9
		C192-111.8,188.6-115.2,188.6-119.4z"/>
	<path class="st0" d="M194.3-121.7c0-0.1,0-0.2,0-0.3c0.1-0.1,0.2-0.2,0.4-0.3c1.5-0.3,2.5-1.2,3.2-2.5c0.6-1,0.5-1.3-0.6-1.7
		c-0.1,0-0.1,0-0.2-0.1c-0.2-0.1-0.5-0.2-0.7-0.4c-0.5-0.4-0.2-1.1,0.4-1.2c0.4-0.1,0.8,0.2,1.3,0.2c0.3,0,0.4-0.1,0.4-0.4
		c-0.1-0.8-0.1-1.6-0.1-2.4c0.1-1.5,0.8-2.7,2.1-3.4c1.8-1.1,3.8-1.1,5.6,0c1.2,0.7,1.9,1.7,2.1,3.1c0.1,0.9,0.1,1.8,0,2.7
		c0,0.4,0,0.5,0.4,0.4c0.5-0.1,0.9-0.4,1.4-0.1c0.3,0.1,0.5,0.4,0.5,0.7c0,0.2-0.1,0.4-0.3,0.5c-0.2,0.2-0.5,0.3-0.8,0.4
		c-0.2,0.1-0.4,0.2-0.7,0.3c-0.4,0.2-0.6,0.5-0.4,0.9c0.7,1.5,1.7,2.6,3.4,3c0.2,0,0.4,0.1,0.5,0.3c0,0.1,0,0.2,0,0.3
		c-0.2,0.3-0.4,0.5-0.8,0.6c-0.3,0.1-0.7,0.3-1,0.3c-0.5,0-0.7,0.2-0.8,0.7s-0.2,0.5-0.7,0.5c-0.1,0-0.2,0-0.3-0.1
		c-1-0.2-1.9-0.1-2.6,0.6c-0.2,0.1-0.3,0.2-0.5,0.3c-1.3,0.9-2.7,1-4.1,0.2c-0.4-0.2-0.7-0.5-1.1-0.7c-0.3-0.2-0.6-0.3-1-0.4
		c-0.6-0.1-1.1,0-1.7,0.1c-0.3,0-0.6-0.1-0.6-0.4c0-0.7-0.5-0.9-1.1-1c-0.3,0-0.6-0.1-0.8-0.3C194.7-121.2,194.4-121.4,194.3-121.7z
		"/>
</g>
<g>
	<path d="M155.6,43.3v-59.7c0-4.2,3.4-7.6,7.6-7.6h59.7c4.2,0,7.6,3.4,7.6,7.6v59.7c0,4.2-3.4,7.6-7.6,7.6h-59.7
		C159.1,50.9,155.6,47.5,155.6,43.3z"/>
	<path class="st0" d="M213.8,0.6c-1.3,0.6-2.7,0.9-4.1,1.2c0.7-0.1,1.6-1.3,2-1.8c0.6-0.7,1.1-1.6,1.4-2.5c0-0.1,0.1-0.2,0-0.2
		s-0.1,0-0.2,0c-1.6,0.8-3.2,1.4-4.9,1.9c-0.1,0-0.2,0-0.3-0.1c-0.1-0.2-0.3-0.3-0.4-0.4c-0.7-0.6-1.5-1.1-2.4-1.5
		c-1.1-0.5-2.4-0.7-3.6-0.6c-1.2,0.1-2.4,0.4-3.5,1s-2,1.3-2.8,2.3s-1.4,2.1-1.7,3.3c-0.3,1.2-0.3,2.3-0.1,3.5c0,0.2,0,0.2-0.2,0.2
		c-6.7-1-12.3-3.4-16.9-8.6c-0.2-0.2-0.3-0.2-0.5,0c-2,3-1,7.7,1.5,10.1c0.3,0.3,0.7,0.6,1,0.9c-0.1,0-1.8-0.2-3.3-0.9
		c-0.2-0.1-0.3-0.1-0.3,0.2c0,0.3,0,0.6,0.1,1c0.4,3,2.5,5.8,5.3,6.9c0.3,0.1,0.7,0.3,1.1,0.3c-0.7,0.1-1.3,0.2-3.2,0.1
		c-0.2,0-0.3,0.1-0.2,0.3c1.4,3.8,4.4,5,6.7,5.6c0.3,0.1,0.6,0.1,0.9,0.1c0,0,0,0-0.1,0.1c-0.8,1.1-3.4,2-4.6,2.4
		c-2.2,0.8-4.6,1.1-6.9,0.9c-0.4-0.1-0.5-0.1-0.6,0s0,0.2,0.1,0.2c0.5,0.3,1,0.6,1.4,0.9c1.5,0.8,3,1.4,4.6,1.9
		c8.3,2.3,17.8,0.6,24-5.6c4.9-4.9,6.6-11.6,6.6-18.4c0-0.3,0.3-0.4,0.5-0.5c1.3-1,2.3-2.1,3.3-3.4c0.2-0.3,0.2-0.5,0.2-0.7l0,0
		C214,0.5,214,0.5,213.8,0.6z"/>
</g>
<g>
	
		<radialGradient id="SVGID_00000096742305460921647660000007784951080351932337_" cx="294.1765" cy="150.5879" r="21.0137" gradientTransform="matrix(1 0 0 -1 0 32.485)" gradientUnits="userSpaceOnUse">
		<stop  offset="0" style="stop-color:#000056"/>
		<stop  offset="0.2482" style="stop-color:#4C4C88;stop-opacity:0.7518"/>
		<stop  offset="0.5193" style="stop-color:#9898BB;stop-opacity:0.4807"/>
		<stop  offset="0.744" style="stop-color:#D0D0E0;stop-opacity:0.256"/>
		<stop  offset="0.9103" style="stop-color:#F2F2F6;stop-opacity:8.971435e-02"/>
		<stop  offset="1" style="stop-color:#FFFFFF;stop-opacity:0"/>
	</radialGradient>
	
		<circle style="opacity:0.8;fill:url(#SVGID_00000096742305460921647660000007784951080351932337_);enable-background:new    ;" cx="294.2" cy="-118.1" r="21"/>
	<path d="M273.6-119.4v-13.9c0-4.2,3.4-7.6,7.6-7.6h13.9c4.2,0,7.6,3.4,7.6,7.6v13.9c0,4.2-3.4,7.6-7.6,7.6h-13.9
		C277-111.8,273.6-115.2,273.6-119.4z"/>
	<path class="st0" d="M280.3-118.1l1.2-4.5c-0.7-1.2-1.1-2.6-1.1-4.1c0-4.6,3.8-8.4,8.4-8.4s8.4,3.8,8.4,8.4s-3.8,8.4-8.4,8.4
		c-1.4,0-2.8-0.4-4-1L280.3-118.1z M285.1-121.1l0.3,0.2c1.1,0.6,2.3,1,3.5,1c3.8,0,6.8-3.1,6.8-6.8c0-3.8-3.1-6.8-6.8-6.8
		c-3.8,0-6.8,3.1-6.8,6.8c0,1.2,0.3,2.5,1,3.5l0.2,0.3l-0.7,2.5L285.1-121.1z"/>
	<path class="st7" d="M292-125.6c-0.3-0.2-0.8-0.4-1.2-0.3c-0.3,0.1-0.5,0.6-0.7,0.9c-0.1,0.1-0.2,0.1-0.4,0.1
		c-1.2-0.5-2.1-1.3-2.7-2.3c-0.1-0.2-0.1-0.3,0-0.5c0.2-0.2,0.4-0.5,0.5-0.8s-0.1-0.7-0.2-0.9c-0.2-0.4-0.3-0.9-0.7-1.1
		c-0.3-0.2-0.8-0.1-1,0.2c-0.5,0.4-0.7,1-0.7,1.7c0,0.2,0,0.4,0.1,0.5c0.1,0.4,0.3,0.8,0.5,1.2c0.2,0.3,0.3,0.5,0.5,0.8
		c0.6,0.9,1.4,1.6,2.3,2.1c0.5,0.3,0.9,0.5,1.4,0.7c0.6,0.2,1.1,0.4,1.7,0.3s1.3-0.5,1.5-1.1c0.1-0.2,0.1-0.4,0.1-0.6
		C292.8-125.2,292.3-125.4,292-125.6z"/>
</g>
<g>
	
		<radialGradient id="SVGID_00000166645393324853518800000012465235995160903602_" cx="251.3221" cy="150.5879" r="21" gradientTransform="matrix(1 0 0 -1 0 32.485)" gradientUnits="userSpaceOnUse">
		<stop  offset="0" style="stop-color:#000056"/>
		<stop  offset="0.2482" style="stop-color:#4C4C88;stop-opacity:0.7518"/>
		<stop  offset="0.5193" style="stop-color:#9898BB;stop-opacity:0.4807"/>
		<stop  offset="0.744" style="stop-color:#D0D0E0;stop-opacity:0.256"/>
		<stop  offset="0.9103" style="stop-color:#F2F2F6;stop-opacity:8.971435e-02"/>
		<stop  offset="1" style="stop-color:#FFFFFF;stop-opacity:0"/>
	</radialGradient>
	
		<circle style="opacity:0.8;fill:url(#SVGID_00000166645393324853518800000012465235995160903602_);enable-background:new    ;" cx="251.3" cy="-118.1" r="21"/>
	<path d="M231.1-119.4v-13.9c0-4.2,3.4-7.6,7.6-7.6h13.9c4.2,0,7.6,3.4,7.6,7.6v13.9c0,4.2-3.4,7.6-7.6,7.6h-13.9
		C234.5-111.8,231.1-115.2,231.1-119.4z"/>
	<path class="st0" d="M253.5-128.5c0-1.9-1.6-3.5-3.5-3.5h-9c-1.9,0-3.5,1.6-3.5,3.5v4.2c0,1.9,1.6,3.5,3.5,3.5h9
		c1.9,0,3.5-1.6,3.5-3.5V-128.5z M248.2-126.1l-4,2c-0.2,0.1-0.7,0-0.7-0.2v-4.1c0-0.2,0.5-0.3,0.7-0.2l3.9,2.1
		C248.2-126.5,248.4-126.2,248.2-126.1z"/>
</g>
<path d="M-132.2-138.8v-60c0-4.2,3.4-7.6,7.6-7.6h60c4.2,0,7.6,3.4,7.6,7.6v60c0,4.2-3.4,7.6-7.6,7.6h-60
	C-128.7-131.2-132.2-134.6-132.2-138.8z"/>
<g>
	<circle class="st0" cx="-82.9" cy="-180.4" r="2.6"/>
	<path class="st0" d="M-94.4-179.7c-6,0-10.9,4.9-10.9,10.9s4.9,10.9,10.9,10.9s10.9-4.9,10.9-10.9S-88.4-179.7-94.4-179.7z
		 M-94.4-161.9c-3.8,0-7-3.1-7-7c0-3.8,3.1-7,7-7c3.8,0,7,3.1,7,7C-87.4-165-90.5-161.9-94.4-161.9z"/>
	<path class="st0" d="M-85.7-146.7h-17.6c-7.3,0-13.3-5.9-13.3-13.3v-17.6c0-7.3,5.9-13.3,13.3-13.3h17.6c7.3,0,13.3,5.9,13.3,13.3
		v17.6C-72.5-152.7-78.4-146.7-85.7-146.7z M-103.4-186.7c-5,0-9.1,4.1-9.1,9.1v17.6c0,5,4.1,9.1,9.1,9.1h17.6c5,0,9.1-4.1,9.1-9.1
		v-17.6c0-5-4.1-9.1-9.1-9.1H-103.4z"/>
</g>
<g>
	<path d="M0,32.2V11.4C0,5.1,5.1,0,11.4,0h20.9c6.3,0,11.4,5.1,11.4,11.4v20.9c0,6.3-5.1,11.4-11.4,11.4h-7l-3.7-0.9l-3.2,0.9h-7
		C5.1,43.7,0,38.6,0,32.2z"/>
	<g>
		<path class="st0" d="M30.4,28.9l1-6.3h-6.1v-4.1c0-1.8,0.8-3.4,3.6-3.4h2.7V9.7c0,0-2.5-0.4-4.9-0.4c-5,0-8.2,3-8.2,8.5v4.8h-5.5
			v6.3h5.5v14.8h6.8V28.9H30.4z"/>
	</g>
</g>
<g>
	
		<radialGradient id="SVGID_00000002385690133703102630000005039589609707190164_" cx="208.4765" cy="107.3425" r="21.5" gradientTransform="matrix(1 0 0 -1 0 32.485)" gradientUnits="userSpaceOnUse">
		<stop  offset="0" style="stop-color:#000056"/>
		<stop  offset="0.2482" style="stop-color:#4C4C88;stop-opacity:0.7518"/>
		<stop  offset="0.5193" style="stop-color:#9898BB;stop-opacity:0.4807"/>
		<stop  offset="0.744" style="stop-color:#D0D0E0;stop-opacity:0.256"/>
		<stop  offset="0.9103" style="stop-color:#F2F2F6;stop-opacity:8.971435e-02"/>
		<stop  offset="1" style="stop-color:#FFFFFF;stop-opacity:0"/>
	</radialGradient>
	
		<circle style="opacity:0.8;fill:url(#SVGID_00000002385690133703102630000005039589609707190164_);enable-background:new    ;" cx="208.5" cy="-74.9" r="21.5"/>
	<path d="M188.6-76.9v-13.9c0-4.2,3.4-7.6,7.6-7.6h13.9c4.2,0,7.6,3.4,7.6,7.6v13.9c0,4.2-3.4,7.6-7.6,7.6h-13.9
		C192-69.3,188.6-72.7,188.6-76.9z"/>
	<path class="st0" d="M197.1-86.6h2.8v9.1h-2.8V-86.6z M198.5-91.2c0.9,0,1.6,0.7,1.6,1.6s-0.7,1.6-1.6,1.6c-0.9,0-1.6-0.7-1.6-1.6
		C196.9-90.4,197.6-91.2,198.5-91.2"/>
	<path class="st0" d="M201.7-86.6h2.7v1.2l0,0c0.4-0.7,1.3-1.5,2.7-1.5c2.9,0,3.4,1.9,3.4,4.3v5h-2.8V-82c0-1.1,0-2.4-1.5-2.4
		s-1.7,1.1-1.7,2.3v4.5h-2.8L201.7-86.6L201.7-86.6z"/>
</g>
<g>
	
		<radialGradient id="SVGID_00000034808580634608983400000001275979600324037768_" cx="251.3221" cy="107.3425" r="21.0163" gradientTransform="matrix(1 0 0 -1 0 32.485)" gradientUnits="userSpaceOnUse">
		<stop  offset="0" style="stop-color:#000056"/>
		<stop  offset="0.2482" style="stop-color:#4C4C88;stop-opacity:0.7518"/>
		<stop  offset="0.5193" style="stop-color:#9898BB;stop-opacity:0.4807"/>
		<stop  offset="0.744" style="stop-color:#D0D0E0;stop-opacity:0.256"/>
		<stop  offset="0.9103" style="stop-color:#F2F2F6;stop-opacity:8.971435e-02"/>
		<stop  offset="1" style="stop-color:#FFFFFF;stop-opacity:0"/>
	</radialGradient>
	
		<circle style="opacity:0.8;fill:url(#SVGID_00000034808580634608983400000001275979600324037768_);enable-background:new    ;" cx="251.3" cy="-74.9" r="21"/>
	<path d="M231.1-76.9v-13.9c0-4.2,3.4-7.6,7.6-7.6h13.9c4.2,0,7.6,3.4,7.6,7.6v13.9c0,4.2-3.4,7.6-7.6,7.6h-13.9
		C234.5-69.3,231.1-72.7,231.1-76.9z"/>
	<path class="st0" d="M245.5-92.1c-4.5,0-8.2,3.7-8.2,8.2c0,4.5,3.7,8.2,8.2,8.2s8.2-3.7,8.2-8.2C253.7-88.4,250.1-92.1,245.5-92.1
		L245.5-92.1z M250.9-88.3c0.9,1.2,1.5,2.6,1.5,4.2c-0.3-0.1-1.6-0.3-3.2-0.3c-0.5,0-1,0-1.6,0.1c0-0.1-0.1-0.2-0.1-0.3
		c-0.1-0.3-0.3-0.7-0.4-1C249.5-86.5,250.7-87.9,250.9-88.3L250.9-88.3z M245.5-90.8c1.8,0,3.4,0.7,4.6,1.7
		c-0.2,0.3-1.2,1.6-3.6,2.5c-1.1-2-2.3-3.6-2.6-4C244.5-90.8,245-90.8,245.5-90.8L245.5-90.8z M242.5-90.2c0.2,0.3,1.4,2,2.5,4
		c-3,0.8-5.6,0.8-6.3,0.8h-0.1C239.2-87.5,240.6-89.3,242.5-90.2L242.5-90.2z M238.6-83.9c0-0.1,0-0.1,0-0.2c0,0,0.1,0,0.2,0
		c0.9,0,3.9-0.1,6.9-1c0.2,0.4,0.4,0.7,0.5,1.1c-0.1,0-0.2,0-0.2,0.1c-3.5,1.1-5.4,4.1-5.7,4.6C239.2-80.5,238.6-82.1,238.6-83.9
		L238.6-83.9z M245.5-77c-1.6,0-3.1-0.5-4.2-1.4c0.2-0.4,1.6-3,5.4-4.3l0,0c1,2.5,1.4,4.6,1.5,5.2C247.4-77.2,246.5-77,245.5-77
		L245.5-77z M249.5-78.2c-0.1-0.5-0.5-2.5-1.3-4.9c0.5-0.1,1-0.1,1.4-0.1c1.5,0,2.6,0.3,2.9,0.4C252.1-80.9,251-79.2,249.5-78.2
		L249.5-78.2z"/>
</g>
<g>
	
		<radialGradient id="SVGID_00000100362781726917623050000000736427392059793328_" cx="337.0765" cy="150.5879" r="21.0045" gradientTransform="matrix(1 0 0 -1 0 32.485)" gradientUnits="userSpaceOnUse">
		<stop  offset="0" style="stop-color:#000056"/>
		<stop  offset="0.2482" style="stop-color:#4C4C88;stop-opacity:0.7518"/>
		<stop  offset="0.5193" style="stop-color:#9898BB;stop-opacity:0.4807"/>
		<stop  offset="0.744" style="stop-color:#D0D0E0;stop-opacity:0.256"/>
		<stop  offset="0.9103" style="stop-color:#F2F2F6;stop-opacity:8.971435e-02"/>
		<stop  offset="1" style="stop-color:#FFFFFF;stop-opacity:0"/>
	</radialGradient>
	
		<circle style="opacity:0.8;fill:url(#SVGID_00000100362781726917623050000000736427392059793328_);enable-background:new    ;" cx="337.1" cy="-118.1" r="21"/>
	<path d="M316-119.4v-13.9c0-4.2,3.4-7.6,7.6-7.6h13.9c4.2,0,7.6,3.4,7.6,7.6v13.9c0,4.2-3.4,7.6-7.6,7.6h-13.9
		C319.5-111.8,316-115.2,316-119.4z"/>
	<path class="st0" d="M331.5-123.8c0,0.4-0.1,0.8-0.3,1.2c-0.2,0.3-0.4,0.6-0.7,0.8c-0.3,0.2-0.7,0.4-1.1,0.5s-0.8,0.2-1.3,0.2H323
		v-10.5h5.6c0.4,0,0.7,0.1,1,0.2c0.3,0.2,0.5,0.4,0.8,0.6c0.2,0.3,0.4,0.5,0.5,0.9c0.1,0.3,0.2,0.6,0.2,1c0,0.5-0.1,1-0.4,1.4
		c-0.3,0.5-0.6,0.8-1.1,1c0.6,0.2,1.1,0.5,1.4,1C331.3-125.1,331.5-124.5,331.5-123.8z M325-129.9v2.7h2.7c0.3,0,0.6-0.1,0.9-0.4
		c0.2-0.2,0.4-0.6,0.4-1c0-0.4-0.1-0.7-0.3-1c-0.2-0.2-0.5-0.4-0.8-0.4H325V-129.9z M329.4-124.2c0-0.2,0-0.4-0.1-0.5
		c-0.1-0.2-0.2-0.3-0.3-0.5c-0.1-0.1-0.2-0.2-0.4-0.3c-0.1-0.1-0.3-0.1-0.5-0.1H325v2.8h3c0.2,0,0.4,0,0.5-0.1
		c0.2-0.1,0.3-0.2,0.4-0.3c0.1-0.1,0.2-0.3,0.3-0.4C329.4-123.8,329.4-124,329.4-124.2z"/>
	<path class="st0" d="M335.9-121.1c-0.6,0-1.2-0.1-1.6-0.3c-1-0.4-1.7-1.1-2-2.1c-0.2-0.5-0.3-1-0.3-1.5s0.1-1,0.3-1.5
		c0.4-1,1.1-1.7,2-2.1c0.5-0.2,1-0.3,1.7-0.3c0.6,0,1.2,0.1,1.6,0.3c1.6,0.7,2.3,2.2,2.3,3.9c0,0.1,0,0.2,0,0.3h-5.8
		c0,0.3,0.1,0.6,0.2,0.8c0.1,0.2,0.3,0.4,0.4,0.6c0.2,0.2,0.4,0.3,0.6,0.4s0.5,0.1,0.7,0.1c0.4,0,0.7-0.1,1.1-0.3
		c0.3-0.2,0.6-0.4,0.7-0.7l1.7,0.5c-0.3,0.6-0.7,1-1.3,1.4C337.5-121.3,336.8-121.1,335.9-121.1z M337.9-125.6c0-0.6-0.3-1-0.6-1.4
		c-0.4-0.3-0.8-0.5-1.3-0.5c-0.3,0-0.5,0-0.7,0.1s-0.4,0.2-0.6,0.4c-0.2,0.2-0.3,0.4-0.4,0.6s-0.2,0.5-0.2,0.8H337.9L337.9-125.6z"
		/>
	<path class="st0" d="M333.4-131.1h5v1.3h-5V-131.1z"/>
</g>
<g>
	
		<radialGradient id="SVGID_00000101788029893574286380000008515811370953599402_" cx="337.0765" cy="192.8425" r="21" gradientTransform="matrix(1 0 0 -1 0 32.485)" gradientUnits="userSpaceOnUse">
		<stop  offset="0" style="stop-color:#000056"/>
		<stop  offset="0.2482" style="stop-color:#4C4C88;stop-opacity:0.7518"/>
		<stop  offset="0.5193" style="stop-color:#9898BB;stop-opacity:0.4807"/>
		<stop  offset="0.744" style="stop-color:#D0D0E0;stop-opacity:0.256"/>
		<stop  offset="0.9103" style="stop-color:#F2F2F6;stop-opacity:8.971435e-02"/>
		<stop  offset="1" style="stop-color:#FFFFFF;stop-opacity:0"/>
	</radialGradient>
	
		<circle style="opacity:0.8;fill:url(#SVGID_00000101788029893574286380000008515811370953599402_);enable-background:new    ;" cx="337.1" cy="-160.4" r="21"/>
	<path d="M316-161.9v-13.9c0-4.2,3.4-7.6,7.6-7.6h13.9c4.2,0,7.6,3.4,7.6,7.6v13.9c0,4.2-3.4,7.6-7.6,7.6h-13.9
		C319.5-154.3,316-157.7,316-161.9z"/>
	<path class="st0" d="M338.2-170.6c-0.1,0-0.3,0-0.4,0c-1.6,0-3.2-0.8-4.1-2.2v7.5c0,3.1-2.5,5.6-5.6,5.6s-5.6-2.5-5.6-5.6
		s2.5-5.6,5.6-5.6l0,0c0.1,0,0.2,0,0.3,0v2.7c-0.1,0-0.2,0-0.3,0c-1.6,0-2.8,1.3-2.8,2.8s1.3,2.8,2.8,2.8c1.6,0,3-1.2,3-2.8v-12.8
		h2.6c0.2,2.4,2.1,4.2,4.5,4.4V-170.6"/>
</g>
<g>
	
		<radialGradient id="SVGID_00000049209631153192038540000003577516216573717178_" cx="337.0765" cy="107.3425" r="21" gradientTransform="matrix(1 0 0 -1 0 32.485)" gradientUnits="userSpaceOnUse">
		<stop  offset="0" style="stop-color:#000056"/>
		<stop  offset="0.2482" style="stop-color:#4C4C88;stop-opacity:0.7518"/>
		<stop  offset="0.5193" style="stop-color:#9898BB;stop-opacity:0.4807"/>
		<stop  offset="0.744" style="stop-color:#D0D0E0;stop-opacity:0.256"/>
		<stop  offset="0.9103" style="stop-color:#F2F2F6;stop-opacity:8.971435e-02"/>
		<stop  offset="1" style="stop-color:#FFFFFF;stop-opacity:0"/>
	</radialGradient>
	
		<circle style="opacity:0.8;fill:url(#SVGID_00000049209631153192038540000003577516216573717178_);enable-background:new    ;" cx="337.1" cy="-74.9" r="21"/>
	<path d="M316-76.9v-13.9c0-4.2,3.4-7.6,7.6-7.6h13.9c4.2,0,7.6,3.4,7.6,7.6v13.9c0,4.2-3.4,7.6-7.6,7.6h-13.9
		C319.5-69.3,316-72.7,316-76.9z"/>
	<path class="st0" d="M336.3-78.1c-0.2,0.3-0.5,0.4-0.8,0.4c-0.2,0-0.3,0-0.4-0.1c-2.3-1.4-5-1.6-6.9-1.5c-2,0.1-3.5,0.5-3.6,0.5
		c-0.5,0.1-1-0.1-1.1-0.6s0.1-1,0.6-1.1c0.1,0,1.7-0.5,3.9-0.5c1.3,0,2.6,0,3.8,0.3c1.5,0.3,2.9,0.8,4.1,1.5
		C336.4-79,336.5-78.5,336.3-78.1z"/>
	<path class="st0" d="M337.9-81.5c-0.2,0.3-0.5,0.5-0.9,0.5c-0.2,0-0.4,0-0.5-0.1c-2.8-1.6-5.9-1.9-8.1-1.8
		c-2.4,0.1-4.2,0.6-4.2,0.6c-0.6,0.2-1.1-0.2-1.3-0.7c-0.2-0.6,0.2-1.1,0.7-1.3c0.1,0,2-0.5,4.6-0.6c1.6-0.1,3.1,0.1,4.5,0.3
		c1.8,0.3,3.4,0.9,4.8,1.8C338.1-82.6,338.2-82,337.9-81.5z"/>
	<path class="st0" d="M339-84.6c-0.2,0-0.4-0.1-0.6-0.2c-6.6-3.8-15.1-1.6-15.1-1.5c-0.7,0.2-1.4-0.2-1.6-0.9
		c-0.2-0.7,0.2-1.4,0.9-1.6c0.1,0,2.4-0.7,5.7-0.8c1.9-0.1,3.8,0.1,5.5,0.4c2.2,0.4,4.2,1.1,5.9,2.2c0.6,0.4,0.8,1.1,0.5,1.8
		C339.8-84.8,339.4-84.6,339-84.6z"/>
</g>
<g>
	
		<radialGradient id="SVGID_00000056394949801695233740000012437710476196531596_" cx="294.5765" cy="107.8425" r="21" gradientTransform="matrix(1 0 0 -1 0 32.485)" gradientUnits="userSpaceOnUse">
		<stop  offset="0" style="stop-color:#000056"/>
		<stop  offset="0.2482" style="stop-color:#4C4C88;stop-opacity:0.7518"/>
		<stop  offset="0.5193" style="stop-color:#9898BB;stop-opacity:0.4807"/>
		<stop  offset="0.744" style="stop-color:#D0D0E0;stop-opacity:0.256"/>
		<stop  offset="0.9103" style="stop-color:#F2F2F6;stop-opacity:8.971435e-02"/>
		<stop  offset="1" style="stop-color:#FFFFFF;stop-opacity:0"/>
	</radialGradient>
	
		<circle style="opacity:0.8;fill:url(#SVGID_00000056394949801695233740000012437710476196531596_);enable-background:new    ;" cx="294.6" cy="-75.4" r="21"/>
	<path d="M273.6-76.9v-13.9c0-4.2,3.4-7.6,7.6-7.6h13.9c4.2,0,7.6,3.4,7.6,7.6v13.9c0,4.2-3.4,7.6-7.6,7.6h-13.9
		C277-69.3,273.6-72.7,273.6-76.9z"/>
	<path class="st7" d="M287.1-80.7C287.1-80.6,287.1-80.6,287.1-80.7c-0.7,2.7-0.7,3.2-1.4,4.4c-0.3,0.6-0.7,1.1-1.1,1.6
		c0,0.1-0.1,0.1-0.2,0.1s-0.1-0.1-0.1-0.2c-0.1-0.8-0.2-1.6-0.1-2.3c0-1,0.2-1.4,1.5-6.9c0-0.1,0-0.2,0-0.2
		c-0.3-0.8-0.4-1.7-0.1-2.6c0.6-1.9,2.7-2,3.1-0.5c0.2,1-0.4,2.2-0.8,4.1c-0.4,1.5,1.4,2.6,3,1.5c1.4-1,2-3.5,1.9-5.3
		c-0.2-3.5-4-4.3-6.5-3.1c-2.8,1.3-3.4,4.8-2.2,6.3c0.2,0.2,0.3,0.3,0.2,0.5c-0.1,0.3-0.2,0.6-0.2,1c-0.1,0.2-0.3,0.3-0.5,0.2
		c-0.5-0.2-0.9-0.5-1.2-0.9c-1.1-1.3-1.4-4,0-6.2c1.6-2.5,4.5-3.5,7.2-3.2c3.2,0.4,5.2,2.5,5.6,5c0.2,1.1,0,3.9-1.5,5.9
		c-1.8,2.3-4.8,2.4-6.1,1C287.2-80.5,287.2-80.6,287.1-80.7z"/>
</g>
</svg>
