<?xml version="1.0" encoding="utf-8"?>
<!-- Generator: Adobe Illustrator 19.0.0, SVG Export Plug-In . SVG Version: 6.00 Build 0)  -->
<svg version="1.1" xmlns="http://www.w3.org/2000/svg" xmlns:xlink="http://www.w3.org/1999/xlink" x="0px" y="0px"
	 viewBox="0 0 75 75" style="enable-background:new 0 0 75 75;" xml:space="preserve">
<style type="text/css">
	.st0{opacity:0.8;fill:url(#SVGID_1_);}
	.st1{fill:url(#SVGID_2_);}
	.st2{fill:#FFFFFF;}
	.st3{opacity:0.8;fill:url(#SVGID_3_);}
	.st4{fill:url(#SVGID_4_);}
	.st5{opacity:0.8;fill:url(#SVGID_5_);}
	.st6{fill:url(#SVGID_6_);}
	.st7{fill-rule:evenodd;clip-rule:evenodd;fill:#FFFFFF;}
	.st8{opacity:0.8;fill:url(#SVGID_7_);}
	.st9{fill:url(#SVGID_8_);}
	.st10{opacity:0.8;fill:url(#SVGID_9_);}
	.st11{fill:url(#SVGID_10_);}
	.st12{opacity:0.8;fill:url(#SVGID_11_);}
	.st13{fill:url(#SVGID_12_);}
	.st14{opacity:0.8;fill:url(#SVGID_13_);}
	.st15{fill:url(#SVGID_14_);}
	.st16{opacity:0.8;fill:url(#SVGID_15_);}
	.st17{fill:url(#SVGID_16_);}
	.st18{fill-rule:evenodd;clip-rule:evenodd;fill:#EE1D52;}
	.st19{fill-rule:evenodd;clip-rule:evenodd;fill:#69C9D0;}
	.st20{opacity:0.8;fill:url(#SVGID_17_);}
	.st21{fill:url(#SVGID_18_);}
	.st22{opacity:0.8;fill:url(#SVGID_19_);}
	.st23{fill:url(#SVGID_20_);}
	.st24{opacity:0.8;fill:url(#SVGID_21_);}
	.st25{fill:url(#SVGID_22_);}
	.st26{opacity:0.8;fill:url(#SVGID_23_);}
	.st27{fill:url(#SVGID_24_);}
	.st28{opacity:0.8;fill:url(#SVGID_25_);}
	.st29{opacity:0.8;fill:url(#SVGID_26_);}
	.st30{opacity:0.8;fill:url(#SVGID_27_);}
	.st31{opacity:0.8;fill:url(#SVGID_28_);}
	.st32{opacity:0.8;fill:url(#SVGID_29_);}
	.st33{opacity:0.8;fill:url(#SVGID_30_);}
	.st34{opacity:0.8;fill:url(#SVGID_31_);}
	.st35{opacity:0.8;fill:url(#SVGID_32_);}
	.st36{opacity:0.8;fill:url(#SVGID_33_);}
</style>
<g id="BACKGROUND">
</g>
<g id="ELEMENTS">
	<g>
		<g>
			<radialGradient id="SVGID_1_" cx="165.8582" cy="88.3289" r="21.5" gradientUnits="userSpaceOnUse">
				<stop  offset="0" style="stop-color:#000056"/>
				<stop  offset="0.2482" style="stop-color:#4C4C88;stop-opacity:0.7518"/>
				<stop  offset="0.5193" style="stop-color:#9898BB;stop-opacity:0.4807"/>
				<stop  offset="0.744" style="stop-color:#D0D0E0;stop-opacity:0.256"/>
				<stop  offset="0.9103" style="stop-color:#F2F2F6;stop-opacity:8.971435e-002"/>
				<stop  offset="1" style="stop-color:#FFFFFF;stop-opacity:0"/>
			</radialGradient>
			<circle class="st0" cx="165.9" cy="88.3" r="21.5"/>
			
				<linearGradient id="SVGID_2_" gradientUnits="userSpaceOnUse" x1="320.1911" y1="-75.7412" x2="344.9398" y2="-50.9925" gradientTransform="matrix(0 1 -1 0 97.2506 -252.5107)">
				<stop  offset="0" style="stop-color:#FEFB01"/>
				<stop  offset="1" style="stop-color:#FCBB45"/>
			</linearGradient>
			<path class="st1" d="M146,87V73.1c0-4.2,3.4-7.6,7.6-7.6h13.9c4.2,0,7.6,3.4,7.6,7.6l0,13.9c0,4.2-3.4,7.6-7.6,7.6h-13.9
				C149.4,94.7,146,91.2,146,87z"/>
			<path class="st2" d="M151.7,84.8c0-0.1,0-0.2,0-0.3c0.1-0.1,0.2-0.2,0.4-0.3c1.5-0.3,2.5-1.2,3.2-2.5c0.6-1,0.5-1.3-0.6-1.7
				c-0.1,0-0.1,0-0.2-0.1c-0.2-0.1-0.5-0.2-0.7-0.4c-0.5-0.4-0.2-1.1,0.4-1.2c0.4-0.1,0.8,0.2,1.3,0.2c0.3,0,0.4-0.1,0.4-0.4
				c-0.1-0.8-0.1-1.6-0.1-2.4c0.1-1.5,0.8-2.7,2.1-3.4c1.8-1.1,3.8-1.1,5.6,0c1.2,0.7,1.9,1.7,2.1,3.1c0.1,0.9,0.1,1.8,0,2.7
				c0,0.4,0,0.5,0.4,0.4c0.5-0.1,0.9-0.4,1.4-0.1c0.3,0.1,0.5,0.4,0.5,0.7c0,0.2-0.1,0.4-0.3,0.5c-0.2,0.2-0.5,0.3-0.8,0.4
				c-0.2,0.1-0.4,0.2-0.7,0.3c-0.4,0.2-0.6,0.5-0.4,0.9c0.7,1.5,1.7,2.6,3.4,3c0.2,0,0.4,0.1,0.5,0.3c0,0.1,0,0.2,0,0.3
				c-0.2,0.3-0.4,0.5-0.8,0.6c-0.3,0.1-0.7,0.3-1,0.3c-0.5,0-0.7,0.2-0.8,0.7c-0.1,0.5-0.2,0.5-0.7,0.5c-0.1,0-0.2,0-0.3-0.1
				c-1-0.2-1.9-0.1-2.6,0.6c-0.2,0.1-0.3,0.2-0.5,0.3c-1.3,0.9-2.7,1-4.1,0.2c-0.4-0.2-0.7-0.5-1.1-0.7c-0.3-0.2-0.6-0.3-1-0.4
				c-0.6-0.1-1.1,0-1.7,0.1c-0.3,0-0.6-0.1-0.6-0.4c0-0.7-0.5-0.9-1.1-1c-0.3,0-0.6-0.1-0.8-0.3C152.1,85.3,151.8,85.1,151.7,84.8z"
				/>
		</g>
		<g>
			<radialGradient id="SVGID_3_" cx="251.6214" cy="46.1162" r="21" gradientUnits="userSpaceOnUse">
				<stop  offset="0" style="stop-color:#000056"/>
				<stop  offset="0.2482" style="stop-color:#4C4C88;stop-opacity:0.7518"/>
				<stop  offset="0.5193" style="stop-color:#9898BB;stop-opacity:0.4807"/>
				<stop  offset="0.744" style="stop-color:#D0D0E0;stop-opacity:0.256"/>
				<stop  offset="0.9103" style="stop-color:#F2F2F6;stop-opacity:8.971435e-002"/>
				<stop  offset="1" style="stop-color:#FFFFFF;stop-opacity:0"/>
			</radialGradient>
			<circle class="st3" cx="251.6" cy="46.1" r="21"/>
			
				<linearGradient id="SVGID_4_" gradientUnits="userSpaceOnUse" x1="350.2215" y1="-165.8532" x2="374.9702" y2="-141.1045" gradientTransform="matrix(0 1 -1 0 92.0921 -325.0251)">
				<stop  offset="0" style="stop-color:#33CCFF"/>
				<stop  offset="1" style="stop-color:#337FFF"/>
			</linearGradient>
			<path class="st4" d="M230.9,44.5V30.6c0-4.2,3.4-7.6,7.6-7.6h13.9c4.2,0,7.6,3.4,7.6,7.6v13.9c0,4.2-3.4,7.6-7.6,7.6h-13.9
				C234.4,52.2,230.9,48.7,230.9,44.5z"/>
			<path class="st2" d="M253.6,32.6c-0.5,0.2-1.1,0.4-1.6,0.5c0.3,0,0.6-0.5,0.8-0.7c0.2-0.3,0.4-0.6,0.5-1c0,0,0-0.1,0-0.1
				c0,0-0.1,0-0.1,0c-0.6,0.3-1.2,0.6-1.9,0.7c-0.1,0-0.1,0-0.1,0c-0.1-0.1-0.1-0.1-0.2-0.2c-0.3-0.2-0.6-0.4-0.9-0.6
				c-0.4-0.2-0.9-0.3-1.4-0.2c-0.5,0-0.9,0.2-1.3,0.4c-0.4,0.2-0.8,0.5-1.1,0.9c-0.3,0.4-0.5,0.8-0.6,1.3c-0.1,0.5-0.1,0.9,0,1.4
				c0,0.1,0,0.1-0.1,0.1c-2.6-0.4-4.8-1.3-6.6-3.3c-0.1-0.1-0.1-0.1-0.2,0c-0.8,1.2-0.4,3,0.6,3.9c0.1,0.1,0.3,0.2,0.4,0.4
				c-0.1,0-0.7-0.1-1.3-0.4c-0.1,0-0.1,0-0.1,0.1c0,0.1,0,0.2,0,0.4c0.1,1.2,1,2.3,2.1,2.7c0.1,0.1,0.3,0.1,0.4,0.1
				c-0.3,0.1-0.5,0.1-1.2,0c-0.1,0-0.1,0-0.1,0.1c0.5,1.5,1.7,1.9,2.6,2.2c0.1,0,0.2,0,0.4,0c0,0,0,0,0,0c-0.3,0.4-1.3,0.8-1.8,0.9
				c-0.9,0.3-1.8,0.4-2.7,0.3c-0.1,0-0.2,0-0.2,0c0,0,0,0.1,0,0.1c0.2,0.1,0.4,0.2,0.6,0.3c0.6,0.3,1.2,0.6,1.8,0.7
				c3.3,0.9,6.9,0.2,9.4-2.2c1.9-1.9,2.6-4.5,2.6-7.2c0-0.1,0.1-0.2,0.2-0.2c0.5-0.4,0.9-0.8,1.3-1.3
				C253.7,32.7,253.7,32.6,253.6,32.6C253.7,32.6,253.7,32.6,253.6,32.6C253.7,32.5,253.7,32.5,253.6,32.6z"/>
		</g>
		<g>
			<radialGradient id="SVGID_5_" cx="251.6214" cy="88.3289" r="21" gradientUnits="userSpaceOnUse">
				<stop  offset="0" style="stop-color:#000056"/>
				<stop  offset="0.2482" style="stop-color:#4C4C88;stop-opacity:0.7518"/>
				<stop  offset="0.5193" style="stop-color:#9898BB;stop-opacity:0.4807"/>
				<stop  offset="0.744" style="stop-color:#D0D0E0;stop-opacity:0.256"/>
				<stop  offset="0.9103" style="stop-color:#F2F2F6;stop-opacity:8.971435e-002"/>
				<stop  offset="1" style="stop-color:#FFFFFF;stop-opacity:0"/>
			</radialGradient>
			<circle class="st5" cx="251.6" cy="88.3" r="21"/>
			
				<linearGradient id="SVGID_6_" gradientUnits="userSpaceOnUse" x1="380.2624" y1="-135.8124" x2="405.0111" y2="-111.0637" gradientTransform="matrix(0 1 -1 0 122.1329 -312.5819)">
				<stop  offset="0" style="stop-color:#60FC7C"/>
				<stop  offset="1" style="stop-color:#4AB161"/>
			</linearGradient>
			<path class="st6" d="M230.9,87V73.1c0-4.2,3.4-7.6,7.6-7.6h13.9c4.2,0,7.6,3.4,7.6,7.6V87c0,4.2-3.4,7.6-7.6,7.6l-13.9,0
				C234.4,94.7,230.9,91.2,230.9,87z"/>
			<path class="st2" d="M237.7,88.3l1.2-4.5c-0.7-1.2-1.1-2.6-1.1-4.1c0-4.6,3.8-8.4,8.4-8.4c4.6,0,8.4,3.8,8.4,8.4
				c0,4.6-3.8,8.4-8.4,8.4c-1.4,0-2.8-0.4-4-1L237.7,88.3z M242.5,85.4l0.3,0.2c1.1,0.6,2.3,1,3.5,1c3.8,0,6.8-3.1,6.8-6.8
				c0-3.8-3.1-6.8-6.8-6.8c-3.8,0-6.8,3.1-6.8,6.8c0,1.2,0.3,2.5,1,3.5l0.2,0.3l-0.7,2.5L242.5,85.4z"/>
			<path class="st7" d="M249.4,80.9c-0.3-0.2-0.8-0.4-1.2-0.3c-0.3,0.1-0.5,0.6-0.7,0.9c-0.1,0.1-0.2,0.1-0.4,0.1
				c-1.2-0.5-2.1-1.3-2.7-2.3c-0.1-0.2-0.1-0.3,0-0.5c0.2-0.2,0.4-0.5,0.5-0.8c0.1-0.3-0.1-0.7-0.2-0.9c-0.2-0.4-0.3-0.9-0.7-1.1
				c-0.3-0.2-0.8-0.1-1,0.2c-0.5,0.4-0.7,1-0.7,1.7c0,0.2,0,0.4,0.1,0.5c0.1,0.4,0.3,0.8,0.5,1.2c0.2,0.3,0.3,0.5,0.5,0.8
				c0.6,0.9,1.4,1.6,2.3,2.1c0.5,0.3,0.9,0.5,1.4,0.7c0.6,0.2,1.1,0.4,1.7,0.3c0.6-0.1,1.3-0.5,1.5-1.1c0.1-0.2,0.1-0.4,0.1-0.6
				C250.2,81.3,249.7,81.1,249.4,80.9z"/>
		</g>
		<g>
			<radialGradient id="SVGID_7_" cx="208.7397" cy="88.3289" r="21" gradientUnits="userSpaceOnUse">
				<stop  offset="0" style="stop-color:#000056"/>
				<stop  offset="0.2482" style="stop-color:#4C4C88;stop-opacity:0.7518"/>
				<stop  offset="0.5193" style="stop-color:#9898BB;stop-opacity:0.4807"/>
				<stop  offset="0.744" style="stop-color:#D0D0E0;stop-opacity:0.256"/>
				<stop  offset="0.9103" style="stop-color:#F2F2F6;stop-opacity:8.971435e-002"/>
				<stop  offset="1" style="stop-color:#FFFFFF;stop-opacity:0"/>
			</radialGradient>
			<circle class="st8" cx="208.7" cy="88.3" r="21"/>
			
				<linearGradient id="SVGID_8_" gradientUnits="userSpaceOnUse" x1="350.2215" y1="-105.7717" x2="374.9702" y2="-81.023" gradientTransform="matrix(0 1 -1 0 109.6896 -282.5411)">
				<stop  offset="0" style="stop-color:#FF0000"/>
				<stop  offset="1" style="stop-color:#850000"/>
			</linearGradient>
			<path class="st9" d="M188.5,87V73.1c0-4.2,3.4-7.6,7.6-7.6l13.9,0c4.2,0,7.6,3.4,7.6,7.6l0,13.9c0,4.2-3.4,7.6-7.6,7.6h-13.9
				C191.9,94.7,188.5,91.2,188.5,87z"/>
			<path class="st2" d="M210.9,77.9c0-1.9-1.6-3.5-3.5-3.5h-9c-1.9,0-3.5,1.6-3.5,3.5v4.2c0,1.9,1.6,3.5,3.5,3.5h9
				c1.9,0,3.5-1.6,3.5-3.5V77.9z M205.6,80.3l-4,2c-0.2,0.1-0.7,0-0.7-0.2V78c0-0.2,0.5-0.3,0.7-0.2l3.9,2.1
				C205.6,80,205.8,80.2,205.6,80.3z"/>
		</g>
		<g>
			<radialGradient id="SVGID_9_" cx="208.7397" cy="46.1162" r="21" gradientUnits="userSpaceOnUse">
				<stop  offset="0" style="stop-color:#000056"/>
				<stop  offset="0.2482" style="stop-color:#4C4C88;stop-opacity:0.7518"/>
				<stop  offset="0.5193" style="stop-color:#9898BB;stop-opacity:0.4807"/>
				<stop  offset="0.744" style="stop-color:#D0D0E0;stop-opacity:0.256"/>
				<stop  offset="0.9103" style="stop-color:#F2F2F6;stop-opacity:8.971435e-002"/>
				<stop  offset="1" style="stop-color:#FFFFFF;stop-opacity:0"/>
			</radialGradient>
			<circle class="st10" cx="208.7" cy="46.1" r="21"/>
			
				<linearGradient id="SVGID_10_" gradientUnits="userSpaceOnUse" x1="317.6324" y1="-138.3609" x2="355.4517" y2="-100.5416" gradientTransform="matrix(0 1 -1 0 79.6488 -294.9844)">
				<stop  offset="1.104800e-003" style="stop-color:#FBE18A"/>
				<stop  offset="0.2094" style="stop-color:#FCBB45"/>
				<stop  offset="0.3765" style="stop-color:#F75274"/>
				<stop  offset="0.5238" style="stop-color:#D53692"/>
				<stop  offset="0.7394" style="stop-color:#8F39CE"/>
				<stop  offset="1" style="stop-color:#5B4FE9"/>
			</linearGradient>
			<path class="st11" d="M188.5,44.5l0-13.9c0-4.2,3.4-7.6,7.6-7.6l13.9,0c4.2,0,7.6,3.4,7.6,7.6l0,13.9c0,4.2-3.4,7.6-7.6,7.6
				l-13.9,0C191.9,52.2,188.5,48.7,188.5,44.5z"/>
			<g>
				<circle class="st2" cx="207.6" cy="33.1" r="1"/>
				<path class="st2" d="M203.2,33.3c-2.3,0-4.2,1.9-4.2,4.2c0,2.3,1.9,4.2,4.2,4.2c2.3,0,4.2-1.9,4.2-4.2
					C207.4,35.2,205.5,33.3,203.2,33.3z M203.2,40.3c-1.5,0-2.7-1.2-2.7-2.7c0-1.5,1.2-2.7,2.7-2.7c1.5,0,2.7,1.2,2.7,2.7
					C205.9,39.1,204.6,40.3,203.2,40.3z"/>
				<path class="st2" d="M206.5,46.1h-6.8c-2.8,0-5.1-2.3-5.1-5.1v-6.8c0-2.8,2.3-5.1,5.1-5.1h6.8c2.8,0,5.1,2.3,5.1,5.1V41
					C211.7,43.8,209.3,46.1,206.5,46.1z M199.7,30.6c-2,0-3.5,1.6-3.5,3.5V41c0,2,1.6,3.5,3.5,3.5h6.8c2,0,3.5-1.6,3.5-3.5v-6.8
					c0-2-1.6-3.5-3.5-3.5H199.7z"/>
			</g>
		</g>
		<radialGradient id="SVGID_11_" cx="160.8746" cy="44.5741" r="21.5" gradientUnits="userSpaceOnUse">
			<stop  offset="0" style="stop-color:#000056"/>
			<stop  offset="0.2482" style="stop-color:#4C4C88;stop-opacity:0.7518"/>
			<stop  offset="0.5193" style="stop-color:#9898BB;stop-opacity:0.4807"/>
			<stop  offset="0.744" style="stop-color:#D0D0E0;stop-opacity:0.256"/>
			<stop  offset="0.9103" style="stop-color:#F2F2F6;stop-opacity:8.971435e-002"/>
			<stop  offset="1" style="stop-color:#FFFFFF;stop-opacity:0"/>
		</radialGradient>
		<circle class="st12" cx="160.9" cy="44.6" r="21.5"/>
		<g>
			
				<linearGradient id="SVGID_12_" gradientUnits="userSpaceOnUse" x1="289.6504" y1="-105.7821" x2="314.3991" y2="-81.0333" gradientTransform="matrix(0 1 -1 0 67.2098 -264.954)">
				<stop  offset="0" style="stop-color:#4676ED"/>
				<stop  offset="0.1854" style="stop-color:#436DE4"/>
				<stop  offset="0.487" style="stop-color:#3C55CD"/>
				<stop  offset="0.8651" style="stop-color:#302EA8"/>
				<stop  offset="1" style="stop-color:#2B1E99"/>
			</linearGradient>
			<path class="st13" d="M146,44V30.1c0-4.2,3.4-7.6,7.6-7.6h13.9c4.2,0,7.6,3.4,7.6,7.6l0,13.9c0,4.2-3.4,7.6-7.6,7.6h-4.7
				l-2.5-0.6l-2.1,0.6l-4.7,0C149.4,51.7,146,48.2,146,44z"/>
			<g>
				<path class="st2" d="M166.3,41.8l0.6-4.2h-4.1v-2.7c0-1.2,0.6-2.3,2.4-2.3h1.8v-3.6c0,0-1.7-0.3-3.3-0.3c-3.3,0-5.5,2-5.5,5.7
					v3.2h-3.7v4.2h3.7v9.9h4.6v-9.9H166.3z"/>
			</g>
		</g>
		<g>
			<radialGradient id="SVGID_13_" cx="165.8582" cy="131.5417" r="21.5" gradientUnits="userSpaceOnUse">
				<stop  offset="0" style="stop-color:#000056"/>
				<stop  offset="0.2482" style="stop-color:#4C4C88;stop-opacity:0.7518"/>
				<stop  offset="0.5193" style="stop-color:#9898BB;stop-opacity:0.4807"/>
				<stop  offset="0.744" style="stop-color:#D0D0E0;stop-opacity:0.256"/>
				<stop  offset="0.9103" style="stop-color:#F2F2F6;stop-opacity:8.971435e-002"/>
				<stop  offset="1" style="stop-color:#FFFFFF;stop-opacity:0"/>
			</radialGradient>
			<circle class="st14" cx="165.9" cy="131.5" r="21.5"/>
			
				<linearGradient id="SVGID_14_" gradientUnits="userSpaceOnUse" x1="350.2468" y1="-45.6856" x2="374.9955" y2="-20.9368" gradientTransform="matrix(0 1 -1 0 127.3063 -240.0612)">
				<stop  offset="0" style="stop-color:#007AB5"/>
				<stop  offset="1" style="stop-color:#0046E5"/>
			</linearGradient>
			<path class="st15" d="M146,129.5v-13.9c0-4.2,3.4-7.6,7.6-7.6h13.9c4.2,0,7.6,3.4,7.6,7.6l0,13.9c0,4.2-3.4,7.6-7.6,7.6l-13.9,0
				C149.4,137.2,146,133.7,146,129.5z"/>
			<path class="st2" d="M154.5,119.8h2.8v9.1h-2.8V119.8z M155.9,115.3c0.9,0,1.6,0.7,1.6,1.6c0,0.9-0.7,1.6-1.6,1.6
				c-0.9,0-1.6-0.7-1.6-1.6C154.3,116.1,155,115.3,155.9,115.3"/>
			<path class="st2" d="M159.1,119.8h2.7v1.2h0c0.4-0.7,1.3-1.5,2.7-1.5c2.9,0,3.4,1.9,3.4,4.3v5h-2.8v-4.4c0-1.1,0-2.4-1.5-2.4
				c-1.5,0-1.7,1.1-1.7,2.3v4.5h-2.8V119.8z"/>
		</g>
		<g>
			<radialGradient id="SVGID_15_" cx="294.0924" cy="46.5525" r="21" gradientUnits="userSpaceOnUse">
				<stop  offset="0" style="stop-color:#000056"/>
				<stop  offset="0.2482" style="stop-color:#4C4C88;stop-opacity:0.7518"/>
				<stop  offset="0.5193" style="stop-color:#9898BB;stop-opacity:0.4807"/>
				<stop  offset="0.744" style="stop-color:#D0D0E0;stop-opacity:0.256"/>
				<stop  offset="0.9103" style="stop-color:#F2F2F6;stop-opacity:8.971435e-002"/>
				<stop  offset="1" style="stop-color:#FFFFFF;stop-opacity:0"/>
			</radialGradient>
			<circle class="st16" cx="294.1" cy="46.6" r="21"/>
			
				<linearGradient id="SVGID_16_" gradientUnits="userSpaceOnUse" x1="325.3288" y1="-123.479" x2="350.0775" y2="-148.2277" gradientTransform="matrix(0 1 -1 0 152.1886 -300.1324)">
				<stop  offset="0" style="stop-color:#22004A"/>
				<stop  offset="0.9565" style="stop-color:#020003"/>
				<stop  offset="1" style="stop-color:#000000"/>
			</linearGradient>
			<path class="st17" d="M273.4,44.5V30.6c0-4.2,3.4-7.6,7.6-7.6H295c4.2,0,7.6,3.4,7.6,7.6v13.9c0,4.2-3.4,7.6-7.6,7.6h-13.9
				C276.9,52.2,273.4,48.7,273.4,44.5z"/>
			<g>
				<path class="st18" d="M292,34.9c1.2,0.9,2.7,1.4,4.2,1.4v-3c-0.3,0-0.6,0-0.9-0.1v2.4c-1.6,0-3-0.5-4.2-1.4v6.2
					c0,3.1-2.5,5.6-5.6,5.6c-1.2,0-2.2-0.4-3.1-1c1,1,2.4,1.7,4,1.7c3.1,0,5.6-2.5,5.6-5.6L292,34.9L292,34.9z M293.1,31.8
					c-0.6-0.7-1-1.5-1.1-2.5v-0.4h-0.8C291.4,30.2,292.1,31.2,293.1,31.8L293.1,31.8z M284.3,42.7c-0.3-0.4-0.5-1-0.5-1.6
					c0-1.4,1.2-2.6,2.6-2.6c0.3,0,0.5,0,0.8,0.1v-3.1c-0.3,0-0.6-0.1-0.9-0.1v2.4c-0.3-0.1-0.5-0.1-0.8-0.1c-1.4,0-2.6,1.2-2.6,2.6
					C282.9,41.4,283.5,42.2,284.3,42.7z"/>
				<path class="st7" d="M291.1,34.1c1.2,0.9,2.7,1.4,4.2,1.4v-2.4c-0.9-0.2-1.7-0.6-2.3-1.3c-1-0.6-1.7-1.7-1.9-2.9h-2.2v12.2
					c0,1.4-1.2,2.6-2.6,2.6c-0.8,0-1.6-0.4-2.1-1c-0.8-0.4-1.4-1.3-1.4-2.3c0-1.4,1.2-2.6,2.6-2.6c0.3,0,0.5,0,0.8,0.1v-2.4
					c-3.1,0.1-5.5,2.6-5.5,5.6c0,1.5,0.6,2.9,1.6,3.9c0.9,0.6,2,1,3.1,1c3.1,0,5.6-2.5,5.6-5.6V34.1z"/>
				<path class="st19" d="M295.3,33.1v-0.6c-0.8,0-1.6-0.2-2.3-0.6C293.7,32.5,294.5,32.9,295.3,33.1z M291.2,28.9
					c0-0.1,0-0.2,0-0.3v-0.4H288v12.2c0,1.4-1.2,2.6-2.6,2.6c-0.4,0-0.8-0.1-1.2-0.3c0.5,0.6,1.2,1,2.1,1c1.4,0,2.6-1.1,2.6-2.6
					V28.9H291.2z M286.2,35.5v-0.7c-0.3,0-0.5-0.1-0.8-0.1c-3.1,0-5.6,2.5-5.6,5.6c0,1.9,1,3.7,2.5,4.7c-1-1-1.6-2.4-1.6-3.9
					C280.7,38,283.2,35.5,286.2,35.5L286.2,35.5z"/>
			</g>
		</g>
		<g>
			<radialGradient id="SVGID_17_" cx="208.7397" cy="131.5417" r="21" gradientUnits="userSpaceOnUse">
				<stop  offset="0" style="stop-color:#000056"/>
				<stop  offset="0.2482" style="stop-color:#4C4C88;stop-opacity:0.7518"/>
				<stop  offset="0.5193" style="stop-color:#9898BB;stop-opacity:0.4807"/>
				<stop  offset="0.744" style="stop-color:#D0D0E0;stop-opacity:0.256"/>
				<stop  offset="0.9103" style="stop-color:#F2F2F6;stop-opacity:8.971435e-002"/>
				<stop  offset="1" style="stop-color:#FFFFFF;stop-opacity:0"/>
			</radialGradient>
			<circle class="st20" cx="208.7" cy="131.5" r="21"/>
			
				<linearGradient id="SVGID_18_" gradientUnits="userSpaceOnUse" x1="378.0302" y1="-63.3416" x2="407.273" y2="-63.3416" gradientTransform="matrix(0 1 -1 0 139.7453 -270.0916)">
				<stop  offset="0" style="stop-color:#F26798"/>
				<stop  offset="0.8664" style="stop-color:#C82093"/>
				<stop  offset="1" style="stop-color:#C11592"/>
			</linearGradient>
			<path class="st21" d="M188.5,129.5l0-13.9c0-4.2,3.4-7.6,7.6-7.6l13.9,0c4.2,0,7.6,3.4,7.6,7.6l0,13.9c0,4.2-3.4,7.6-7.6,7.6
				l-13.9,0C191.9,137.2,188.5,133.7,188.5,129.5z"/>
			<path class="st2" d="M203.1,114.3c-4.5,0-8.2,3.7-8.2,8.2c0,4.5,3.7,8.2,8.2,8.2c4.5,0,8.2-3.7,8.2-8.2
				C211.3,118,207.6,114.3,203.1,114.3L203.1,114.3z M208.5,118.2c0.9,1.2,1.5,2.6,1.5,4.2c-0.3-0.1-1.6-0.3-3.2-0.3
				c-0.5,0-1,0-1.6,0.1c0-0.1-0.1-0.2-0.1-0.3c-0.1-0.3-0.3-0.7-0.4-1C207.1,119.9,208.3,118.5,208.5,118.2L208.5,118.2z
				 M203.1,115.6c1.8,0,3.4,0.7,4.6,1.7c-0.2,0.3-1.2,1.6-3.6,2.5c-1.1-2-2.3-3.6-2.6-4C202,115.7,202.5,115.6,203.1,115.6
				L203.1,115.6z M200.1,116.3c0.2,0.3,1.4,2,2.5,4c-3,0.8-5.6,0.8-6.3,0.8h-0.1C196.8,119,198.2,117.2,200.1,116.3L200.1,116.3z
				 M196.1,122.6c0-0.1,0-0.1,0-0.2c0,0,0.1,0,0.2,0c0.9,0,3.9-0.1,6.9-1c0.2,0.4,0.4,0.7,0.5,1.1c-0.1,0-0.2,0-0.2,0.1
				c-3.5,1.1-5.4,4.1-5.7,4.6C196.8,125.9,196.1,124.3,196.1,122.6L196.1,122.6z M203.1,129.5c-1.6,0-3.1-0.5-4.2-1.4
				c0.2-0.4,1.6-3,5.4-4.3c0,0,0,0,0,0c1,2.5,1.4,4.6,1.5,5.2C204.9,129.3,204,129.5,203.1,129.5L203.1,129.5z M207,128.3
				c-0.1-0.5-0.5-2.5-1.3-4.9c0.5-0.1,1-0.1,1.4-0.1c1.5,0,2.6,0.3,2.9,0.4C209.6,125.6,208.5,127.2,207,128.3L207,128.3z"/>
		</g>
		<g>
			<radialGradient id="SVGID_19_" cx="294.5031" cy="88.3289" r="21" gradientUnits="userSpaceOnUse">
				<stop  offset="0" style="stop-color:#000056"/>
				<stop  offset="0.2482" style="stop-color:#4C4C88;stop-opacity:0.7518"/>
				<stop  offset="0.5193" style="stop-color:#9898BB;stop-opacity:0.4807"/>
				<stop  offset="0.744" style="stop-color:#D0D0E0;stop-opacity:0.256"/>
				<stop  offset="0.9103" style="stop-color:#F2F2F6;stop-opacity:8.971435e-002"/>
				<stop  offset="1" style="stop-color:#FFFFFF;stop-opacity:0"/>
			</radialGradient>
			<circle class="st22" cx="294.5" cy="88.3" r="21"/>
			
				<linearGradient id="SVGID_20_" gradientUnits="userSpaceOnUse" x1="410.303" y1="-165.8532" x2="435.0517" y2="-141.1045" gradientTransform="matrix(0 1 -1 0 134.5761 -342.6226)">
				<stop  offset="0" style="stop-color:#006EF5"/>
				<stop  offset="0.7752" style="stop-color:#2131AE"/>
				<stop  offset="1" style="stop-color:#2B1E99"/>
			</linearGradient>
			<path class="st23" d="M273.4,87V73.1c0-4.2,3.4-7.6,7.6-7.6H295c4.2,0,7.6,3.4,7.6,7.6l0,13.9c0,4.2-3.4,7.6-7.6,7.6h-13.9
				C276.9,94.7,273.4,91.2,273.4,87z"/>
			<path class="st2" d="M288.9,82.7c0,0.4-0.1,0.8-0.3,1.2c-0.2,0.3-0.4,0.6-0.7,0.8c-0.3,0.2-0.7,0.4-1.1,0.5
				c-0.4,0.1-0.8,0.2-1.3,0.2h-5.1V74.9h5.6c0.4,0,0.7,0.1,1,0.2c0.3,0.2,0.5,0.4,0.8,0.6c0.2,0.3,0.4,0.5,0.5,0.9
				c0.1,0.3,0.2,0.6,0.2,1c0,0.5-0.1,1-0.4,1.4c-0.3,0.5-0.6,0.8-1.1,1c0.6,0.2,1.1,0.5,1.4,1C288.7,81.4,288.9,82,288.9,82.7z
				 M282.4,76.6v2.7h2.7c0.3,0,0.6-0.1,0.9-0.4c0.2-0.2,0.4-0.6,0.4-1c0-0.4-0.1-0.7-0.3-1c-0.2-0.2-0.5-0.4-0.8-0.4H282.4z
				 M286.8,82.3c0-0.2,0-0.4-0.1-0.5c-0.1-0.2-0.2-0.3-0.3-0.5c-0.1-0.1-0.2-0.2-0.4-0.3c-0.1-0.1-0.3-0.1-0.5-0.1h-3.1v2.8h3
				c0.2,0,0.4,0,0.5-0.1c0.2-0.1,0.3-0.2,0.4-0.3c0.1-0.1,0.2-0.3,0.3-0.4C286.8,82.7,286.8,82.5,286.8,82.3z"/>
			<path class="st2" d="M293.3,85.4c-0.6,0-1.2-0.1-1.6-0.3c-1-0.4-1.7-1.1-2-2.1c-0.2-0.5-0.3-1-0.3-1.5c0-0.5,0.1-1,0.3-1.5
				c0.4-1,1.1-1.7,2-2.1c0.5-0.2,1-0.3,1.7-0.3c0.6,0,1.2,0.1,1.6,0.3c1.6,0.7,2.3,2.2,2.3,3.9c0,0.1,0,0.2,0,0.3h-5.8
				c0,0.3,0.1,0.6,0.2,0.8c0.1,0.2,0.3,0.4,0.4,0.6c0.2,0.2,0.4,0.3,0.6,0.4c0.2,0.1,0.5,0.1,0.7,0.1c0.4,0,0.7-0.1,1.1-0.3
				c0.3-0.2,0.6-0.4,0.7-0.7l1.7,0.5c-0.3,0.6-0.7,1-1.3,1.4C294.9,85.2,294.1,85.4,293.3,85.4z M295.3,80.9c0-0.6-0.3-1-0.6-1.4
				c-0.4-0.3-0.8-0.5-1.3-0.5c-0.3,0-0.5,0-0.7,0.1c-0.2,0.1-0.4,0.2-0.6,0.4c-0.2,0.2-0.3,0.4-0.4,0.6c-0.1,0.2-0.2,0.5-0.2,0.8
				L295.3,80.9L295.3,80.9z"/>
			<path class="st2" d="M290.8,75.4h5v1.3h-5V75.4z"/>
		</g>
		<g>
			<radialGradient id="SVGID_21_" cx="294.5031" cy="131.5417" r="21" gradientUnits="userSpaceOnUse">
				<stop  offset="0" style="stop-color:#000056"/>
				<stop  offset="0.2482" style="stop-color:#4C4C88;stop-opacity:0.7518"/>
				<stop  offset="0.5193" style="stop-color:#9898BB;stop-opacity:0.4807"/>
				<stop  offset="0.744" style="stop-color:#D0D0E0;stop-opacity:0.256"/>
				<stop  offset="0.9103" style="stop-color:#F2F2F6;stop-opacity:8.971435e-002"/>
				<stop  offset="1" style="stop-color:#FFFFFF;stop-opacity:0"/>
			</radialGradient>
			<circle class="st24" cx="294.5" cy="131.5" r="21"/>
			
				<linearGradient id="SVGID_22_" gradientUnits="userSpaceOnUse" x1="273.6521" y1="102.2997" x2="294.3301" y2="122.9777" gradientTransform="matrix(0.7071 0.7071 -0.7071 0.7071 166.8918 -157.897)">
				<stop  offset="0" style="stop-color:#00D95F"/>
				<stop  offset="0.9956" style="stop-color:#199250"/>
				<stop  offset="1" style="stop-color:#199250"/>
			</linearGradient>
			<path class="st25" d="M273.4,129.5v-13.9c0-4.2,3.4-7.6,7.6-7.6H295c4.2,0,7.6,3.4,7.6,7.6l0,13.9c0,4.2-3.4,7.6-7.6,7.6l-13.9,0
				C276.9,137.2,273.4,133.7,273.4,129.5z"/>
			<path class="st2" d="M293.7,128.4c-0.2,0.3-0.5,0.4-0.8,0.4c-0.2,0-0.3,0-0.4-0.1c-2.3-1.4-5-1.6-6.9-1.5c-2,0.1-3.5,0.5-3.6,0.5
				c-0.5,0.1-1-0.1-1.1-0.6c-0.1-0.5,0.1-1,0.6-1.1c0.1,0,1.7-0.5,3.9-0.5c1.3,0,2.6,0,3.8,0.3c1.5,0.3,2.9,0.8,4.1,1.5
				C293.8,127.4,293.9,128,293.7,128.4z"/>
			<path class="st2" d="M295.3,125c-0.2,0.3-0.5,0.5-0.9,0.5c-0.2,0-0.4,0-0.5-0.1c-2.8-1.6-5.9-1.9-8.1-1.8
				c-2.4,0.1-4.2,0.6-4.2,0.6c-0.6,0.2-1.1-0.2-1.3-0.7c-0.2-0.6,0.2-1.1,0.7-1.3c0.1,0,2-0.5,4.6-0.6c1.6-0.1,3.1,0.1,4.5,0.3
				c1.8,0.3,3.4,0.9,4.8,1.8C295.5,123.8,295.6,124.5,295.3,125z"/>
			<path class="st2" d="M296.3,121.9c-0.2,0-0.4-0.1-0.6-0.2c-6.6-3.8-15.1-1.6-15.1-1.5c-0.7,0.2-1.4-0.2-1.6-0.9
				c-0.2-0.7,0.2-1.4,0.9-1.6c0.1,0,2.4-0.7,5.7-0.8c1.9-0.1,3.8,0.1,5.5,0.4c2.2,0.4,4.2,1.1,5.9,2.2c0.6,0.4,0.8,1.1,0.5,1.8
				C297.2,121.6,296.8,121.9,296.3,121.9z"/>
		</g>
		<g>
			<radialGradient id="SVGID_23_" cx="252.019" cy="131.1096" r="21" gradientUnits="userSpaceOnUse">
				<stop  offset="0" style="stop-color:#000056"/>
				<stop  offset="0.2482" style="stop-color:#4C4C88;stop-opacity:0.7518"/>
				<stop  offset="0.5193" style="stop-color:#9898BB;stop-opacity:0.4807"/>
				<stop  offset="0.744" style="stop-color:#D0D0E0;stop-opacity:0.256"/>
				<stop  offset="0.9103" style="stop-color:#F2F2F6;stop-opacity:8.971435e-002"/>
				<stop  offset="1" style="stop-color:#FFFFFF;stop-opacity:0"/>
			</radialGradient>
			<circle class="st26" cx="252" cy="131.1" r="21"/>
			
				<linearGradient id="SVGID_24_" gradientUnits="userSpaceOnUse" x1="465.2558" y1="-153.4099" x2="490.0045" y2="-128.6612" gradientTransform="matrix(0 1 -1 0 104.5354 -355.0659)">
				<stop  offset="0" style="stop-color:#FC4D3F"/>
				<stop  offset="1" style="stop-color:#CD083F"/>
			</linearGradient>
			<path class="st27" d="M230.9,129.5v-13.9c0-4.2,3.4-7.6,7.6-7.6h13.9c4.2,0,7.6,3.4,7.6,7.6l0,13.9c0,4.2-3.4,7.6-7.6,7.6h-13.9
				C234.4,137.2,230.9,133.7,230.9,129.5z"/>
			<path class="st7" d="M244.4,125.7c0,0.1,0,0.1,0,0.1c-0.7,2.6-0.7,3.1-1.4,4.3c-0.3,0.6-0.7,1.1-1.1,1.6c0,0.1-0.1,0.1-0.2,0.1
				c-0.1,0-0.1-0.1-0.1-0.2c-0.1-0.8-0.2-1.6-0.1-2.3c0-1,0.2-1.4,1.5-6.9c0-0.1,0-0.2,0-0.2c-0.3-0.8-0.4-1.7-0.1-2.6
				c0.6-1.9,2.7-2,3.1-0.5c0.2,1-0.4,2.2-0.8,4.1c-0.4,1.5,1.4,2.6,3,1.5c1.4-1,2-3.5,1.9-5.3c-0.2-3.5-4-4.3-6.5-3.1
				c-2.8,1.3-3.4,4.8-2.2,6.3c0.2,0.2,0.3,0.3,0.2,0.5c-0.1,0.3-0.2,0.6-0.2,1c-0.1,0.2-0.3,0.3-0.5,0.2c-0.5-0.2-0.9-0.5-1.2-0.9
				c-1.1-1.3-1.4-4,0-6.2c1.6-2.5,4.5-3.5,7.2-3.2c3.2,0.4,5.2,2.5,5.6,5c0.2,1.1,0,3.9-1.5,5.9c-1.8,2.3-4.8,2.4-6.1,1
				C244.6,126,244.5,125.9,244.4,125.7z"/>
		</g>
	</g>
	<g>
		<radialGradient id="SVGID_25_" cx="340.6223" cy="88.3289" r="21.5" gradientUnits="userSpaceOnUse">
			<stop  offset="0" style="stop-color:#000056"/>
			<stop  offset="0.2482" style="stop-color:#4C4C88;stop-opacity:0.7518"/>
			<stop  offset="0.5193" style="stop-color:#9898BB;stop-opacity:0.4807"/>
			<stop  offset="0.744" style="stop-color:#D0D0E0;stop-opacity:0.256"/>
			<stop  offset="0.9103" style="stop-color:#F2F2F6;stop-opacity:8.971435e-002"/>
			<stop  offset="1" style="stop-color:#FFFFFF;stop-opacity:0"/>
		</radialGradient>
		<circle class="st28" cx="340.6" cy="88.3" r="21.5"/>
		<path d="M320.8,87l0-13.9c0-4.2,3.4-7.6,7.6-7.6h13.9c4.2,0,7.6,3.4,7.6,7.6V87c0,4.2-3.4,7.6-7.6,7.6h-13.9
			C324.2,94.7,320.8,91.2,320.8,87z"/>
		<path class="st2" d="M326.4,84.8c0-0.1,0-0.2,0-0.3c0.1-0.1,0.2-0.2,0.4-0.3c1.5-0.3,2.5-1.2,3.2-2.5c0.6-1,0.5-1.3-0.6-1.7
			c-0.1,0-0.1,0-0.2-0.1c-0.2-0.1-0.5-0.2-0.7-0.4c-0.5-0.4-0.2-1.1,0.4-1.2c0.4-0.1,0.8,0.2,1.3,0.2c0.3,0,0.4-0.1,0.4-0.4
			c-0.1-0.8-0.1-1.6-0.1-2.4c0.1-1.5,0.8-2.7,2.1-3.4c1.8-1.1,3.8-1.1,5.6,0c1.2,0.7,1.9,1.7,2.1,3.1c0.1,0.9,0.1,1.8,0,2.7
			c0,0.4,0,0.5,0.4,0.4c0.5-0.1,0.9-0.4,1.4-0.1c0.3,0.1,0.5,0.4,0.5,0.7c0,0.2-0.1,0.4-0.3,0.5c-0.2,0.2-0.5,0.3-0.8,0.4
			c-0.2,0.1-0.4,0.2-0.7,0.3c-0.4,0.2-0.6,0.5-0.4,0.9c0.7,1.5,1.7,2.6,3.4,3c0.2,0,0.4,0.1,0.5,0.3c0,0.1,0,0.2,0,0.3
			c-0.2,0.3-0.4,0.5-0.8,0.6c-0.3,0.1-0.7,0.3-1,0.3c-0.5,0-0.7,0.2-0.8,0.7c-0.1,0.5-0.2,0.5-0.7,0.5c-0.1,0-0.2,0-0.3-0.1
			c-1-0.2-1.9-0.1-2.6,0.6c-0.2,0.1-0.3,0.2-0.5,0.3c-1.3,0.9-2.7,1-4.1,0.2c-0.4-0.2-0.7-0.5-1.1-0.7c-0.3-0.2-0.6-0.3-1-0.4
			c-0.6-0.1-1.1,0-1.7,0.1c-0.3,0-0.6-0.1-0.6-0.4c0-0.7-0.5-0.9-1.1-1c-0.3,0-0.6-0.1-0.8-0.3C326.8,85.3,326.6,85.1,326.4,84.8z"
			/>
	</g>
	<g>
		<path d="M287.8,249.8V190c0-4.2,3.4-7.6,7.6-7.6h59.7c4.2,0,7.6,3.4,7.6,7.6v59.7c0,4.2-3.4,7.6-7.6,7.6h-59.7
			C291.2,257.4,287.8,254,287.8,249.8z"/>
		<path class="st2" d="M346,207.1c-1.3,0.6-2.7,0.9-4.1,1.2c0.7-0.1,1.6-1.3,2-1.8c0.6-0.7,1.1-1.6,1.4-2.5c0-0.1,0.1-0.2,0-0.2
			c-0.1,0-0.1,0-0.2,0c-1.6,0.8-3.2,1.4-4.9,1.9c-0.1,0-0.2,0-0.3-0.1c-0.1-0.2-0.3-0.3-0.4-0.4c-0.7-0.6-1.5-1.1-2.4-1.5
			c-1.1-0.5-2.4-0.7-3.6-0.6c-1.2,0.1-2.4,0.4-3.5,1c-1.1,0.6-2,1.3-2.8,2.3c-0.8,1-1.4,2.1-1.7,3.3c-0.3,1.2-0.3,2.3-0.1,3.5
			c0,0.2,0,0.2-0.2,0.2c-6.7-1-12.3-3.4-16.9-8.6c-0.2-0.2-0.3-0.2-0.5,0c-2,3-1,7.7,1.5,10.1c0.3,0.3,0.7,0.6,1,0.9
			c-0.1,0-1.8-0.2-3.3-0.9c-0.2-0.1-0.3-0.1-0.3,0.2c0,0.3,0,0.6,0.1,1c0.4,3,2.5,5.8,5.3,6.9c0.3,0.1,0.7,0.3,1.1,0.3
			c-0.7,0.1-1.3,0.2-3.2,0.1c-0.2,0-0.3,0.1-0.2,0.3c1.4,3.8,4.4,5,6.7,5.6c0.3,0.1,0.6,0.1,0.9,0.1c0,0,0,0-0.1,0.1
			c-0.8,1.1-3.4,2-4.6,2.4c-2.2,0.8-4.6,1.1-6.9,0.9c-0.4-0.1-0.5-0.1-0.6,0c-0.1,0.1,0,0.2,0.1,0.2c0.5,0.3,1,0.6,1.4,0.9
			c1.5,0.8,3,1.4,4.6,1.9c8.3,2.3,17.8,0.6,24-5.6c4.9-4.9,6.6-11.6,6.6-18.4c0-0.3,0.3-0.4,0.5-0.5c1.3-1,2.3-2.1,3.3-3.4
			c0.2-0.3,0.2-0.5,0.2-0.7c0,0,0,0,0,0C346.2,206.9,346.2,207,346,207.1z"/>
	</g>
	<g>
		<radialGradient id="SVGID_26_" cx="426.3856" cy="88.3289" r="21" gradientUnits="userSpaceOnUse">
			<stop  offset="0" style="stop-color:#000056"/>
			<stop  offset="0.2482" style="stop-color:#4C4C88;stop-opacity:0.7518"/>
			<stop  offset="0.5193" style="stop-color:#9898BB;stop-opacity:0.4807"/>
			<stop  offset="0.744" style="stop-color:#D0D0E0;stop-opacity:0.256"/>
			<stop  offset="0.9103" style="stop-color:#F2F2F6;stop-opacity:8.971435e-002"/>
			<stop  offset="1" style="stop-color:#FFFFFF;stop-opacity:0"/>
		</radialGradient>
		<circle class="st29" cx="426.4" cy="88.3" r="21"/>
		<path d="M405.7,87l0-13.9c0-4.2,3.4-7.6,7.6-7.6h13.9c4.2,0,7.6,3.4,7.6,7.6V87c0,4.2-3.4,7.6-7.6,7.6l-13.9,0
			C409.2,94.7,405.7,91.2,405.7,87z"/>
		<path class="st2" d="M412.4,88.3l1.2-4.5c-0.7-1.2-1.1-2.6-1.1-4.1c0-4.6,3.8-8.4,8.4-8.4c4.6,0,8.4,3.8,8.4,8.4
			c0,4.6-3.8,8.4-8.4,8.4c-1.4,0-2.8-0.4-4-1L412.4,88.3z M417.2,85.4l0.3,0.2c1.1,0.6,2.3,1,3.5,1c3.8,0,6.8-3.1,6.8-6.8
			c0-3.8-3.1-6.8-6.8-6.8c-3.8,0-6.8,3.1-6.8,6.8c0,1.2,0.3,2.5,1,3.5l0.2,0.3l-0.7,2.5L417.2,85.4z"/>
		<path class="st7" d="M424.1,80.9c-0.3-0.2-0.8-0.4-1.2-0.3c-0.3,0.1-0.5,0.6-0.7,0.9c-0.1,0.1-0.2,0.1-0.4,0.1
			c-1.2-0.5-2.1-1.3-2.7-2.3c-0.1-0.2-0.1-0.3,0-0.5c0.2-0.2,0.4-0.5,0.5-0.8c0.1-0.3-0.1-0.7-0.2-0.9c-0.2-0.4-0.3-0.9-0.7-1.1
			c-0.3-0.2-0.8-0.1-1,0.2c-0.5,0.4-0.7,1-0.7,1.7c0,0.2,0,0.4,0.1,0.5c0.1,0.4,0.3,0.8,0.5,1.2c0.2,0.3,0.3,0.5,0.5,0.8
			c0.6,0.9,1.4,1.6,2.3,2.1c0.5,0.3,0.9,0.5,1.4,0.7c0.6,0.2,1.1,0.4,1.7,0.3c0.6-0.1,1.3-0.5,1.5-1.1c0.1-0.2,0.1-0.4,0.1-0.6
			C425,81.3,424.4,81.1,424.1,80.9z"/>
	</g>
	<g>
		<radialGradient id="SVGID_27_" cx="383.5039" cy="88.3289" r="21" gradientUnits="userSpaceOnUse">
			<stop  offset="0" style="stop-color:#000056"/>
			<stop  offset="0.2482" style="stop-color:#4C4C88;stop-opacity:0.7518"/>
			<stop  offset="0.5193" style="stop-color:#9898BB;stop-opacity:0.4807"/>
			<stop  offset="0.744" style="stop-color:#D0D0E0;stop-opacity:0.256"/>
			<stop  offset="0.9103" style="stop-color:#F2F2F6;stop-opacity:8.971435e-002"/>
			<stop  offset="1" style="stop-color:#FFFFFF;stop-opacity:0"/>
		</radialGradient>
		<circle class="st30" cx="383.5" cy="88.3" r="21"/>
		<path d="M363.2,87V73.1c0-4.2,3.4-7.6,7.6-7.6l13.9,0c4.2,0,7.6,3.4,7.6,7.6V87c0,4.2-3.4,7.6-7.6,7.6h-13.9
			C366.7,94.7,363.2,91.2,363.2,87z"/>
		<path class="st2" d="M385.7,77.9c0-1.9-1.6-3.5-3.5-3.5h-9c-1.9,0-3.5,1.6-3.5,3.5v4.2c0,1.9,1.6,3.5,3.5,3.5h9
			c1.9,0,3.5-1.6,3.5-3.5V77.9z M380.4,80.3l-4,2c-0.2,0.1-0.7,0-0.7-0.2V78c0-0.2,0.5-0.3,0.7-0.2l3.9,2.1
			C380.4,80,380.6,80.2,380.4,80.3z"/>
	</g>
	<path d="M0,67.7v-60C0,3.4,3.4,0,7.6,0l60,0c4.2,0,7.6,3.4,7.6,7.6v60c0,4.2-3.4,7.6-7.6,7.6l-60,0C3.4,75.3,0,71.9,0,67.7z"/>
	<g>
		<circle class="st2" cx="49.3" cy="26" r="2.6"/>
		<path class="st2" d="M37.8,26.8c-6,0-10.9,4.9-10.9,10.9c0,6,4.9,10.9,10.9,10.9c6,0,10.9-4.9,10.9-10.9
			C48.7,31.7,43.8,26.8,37.8,26.8z M37.8,44.6c-3.8,0-7-3.1-7-7s3.1-7,7-7c3.8,0,7,3.1,7,7S41.6,44.6,37.8,44.6z"/>
		<path class="st2" d="M46.4,59.7H28.8c-7.3,0-13.3-5.9-13.3-13.3V28.8c0-7.3,5.9-13.3,13.3-13.3h17.6c7.3,0,13.3,5.9,13.3,13.3
			v17.6C59.7,53.8,53.7,59.7,46.4,59.7z M28.8,19.7c-5,0-9.1,4.1-9.1,9.1v17.6c0,5,4.1,9.1,9.1,9.1h17.6c5,0,9.1-4.1,9.1-9.1V28.8
			c0-5-4.1-9.1-9.1-9.1H28.8z"/>
	</g>
	<g>
		<path d="M116.7,240v-35.7c0-10.8,8.8-19.6,19.6-19.6h35.7c10.8,0,19.6,8.8,19.6,19.6l0,35.7c0,10.8-8.8,19.6-19.6,19.6h-12
			l-6.3-1.5l-5.4,1.5l-12,0C125.5,259.6,116.7,250.8,116.7,240z"/>
		<g>
			<path class="st2" d="M168.6,234.2l1.7-10.8h-10.4v-7c0-3,1.4-5.8,6.1-5.8h4.7v-9.2c0,0-4.3-0.7-8.4-0.7
				c-8.5,0-14.1,5.2-14.1,14.6v8.2h-9.5v10.8h9.5v25.4h11.7v-25.4H168.6z"/>
		</g>
	</g>
	<g>
		<radialGradient id="SVGID_28_" cx="340.6223" cy="131.5417" r="21.5" gradientUnits="userSpaceOnUse">
			<stop  offset="0" style="stop-color:#000056"/>
			<stop  offset="0.2482" style="stop-color:#4C4C88;stop-opacity:0.7518"/>
			<stop  offset="0.5193" style="stop-color:#9898BB;stop-opacity:0.4807"/>
			<stop  offset="0.744" style="stop-color:#D0D0E0;stop-opacity:0.256"/>
			<stop  offset="0.9103" style="stop-color:#F2F2F6;stop-opacity:8.971435e-002"/>
			<stop  offset="1" style="stop-color:#FFFFFF;stop-opacity:0"/>
		</radialGradient>
		<circle class="st31" cx="340.6" cy="131.5" r="21.5"/>
		<path d="M320.8,129.5v-13.9c0-4.2,3.4-7.6,7.6-7.6h13.9c4.2,0,7.6,3.4,7.6,7.6l0,13.9c0,4.2-3.4,7.6-7.6,7.6l-13.9,0
			C324.2,137.2,320.8,133.7,320.8,129.5z"/>
		<path class="st2" d="M329.2,119.8h2.8v9.1h-2.8V119.8z M330.7,115.3c0.9,0,1.6,0.7,1.6,1.6c0,0.9-0.7,1.6-1.6,1.6
			c-0.9,0-1.6-0.7-1.6-1.6C329,116.1,329.8,115.3,330.7,115.3"/>
		<path class="st2" d="M333.9,119.8h2.7v1.2h0c0.4-0.7,1.3-1.5,2.7-1.5c2.9,0,3.4,1.9,3.4,4.3v5h-2.8v-4.4c0-1.1,0-2.4-1.5-2.4
			c-1.5,0-1.7,1.1-1.7,2.3v4.5h-2.8V119.8z"/>
	</g>
	<g>
		<radialGradient id="SVGID_29_" cx="383.5039" cy="131.5417" r="21" gradientUnits="userSpaceOnUse">
			<stop  offset="0" style="stop-color:#000056"/>
			<stop  offset="0.2482" style="stop-color:#4C4C88;stop-opacity:0.7518"/>
			<stop  offset="0.5193" style="stop-color:#9898BB;stop-opacity:0.4807"/>
			<stop  offset="0.744" style="stop-color:#D0D0E0;stop-opacity:0.256"/>
			<stop  offset="0.9103" style="stop-color:#F2F2F6;stop-opacity:8.971435e-002"/>
			<stop  offset="1" style="stop-color:#FFFFFF;stop-opacity:0"/>
		</radialGradient>
		<circle class="st32" cx="383.5" cy="131.5" r="21"/>
		<path d="M363.2,129.5v-13.9c0-4.2,3.4-7.6,7.6-7.6l13.9,0c4.2,0,7.6,3.4,7.6,7.6v13.9c0,4.2-3.4,7.6-7.6,7.6l-13.9,0
			C366.7,137.2,363.2,133.7,363.2,129.5z"/>
		<path class="st2" d="M377.7,114.3c-4.5,0-8.2,3.7-8.2,8.2c0,4.5,3.7,8.2,8.2,8.2c4.5,0,8.2-3.7,8.2-8.2
			C385.9,118,382.2,114.3,377.7,114.3L377.7,114.3z M383.1,118.2c0.9,1.2,1.5,2.6,1.5,4.2c-0.3-0.1-1.6-0.3-3.2-0.3
			c-0.5,0-1,0-1.6,0.1c0-0.1-0.1-0.2-0.1-0.3c-0.1-0.3-0.3-0.7-0.4-1C381.7,119.9,382.8,118.5,383.1,118.2L383.1,118.2z
			 M377.7,115.6c1.8,0,3.4,0.7,4.6,1.7c-0.2,0.3-1.2,1.6-3.6,2.5c-1.1-2-2.3-3.6-2.6-4C376.6,115.7,377.1,115.6,377.7,115.6
			L377.7,115.6z M374.7,116.3c0.2,0.3,1.4,2,2.5,4c-3,0.8-5.6,0.8-6.3,0.8h-0.1C371.3,119,372.8,117.2,374.7,116.3L374.7,116.3z
			 M370.7,122.6c0-0.1,0-0.1,0-0.2c0,0,0.1,0,0.2,0c0.9,0,3.9-0.1,6.9-1c0.2,0.4,0.4,0.7,0.5,1.1c-0.1,0-0.2,0-0.2,0.1
			c-3.5,1.1-5.4,4.1-5.7,4.6C371.4,125.9,370.7,124.3,370.7,122.6L370.7,122.6z M377.7,129.5c-1.6,0-3.1-0.5-4.2-1.4
			c0.2-0.4,1.6-3,5.4-4.3c0,0,0,0,0,0c1,2.5,1.4,4.6,1.5,5.2C379.5,129.3,378.6,129.5,377.7,129.5L377.7,129.5z M381.6,128.3
			c-0.1-0.5-0.5-2.5-1.3-4.9c0.5-0.1,1-0.1,1.4-0.1c1.5,0,2.6,0.3,2.9,0.4C384.2,125.6,383.1,127.2,381.6,128.3L381.6,128.3z"/>
	</g>
	<g>
		<radialGradient id="SVGID_30_" cx="469.2672" cy="88.3289" r="21" gradientUnits="userSpaceOnUse">
			<stop  offset="0" style="stop-color:#000056"/>
			<stop  offset="0.2482" style="stop-color:#4C4C88;stop-opacity:0.7518"/>
			<stop  offset="0.5193" style="stop-color:#9898BB;stop-opacity:0.4807"/>
			<stop  offset="0.744" style="stop-color:#D0D0E0;stop-opacity:0.256"/>
			<stop  offset="0.9103" style="stop-color:#F2F2F6;stop-opacity:8.971435e-002"/>
			<stop  offset="1" style="stop-color:#FFFFFF;stop-opacity:0"/>
		</radialGradient>
		<circle class="st33" cx="469.3" cy="88.3" r="21"/>
		<path d="M448.2,87l0-13.9c0-4.2,3.4-7.6,7.6-7.6h13.9c4.2,0,7.6,3.4,7.6,7.6V87c0,4.2-3.4,7.6-7.6,7.6h-13.9
			C451.6,94.7,448.2,91.2,448.2,87z"/>
		<path class="st2" d="M463.6,82.7c0,0.4-0.1,0.8-0.3,1.2c-0.2,0.3-0.4,0.6-0.7,0.8c-0.3,0.2-0.7,0.4-1.1,0.5
			c-0.4,0.1-0.8,0.2-1.3,0.2h-5.1V74.9h5.6c0.4,0,0.7,0.1,1,0.2c0.3,0.2,0.5,0.4,0.8,0.6c0.2,0.3,0.4,0.5,0.5,0.9
			c0.1,0.3,0.2,0.6,0.2,1c0,0.5-0.1,1-0.4,1.4c-0.3,0.5-0.6,0.8-1.1,1c0.6,0.2,1.1,0.5,1.4,1C463.5,81.4,463.6,82,463.6,82.7z
			 M457.2,76.6v2.7h2.7c0.3,0,0.6-0.1,0.9-0.4c0.2-0.2,0.4-0.6,0.4-1c0-0.4-0.1-0.7-0.3-1c-0.2-0.2-0.5-0.4-0.8-0.4H457.2z
			 M461.6,82.3c0-0.2,0-0.4-0.1-0.5c-0.1-0.2-0.2-0.3-0.3-0.5c-0.1-0.1-0.2-0.2-0.4-0.3c-0.1-0.1-0.3-0.1-0.5-0.1h-3.1v2.8h3
			c0.2,0,0.4,0,0.5-0.1c0.2-0.1,0.3-0.2,0.4-0.3c0.1-0.1,0.2-0.3,0.3-0.4C461.5,82.7,461.6,82.5,461.6,82.3z"/>
		<path class="st2" d="M468.1,85.4c-0.6,0-1.2-0.1-1.6-0.3c-1-0.4-1.7-1.1-2-2.1c-0.2-0.5-0.3-1-0.3-1.5c0-0.5,0.1-1,0.3-1.5
			c0.4-1,1.1-1.7,2-2.1c0.5-0.2,1-0.3,1.7-0.3c0.6,0,1.2,0.1,1.6,0.3c1.6,0.7,2.3,2.2,2.3,3.9c0,0.1,0,0.2,0,0.3h-5.8
			c0,0.3,0.1,0.6,0.2,0.8c0.1,0.2,0.3,0.4,0.4,0.6c0.2,0.2,0.4,0.3,0.6,0.4c0.2,0.1,0.5,0.1,0.7,0.1c0.4,0,0.7-0.1,1.1-0.3
			c0.3-0.2,0.6-0.4,0.7-0.7l1.7,0.5c-0.3,0.6-0.7,1-1.3,1.4C469.6,85.2,468.9,85.4,468.1,85.4z M470,80.9c0-0.6-0.3-1-0.6-1.4
			c-0.4-0.3-0.8-0.5-1.3-0.5c-0.3,0-0.5,0-0.7,0.1c-0.2,0.1-0.4,0.2-0.6,0.4c-0.2,0.2-0.3,0.4-0.4,0.6c-0.1,0.2-0.2,0.5-0.2,0.8
			L470,80.9L470,80.9z"/>
		<path class="st2" d="M465.5,75.4h5v1.3h-5V75.4z"/>
	</g>
	<g>
		<radialGradient id="SVGID_31_" cx="469.2672" cy="46.1162" r="21" gradientUnits="userSpaceOnUse">
			<stop  offset="0" style="stop-color:#000056"/>
			<stop  offset="0.2482" style="stop-color:#4C4C88;stop-opacity:0.7518"/>
			<stop  offset="0.5193" style="stop-color:#9898BB;stop-opacity:0.4807"/>
			<stop  offset="0.744" style="stop-color:#D0D0E0;stop-opacity:0.256"/>
			<stop  offset="0.9103" style="stop-color:#F2F2F6;stop-opacity:8.971435e-002"/>
			<stop  offset="1" style="stop-color:#FFFFFF;stop-opacity:0"/>
		</radialGradient>
		<circle class="st34" cx="469.3" cy="46.1" r="21"/>
		<path d="M448.2,44.5V30.6c0-4.2,3.4-7.6,7.6-7.6h13.9c4.2,0,7.6,3.4,7.6,7.6l0,13.9c0,4.2-3.4,7.6-7.6,7.6l-13.9,0
			C451.6,52.2,448.2,48.7,448.2,44.5z"/>
		<path class="st2" d="M470.4,35.9c-0.1,0-0.3,0-0.5,0c-1.6,0-3.2-0.8-4.1-2.2v7.5c0,3.1-2.5,5.6-5.6,5.6c-3.1,0-5.6-2.5-5.6-5.6
			c0-3.1,2.5-5.6,5.6-5.6l0,0c0.1,0,0.2,0,0.3,0v2.7c-0.1,0-0.2,0-0.3,0c-1.6,0-2.8,1.3-2.8,2.8c0,1.6,1.3,2.8,2.8,2.8
			c1.6,0,3-1.2,3-2.8l0-12.8h2.6c0.2,2.4,2.1,4.2,4.5,4.4L470.4,35.9"/>
	</g>
	<g>
		<radialGradient id="SVGID_32_" cx="469.2672" cy="131.5417" r="21" gradientUnits="userSpaceOnUse">
			<stop  offset="0" style="stop-color:#000056"/>
			<stop  offset="0.2482" style="stop-color:#4C4C88;stop-opacity:0.7518"/>
			<stop  offset="0.5193" style="stop-color:#9898BB;stop-opacity:0.4807"/>
			<stop  offset="0.744" style="stop-color:#D0D0E0;stop-opacity:0.256"/>
			<stop  offset="0.9103" style="stop-color:#F2F2F6;stop-opacity:8.971435e-002"/>
			<stop  offset="1" style="stop-color:#FFFFFF;stop-opacity:0"/>
		</radialGradient>
		<circle class="st35" cx="469.3" cy="131.5" r="21"/>
		<path d="M448.2,129.5v-13.9c0-4.2,3.4-7.6,7.6-7.6h13.9c4.2,0,7.6,3.4,7.6,7.6l0,13.9c0,4.2-3.4,7.6-7.6,7.6l-13.9,0
			C451.6,137.2,448.2,133.7,448.2,129.5z"/>
		<path class="st2" d="M468.5,128.4c-0.2,0.3-0.5,0.4-0.8,0.4c-0.2,0-0.3,0-0.4-0.1c-2.3-1.4-5-1.6-6.9-1.5c-2,0.1-3.5,0.5-3.6,0.5
			c-0.5,0.1-1-0.1-1.1-0.6c-0.1-0.5,0.1-1,0.6-1.1c0.1,0,1.7-0.5,3.9-0.5c1.3,0,2.6,0,3.8,0.3c1.5,0.3,2.9,0.8,4.1,1.5
			C468.6,127.4,468.7,128,468.5,128.4z"/>
		<path class="st2" d="M470.1,125c-0.2,0.3-0.5,0.5-0.9,0.5c-0.2,0-0.4,0-0.5-0.1c-2.8-1.6-5.9-1.9-8.1-1.8
			c-2.4,0.1-4.2,0.6-4.2,0.6c-0.6,0.2-1.1-0.2-1.3-0.7c-0.2-0.6,0.2-1.1,0.7-1.3c0.1,0,2-0.5,4.6-0.6c1.6-0.1,3.1,0.1,4.5,0.3
			c1.8,0.3,3.4,0.9,4.8,1.8C470.2,123.8,470.4,124.5,470.1,125z"/>
		<path class="st2" d="M471.1,121.9c-0.2,0-0.4-0.1-0.6-0.2c-6.6-3.8-15.1-1.6-15.1-1.5c-0.7,0.2-1.4-0.2-1.6-0.9
			c-0.2-0.7,0.2-1.4,0.9-1.6c0.1,0,2.4-0.7,5.7-0.8c1.9-0.1,3.8,0.1,5.5,0.4c2.2,0.4,4.2,1.1,5.9,2.2c0.6,0.4,0.8,1.1,0.5,1.8
			C472,121.6,471.6,121.9,471.1,121.9z"/>
	</g>
	<g>
		<radialGradient id="SVGID_33_" cx="426.7832" cy="131.1051" r="21" gradientUnits="userSpaceOnUse">
			<stop  offset="0" style="stop-color:#000056"/>
			<stop  offset="0.2482" style="stop-color:#4C4C88;stop-opacity:0.7518"/>
			<stop  offset="0.5193" style="stop-color:#9898BB;stop-opacity:0.4807"/>
			<stop  offset="0.744" style="stop-color:#D0D0E0;stop-opacity:0.256"/>
			<stop  offset="0.9103" style="stop-color:#F2F2F6;stop-opacity:8.971435e-002"/>
			<stop  offset="1" style="stop-color:#FFFFFF;stop-opacity:0"/>
		</radialGradient>
		<circle class="st36" cx="426.8" cy="131.1" r="21"/>
		<path d="M405.7,129.5v-13.9c0-4.2,3.4-7.6,7.6-7.6h13.9c4.2,0,7.6,3.4,7.6,7.6l0,13.9c0,4.2-3.4,7.6-7.6,7.6h-13.9
			C409.2,137.2,405.7,133.7,405.7,129.5z"/>
		<path class="st7" d="M419.2,125.7c0,0.1,0,0.1,0,0.1c-0.7,2.6-0.7,3.1-1.4,4.3c-0.3,0.6-0.7,1.1-1.1,1.6c0,0.1-0.1,0.1-0.2,0.1
			c-0.1,0-0.1-0.1-0.1-0.2c-0.1-0.8-0.2-1.6-0.1-2.3c0-1,0.2-1.4,1.5-6.9c0-0.1,0-0.2,0-0.2c-0.3-0.8-0.4-1.7-0.1-2.6
			c0.6-1.9,2.7-2,3.1-0.5c0.2,1-0.4,2.2-0.8,4.1c-0.4,1.5,1.4,2.6,3,1.5c1.4-1,2-3.5,1.9-5.3c-0.2-3.5-4-4.3-6.5-3.1
			c-2.8,1.3-3.4,4.8-2.2,6.3c0.2,0.2,0.3,0.3,0.2,0.5c-0.1,0.3-0.2,0.6-0.2,1c-0.1,0.2-0.3,0.3-0.5,0.2c-0.5-0.2-0.9-0.5-1.2-0.9
			c-1.1-1.3-1.4-4,0-6.2c1.6-2.5,4.5-3.5,7.2-3.2c3.2,0.4,5.2,2.5,5.6,5c0.2,1.1,0,3.9-1.5,5.9c-1.8,2.3-4.8,2.4-6.1,1
			C419.4,126,419.3,125.9,419.2,125.7z"/>
	</g>
</g>
</svg>
