<?xml version="1.0" encoding="utf-8"?>
<!-- Generator: Adobe Illustrator 27.4.0, SVG Export Plug-In . SVG Version: 6.00 Build 0)  -->
<svg version="1.1" id="Layer_1" xmlns="http://www.w3.org/2000/svg" xmlns:xlink="http://www.w3.org/1999/xlink" x="0px" y="0px"
	 viewBox="0 0 402.01 455.35" style="enable-background:new 0 0 402.01 455.35;" xml:space="preserve">
<style type="text/css">
	.st0{fill:#FFFFFF;}
	.st1{fill:#16140F;}
</style>
<g>
	<path class="st0" d="M348.03,168.44c-0.08-42.29-1.18-87.23-0.59-129.68c-46.95-0.9-100.44-0.55-150.12-0.55
		c-54.15,0-94.42-0.6-146.57-0.55c-0.69,0.09-0.64,0.86-0.59,1.64c0,42.27,0,86.94,0,130.23c0,43.34-1.75,84.12,9.49,119.84
		c17.63,56.03,60,99.55,113.92,123.66c6.46,2.89,19.37,9.3,25.52,9.3c6.1,0,18.03-6.31,24.93-9.3
		c54.91-23.81,96.81-68.15,114.52-123.66C349.7,254.36,348.11,209.15,348.03,168.44z"/>
	<g>
		<path class="st1" d="M279.2,228.08c-2.46,21.68,8.01,63.19,34.42,48.7c-1.85-1.98-3.88-1.04-7.71-1.64
			c-15.23-8.78-15.17-30-14.84-49.79C285.35,224.64,283,227.03,279.2,228.08z"/>
		<path class="st1" d="M281.57,258.17c-2.15-4.2-3.06-9.26-2.97-14.23c-20.25-19.03,32.71-29.29,20.77-6.02
			c4.85,0.27,6.25-2.63,8.31-4.92c1.95,1.3,4.05,2.48,7.71,2.19c0.41-4.2-2.85-5.03-4.15-7.66c2.59-0.53,3.04-3.04,2.97-6.02
			c-1.89-0.12-2.83,2.3-5.33,2.73c-5.71,1-11.2-2.48-16.62-2.73C265.75,220.25,263.19,250.14,281.57,258.17z"/>
		<path class="st1" d="M235.88,392.23c0.12,1.04-0.67,1.21-0.59,2.19c0.99,0,1.97,0,2.97,0
			C238.66,392.59,237.25,392.42,235.88,392.23z"/>
		<path class="st1" d="M224.01,398.25c1.49,0.55-2.07,0.95-1.78,2.19c1.39,0,2.77,0,4.15,0c0.43-1.49-1.18-1.1-1.19-2.19
			c1.03-0.04,1.84,0.12,2.37,0.54C227.52,396.68,224.96,397.25,224.01,398.25z"/>
		<path class="st1" d="M226.39,395.52c0.7,0.09,1.69-0.09,1.78,0.55c-0.86,0.3-3.06-0.64-2.97,0.55c1.4-0.01,1.75,0.94,3.56,0.55
			c-1.11-2.48,2.35-0.74,1.77-2.73C228.71,394.44,226.34,392.83,226.39,395.52z"/>
		<path class="st1" d="M221.04,402.63c0.55,1.17,4.32,0.75,3.58-1.09C223.38,401.87,220.48,400.65,221.04,402.63z"/>
		<path class="st1" d="M232.92,391.69c-1.99,0.17-5.15-0.73-4.75,1.64C231.08,393.2,232.54,394.58,232.92,391.69z"/>
		<path class="st1" d="M237.66,388.96c-0.91,1.68,3.87,1.68,2.97,0C240.48,387.67,238.02,388.64,237.66,388.96z"/>
		<path class="st1" d="M234.1,394.97c-1.05,2.45,3.13,1.97,2.96,0.55C236.38,395.06,235.47,394.8,234.1,394.97z"/>
		<path class="st1" d="M232.32,397.71c1.4-0.01,1.74,0.94,3.56,0.55C236.71,396.51,232.33,396.87,232.32,397.71z"/>
		<path class="st1" d="M207.4,378.01c-1.59-2.19,0.83-10.96-1.78-10.4C207.71,369.69,204.34,376.81,207.4,378.01z"/>
		<polygon class="st1" points="78.68,159.78 76.27,157.11 77.72,147.34 82.53,151.79 88.79,146.45 66.15,125.57 66.64,160.66 
			80.12,173.11 92.17,161.55 102.31,171.28 96.42,176.57 90.24,170.88 83.98,176.66 96.02,188.65 115.29,170.44 92.17,149.12 		"/>
		<path class="st1" d="M129.5,112.89L65.22,54.76v47.53l62.42,56.98l6.83-6.87l-23.6-22.05L129.5,112.89z M75.46,97.43l0.32-19.76
			l38.82,34.93l-10.87,10.88L75.46,97.43z"/>
		<polygon class="st1" points="112.25,163.48 117.55,168.82 123.33,163.93 117.55,158.6 		"/>
		<path class="st1" d="M348.03,168.44c-0.08-42.29-1.18-87.23-0.59-129.68c-46.95-0.9-100.44-0.55-150.12-0.55
			c-54.15,0-94.42-0.6-146.57-0.55c-0.69,0.09-0.64,0.86-0.59,1.64c0,42.27,0,86.94,0,130.23c0,43.34-1.75,84.12,9.49,119.84
			c17.63,56.03,60,99.55,113.92,123.66c6.46,2.89,19.37,9.3,25.52,9.3c6.1,0,18.03-6.31,24.93-9.3
			c54.91-23.81,96.81-68.15,114.52-123.66C349.7,254.36,348.11,209.15,348.03,168.44z M339.13,281.16
			c-19.21,70.6-69.85,114.18-139.45,139.53c-67.13-23.18-116.66-64.17-138.25-131.87c-10.69-33.49-9.49-74.82-9.49-118.74
			c0-30.73,0-64.33,0-96.85c0-10.65,0-22.85,0-32.28c-0.01-0.47-0.2-0.68,0.08-0.84c0.13-0.16,0.43-0.24,1.11-0.26
			c86.26-0.21,207.87,0.11,292.53,0.55c0.63,43.81,1.09,89,0.59,125.31C345.8,198.31,349.77,242.04,339.13,281.16z"/>
		<path class="st1" d="M261.66,237.72C261.16,238.21,261.29,238.12,261.66,237.72L261.66,237.72z"/>
		<path class="st1" d="M190.78,355.58c0.87,2.39-0.6,3.73,1.19,5.47C191.4,359.38,193.25,355.5,190.78,355.58z"/>
		<path class="st1" d="M214.98,80.34l-30.05-28.25l-38.27,0.19l49.52,44.98L214.98,80.34z M172.09,61.86l8.66,0.11l19.13,18.41
			l-4.09,3.55L172.09,61.86z"/>
		<polygon class="st1" points="218.08,77.61 224.61,71.03 245.37,51.88 190.19,51.88 204.44,65.56 		"/>
		<polygon class="st1" points="193.29,99.47 141.75,51.65 127.46,51.65 186.77,105.77 		"/>
		<path class="st1" d="M294.03,253.8c1.52,4.44,2.62,9.26,4.75,13.14c10.58,5.03,17.58,7.61,20.17,15.87
			c6.68,21.12-19.82,28.71-33.22,23.53c-4.74-1.83-12.55-8.1-11.28-14.78c0.53-2.75,3.45-4.88,5.94-4.93
			c2.38-0.05,3.91,3.29,4.75,1.64c1.83-3.66-2.67-5.83-5.34-7.11c1.54-1.68,2.27-4.11,2.96-6.57c-4.65-0.46-6.18,1.96-8.9,3.28
			c-2.28-1.17-2.92-3.87-7.12-3.28c3.83,4.73,1.71,10.42,2.97,15.86c2.39,10.4,10.39,18.42,22.55,19.71
			c20.29,2.13,36.14-12.02,32.64-31.74C322.37,264.25,306.84,257.82,294.03,253.8z"/>
		<polygon class="st1" points="65.58,216.04 93.47,191.42 64.98,166.8 		"/>
		<path class="st1" d="M149.25,219.32c0.68-1.6,0.35-2.03-1.19-2.73C148.16,218.37,146.67,219.22,149.25,219.32z"/>
		<path class="st1" d="M147.46,226.99c0.76,0.03,0.82,0.7,1.78,0.55c0.36-0.04,0.7-0.09,0.59-0.55c-1.12-1.07-0.78-5.44,0-6.57
			c-0.36-0.16-2.28-1.36-2.37,0c1.08,0.88-0.41,1.73,1.19,2.73c-2.09,0.07-0.17,0.8-1.19,2.19
			C149.97,225.25,147.87,226.57,147.46,226.99z"/>
		<path class="st1" d="M152.81,215.49c-0.08-1.91-0.92-7.13-0.6-10.39C150.78,206.9,150.28,215.6,152.81,215.49z"/>
		<path class="st1" d="M149.84,228.63c-1.12,0.12-1.31-0.62-2.37-0.55c0.42,1.68,0.42,1.05,0,2.73c1.02-0.03,1.53,0.42,1.78,1.1
			c-0.76-0.03-0.83-0.7-1.78-0.55c0.42,1.69,0.42,1.06,0,2.73c0.46,0.13,1.17,0.02,1.19,0.55c-2.77,0.04,0.7,1.25,0.6,2.19
			c-0.36-0.16-2.28-1.36-2.38,0c1.55,0.22,1.79,1.63,3.56,1.64C150.6,234.58,149.17,232.3,149.84,228.63z"/>
		<path class="st1" d="M321.92,269.12c1.44-4.55,5.69-12.19,3.56-16.42C325.64,259.01,319.77,264.5,321.92,269.12z"/>
		<path class="st1" d="M192.56,171.17c-2.8-2.89-5.62-8.68-8.3-9.85C186.37,165.11,190.32,169.21,192.56,171.17z"/>
		<path class="st1" d="M147.46,237.93c0.19,1.84,1.98,2.18,3.57,2.73C150.84,238.83,149.04,238.49,147.46,237.93z"/>
		<path class="st1" d="M308.28,187.04c-1.54-0.51-5.51-0.72-6.54-0.55c-14.21,2.42-20.12,19.35-22.54,36.12
			c3.7-0.97,6.64-2.63,11.87-2.19c1.9-11.47,2.08-30.1,13.64-31.19c8.15-0.77,13.67,11.08,2.97,13.68c0.62,3.79,6.43,3.81,8.9,1.64
			c0.83,3.79,3.1,6.26,6.52,7.66c1.05-2.34,0.63-6.33,0-8.76c1.98,0.95,2.9-0.5,4.75-1.1c0.97-1.29,1.32-3.16,1.78-4.92
			C320.51,203.96,315.91,189.57,308.28,187.04z"/>
		<path class="st1" d="M201.47,183.75c-0.78-1.28-1.42-2.69-3.56-2.73C198.17,182.78,200.21,182.9,201.47,183.75z"/>
		<path class="st1" d="M340.91,44.22c-52.27-0.41-93.47,0.21-131.14-0.55c-50.92-1.03-99.49,0.77-152.5,0
			c-0.69,0.09-0.65,0.86-0.59,1.64c-0.31,40.98-1.06,80.36-0.59,121.48c0.39,35-2.56,82.14,7.71,116
			c20.2,66.58,67.83,109.27,134.7,133.51c66.79-23.44,116-66.57,135.28-132.97c9.84-33.88,7.72-69.92,7.72-112.72
			C341.5,129.17,341.97,83.63,340.91,44.22z M58.46,233c-1.14-56.71-0.41-126.38-0.6-187.68c66.41,0.23,148.67-0.54,204.72,0.55
			c0.91,1.51-1.51,3-2.37,3.83c-19.8,19.21-44.02,38.59-64.09,58c1.03,3.43,5.32,3.85,6.53,7.11c-3.65-5.91-15.55-9.64-22.55-2.19
			c-1.88,1.99-3.44,5.15-4.16,7.66c-0.5,1.75,0.11,3.72-0.59,5.47c-1.69,4.21-9.29,9.66-14.24,14.22
			C128.65,169.92,89.49,206.06,58.46,233z M265.55,208.38c-2.3,0.62-3.05,2.66-4.75,3.83c1.41,1.08,2.35-2.91,4.75-2.74
			c-1,2.47-1.82,3.86-4.15,6.02c2.17-0.18,2.1-2.44,4.15-2.74c-0.77,2.2-1.17,1.35,0,3.28c-2.77,1.31,1.02,4.15-3.56,6.02
			c0.76,1.53,1.23-1.72,2.97-1.09c-0.24,3.37-1.53,0.9,0,4.37c-1.25,0.68-2.24,1.59-2.97,2.74c1.48,0.1,1.44-1.23,2.38-1.64
			c0.96,0.75-1.97,2.52-2.97,3.28c0.38,0.55,1.36,0.56,1.19,1.64c2.33-0.82-0.11-0.64,0-2.19c1.18-0.01,0.76-1.49,2.38-1.09
			c-1.73,1.21-0.24,2.22-0.6,4.92c-2.53,0.9-4,5.24-6.53,4.38c1.53-1.24,1.55-1.8,1.78-3.29c-0.21-0.76-1.05-0.05-1.19,0.55
			c-1.21-2.55,0.14-5.42,2.97-7.66c-3.05,2.05-1.41-1.2-3.56,1.1c-0.74-1.44,3.24-3.2,3.56-5.47c-1.58,1.64-3.52,2.95-5.34,4.38
			c-0.17,7.1,0.08,12.03-1.19,20.24c2.7-0.42,3.12-2.95,5.34-3.83c-0.06-1.05-2.32,0.34-2.38,1.09c-1.73,0.74,1.35-2,1.78-2.74
			c-0.18-1.3-1.6,0.61-1.78,1.09c-1.04-0.65,1.78-2.34,2.38-3.28c-0.17-1.3-1.61,0.62-1.78,1.1c-0.78-2.37,3.54-4.75,5.34-6.57
			c0.3,0.92-1.38,2.85-2.11,3.63c0.28-0.28,0.76-0.74,1.51-1.43c1.6,1.76-0.42,3.6,0.6,5.47c-2.06,0.1-2.26,1.94-4.15,2.19
			c0.47,1.26,2.79-0.28,2.97-1.09c1.72,5.24-5.2,7.25-7.71,10.4c0.38,0.56,1.36,0.56,1.19,1.64c0.48-0.1,0.59-0.55,1.19-0.55
			c-0.39-0.55-1.37-0.57-1.19-1.64c2.53-1.49,4.78-3.26,6.53-5.47c1.8,1.17-1.71,2.04-1.78,3.29c3.08-2.25,0.68,1.79,1.18,4.92
			c-1.9,0.26-2.09,2.09-4.16,2.19c0.21-0.72,1.05-0.86,1.19-1.64c-2.86,1.47-4.55,2.7-4.15,6.02c1.8-0.51,1.85-2.66,4.15-2.73
			c-1.57,1.96,1.76,0.69,1.78-0.55c0.02,7.32-10.5,9.65-8.9,20.25c1.86-1.39,3.63-2.86,5.34-4.38c0.95,2.71-2.39,6.18-5.34,7.12
			c0.62-1.44,2.36-1.84,2.97-3.28c-6.46,2.09-3.61,9.74-6.54,13.68c2.73-0.95,3.68-3.54,5.94-4.92c0.44,4.24-3.37,8.85-8.31,13.13
			c1.62,0.21,4.31-3.31,5.93-4.92c-0.63,3.54-7.38,6.17-7.72,10.39c3.34,0.06,2.46-6.01,7.12-7.11
			c-3.64,10.95-6.2,23.89-13.01,33.12c-0.01,0.09-0.03,0.16-0.04,0.25c-0.1,0.08-0.23,0.17-0.36,0.26
			c-0.81,1.06-1.67,2.08-2.61,3.03c-0.88-0.68,1.41-2.18,2.61-3.03c0.13-0.17,0.27-0.34,0.4-0.51c0.69-4.13,0.14-3.85,3.51-6.86
			c-2.44-1.1,0.7-1.79,1.19-3.28c-0.06-1.05-2.32,0.34-2.37,1.09c-1.45-0.68,1.78-1.59,1.78-2.73c-5,1.22-3.37,8.56-6.52,11.49
			c-1.25-2,3.77-8.07,0.59-11.49c0.05-1.1,4.27-2.78,1.19-3.28c0.98-1.1,1.59-2.55,3.56-2.74c-0.24-1.21-3.25-0.53-2.96,0.55
			c-1.29-0.86,2.19-1.96,2.37-3.28c-0.26-0.81-0.76,0.22-1.78,0c1.65-1.4,2.08-3.92,3.55-5.47c-1.45,0.31-2.16,1.28-2.97,2.19
			c-1.25-1.54,2.39-3.25,3.56-4.38c-0.51-1.61-0.89,1.27-2.37,0.55c1.75-1.42,0.15-2.53,1.78-3.83c0.19-1.11-1.71,0.11-1.78,0.55
			c-1.04-0.99,1.74-3.11,2.96-3.83c-0.06-1.34-1.96-0.12-1.78,0.55c-2.07-1.25,1.86-1.52,1.78-2.74c-0.51-1.62-0.88,1.27-2.37,0.55
			c1.13-1.51,2.52-2.79,4.15-3.83c-6.5-0.29-4.81,8.47-7.71,12.04c-0.1-0.58,0.29-2.47,0.6-3.83c-0.62-1.05-2.36,1.44-2.97,2.19
			c2.17-3.43,2.92-4.69,4.74-8.21c-1.6-0.38-1.15,1.13-1.78,1.64c-1.11-1.58,2.72-3.06,1.78-4.93c1.86,0.38,0.77,1.47,0.59,2.74
			c2.86-2.47,6.11-4.58,8.31-7.66c-2.01,1.44-3.76,3.1-5.94,4.38c-0.8,0.96,2.02-3.38,3.56-3.83c-0.27-0.9-2.55,0.87-2.97,1.64
			c-0.79-0.95,2.38-2.89,3.57-3.84c-4.04-0.25-5.93,6.2-10.09,7.66c3.12-3.69,6.77-6.89,10.09-10.4c-1.89-0.47-1.84,0.86-2.97,1.1
			c-1.09,0.83,2.27-2.76,3.56-3.29c-1.87-0.8-0.5-1.8,0.59-2.73c-2.43-0.32,0.29-1.15,1.19-2.73c-2.45,0.3-3.59,1.79-4.75,3.28
			c-0.99-2.03,3.33-3.85,4.75-5.47c-4.15,0.55-7.69,6.4-11.27,9.3c-1.68-2.12,3.18-2.89,3.55-4.92c-1.72,0.55-2.14-0.29,0.59-1.64
			c-1.78-1.24-3.62,2.11-4.74,3.28c-2.04-2.45,3.21-2.86,3.56-4.92c-0.06-1.35-1.96-0.12-1.78,0.55c-1.44-1.9,3.52-2.57,3.56-4.92
			c-1.88,1.3-3.01-0.12-4.15,1.64c-1.43-1.54,2.06-3.18,4.74-2.73c0.26,2.97-0.36,4.39-0.59,7.66c2.53-1.5,4-3.97,6.53-5.47
			c-0.39-1.64-1.27,0.52-2.38,0c0.88-1,1.88-1.92,2.96-2.73c0.18-1.11-1.71,0.12-1.78,0.55c-1.09-1.05,2.6-2.33,2.97-3.83
			c-2.4,0.7-3.58,2.53-5.34,3.83c0.26-2.33,5.38-4.88,7.12-7.66c-3.29,0.85-5.13,1.49-7.12,4.38c-0.74-2.15,3.63-4.3,5.34-6.02
			c-1.69,0.28-5.31,3.48-7.12,5.47c-1.79-1.17,1.7-2.04,1.78-3.29c-1.97,0.19-2.58,1.64-3.56,2.74c-1.93-1.12,2.01-1.38,1.78-2.74
			c-2.4,0.53-6.58,4.14-8.9,6.57c1.03-3.8,8.34-6.54,10.68-10.95c-2.29,2.09-5.23,3.57-7.12,6.02c-1.75-1.64,2.9-2.03,2.96-3.83
			c-4.03,0.13-2.83,1.92-5.34,3.28c1.05-0.57-0.1-2.55-1.78,0.55c-1.64-1.55,2.44-2.46,2.96-3.83c-0.89-1.48-2.48,0.95-2.96,1.64
			c-0.24-1.52-0.18-1.09-2.38-1.64c0.06,27.28-0.3,53.16-1.78,76.06c-0.35,5.37,1.18,12.12-2.97,16.42
			c2.4-40.17,2.48-84.24,0.6-122.02c2.24,1.36-0.46,6.85,1.78,8.21c0.81-0.17,0.5-1.37,0.59-2.19c2.03,4.16,0.67,16.17,1.78,22.99
			c7.45-1.94,14.11-4.4,19.58-10.4c-1.96,0.19-2.57,1.64-3.56,2.74c-1.67-1.41,2.16-2.36,2.38-3.83c-1.92-0.63-3.1,3.86-3.56,1.09
			c3.1-1.36,3.74-3.93,4.75-6.02c-1.92-0.68-0.45,1.77-2.37,1.09c0.61-1.44,2.35-1.84,2.96-3.28c-0.18-1.3-1.6,0.6-1.78,1.09
			c-2.09-0.93,1.49-1.1,1.19-2.18c0.19-1.11-1.72,0.11-1.78,0.55c1.2-4.21-3.96,1.86,1.19-3.83c-0.18-1.3-1.61,0.61-1.78,1.1
			c-2.18-1.16,4.54-4,0-2.74c0.41-1.27,1.97-1.46,2.37-2.73c-1.86-0.26-1.57,1.47-2.97,1.64c-1.24,0.84,2.17-2.47,2.97-3.28
			c-2.34-0.15-1.81,2.34-4.15,2.18c0.4-1.27,1.98-1.46,2.37-2.73c-1.02-0.02-1.53,0.4-1.78,1.09c-1.27-0.87,2.2-1.96,2.38-3.29
			c-0.51-1.62-0.89,1.27-2.38,0.55c0.17-1.12,1.59-1.09,2.38-1.64c-0.1-0.64-1.08-0.46-1.78-0.54c0.17-1.12,1.6-1.08,1.78-2.19
			c-1.62-0.4-1.2,1.09-2.38,1.1c-1.2,1.01,1.82-2.39,2.97-2.74c-0.07-1.34-1.96-0.12-1.78,0.55c-0.86-2.48,4.01-1,4.74-3.83
			c-1.01-0.2-1.12,0.43-1.19,1.1c-1.85-0.88,1.22-1.73,1.19-2.74c-3.54,1.35-4.28,3.74-5.34,4.38c-1.63,0.98,3.19-4.2,5.34-6.02
			c-1.95-0.1-1.98,1.58-3.29,2.08c0.49-0.46-0.45-2.43,0.91-3.73c-2.22,0.28-3.12,2.49-4.75,3.28c-0.76,0.37,1.54-1.97,3.56-3.28
			c0.09-0.63-0.13-0.97-0.6-1.09c5.11-2.68,1.79-4.45,4.16-9.85c1.18,2.17,1.98,5.11,1.19,7.11c0.12,0.55,0.79,0.57,1.06,0.28
			c0.04-0.1,0.08-0.2,0.12-0.28c0,0.11-0.05,0.2-0.12,0.28c-0.46,1.09-0.83,3.39-0.47,6.84c1.56-0.57,2-2.17,3.56-2.73
			c-0.44-0.51-1.08-0.83-1.78-1.1c0.66-2.68,3.6-3.24,4.75-5.47c-1.92,0.24-2.36,1.84-3.56,2.74c-1.4-0.15,0.67-1.46,0.59-2.18
			c-3.66,2.17,2.15-1.8,0.59-4.93c-0.17-1.3-1.61,0.61-1.78,1.09c-1.79-1.16,1.7-2.04,1.78-3.28c-1.93,2.06-2.6-0.97-3.56,1.09
			c0.81-1.81,4.3-5.87,7.72-7.11c-1.63-0.79-0.69-1.38,0-2.73C267.04,198.03,264.13,202.45,265.55,208.38z M257.83,271.85
			c-0.52,0.96-0.62,3.63-2.96,3.83c-1.42-0.16,0.66-1.48,1.19-1.64c-0.4-1.64-1.27,0.52-2.38,0c0.74-1.15,1.73-2.06,2.97-2.74
			c-3.36-0.16,0.18-1.33,1.19-3.28c-0.53-1.49-1.32,1.25-2.37,1.09c-0.42-1.14,3.38-3.07,4.16-4.92
			C260.77,266.55,256.4,274.5,257.83,271.85z M252.49,284.44c1.68-0.27,2.27-1.56,2.97-2.73c1.85,3.54-2.98,5.64-4.75,7.66
			c-1.36-0.77,1.51-2.22,2.37-2.74C253.16,285.65,252.36,285.48,252.49,284.44z M253.68,283.35c-1.67-1.41,2.16-2.36,2.38-3.83
			C257.35,280.57,254.13,282.08,253.68,283.35z M237.66,359.4c-1.67,0.22-2.53-2.49-2.37,0.55c-1.27,0.26-1.13-0.78-1.18-1.64
			c-0.7,0.09-0.5,1-0.59,1.64c-1.02,0.2-1.12-0.43-1.19-1.1c-1.15,0.22-0.46,2.12-2.38,1.64c0-0.55,0-1.1,0-1.64
			c-0.69,0.09-0.5,1-0.59,1.64c-1.01,0.02-1.54-0.41-1.78-1.1c-0.69,0.09-0.5,1-0.59,1.64c-1.27,0.26-1.13-0.78-1.19-1.64
			c-0.69,0.09-0.51,1-0.59,1.64c-3.09,1.15-4.43-2.73-4.75,0.55c-1.24-0.18-1.81-3.15-1.77,0c-2.25-0.48-0.22-4.91-1.78-6.02
			c-1.42,0.35,1.9,5.87-1.19,6.02c0.39-2.75-0.75-4.42,0-6.02c-2.35-0.06-0.78,10.14-1.77,3.28c-0.55-0.96-0.21-2.73-1.19-3.28
			c-0.57,0.38,0.38,3.98,0,6.02c-2.56-0.37-0.54-4.97-1.19-7.11c-3.31,0.63,1.84,6.31-1.78,7.11c0.18-2.72-0.09-5.02-0.6-7.11
			c-1.37,1.47-0.2,5.28-0.59,7.66c-1.82-0.38-1.14-0.38-2.97,0c-0.38-2.2,0.77-5.82-0.59-7.11c-1.89,1.08,2.16,6.44-1.19,7.11
			c0-2.37,0-4.74,0-7.11c-3.37,1,1.1,5.82-1.19,7.66c-1.29-1.74-0.15-5.7-1.19-7.66c-2.01,1.9,0.88,6.19-0.6,7.66
			c-2.05-1.83-0.12-4.89-1.77-7.66c-1.59,1.02,1.91,6.09-1.18,7.66c-0.24-3.55,0.08-5.45-0.6-7.66c-1.68,2.21,0.36,5.72-0.6,7.66
			c-1.36-2.05-0.1-6.81-1.18-7.66c-1.33,2.75,0.04,5.03,0,7.66c-3.03-0.31-1.33-4.97-1.78-7.66c-2.2,1.25-0.04,3.88-0.59,7.66
			c-1.67,0.1-1.49-2.15-2.38,0c-1.65,0.25,0.47-2.98-1.18-2.73c-1.74,0.46,0.36,1.76,0,2.73c-3.54-0.95-0.18-4.91-2.37-7.11
			c-0.79,2.4-0.23,3.36,0,7.11c-2.57-0.37-0.54-4.97-1.19-7.11c-2.66,1.68-0.34,4.83-0.59,7.11c-1.96-0.93-0.94-4.61-1.18-7.11
			c-2.57,0.37-0.55,4.97-1.19,7.11c-1.75-0.79-1.51-5.59-0.59-7.11c-2.16-0.17-0.79,2.91-1.78,3.83c-1.79-0.83,0.49-2.4,0-3.83
			c-3.1-0.49,0.72,5.41-2.38,4.92c0.69-0.69,1.2-4.31,0-4.92c-0.9,3.2-1.04,8.06-1.18,1.1c0.49-1.55-0.84-1.42-0.59-2.74
			c19.83-0.56,43.94,0.28,61.72-4.92c2.6,2.19,2.48,6.89,1.18,9.85c-1.26,0.26-1.13-0.78-1.18-1.64
			C237.45,357.38,237.76,358.59,237.66,359.4z M157.56,356.12c0.93,1.82,2.72-0.54,2.96,1.64c0-0.93,3.86-2.22,3.57,0
			c1.07-0.68,3.54-2.39,4.15-0.55c0.7-0.09,0.5-1,0.59-1.64c0.86,0.61,1.45,0.59,1.78-0.55c0.71,0.09,0.5,1,0.6,1.64
			c1.11-0.99,0.83-3.25,3.56-2.74c-0.75,2.95-0.53,6.8-1.78,9.3c-7.76,0.48-12.01-1.7-16.02-2.19
			C156.64,358.93,158.02,358.37,157.56,356.12z M157.56,354.48c0.01-2.59,3.92-2.45,5.93-1.64c-1.17,1.25-3.33-0.6-4.75,1.1
			c7.5,2.79,14.53-2.06,15.42-8.75c2.53-1.87,7.32-1.65,10.69-2.74c1.46,1.56-3.66,1.72-5.94,1.64
			C174.51,349.38,168.79,359.11,157.56,354.48z M146.28,278.97c-2.55-0.75-0.27-3.48-0.59-5.47
			C147.03,274.26,145.91,277.3,146.28,278.97z M140.95,274.05c1.36,0.23,3.14,3.25,3.55,6.01c-2.01-1.79-3.01-4.52-4.74-6.56
			c1.29-21.39,2.96-52.71,5.93-72.23c3.16-20.82,7.07-47.47,20.77-48.15c8.61-0.43,12.38,7.07,17.21,11.49
			c-0.28-6.88-10.11-11.21-10.68-13.13c-0.78-1.38-1.94,1.43-3.56,1.1c0.49-1.38,2.09-1.74,2.97-2.74
			c18.68,1.55,16.77,22.12,34.42,24.62c1.54-0.94,3-1.97,2.96-4.38c-1.75,1.12-1.75,3.86-5.33,3.29c2.44-0.84,3.86-2.63,3.56-6.02
			c-4.84,0.25-0.74,2.04-5.93,1.64c0.08,1.01,2.01,0.34,2.38,1.09c-0.9,1.01-2.04-0.19-4.16-0.55c4.87-3.86,11.08-12.27,7.12-19.15
			c3.12-0.14,4.15,1.65,5.34,3.28c-2.85-2.53-2.49,2.85-3.57,6.02c0.56-0.4,0.9-0.99,1.19-1.64c1.29,6.91,1.17,20.51-7.11,20.25
			c0.15-1.99-3.16-2.53-5.94-3.28c5.21,7.26,16.27,3.48,14.24-7.66c1.06-0.07,1.25,0.67,2.38,0.55c-1.09,6.62-2.01,14.54-8.31,14.77
			c0.41,1.52,4.76,3.1,5.34,1.09c1,1.97-4.18,5.46-7.12,3.83c1.47-1,4.28-0.79,4.75-2.73c-10.79,3.63-14.62-5.39-20.17-9.85
			c2.56,3.48,5,7.06,8.3,9.85c-8.36-2.14-10.26-14.97-16.02-21.34c0.99,3.1,2.82,5.43,3.57,8.75c-6.26-5.93-5.92-16.11-14.84-17.52
			c-13.86-2.18-13.76,13.87-17.21,23.53c1.24,2,0.4,2.53,1.19,4.93c-2.05,2.01-0.17,7.7-0.59,10.94c-0.11,1.36,0.91,1.71,1.77,2.19
			c-0.43,0.98-1.08,0.08-1.77,0c0.91,1.95-0.61,3.01,1.77,3.83c-0.43,0.98-1.08,0.08-1.77,0c3.03,3.58-0.13,7.5,2.96,9.85
			c-1.01,1.92-1.19-1.38-2.37-1.09c0.65,1.54-0.03,4.86,0.6,8.21c0.39,2.05,3.77,5.17,0,5.47c0.33,0.79,0.92,1.33,1.77,1.64
			c-0.25,0.81-0.76-0.22-1.77,0c0.72,1.03-0.29,2.53,1.77,3.29c-1.66,1.14-1.52,6.66,0.6,9.3c-1.05-0.49-1.73-1.32-2.97-1.64
			c0.1-5.14,0.28-11.33-1.19-16.42c-0.84,10.48,1.38,24,0.6,39.4c-2.37-1.18,1.42-3.81-2.38-4.93c2.67-2.08-0.94-9.37,0.6-10.94
			c-0.64-1.24-1.8-1.99-3.57-2.19c-1.6,0.49,1.25,1.32,1.78,1.64c-0.79,0.52-2.59-0.35-2.38,1.09c-0.09,1.55,1.68,1.37,2.38,2.19
			c1.83,0.71-1.7,0.72-1.19-0.55c-0.64,0.13-0.39,1.09-1.18,1.09c-0.1,1.91,2.09,1.72,2.96,2.73c-0.4,1.37-1.58-1.02-2.96-0.55
			c-2.05,0.63,3.42,3.38-0.59,2.74c0.9,1,2.56,1.28,3.56,2.19c-0.54,1.33-1.75-1.24-3.56-0.55c0.25,0.61,4.22,1.37,1.18,1.64
			c0.4,1.64,1.27-0.52,2.37,0c-0.16,1.25,0.15,2.06,1.19,2.19c-0.75,1.17-2.44-1.36-4.16-1.09c0.32,1.56,4.81,2.1,3.56,3.28
			c0.09,2.35-2.42-0.57-3.56-0.55c-2.19,2.23,0.85,4.3,2.38,4.92c1.69-0.68-2.58-1.59-0.6-2.74c1.25,1.22,2.33,2.59,4.16,3.29
			c0.3,0.78-2.31,1.33-0.6,1.64c-1.44,0.58-3.91-2.57-5.93-3.28c0.35,1.01-0.19,2.15-0.59,4.93c1.2-1.87,1.2,1.28,2.96,2.73
			c-1.39-0.01-1.74,0.94-3.56,0.55c6.23,3.37,11.15,7.96,13.65,14.77C154.99,279.96,148.22,268.15,140.95,274.05z M189.59,112.08
			c-1.18,0.68-2.57-0.57-2.97,1.64c0.09,1.01,2.01,0.33,2.38,1.1c-0.14,2.29-2.21-0.62-2.97,1.09c-0.83-1.69,1.25-5.39,2.38-7.11
			c0.67,0.1,0.32,0.55,0,0.55C187.55,111.41,190.04,110.39,189.59,112.08z M203.25,165.7c-2.56,0.19-2.29-1.36-1.78-2.74
			c0.79,0,1.58,0,2.37,0c0.22,0.93-0.46,1.04-1.19,1.1C202.97,164.5,203.27,164.95,203.25,165.7z M189.59,159.13
			c2.21,0.25,2.42,0.69,4.74,1.64c-0.32-2.62-3.18-2.9-6.52-2.74c-2.5-2.8-4.01-6.51-5.34-10.4c1.04-0.8,2.16,0.83,3.56,0.55
			c-1.73,4.44,3.41,6.99,5.93,9.31c-1.53-3.33-5.42-4.48-5.93-8.76c5.71,1.34,7.14-1.89,10.68-3.83c-2.38,1.94-1.13,4.02-3.56,5.47
			c1.49,0.4,1.21,0.61-0.6,1.64c0.26,0.81,0.76-0.22,1.78,0c-0.16,1.12-1.58,1.09-2.37,1.64c1.22,2.39,3.12,3.51,4.75,6.57
			c1.69-1.18,2.99-2.72,6.54-2.19c-1.54-2.77-6.28,1.47-8.31-1.09c0.32-1.71,0.48-3.57,1.18-4.93c1.34,0.41,0.23,3.07,0.59,4.38
			c4.67-0.54,6.65-0.78,10.68,0C206.29,162.09,193.05,163.04,189.59,159.13z M197.91,165.7c1.2,0.17-0.13-1.58-0.6-1.64
			c0.69-1.47,3.15-0.05,2.36,1.64c-0.77,0.7-2.18,0.7-2.96,0C196.87,165.01,197.9,165.15,197.91,165.7z M192.56,162.96
			c2.28-1.64,4.25-0.17,7.12-1.09C198.78,163.59,195.13,162.78,192.56,162.96z M177.13,126.3c1.06-0.3,2.47-0.28,2.97-1.1
			c1.45,0.52-0.77,2.15-1.79,2.19c-0.38,2.36,1.03,3.07,1.79,4.38c0.83-0.19,0.05-0.96-0.59-1.09c0.43-1.24,3.38-0.16,2.96-2.19
			c2.19,2.59-1.12,4.78-0.59,7.66c-1.84,0.06-2.84-0.67-4.15-1.1C178.09,131.63,177.27,129.27,177.13,126.3z M187.82,135.06
			c-1.86,2.3-6.03,2.46-7.12,5.47c1.09,1.49,2.85,2.96,1.78,4.93C178.6,141.84,180.4,134.22,187.82,135.06z M192.56,135.61
			c0.11,0.46-0.23,0.51-0.6,0.55c-0.69,0.08-0.49,1-0.59,1.64c-0.69-0.09-1.05,0.12-1.19,0.54c-1.97-0.58-0.04-1.66-1.19-3.28
			c0.59,0,1.19,0,1.78,0C189.56,136.77,191.19,135.77,192.56,135.61z M191.97,143.27c-2.61,0.41-2.43-1.77-4.15-2.19
			c0.27,1.4,0.82,2.52,1.78,3.29c-0.06,0.85-3.54-1.05-2.97,1.64c-3.54-0.95-1.58-3.62-2.96-6.57c1.58,0,3.16,0,4.75,0
			C188.47,144.07,194.26,139.5,191.97,143.27z M198.5,129.04c2.38-0.01,1.65,2.86,1.78,4.92c1.87,0.27,0.22-2.71,2.38-2.19
			c0.28,1.72-0.84,2.14-1.19,3.28c-2.3-1.85-1.84,2.16-4.15,0.55C198.16,133.65,200.07,131.63,198.5,129.04z M199.68,143.27
			c-2.16-1.14-0.28-2.61,0-4.38C201.21,139.64,199.82,142.24,199.68,143.27z M199.09,152.57c0.85-2.07-1.63-1.06-1.18-2.74
			c3.16,2,8.22,2.26,10.08,5.47C204.65,154.78,201.5,152.25,199.09,152.57z M200.86,149.83c2.21-2.35,5.48-3.71,6.54-7.11
			C210.04,144.96,203.03,150.19,200.86,149.83z M203.84,136.7c1.25,1.03,2.06,2.48,2.97,3.83c-0.44,1.23-2.77-3.22-2.97,0.55
			C202.03,140.07,204.53,138.48,203.84,136.7z M206.21,136.15c-1.64,1.53-1.39-3.92-0.6-4.92
			C207.43,131.88,204.04,135.16,206.21,136.15z M206.81,133.41c0.92,2.25,3.5,2.96,2.96,6.57
			C209.04,137.55,206.88,136.44,206.81,133.41z M203.25,118.1c3.07,2.91,1.67,7.88,3.56,12.58
			C204.07,127.91,204.97,121.8,203.25,118.1z M203.25,129.59c-2.26-1.53-3.71-2.98-5.34-3.83c-0.11-1.18,2.1-0.25,2.95-0.55
			C201.12,127.16,203.63,127.03,203.25,129.59z M197.31,112.08c1.42,2.15,4.27,2.99,4.15,6.56
			C200.44,116.12,198.39,114.55,197.31,112.08z M196.12,136.15c-3.52-0.4-3.08-4.46-6.53-4.92c3.46-5.17,6.32,2.32,7.72-4.38
			C199.02,129.83,196.85,132.68,196.12,136.15z M186.04,119.19c2.69-1.81,1.25,1.63,5.34,0.54c0.09,1.36-0.93,1.69-1.19,2.74
			c-1.19,0-2.37,0-3.56,0C187.64,121.59,187.18,119.65,186.04,119.19z M192.56,126.85c-1.6-1.29,3.28-3.42,3.56-0.54
			C194.61,125.88,193.39,125.5,192.56,126.85z M194.94,117c-0.12,0.62-0.6,0.3-0.6,0c-1.8,1.1-1.68,0.59-4.74,0.55
			c0.03-3.08,1.23-5.08,2.37-7.12c1.79,2.49,0.95,4.27,2.97,4.93C195.06,116.3,193.93,116.78,194.94,117z M187.82,124.66
			c-0.59,4.33-0.31,5.69,1.78,8.21c-2.14-2.25-1.69-0.46-5.33-0.55c-0.63-1.6-0.61-4.71,0-7.66
			C186.3,125.1,186.76,123.64,187.82,124.66z M182.48,123.02c0.02,0.53,0.73,0.42,1.19,0.55c0.11,0.46-0.24,0.51-0.6,0.55
			c-0.39,0-0.79,0-1.18,0c0.52-2.18,0.52-2.75,0-4.92c1.67,0.46,2.7,1.52,2.97,3.28C183.78,122.4,183.6,123.14,182.48,123.02z
			 M177.73,119.19c0.9-4.09,3.48-6.64,6.53-8.76C184.04,112.98,182.88,119.38,177.73,119.19z M180.1,119.19
			c-1,2.13,2.1,3.23-1.19,5.47c0.19-1.26-0.09-2.1-0.6-2.73c-1.04,0.13-1.34,0.94-1.18,2.19c-0.81-0.17-0.49-1.37-0.59-2.19
			C178.52,121.74,178.99,120.18,180.1,119.19z M180.69,144.91c0.56,1.01-3.39,0.34-1.18,1.09c-1.18,1.05-2.62-2.3-2.38-4.38
			c-2.15,0.5-0.36,1.62-0.59,3.28c-3.27-1.4,0.5-6.18-2.38-8.21c1.18-1.41,2.41,1.76,2.38,3.28c2.2-3.64-5.79-6.06-1.78-9.84
			C175.4,134.44,178.98,141.49,180.69,144.91z M243.59,214.95c-1.89-1.17-3.54-2.58-5.33-3.83c-0.17,3.99,5.17,2.89,5.33,6.57
			c-2.12-1.33-4.12-2.76-5.93-4.38c0.02,2.71,2.3,3.35,4.15,4.38c-2.27,1.16-5.19-1.76-5.93-3.83c-1.54,2.05-3.34,3.85-5.94,4.92
			c1.66,1.14,4.13-1.64,5.94-2.19c2.3,0.09,3.86,3.71,5.93,2.19c1.82,0.54-0.69,1.46-0.59,2.19c-1.16-1.49-2.87-2.46-4.74-3.29
			c-2.42,1.31-5.06,2.02-7.84,2.35c-0.88,0.46-2.31,0.55-3.31,0.22c-6.54,0.1-13.64-1.49-20.3-2.57
			c-9.39-1.52-17.72-6.35-25.51-8.21c-3.05-6.31-8.78-10.14-11.88-16.42c3.07-0.13,5.63,10.3,9.5,7.66
			c-0.07-1.94-1.96,1.16-1.78-0.55c1.99-1.81-0.95-1.6,0.59-3.83c0.7,0.09,0.51,1,0.59,1.64c1.79-0.67-0.42-2.09-0.59-2.74
			c-0.86,0.12-0.21,1.64-1.19,1.64c-3.74-1.6-0.56-4.85-2.37-6.02c0.34-1.32,2.25-1.22,3.56-1.64c-0.14,0.96-1.02,1.24-2.38,1.09
			c2.25,3.4,4.56,6.75,8.31,8.76c0.52-3.22-2.89-2.81-2.37-6.03c-1.28,2.56-0.96-1.24-1.78,0c-2.07-0.65,2.75-3.35-1.19-2.73
			c0.51-1.72,2.29-2.27,4.15-2.74c-1.18,0.67,0.15,1.89,0.6,0.55c1.81,2.5,3.55,7.23,5.98,10.74c0.23,0.07,0.43,0.28,0.55,0.76
			c-0.19-0.25-0.37-0.5-0.55-0.76c-0.71-0.22-1.73,0.85-1.82-0.89c-1.38,0.82-0.9,1.34-0.59,2.74c1.53-2.16,1.91,0.83,4.74-0.55
			c-3.76-3.64-4.02-10.52-7.12-14.77c5.07-0.84,3.72,8.97,6.53,12.04c9.2,0.89,13.7,8.8,21.96,8.75c4.99,8.3,17.94,4.56,25.52,1.09
			c1.23,2.15,6.26,0.79,5.93,4.38c-2.21-0.33-2.42-2.51-4.74-2.73C238.33,212.14,243.66,211.06,243.59,214.95z M245.37,248.88
			c-0.46,1.77-1.64,2.86-3.56,3.28c3.19-2.31,1.35-4.29,2.97-7.11c2.42-0.26,0.09,1.47-0.6,1.64
			C245.68,247.65,244.6,247.59,245.37,248.88z M244.19,245.59c-1.82-0.54,0.69-1.46,0.6-2.19c-1.87-0.26-1.57,1.47-2.97,1.64
			c-1.09,0.38,3.34-2.94,4.16-4.38C246.17,241.91,245.88,244.12,244.19,245.59z M232.32,224.8c0.38-0.55,1.36-0.56,1.19-1.64
			c3.25,2.2,4.59-0.73,5.34,1.64c2.32-0.54-0.84-2.74,1.78-2.74c1.96,11.41-17.01,7.53-11.87-0.55c1.21,3.33,2.08,5.03,4.16,6.57
			C234.31,227.62,232.88,225.26,232.32,224.8z M245.37,236.29c0.82-0.48-3.15,3.5-4.74,4.37
			C239.82,241.15,243.78,237.17,245.37,236.29z M243,231.36c-1.2-2.34,0.67-3.4,1.19-5.47c0.18-1.11-1.71,0.11-1.78,0.55
			c-1.37-2.75,1.6-6.18,2.38-8.76C245.64,222.11,248.52,228.71,243,231.36z M224.01,325.48c-2.26,0.44-0.76-2.59-1.19-3.83
			C224.53,321.72,223.91,323.93,224.01,325.48z M222.82,334.24c-1.21-0.53-1.28-2.1-1.19-3.83
			C223.78,330.8,222.02,332.11,222.82,334.24z M219.86,328.77c-0.24-1.32,1.08-1.19,0.59-2.74c0.99,0,1.98,0,2.97,0
			c-0.05,0.78-0.1,1.55,0.59,1.64C223.77,329.15,221.2,329.93,219.86,328.77z M205.02,327.67c-2.28-2.38,0.42-5.58,2.97-3.29
			c-0.19,1.28-0.71,2.26-1.18,3.29c1.06,0.07,1.25-0.67,2.36-0.55c0.81,0.7,0.81,2.58,0,3.28c-1.67-0.1-2.52-0.95-2.36-2.73
			C206.21,327.67,205.61,327.67,205.02,327.67z M194.34,328.77c0.27-1.76,0.91-3.18,3.57-2.74c-1.29,3.56,2.18,2.72,2.37,4.92
			c-1.43-0.22-1.29,1-2.96,0.55C197.83,329.2,195.34,329.67,194.34,328.77z M184.85,328.22c-1.98-0.82-1.76-2.46-0.59-3.83
			c2.06-0.38,3.49,0.31,4.15-2.19c2.97-0.24,2.88,3.9,1.18,4.92C187.79,326.33,185.55,326.56,184.85,328.22z M187.82,327.67
			c0,0.73,0,1.46,0,2.19c-1.56,0.15-2.55-0.2-2.38-1.64C185.97,327.79,186.78,327.63,187.82,327.67z M181.29,328.22
			c-0.6,0-1.19,0-1.78,0c-1.1-0.97,0.26-1.6,0.59-2.74C182.1,324.92,181.03,327.18,181.29,328.22z M163.49,321.1
			c1.19-1.13,2.2-2.02,4.15-1.09c0,0.91,0,1.82,0,2.73c2.8,1.93,3.88,0.57,6.53-0.55c0,1.28,0,2.55,0,3.83
			c-2.82-0.93-4.17,2.54-7.71,0c-1.64-0.23-0.56,2.04-1.78,2.19c-2.13,0.31-1.81-1.62-1.78-3.29c1.82-0.39,2.16,0.56,3.56,0.55
			c0.55-0.4,0.9-0.99,1.18-1.64C165.75,323.39,164.63,322.24,163.49,321.1z M161.71,307.97c1.74-2.38,3.99,3.35,0.6,2.74
			C161.97,309.91,163,307.88,161.71,307.97z M161.71,287.18c2.32,0.07,1.73,2.45,1.19,3.83
			C161.2,290.93,161.81,288.72,161.71,287.18z M159.33,209.48c-0.61,2.29-0.24,1.69,0,4.38c0.44,0.51,1.08,0.83,1.78,1.09
			c-0.12,0.62-0.6,0.3-0.6,0c-1.91,0.29-1.38,3.07,0.6,3.29c-0.1,0.64-1.08,0.46-1.78,0.54c2.01-0.18,0.16,3.94,0,3.28
			c0.25,1.08,1.37,0.48,1.78,1.1c1.64,2.4-1.54,9.88,1.78,10.4c-0.74,1.66-2.04-0.59-3.57,0c0.12-10.64-2.45-21.39-0.59-29.55
			c0,1.45,0,2.92,0,4.37C158.65,209.02,158.87,209.35,159.33,209.48z M156.37,175.55c1.12-0.41,0.42-1.63,1.78-0.55
			c-2.64-4.02-1.11-8.56,1.19-13.13c3.07,0.1,2.09,3.91,4.75,4.37c0.79-0.36,1.11-1.17,1.18-2.19c2.24,0.42,2.84-0.67,4.75-0.55
			c0.82,0.69,0.82,2.58,0,3.28c-1.55,0.16-1.94-0.76-1.78-2.19c-1.02,1.41-0.73,1.87-2.38,0.55c0.08,1.02,0.39,1.83,1.19,2.19
			c0.42,0.88-2.8,0.88-2.37,0c-0.7,0.82-1.71,1.34-1.78,2.73c1.85-1.96,5.27-0.52,3.56,2.19c-1.55,0.15-2.56-0.2-2.38-1.65
			c-0.53,0.24-1.06,0.48-1.19,1.09c1.24,0.68,2.5,1.34,3.56,2.19c-0.46,0.48-0.64,1.23-0.6,2.19c-1.86,0.26-1.56-1.47-2.96-1.64
			c0.62,1.55,0.62,2.28,0,3.83c1.92,0.68,0.45-1.77,2.37-1.09c0.48,2.11,2.38,2.91,4.15,3.83c-1.04,2.43,0.17,3.91-2.37,4.38
			c0-0.91,0-1.83,0-2.74c-1.79-0.55-1.05,1.22-1.19,2.19c-1.9,0.48-1.23-1.42-2.37-1.64c-1.86,1.92,3,2.31,2.97,4.37
			c1.46-2.23,8.19-6.31,14.83-7.11c-0.02,0.53-0.73,0.43-1.19,0.55c0.69,0.82,0.74,2.24,1.78,2.73c-1.58,2.12-3.43,0.73-4.15,1.1
			c0.02,1.93-5.37,2.39-6.53,4.92c-1.68,0.45-1.53-0.77-2.97-0.54c2.34,0.97-0.45,2.52-2.38,2.74c-0.59-3.48-2.47-4.76-4.15-8.21
			c-0.44-1.86,2.18-0.9,2.37-2.19c-0.94-2-0.89,1.27-2.37,0.55c-1.01-0.89-1.48-2.29-1.19-4.38c-0.79,0.55-2.2,0.52-2.37,1.64
			c2.57,4.16,1.59,12.28,7.12,15.87c-1.19,4.19,3.1,6.61,5.34,9.3c1.3,0.1,1.89-0.45,1.78-1.64c1.2,0.35,0.39,2.56,1.78,2.73
			c-0.58,1.82-1.17-0.61-1.78-0.54c-1.85,0.85-0.65,2.95,1.18,3.28c1.55,1.07-1.69,0.17-2.37,0c-0.23,1.85,2.63,0.86,1.78,3.28
			c1.05-0.13,1.35-0.94,1.19-2.19c0.98,1.49,0.96,4.22,0.59,5.47c1.97,0.54,8.54,0.2,12.47-0.54c-0.26,2.12-4.09,0.97-5.34,2.19
			c0.46,0.49,0.63,1.24,0.59,2.19c0.18,0.74,1.49,0.46,2.37,0.55c-0.86,2.86-6.6,1.21-10.09,1.65c-0.28-6.49-4.11-9.71-7.71-13.14
			C162.77,197.74,157.71,188.35,156.37,175.55z M157.56,252.7c-0.25,0.54-3.45-0.79-3.56-2.19
			C155.62,249.18,156.35,251.97,157.56,252.7z M154,240.66c1.98,0,1.58,2.2,2.96,2.74c-0.17,1.93-1.6-1.93-1.77,0
			C154.3,242.93,153.91,242.02,154,240.66z M167.05,156.95c0.59,0,1.18,0,1.78,0c-0.25,1.22-1.04,1.95-2.37,2.19
			C166.38,158.15,167.17,157.98,167.05,156.95z M167.64,162.96c-0.79,0-1.58,0-2.37,0c-0.08-1.35-0.08-2.63,0.59-3.28
			C167.43,159.88,168.01,161,167.64,162.96z M163.49,160.23c-0.6-1.54-0.67-2.33,1.78-2.19
			C165.43,159.47,165.05,160.39,163.49,160.23z M162.31,164.06c0-0.92,0-1.82,0-2.74C165.16,160.71,165.51,164.87,162.31,164.06z
			 M171.8,167.34c0.39,0,0.79,0,1.18,0c-0.5,0.63-0.78,1.47-0.59,2.73C171.23,170.34,170.48,167.57,171.8,167.34z M171.8,162.42
			c1.95,0.01,2.27,1.55,2.37,3.28C171.56,166.27,171.06,163.26,171.8,162.42z M172.39,171.17c-0.84,0.07-2.45,3,0,2.74
			C170.65,176.74,169.08,169.83,172.39,171.17z M168.82,175.55c-1.62-0.73-1.74-2.44-1.19-3.83
			C169.69,171.54,169.81,174.57,168.82,175.55z M168.23,179.38c-1.87,0.27-0.44-2.51-1.77-2.74c0.39-1.64,1.26,0.52,2.37,0
			C169.02,177.91,168.73,178.74,168.23,179.38z M169.42,171.17c-1.03-0.5-2.06-1.01-1.78-2.73c0.53-0.42,1.35-0.59,2.37-0.54
			C170.1,169.24,170.11,170.53,169.42,171.17z M170.01,175.55c2.26-0.48,2.79,1.82,1.79,2.73
			C169.94,178.53,169.9,177.11,170.01,175.55z M171.8,179.38c0.04,0.87-0.29,2.09,0.59,2.19c-0.99,1.58-2.4-1.01-2.38-2.19
			C170.6,179.38,171.2,179.38,171.8,179.38z M164.68,193.06c-1.67-0.1-2.53-0.95-2.37-2.73
			C164.17,190.24,164.34,191.73,164.68,193.06z M169.42,199.63c1.28,0.46,2.1,1.35,1.78,3.28
			C169.25,203,168.35,200.67,169.42,199.63z M177.73,210.02c1.93-1.57,1.56,3.65,4.15,3.28
			C179.41,215.37,179.41,210.5,177.73,210.02z M187.82,220.42c0.14,0.59,1.18,0.37,1.19,1.09c1.62,0.4,1.19-1.09,2.37-1.09
			c-1.22,1.49-1.79,12.89-6.53,14.78c-2.03-1.24-2.3-1.61-4.75-1.64c0.17-0.88-0.57-0.94-0.59-1.64c0.11-1.54,1.04-2.33,2.96-2.19
			c0-0.98-1.6-3.19,0-3.83c2.42-0.17,0.32,1.14,0.59,2.19c3.65-3.2,1.61-11.66,7.71-12.59
			C190.06,217.38,187.23,217.32,187.82,220.42z M193.16,224.25c2.16,0.41-0.06,1.75,0.59,3.84
			C191.49,227.58,193.31,225.88,193.16,224.25z M199.68,228.08c-2.02,0.54-3.38-1.71-2.96,1.09c-1.07,0.71-0.37-5.59,2.37-4.93
			c-0.46,0.49-0.64,1.24-0.59,2.19C198.88,226.99,199.86,227,199.68,228.08z M216.3,236.29c2.32,0.51,0.5,2.75,0.59,4.37
			C214.25,239.1,217.89,238.4,216.3,236.29z M222.23,262c-2.25,0.47-2.1-2.45-1.19-3.28C223.03,259.3,221.09,260.38,222.23,262z
			 M224.61,280.61c-1.53,1.47-2.34-3.45-0.6-3.83C225.7,277,222.48,279.99,224.61,280.61z M177.13,301.95
			c-0.59-2.01-0.58-4.57-3.56-4.38c-0.25-2.06,1.26-2.49,2.38-3.28c1.11,0.07,1.98,0.36,2.37,1.1c0.34-0.5,2.46-2.02,1.2-2.19
			c0.31-0.95,2.85,0.6,4.15,0.55c-0.55,1.87-2.84,2.12-2.97,4.38c1.92,0.68,0.45-1.77,2.37-1.09c2.48,1.75,0.18,3.68-0.59,5.47
			c-2.03-1.78-1.73-5.69-5.34-6.02c2.02,3.58,5.28,6.51,4.75,10.95c1.04-0.13,1.35-0.94,1.18-2.19c1.98,0.9,2.57,4.73-0.59,4.92
			c-0.6-2.55-2.73-3.68-4.16-5.47c0.35-1.14,1.25-1.77,1.79-2.74C179.34,299.76,178.87,302.1,177.13,301.95z M164.68,297.03
			c0.79,0,1.58,0,2.37,0c-0.18,1.84,0.8,4.74-1.78,4.38C164.35,300.61,164.75,298.6,164.68,297.03z M167.05,281.71
			c0.59,0,1.18,0,1.78,0c1.01,0.99,0.91,4.06-0.59,4.38C166.39,285.96,167.23,283.36,167.05,281.71z M168.82,276.23
			c2.89-0.26,2.49-3.54,2.38-6.56c1.83-0.41,1.14,1.5,2.96,1.09c0.29,1.73-1.07,1.93-0.59,3.83c-1.24-0.23-1.57,0.38-2.37,0.54
			c1.09,1.3,1.54,3.17,0.6,4.92c-0.8,0-1.59,0-2.38,0C167.6,279.06,170.61,276.99,168.82,276.23z M176.54,251.61
			c-1.99-0.17-2.37-1.83-2.97-3.28c1.4,0.01,1.75-0.94,3.56-0.55c-0.65-2.23-1-4.6,2.38-4.38c-0.74-2.03-1.66-3.21,0-4.93
			c1.39-0.01,1.74,0.94,3.56,0.55c-0.09,1.31-1.86,4.44,1.78,3.83c0.57,2.63-0.84,5.4-2.97,3.83c0,1.46,0,2.92,0,4.38
			c-1.4,1.34-1.11-0.81-2.97-0.55c-0.15,1.6,1.34,1.68,1.19,3.28c-1.25,1.2-2.32,1.2-3.56,0c2.95,4.49-1.96,6.95-3.56,10.4
			c0.51,0.81,1.92,0.79,2.97,1.1c-0.43,1.67,0.61,1.99,0.59,3.28c-1.06-0.07-1.25,0.67-2.38,0.55c-0.48-2.47-1.37-4.58-2.96-6.02
			c-0.27-1.27,2.12-4.3,2.37-1.65c0.52-5.02,4.26-10.04,5.34-14.23C176.6,247.29,177.75,250.54,176.54,251.61z M177.13,237.93
			c-0.28-2.09,0.17-3.49,1.18-4.38C180.57,234.15,180.48,238.27,177.13,237.93z M179.51,225.89c0.95-0.15,1.02,0.52,1.78,0.55
			c0.51,1.74-0.94,1.69-1.19,2.73C178.48,229.17,178.69,226.59,179.51,225.89z M181.29,234.65c2.12-0.32,1.8,1.62,1.78,3.28
			c-1.62,0.39-1.19-1.09-2.37-1.1C180.61,235.85,181.43,235.68,181.29,234.65z M190.19,254.34c1.72,0.24,2.7,1.16,2.97,2.74
			c-2.9,0.44,0.99,2.74,1.78,3.28c-0.25,4.51-6.33,1.51-2.97-1.1c0.18-0.66-1.71-1.88-1.78-0.55
			C188.43,257.76,190.54,255.81,190.19,254.34z M196.71,249.97c-0.08-1.02-2-0.34-2.38-1.09c-0.39-2,1.29-2.1,1.19-3.83
			c3.59,2.23,1.07,8.89,5.33,9.3c-0.08,1.75,0.59,4.19-1.77,3.83C199.49,254.57,194.53,253.45,196.71,249.97z M209.18,261.46
			c0.23-2.22-0.21-3.81-2.36-3.83c-0.2-1.82-0.1-3.36,1.18-3.83C207.42,257.74,214,259.6,209.18,261.46z M222.82,276.23
			c-1.93-0.81-2.53-4.5,0.6-4.38c0.11,0.47-0.23,0.52-0.6,0.55C221.23,273.05,222.83,275.26,222.82,276.23z M222.23,295.39
			c-1.95-0.22-1.44-2.68-1.79-4.38C223.02,290.64,222.05,293.55,222.23,295.39z M181.89,288.82c-0.9-0.95-2.57,0.56-3.57-1.09
			c-0.06-2.07,1.16-2.94,2.97-3.29c0.26,1.4,0.83,2.52,1.78,3.29c1.26-0.18-0.09-2.39-0.59-2.74c0.11-0.62,0.59-0.31,0.59,0
			c2.02,0.41,0.76-2.22,2.97-1.64c0.81,0.71,0.59,2.37,0.59,3.83c-1.59,1.11-2.25,0.52-3.56,1.09c0.07,0.43,1.97,1.66,1.78,0.55
			c1.47,0.53-0.82,2.1,0,3.83c-2.82,0.23-3.67-1.36-4.75-2.74C179.92,288.45,182.41,291.37,181.89,288.82z M173.57,285.53
			c1.38-0.17,2.28,0.09,2.97,0.55c0.43,1.67-0.61,1.99-0.59,3.28c0.51,1.6,1.49-0.71,2.97,0c1.21,2.77-0.58,3.59-2.97,4.38
			C176.86,290.75,173.06,289.71,173.57,285.53z M173.57,294.84c-2.5-0.09-2.78-2.83-1.18-3.83
			C174.64,290.57,173.14,293.59,173.57,294.84z M174.17,275.14c3.49-0.76,2.56,3.64,1.19,4.38
			C173.51,279.4,174.36,276.79,174.17,275.14z M174.76,263.1c0.62-1.44,2.36-1.85,2.97-3.29c2.34,0.69,1.22,5.25-1.78,4.38
			C176.17,263.27,175.49,263.16,174.76,263.1z M180.1,254.34c3.2-0.05,3.91,4.49,0,4.38c-1.03-0.33,0.04-2.59-1.19-2.74
			C179.3,255.43,180.28,255.42,180.1,254.34z M187.22,258.17c-3.62,0.64-2.47-3.56-0.6-3.83
			C187.88,255.6,186.37,256.29,187.22,258.17z M194.34,280.61c-0.15,1.28-2.6,0.31-2.96,0c-0.35-1.96,0.69-2.64,1.19-3.83
			C195.09,277.78,193.38,279.89,194.34,280.61z M205.61,284.44c-0.79,0-1.58,0-2.37,0c-0.11-2.43-1.08-3.47,1.78-3.83
			C204.69,282.38,205.43,283.15,205.61,284.44z M205.02,259.27c1.91-2.22,3.64,3.03,0.59,2.73
			C205.3,261.21,206.31,259.17,205.02,259.27z M218.67,273.5c-2.52,0.5-2.54-1.31-2.37-3.29c1.07,0.07,1.25-0.67,2.37-0.54
			C220.02,270.85,218.18,271.53,218.67,273.5z M220.45,299.21c-2.16,0.35-2.33-1.13-2.37-2.73c1.07,0.07,1.25-0.67,2.37-0.55
			C219.97,297.83,221.56,298.24,220.45,299.21z M219.27,304.69c-1.25-0.49-2.63-0.85-3.56-1.64c0.61-1.4,2.48-3.45,4.16-2.19
			C219.67,302.14,218.92,302.91,219.27,304.69z M210.36,301.4c-1.63-0.01-1.41-2.58-0.59-3.28
			C211.89,298.58,209.84,299.47,210.36,301.4z M199.68,306.87c-2.45,0.44-3.04-0.84-2.96-2.74c0.48-0.47,1.63-0.33,1.79-1.1
			C200.2,303.12,199.58,305.33,199.68,306.87z M178.32,278.42c0.08-1.58-0.32-3.58,0.6-4.37c1.67-0.46,1.54,0.77,2.97,0.54
			c-0.36,1.31-0.85,2.49-0.59,4.38C179.61,279.42,179.75,278.2,178.32,278.42z M177.73,284.44c-2.45-0.05-1.77-2.96-1.19-4.38
			c0.59,0,1.19,0,1.78,0C179.12,280.86,179.53,284.39,177.73,284.44z M187.22,263.1c-2.33-0.08-1.73-2.46-1.19-3.83
			C188.23,258.56,188.4,262.51,187.22,263.1z M187.82,272.41c-2.43,0.63-2.38-3.81-0.59-3.83
			C189.65,267.93,189.6,272.38,187.82,272.41z M186.04,264.19c0,1.1,0,2.19,0,3.28c-2.66,0.75-2.88-2.2-1.77-3.28
			C184.85,264.19,185.44,264.19,186.04,264.19z M180.69,263.65c-0.19-1.82-0.09-3.36,1.19-3.83
			C184.88,259.52,184.21,265.08,180.69,263.65z M181.89,268.57c2.31,0.31,2.2,3.96,0.59,4.93
			C180.16,273.19,180.28,269.54,181.89,268.57z M184.26,279.52c0.6,2.56-0.98,3.11-1.78,4.38
			C179.7,282.61,181.04,277.67,184.26,279.52z M184.85,273.5c0.59,0,1.18,0,1.78,0c0.06,1.88,0.31,3.93-1.19,4.37
			C183.64,277.83,184.05,274.3,184.85,273.5z M187.22,278.42c0.59,0,1.19,0,1.78,0c0.02,4.39,2.99,2.97,3.56,7.11
			c-0.57,0.02-0.46,0.67-0.6,1.09c-0.79,0-1.57,0-2.37,0c-1.24-2.43,0.91-4.75-2.97-4.92C186.56,280.35,186.54,279.07,187.22,278.42
			z M196.71,294.84c-1.07,0.07-1.24-0.67-2.38-0.55c0-0.91,0-1.82,0-2.74c1.08,0.07,1.26-0.67,2.38-0.55
			c0.27,0.49,0.53,0.98,1.2,1.09C198.35,293.79,196.27,293.15,196.71,294.84z M194.94,290.45c-0.8,0-1.59,0-2.38,0
			c-1.48-1.42-0.12-3.32,1.19-3.83C195.42,287.31,195.71,288.87,194.94,290.45z M187.82,287.18c0.55,0.31,0.9,1.52,1.19,0.55
			c2.34,1.41-1.26,5.08,3.56,4.37c0.25,2.24-0.61,3.46-2.97,3.29c-1.65-1.29,1.74-4.04-2.37-3.29
			C186.27,290.34,186.73,288.47,187.82,287.18z M188.41,296.48c1.04,0.5,2.05,1.02,1.78,2.73c-0.53,0.24-1.06,0.48-1.19,1.1
			c-1.67-0.1-2.53-0.95-2.38-2.73C187.64,297.59,188.16,297.17,188.41,296.48z M189.59,300.85c0.8,0,1.58,0,2.37,0
			c0.13,1.57-0.15,2.78-1.19,3.28C188.54,304.61,188.69,301.69,189.59,300.85z M191.97,295.93c1.07,0.07,1.26-0.67,2.37-0.54
			c1.04,0.94,0.66,3.38-0.58,3.83C191.63,299.53,191.94,297.59,191.97,295.93z M196.71,299.76c0.81,0.7,0.81,2.58,0,3.28
			c-0.79,0-1.58,0-2.38,0C193.37,301.27,194.02,299.57,196.71,299.76z M199.68,299.21c-2.05-0.6-4.67-1.28-2.96-3.83
			c0.79,0,1.59,0,2.37,0c-0.27,3.24,4.95,4.5,1.77,7.11C199.47,302.2,198.41,300.38,199.68,299.21z M204.44,302.5
			c1.36,1.53,0.32,4.35-2.38,3.83C201.04,304.48,201.5,302.18,204.44,302.5z M202.06,294.84c0.59,0,1.19,0,1.78,0
			C206.91,298.8,198.99,298.8,202.06,294.84z M203.84,293.2c0-0.91,0-1.82,0-2.74c0.8,0.17,0.5,1.37,0.6,2.19
			c1.61,0.39-0.43-2.58,1.18-2.19c2.19-0.5,1.08,2.89,0.6,3.29C205.69,293.32,204.87,293.15,203.84,293.2z M206.81,285.53
			c2.02-0.04,1.74,2.03,1.77,3.83C207.06,288.95,206.52,287.62,206.81,285.53z M208.59,278.97c1.2,0.16,1.16,1.48,2.37,1.64
			c-0.89,1.67,0.19,2.13-0.59,3.28c-0.59,0-1.19,0-1.78,0c0.19-0.67-0.09-3.38-0.59-1.64C206.07,281.3,209.53,280.82,208.59,278.97z
			 M207.99,293.74c2.19-0.5,1.08,2.89,0.59,3.28C207.77,296.26,207.31,294.33,207.99,293.74z M211.55,293.2
			c-0.93-2.71-2.12-0.16-3.56-1.1c0-0.73,0-1.46,0-2.19c0.73,0.24,1.21,0.7,1.18,1.64c2.55-0.07-1-2.34,1.78-2.19
			c-0.68-1.2-1.53-2.24-1.19-4.38c0.69-0.46,1.59-0.72,2.97-0.55c0.39,3.1-1.34,4.24-1.79,6.56c2.46,0.08,0.93-3.52,4.16-2.73
			c0.77,1.7-0.17,1.56,0,3.83c-1.39-0.16-2.45-1.07-3.57,0c1.53,0.4,3.33,4.92,0,4.93C211.22,295.8,209.55,293.42,211.55,293.2z
			 M212.14,279.52c0.99,0,1.98,0,2.97,0c0.84,2.43,0.16,2.89-1.19,4.38C212.42,283.27,212.21,281.47,212.14,279.52z M212.14,301.4
			c0.6,0,1.2,0,1.79,0c1.28,1.17,0.3,3.06-0.59,3.83C212.12,304.7,212.05,303.13,212.14,301.4z M212.74,299.21
			c0.56-1.3,1.04-2.69,3.56-2.19c-0.49,1.55,0.83,1.42,0.59,2.73C215.12,300.49,213.88,300.32,212.74,299.21z M218.08,295.93
			c-2.88,0.26-3.22-2.14-2.38-3.83c0.8,0,1.58,0,2.38,0C218.37,293.35,219.26,294.9,218.08,295.93z M215.12,283.89
			c1.22,0.15,0.14,2.42,1.77,2.19c1.77-0.36-0.56-1.17,0-2.19c1.63,0.01,1.41,2.58,0.6,3.29c-0.6,0-1.19,0-1.78,0
			C215.02,286.53,215.03,285.24,215.12,283.89z M216.3,281.71c0.34-1.51,0.63-3.07,2.97-2.74c0.29,1.25,1.18,2.8,0,3.83
			C217.44,283.21,218.13,281.3,216.3,281.71z M216.89,278.97c-0.53-0.43-1.34-0.59-2.37-0.55c-0.29-2.09,0.17-3.49,1.19-4.37
			C218.33,274.67,218.13,277.21,216.89,278.97z M214.52,274.05c-2.58,0.68-3.38-3.41-1.18-3.83
			C216.02,269.95,214.95,272.77,214.52,274.05z M213.34,275.14c0.02,1.67,0.34,3.6-1.79,3.29c-0.85-3.66-2.05-4.18-4.74-5.47
			c0.07-1.75,1.34-2.41,3.55-2.19C211.29,273.15,209.67,274.92,213.34,275.14z M207.4,278.42c0.11,0.47-0.23,0.51-0.59,0.55
			c-0.4,0-0.8,0-1.2,0c1.35-1.92-1.25-1.8,0-3.28C206.82,276.03,206.01,278.24,207.4,278.42z M205.61,287.18
			c-0.11,0.62-0.59,0.3-0.59,0c-1.74,0.22-0.51,3.17-3.56,2.19c0.08-1.58-0.32-3.58,0.6-4.38
			C204.14,284.89,204.01,286.83,205.61,287.18z M202.06,290.45c-0.01,1.46,0.33,3.23-1.2,3.29c-2.23,0.47-2.09-2.45-1.18-3.29
			C200.47,290.45,201.27,290.45,202.06,290.45z M197.31,289.91c-0.85-0.73-0.85-3.1,0-3.83c1.38-0.18,2.28,0.08,2.96,0.54
			C200.16,288.53,199.78,290.19,197.31,289.91z M196.12,285.53c-2.43,0.64-2.38-3.8-0.59-3.83
			C197.59,281.41,198.06,285.38,196.12,285.53z M189.59,276.78c-0.85-0.73-0.85-3.1,0-3.83
			C192.61,272.73,192.25,276.64,189.59,276.78z M187.82,266.38c1.02-0.53,1.29-1.72,1.78-2.74c1.67-0.08,1.71,1.34,1.78,2.74
			C190.27,267.46,189.21,266.55,187.82,266.38z M188.41,254.34c-1.25-0.44-1.64-2.88-0.6-3.83
			C189.54,250.53,189.22,253.61,188.41,254.34z M184.85,254.34c-0.79,0-1.58,0-2.37,0c-0.97-1.78-0.33-3.47,2.37-3.28
			C185.66,251.76,185.66,253.65,184.85,254.34z M178.92,264.74c0.78,0.19,0.93,0.97,1.78,1.1c0.49,1.54-0.83,1.41-0.59,2.73
			C177.65,268.44,177.5,265.58,178.92,264.74z M178.32,270.21c1.16,1.23,0.32,3.94-1.78,3.83c-0.84-0.73-0.84-3.1,0-3.83
			C177.13,270.21,177.73,270.21,178.32,270.21z M174.17,280.61c0,1.27,0,2.55,0,3.83c-1.06-0.07-1.25,0.67-2.37,0.55
			c-0.67-1.04-0.76-2.59-1.19-3.83C172.01,281.17,172.35,280.21,174.17,280.61z M172.39,289.37c-0.57,0.01-0.46,0.67-0.59,1.09
			c-1.19,0-2.38,0-3.57,0c1.83-0.31,0.69-3.38,1.78-4.37C171.97,286.1,172.28,287.64,172.39,289.37z M171.8,295.93
			c0.11,2.48,0.48,5.19-2.97,4.38C168.55,297.68,168.7,295.45,171.8,295.93z M168.82,291.55c1.19,1.37,0.49,4.51-1.78,4.38
			c0-1.46,0-2.92,0-4.38C167.64,291.55,168.23,291.55,168.82,291.55z M167.64,301.95c2.36-0.36,1.7,2.08,1.78,3.83
			C167.32,305.88,166.48,303.18,167.64,301.95z M171.8,309.06c-2.01,0.2-1.07-2.3-2.97-2.19
			C170.78,303.16,175.09,305.92,171.8,309.06z M172.39,303.59c-0.83-0.34-0.09-2.11-1.19-2.19c0.99-0.73,1.27-2.11,3.56-1.64
			C174.78,301.78,174.5,303.52,172.39,303.59z M184.85,293.2c2.41-0.52,2.06,2.96,1.18,3.83
			C183.63,297.54,183.98,294.06,184.85,293.2z M186.63,305.78c1.06,0.07,1.25-0.67,2.38-0.54c0.81,0.74,1.13,3.82-0.59,3.83
			C186.28,309.39,186.6,307.45,186.63,305.78z M191.97,309.06c1.43,1.47,0.1,3.73-1.19,4.38
			C188.15,313.03,188.66,308.52,191.97,309.06z M191.97,307.97c-1.46-1.43-0.12-3.33,1.19-3.83
			C195.46,304.87,195.41,308.45,191.97,307.97z M194.94,308.52c1.37-0.17,2.27,0.09,2.97,0.55c-0.34,1.51-0.64,3.07-2.97,2.73
			C194.12,311.1,194.12,309.22,194.94,308.52z M198.5,311.8c2.43-0.63,2.38,3.8,0.59,3.83C196.66,316.27,196.7,311.83,198.5,311.8z
			 M200.28,311.25c-0.86-1.37-1.43-2.15-0.6-3.83c0.79,0,1.59,0,2.38,0C203.34,308.76,202.5,311.47,200.28,311.25z M204.44,311.25
			c0.84,0.73,0.84,3.1,0,3.83c-0.8,0-1.59,0-2.38,0C200.86,313.71,201.78,310.78,204.44,311.25z M204.44,306.87
			c1.99-0.2,0.99,2.37,1.77,3.29C203.71,310.76,203.96,307.37,204.44,306.87z M205.02,301.4c-1.59-0.98,0.39-3.24,2.37-2.73
			c0.08,1.35,0.09,2.64-0.59,3.28C206.29,301.62,205.27,298.67,205.02,301.4z M208.59,301.95c3.36,0.61,0.92,5.52-1.77,3.29
			C206.82,303.6,208.35,303.37,208.59,301.95z M208.59,306.87c0.7-0.63,2.09-0.62,3.56-0.55c0.08,1.35,0.09,2.64-0.59,3.28
			c-0.79,0-1.58,0-2.37,0C208.68,308.98,208.39,308.14,208.59,306.87z M212.74,310.16c2.66-0.43,1.96,3.42,0.59,3.83
			C211.11,313.67,211.46,310.96,212.74,310.16z M213.93,309.06c0-1.46-0.23-3.13,0.59-3.83c0.79,0,1.58,0,2.37,0
			C217.68,307.6,217.06,309.06,213.93,309.06z M218.67,309.06c0.29,2.27,0,4.01-2.37,3.83C214.72,311.16,216.36,308.9,218.67,309.06
			z M218.67,305.78c-0.2-0.42,2.99,2.35,1.19-0.54c2.19-1.97,2.38,3.48-0.59,2.73C219.34,306.99,218.54,306.81,218.67,305.78z
			 M221.04,300.31c0.99,0.55,0.66,2.33,1.19,3.28C219.99,304.06,220.13,301.15,221.04,300.31z M220.45,290.45
			c-2.44-2.16-1.34-0.96-3.56,0.55c-0.12-0.94,1.02-1.42,0-1.64c1.29-0.46,1.32-2.07,2.97-2.19
			C220.54,287.82,220.53,289.11,220.45,290.45z M220.45,277.87c-1.83,0.05-1.77-1.65-1.77-3.28c0.59,0,1.19,0,1.77,0
			C220.45,275.69,220.45,276.78,220.45,277.87z M219.86,269.12c-2.13,0.32-1.81-1.62-1.78-3.28c0.69,0.08,1.05-0.12,1.18-0.55
			C221.57,266.33,218.48,266.78,219.86,269.12z M217.48,262.55c-0.58,0.01-0.46,0.67-0.6,1.09c-1.38-0.15-1.36-1.46-0.59-2.19
			c1.07-0.07,1.25,0.67,2.37,0.55C218.46,262.63,217.62,263.4,217.48,262.55z M216.89,268.57c-1.24,2.94-4.52-2.02-5.34,1.64
			c-1.77-0.37-1.98-2.18-1.78-4.37c-1.22-0.53-2.9-0.08-2.96-2.74c0.68,0.09,1.05-0.12,1.18-0.55c1.71,0.34,3.07,2.07,4.15,0
			c2.06-0.39,2.13,1.92,1.2,2.74c-1.62,0.4-1.21-1.09-2.38-1.1c-0.47,0.11-0.59,0.55-1.19,0.55c0.25,1.77,2.47,1.74,2.97,3.29
			c1.11-0.8,0.7-3.01,2.96-2.74C214.98,266.86,214.83,268.3,216.89,268.57z M215.12,258.72c-1.79-0.55-1.06,1.22-1.19,2.19
			c-1.51-0.06-1.41-2.04-0.59-2.74c1.35-0.15,2.22,0.13,2.37,1.09C215.39,260.11,215.09,259.3,215.12,258.72z M213.34,257.63
			c-2.67,0.74-2.89-2.21-1.79-3.29c0.59,0,1.19,0,1.79,0C213.34,255.44,213.34,256.53,213.34,257.63z M208.59,252.7
			c0.26-1.76,0.91-3.18,3.56-2.73C213.11,252.83,210.49,254.17,208.59,252.7z M206.21,253.25c-2.77-0.02-1.13-1.56-1.19-3.28
			c0.79,0,1.58,0,2.37,0C207.52,251.54,207.25,252.75,206.21,253.25z M203.25,249.42c-0.82-0.7-0.82-2.58,0-3.29
			c0.59,0,1.19,0,1.78,0C205.73,246.85,205.31,249.61,203.25,249.42z M199.09,249.42c-0.26-0.49-0.52-0.98-1.18-1.09
			c0.11-1.72,1.09-2.63,2.95-2.73c0.08-1.58-0.32-3.58,0.6-4.38c3.24,0.14,2.57,4.52-0.6,4.38
			C202.15,246.93,201.32,249.64,199.09,249.42z M203.25,240.66c-0.83-0.71-0.59-2.38-0.6-3.83c0.98,0,1.98,0,2.96,0
			C206.46,238.52,206.12,240.93,203.25,240.66z M204.44,235.2c-1.41,0.8-1.12,1.15-2.97,0.55c-0.05-0.87,0.28-2.09-0.6-2.19
			C201.91,231.72,204.93,232.64,204.44,235.2z M200.86,240.66c-2.22,0.22-3.05-2.49-1.77-3.83
			C202.49,236.64,202.05,238.92,200.86,240.66z M197.31,236.29c-0.81-0.7-0.81-2.59,0-3.29c0.6,0,1.19,0,1.77,0
			C199.79,233.71,199.37,236.48,197.31,236.29z M195.53,232.46c0.31-0.81,0.87-1.38,1.18-2.19c0.53,0.43,1.34,0.59,2.37,0.55
			C199.15,232.51,197.3,232.45,195.53,232.46z M196.71,236.83c1.06,2.01-0.22,5.66,2.37,4.92c0.78,2.41-0.03,2.24-1.18,3.83
			c-3.84-0.42,1.05-5.55-3.57-4.93c0-1.27,0-2.55,0-3.83C195.13,236.83,195.93,236.83,196.71,236.83z M200.86,249.97
			c0.8,0,1.59,0,2.39,0c0.53,1.4,0.96,3.1-0.6,3.83C200.78,253.7,201.04,251.63,200.86,249.97z M203.25,254.34
			c2.22,0.18,2.4,1.83,1.78,3.29C202.36,258.37,202.14,255.42,203.25,254.34z M203.84,262.55c1.28,0.46,2.09,1.35,1.78,3.28
			c-1.22-0.15-0.14-2.43-1.78-2.19c-1.74,0.46,0.77,1.38,0,2.74c-0.78-0.2-0.93-0.97-1.78-1.09
			C201.91,263.69,203.18,263.4,203.84,262.55z M205.02,271.85c-1.21,1.05-2.07,1.57-1.19,3.28c-1.28-0.46-2.1-1.34-1.78-3.28
			C202.84,271.15,204.24,271.15,205.02,271.85z M203.25,280.06c-3.37,0.27-3.24-2.96-1.78-4.37
			C203.24,276.06,203.45,277.86,203.25,280.06z M199.09,284.99c-0.22-3.44-2.96-4.57-3.56-7.66c5.02-3.04,1.55,5.49,4.75,3.83
			C201.73,282.28,201.61,284.89,199.09,284.99z M193.75,275.69c0-1.1,0-2.19,0-3.28c0.69,0.09,1.06-0.12,1.19-0.55
			C197.35,272.15,197.39,276.57,193.75,275.69z M191.38,271.85c-0.62-1.55-0.62-2.28,0-3.83c1.62-0.4,1.19,1.09,2.38,1.09
			C193.42,270.45,193.25,271.93,191.38,271.85z M188.41,246.13c-2.19-0.28-1.77-2.92-0.6-3.83
			C190.48,241.88,189.79,245.73,188.41,246.13z M186.63,250.52c-2.04,0.17-2.17-2.86-1.19-3.83
			C187.85,246.17,187.5,249.65,186.63,250.52z M171.8,269.12c-3.23,0.27-2.25-2.66-1.19-3.83
			C172.31,265.36,171.69,267.57,171.8,269.12z M165.27,290.45c-0.81-0.7-0.59-2.38-0.59-3.83
			C168.76,285.46,168.29,290.83,165.27,290.45z M168.82,307.97c-0.5,0.63-0.78,1.47-0.59,2.74c-2.22,0.22-3.06-2.49-1.77-3.83
			C168.07,306.47,167.65,307.96,168.82,307.97z M171.2,310.71c0.29,1.24,1.18,2.8,0,3.83c-2.55,0.71-1.88-1.55-2.97-2.19
			C168.64,311.27,169.82,310.89,171.2,310.71z M170.6,318.37c0.53,0.42,1.34,0.59,2.38,0.55c-0.82,0.94-1.92,2.15,0.59,2.19
			c-0.57,1.12-2.28,1.18-4.15,1.1C169.04,320.2,169.82,319.29,170.6,318.37z M174.17,313.99c0.85,1.68,0.27,2.46-0.59,3.83
			C170.31,317.97,170.64,313.33,174.17,313.99z M175.95,308.52c0.47,2.13,0.62,2.83-0.59,4.38
			C172,313.1,172.47,307.92,175.95,308.52z M175.95,307.42c-0.47-0.29-0.96-0.57-1.78-0.55
			C173.26,300.05,180.5,304.91,175.95,307.42z M184.26,305.24C180.42,299.97,191.07,302.36,184.26,305.24L184.26,305.24z
			 M185.44,310.16c3.53-0.74,2.86,3.91-0.59,2.74C184.66,311.62,184.94,310.79,185.44,310.16z M188.41,313.99
			c2.3-0.09,2.11,3.28,0.59,3.83C186.71,317.9,186.89,314.53,188.41,313.99z M192.56,317.82c0.05,2.05,0.45,4.42-2.37,3.83
			C189.63,320.22,189.62,317.5,192.56,317.82z M192.56,316.73c-0.27-0.49-0.52-0.98-1.19-1.1
			C192.08,310.12,198.08,315.65,192.56,316.73z M194.34,317.27c2.76-3,5.06,1.47,2.38,3.28
			C194.82,320.48,194.1,319.31,194.34,317.27z M197.91,320.55c0.59,0,1.18,0,1.77,0c1.16,1.46,0.94,5.31-2.36,4.37
			C197.06,323.05,197.55,321.86,197.91,320.55z M200.28,320.01c-0.68-1.53-0.68-2.85,0-4.38c1.06-0.07,1.26,0.67,2.38,0.55
			C202.94,318.44,202.65,320.19,200.28,320.01z M205.61,320.55c0.25,2.24-1.25,2.86-2.37,3.83
			C199.88,323.93,202.83,318.36,205.61,320.55z M205.61,315.08c1.07-0.07,1.26,0.67,2.38,0.55c0.68,2.27-1.25,2.13-1.18,3.83
			C205,319.29,204.4,316.37,205.61,315.08z M207.99,318.91c0.59,0,1.18,0,1.78,0c1.24,1.42,0.66,4.66-1.78,4.38
			C206.34,322.14,207.13,320.49,207.99,318.91z M209.18,317.27c-0.08-1.36-0.11-2.65,1.19-2.74c-2.58,0.8-5.46-3.77-1.19-4.38
			c1.15,3.1,2.7,3.23,2.97,7.66C210.76,317.99,209.86,317.73,209.18,317.27z M212.74,318.37c2.12-0.32,1.8,1.62,1.77,3.28
			c-1.06-0.07-1.25,0.67-2.37,0.55C210.86,321.03,211.84,319.14,212.74,318.37z M214.52,317.82c-0.8-0.74-1.12-3.82,0.6-3.83
			c1.83-0.05,1.76,1.65,1.77,3.28C215.83,317.2,215.64,317.94,214.52,317.82z M218.67,318.37c-0.08,1.75,0.59,4.19-1.78,3.83
			C215.86,321.09,215.77,317.52,218.67,318.37z M219.27,313.44c2.67-0.42,1.97,3.42,0.59,3.83
			C217.56,317.36,217.75,313.99,219.27,313.44z M221.04,317.27c2.04-0.41,0.76,2.22,2.97,1.64c-0.46,1.88-1.64,3.08-3.57,2.19
			C220.46,319.65,220.23,317.97,221.04,317.27z M220.45,312.34c0.1-0.64,1.09-0.46,1.79-0.54c0.42-1.67-1.03-1.61-0.6-3.28
			C224.85,308.41,223.41,313.27,220.45,312.34z M223.42,266.93c-1.9-0.9-1.52-1.84-1.19-3.83
			C223.93,263.18,223.32,265.38,223.42,266.93z M221.64,243.95c-1.32,2.04-3.16-3.5,0-2.73
			C221.3,241.54,220.25,243.81,221.64,243.95z M219.86,240.12c-1.87,0.26-0.45-2.51-1.78-2.74c0.18-0.74,1.49-0.45,2.37-0.55
			C219.37,238.26,220.71,238.49,219.86,240.12z M218.67,234.65c-0.58,1.67-1.59-0.63-2.37-0.55c0-1.5,1.07-2.89,2.37-1.64
			C218.03,232.66,216.19,234.86,218.67,234.65z M218.08,253.8c0.05,0.87-0.28,2.09,0.59,2.19c0.93-0.23,0.5-1.72,2.37-1.09
			c0.1,2.17-0.91-0.18-1.77,1.09c-0.17,1.44,2.31,0.43,1.77,2.19c-3.39,0.47-1.66,0.89-3.55,2.74c-1.69-2.26,2.08-4.25-0.6-6.57
			c-0.96-0.39-0.96,2.59,0,2.19C214.31,258.3,213.76,252.68,218.08,253.8z M215.12,253.25c-2.13,0.32-1.81-1.62-1.78-3.28
			c1.24-0.24,1.56,0.37,2.37,0.55C216.19,252.06,214.87,251.93,215.12,253.25z M214.52,239.57c-1.17-0.91-0.75,0.05-2.37,0
			c0.1-0.63-0.12-0.97-0.59-1.09c0.17-1.92,2.21,1.37,2.38-0.55c0.5-0.1,0.56,0.21,0.59,0.55
			C214.52,238.84,214.52,239.21,214.52,239.57z M211.55,234.65c0.37,3.19-5.14-2.74,0.59-2.19
			C211.59,233.62,209.46,235.44,211.55,234.65z M210.36,245.59c0.35,2.33-0.19,3.83-2.96,3.28c0.05-0.78,0.09-1.55-0.59-1.65
			C207.35,246.09,208.56,245.57,210.36,245.59z M205.61,245.04c-0.84-0.73-0.84-3.1,0-3.83c1.07-0.07,1.26,0.67,2.38,0.55
			c-0.43,1.67,0.6,1.99,0.59,3.28C207.6,245.04,206.61,245.04,205.61,245.04z M206.81,235.74c-1.54-0.7-1.87-1.13-1.2-2.74
			c0.49,0.38,1.63,0.85,1.78,0C209.36,233.83,206.17,234.34,206.81,235.74z M202.65,231.91c-2.03,0.23-3.38-0.16-2.98-2.19
			c0.7,0.15,2.47,2.41,2.38,0c1.91,0.55,3.1-0.39,3.55,2.19C204.21,232.37,202.86,229.2,202.65,231.91z M194.94,218.23
			c-0.8-0.36-1.11-1.17-1.19-2.19c1.11-0.53,1.98,1.64,2.37,0C198.21,216.98,194.63,217.14,194.94,218.23z M194.34,241.76
			c1.08,1.7-0.09,3.04-0.58,5.47c-1.21-0.52-1.28-2.1-1.19-3.83C194.16,243.78,193.71,242.27,194.34,241.76z M195.53,251.06
			c-0.72,0.97-0.43,2.88-1.78,3.28c-0.1,1.19,2.11,0.25,2.96,0.55c0.58,3.57,1.93,5.12,2.96,7.11c1.02-0.95-0.08-1.43,0.6-3.28
			c0.99,0,1.98,0,2.97,0c-1.54,0.7-1.15,1.8-0.6,3.28c-1.64,0.13-1.81,1.61-2.38,2.74c0.37,1.3,0.8,2.55,2.38,2.74
			c-0.01,1.45,0.22,3.13-0.59,3.83c-1.62,0.4-1.2-1.09-2.38-1.1c-0.16-1.24,0.15-2.06,1.18-2.19c-0.53-0.96-1.09-1.9-2.95-1.64
			c-0.59-2.24-0.64-2.86,1.18-3.83c-0.18-0.74-1.48-0.45-2.37-0.55c-2.53,1.84,0.38,5.55,2.37,6.57c-0.61,0.72-0.58,2.01-1.18,2.74
			c0.73,1.73,1.72,0.1,2.95,1.64c1.29,2.32-2.46,2.76-1.18,3.28c-2.14,0.16-1.38-5.25-4.74-6.56c0.59-0.73,0.98-1.65,1.77-2.19
			c-0.54-1.84-1.1-0.27-2.96-0.55c-0.78-1.97,0.04-2.01-0.59-3.83c4.49-1.82,0.89-8.13-1.78-9.31c2.4-3.26-3.27-4.79-1.19-7.66
			C191.49,248.72,193.22,248.75,195.53,251.06z M176.54,233.55c-1.78-0.94-0.66-1.99-0.59-3.83
			C178.27,229.37,175.65,231.8,176.54,233.55z M171.8,225.34c0.95-0.16,1.02,0.52,1.77,0.55c0.51,1.75-0.93,1.69-1.18,2.74
			C170.23,228.13,172.03,227.01,171.8,225.34z M174.17,221.51c0.59,0,1.19,0,1.78,0c0.43,1.67-0.6,1.99-0.59,3.28
			C172.7,224.61,172.96,222.92,174.17,221.51z M170.01,229.72c1.88,0.26,2.1-0.99,4.16-0.55c0.44,2.77-1.63,3.24-1.78,5.47
			c1.92,0.68,0.45-1.78,2.37-1.09c1.2,1.26,0.61,4.19-0.59,4.92c1.27,1.31,2.22-1.63,3.57,0.55c-1.67,3.77-1.89,5.53-4.16,8.75
			c-1.54-0.41-2.43-3.07-1.18-4.38c-0.9-0.04-2.41-0.48-2.38-2.74c-1.51,3.6,2.87,6.47,2.97,10.4c0.1,0.64,1.09,0.46,1.78,0.55
			c0.05,0.87-0.28,2.08,0.6,2.18c-0.51,1.18-1.47,1.94-3.56,1.64c1.99,1.3,0.99,1.98,1.77,4.38c-1.28-2.25-1.38,0.63-3.56,0.55
			c0.09-0.98-0.72-1.16-0.59-2.19c-0.8,0.17-0.49,1.37-0.59,2.19c0.1,0.64,1.09,0.46,1.78,0.55c-0.13,2-0.81,2.1,0,3.83
			c-1.06,0.07-1.25-0.67-2.37-0.55c-0.06,1.7,0.27,3.04,1.19,3.83c-0.95,0.75-0.74,2.61-2.96,2.19c0.24,1.23,3.14,0.02,3.55,1.1
			c-0.01,1.45,0.23,3.12-0.59,3.83c-1.42,0.23-1.29-1-2.96-0.54c0.95,2.21,2.36,3.77,1.18,6.57c-2.12,0.17-3.39-3.88-4.74-1.1
			C161.74,262.17,169.52,245.91,170.01,229.72z M162.9,281.71c0.59,0,1.19,0,1.78,0c1.17,1.07,0.38,3.12,0,4.38
			c-1.38-0.37-1.59-1.82-2.97-2.19C161.97,283.04,163.57,283.43,162.9,281.71z M162.9,291.55c0.59,0,1.19,0,1.78,0
			c1.03,1.02,0.76,3.92-0.6,4.38C162.15,295.87,161.91,292.62,162.9,291.55z M165.27,306.33c-1.8-0.17-2.4-3.09-1.18-4.38
			C166.25,301.78,166.34,305.18,165.27,306.33z M163.49,311.25c1.71,0.83,1.86-0.02,4.15,0.55c-1.15,1.31,0.99,2.97-1.78,3.28
			c0.51,1.61,1.5-0.71,2.97,0c0.62,1.55,0.62,2.28,0,3.83c-1.67,0.45-1.53-0.77-2.97-0.55c1.38-1.54-0.85-3.27-2.37-3.83
			C163.49,313.44,163.49,312.34,163.49,311.25z M175.36,317.27c1.96,0.21,1.77,4.87-1.19,3.83
			C173.99,319.29,174.08,317.73,175.36,317.27z M174.76,325.48c1.86-0.26,2.65,0.48,2.38,2.19c-0.78,0-1.59,0-2.38,0
			C174.76,326.94,174.76,326.21,174.76,325.48z M175.95,324.38c-0.02-1.66,1.25-2.13,1.78-3.28c2.02-0.04,1.75,2.03,1.78,3.83
			C177.41,325.89,178.05,324.57,175.95,324.38z M181.29,324.38c-0.13-1.89-0.85-2.58,0.59-3.83c-0.48-2.24-2.45,0.28-3.57-1.09
			c1.13-1.92,0.57-3.7-1.78-3.83c-0.43-1.67,0.61-1.99,0.59-3.29c3.8,1.98,4.79,6.54,7.13,9.85c0.79-0.36,1.1-1.17,1.18-2.19
			c-3.23-3.45-7.44-8.15-7.71-12.59c4.1-0.48,1.31,3.63,2.37,4.92c1.86,0.27,1.56-1.88,2.96-0.54c0.49,1.97-1.34,2.65,0,3.83
			c1.02,0.02,1.54-0.41,1.78-1.09c1.71,0.79-1.1,5.76,2.97,4.38c-0.07,1.58,0.32,3.58-0.59,4.38
			C184.07,322.18,184.54,323.82,181.29,324.38z M190.19,327.12c0.59,0,1.19,0,1.78,0c0.16,1.97,0.15,3.79-2.37,3.28
			C189.52,329.06,189.5,327.77,190.19,327.12z M193.16,321.65c4.55,0.05,2.41,4.18,0.59,5.47
			C191.17,326.67,191.85,322.92,193.16,321.65z M200.28,324.93c3.65-0.77,2.71,4.33,0,3.84
			C199.65,327.21,199.65,326.48,200.28,324.93z M203.25,328.22c1.23-0.24,1.57,0.38,2.37,0.55
			C205.74,333.09,200.06,330.75,203.25,328.22z M209.18,326.57c-0.75-2.52,1.08-2.65,1.78-3.83c1.27,0.46,2.1,1.35,1.79,3.28
			C211.29,327.17,211.47,326.81,209.18,326.57z M214.52,327.67c0.28,1.71-0.51,2.44-2.37,2.19
			C210.3,328.35,212.88,325.96,214.52,327.67z M215.12,321.65c0.97,0.94,1.79,1.99,1.77,3.83c-0.48,0.47-1.62,0.33-1.77,1.1
			C212.25,325.86,214.22,323.3,215.12,321.65z M218.67,326.03c1.16,1.02,0.17,2.01,0,3.28c-1.68,0.45-1.54-0.77-2.97-0.54
			C215.34,326.61,217.04,326.34,218.67,326.03z M221.04,322.74c0.1,1.36-0.29,2.27-1.18,2.73
			C216.14,325.59,219,320.45,221.04,322.74z M223.42,312.34c1.06-0.07,1.25,0.68,2.37,0.55c0.43,1.67-0.6,1.99-0.59,3.28
			C223.08,316.3,222.52,313.33,223.42,312.34z M224.61,317.27c2.02-0.04,1.74,2.02,1.77,3.83
			C224.02,321.46,224.68,319.02,224.61,317.27z M225.79,262.55c-2.97-1.99-1.61-5.57-2.97-8.21c3.12,1.43,1.2,4.79,2.38,7.11
			c0.53-0.24,1.06-0.48,1.19-1.09C228.2,260.91,225.7,261.82,225.79,262.55z M226.98,252.7c-1.05-0.13-1.36-0.94-1.19-2.19
			c-0.59,0-1.18,0-1.78,0c0.18-0.75,1.48-0.46,2.37-0.55C226.15,251.28,227.47,251.15,226.98,252.7z M194.34,190.87
			c-0.79-0.36-1.1-1.17-1.18-2.19c0.53-0.43,1.34-0.59,2.37-0.55C195.97,189.82,193.9,189.18,194.34,190.87z M197.91,193.06
			c-1.78-0.19-2.37-1.47-2.97-2.73C196.31,190.88,197.7,191.42,197.91,193.06z M194.94,194.7c-2.16,0.52-0.5-2.46-2.38-2.19
			C193.27,191.2,195.79,192.78,194.94,194.7z M200.86,195.8c-0.31,0.43-0.61,0.89-0.59,1.64
			C196.45,197.79,198.54,193.68,200.86,195.8z M206.81,198.53c0.44,1.87-2.42,0.7-1.79,2.73c-1.29-0.08-1.27-1.38-1.19-2.73
			C205.31,198.47,205.67,197.5,206.81,198.53z M205.61,194.7c0.69,0.09,1.06-0.12,1.2-0.55c1.64,0.55,0.75,2.21,0.59,3.28
			C205.55,197.69,205.5,196.26,205.61,194.7z M205.02,194.16c-1.22-0.33-2.25-0.85-1.78-2.74c0.69,0.09,1.05-0.12,1.19-0.55
			C205.74,190.94,204.69,193.2,205.02,194.16z M204.44,196.89c-1.85-1.24-2.57,1.83-2.97-1.64
			C202.61,194.18,205.1,194.67,204.44,196.89z M209.18,194.7c1.54,0.22,1.71,1.7,2.37,2.74
			C209.36,197.82,208.93,196.57,209.18,194.7z M212.74,155.85c0.69,3.61-0.38,7.7,1.19,11.49c-0.8-0.54-1.17-1.48-2.38-1.64
			C212.37,162.95,210.56,158.4,212.74,155.85z M218.67,204.55c0.43,1.98-3.46,5.77-1.19,1.64c-1.61,0.34-1.47,2.28-3.56,2.18
			C214.69,206.36,216.35,205.15,218.67,204.55z M214.52,175.55c0.19-3.3,0.4-11.3,1.19-15.87
			C216.55,164.33,216.34,169.53,214.52,175.55z M221.04,187.58c-0.2,1.11,0.12,1.72,1.19,1.65c-1.94,0.9-2.84,2.18-1.79,3.83
			c-3.68,0.96-3.39-4.86-1.18-7.11c1.97,0.53-0.67,1.08-0.59,1.64C219.06,189.23,219.95,187.06,221.04,187.58z M217.48,182.12
			c0-0.55,0-1.09,0-1.64c-0.73,0.61-1.22,0.48-1.19-0.55c1.07,0.07,1.25-0.67,2.37-0.55C219.06,180.71,219.87,182.19,217.48,182.12z
			 M230.54,200.17c2.05-0.18,2.18,2.86,1.19,3.83C229.22,203.91,228.95,201.17,230.54,200.17z M224.01,198.53
			c-2.11-2.64-3-14.2,5.93-12.59c0-0.36,0-0.73,0-1.09c2.17,3.84,0.61,8.23,0.59,12.04C229.42,197.57,225.68,196.98,224.01,198.53z
			 M232.32,183.75c-1.78-2.6-5.53-0.81-8.9-0.54c0.46-1.08,2.07-1.97,2.96-1.1c0.4-1.47-1.23-1.06-1.77-1.64
			c-0.89-0.02-0.87,3.25-1.19,0.55c-1.86,0.38-0.77,1.46-0.6,2.73c-2.5,0.85,0.13-3.04-2.38-2.19c2.16-2.21,7.53-1.45,10.68-2.74
			c-0.5-2.82-1.86-4.85-1.78-8.21C230.86,174.23,233.45,179.52,232.32,183.75z M224.61,174.45c0.08-1.36,2-0.16,2.37,0
			c-0.21,1.27-0.39,2.56-2.37,2.19C224.04,175.63,226.38,174.82,224.61,174.45z M224.61,161.87c2.76-0.54,3.63,5.39,5.33,7.66
			C227.23,170.02,227.79,162.78,224.61,161.87z M225.79,164.06c0.43,1.49-1.18,1.1-1.18,2.19c0.53,1.84,1.32,0.06,2.37,1.1
			c-1.24,3.45,1.38,3.88,0.59,6.02c-1.5-0.62-1.71-2.43-1.78-4.38c-2.21-0.58-1.69,1.36-3.56,1.09c-0.1-2.9-0.39-2.79,0-5.47
			c-1.92-0.49-0.83,1.79-1.79,2.19c-1.43-1.01,0.82-3.23,0-5.48c-0.68,2.29-1.79,0.77-2.37,1.1c-2.16-0.99,1.04-1.51,0.59-2.74
			C222.37,161.1,222.13,162.74,225.79,164.06z M213.93,154.21c1.51-1.13,8.93-3.44,8.89,1.64
			C219.84,157.07,216.54,154.78,213.93,154.21z M213.93,152.02c-2.35-0.03-3.54-1.12-3.57-3.28c-0.32-1.22,1.14-0.78,1.19-1.64
			C213.71,147.37,215.64,149.91,213.93,152.02z M150.43,276.78c2.68,1.99,4.7,4.58,2.97,6.57c0.78-0.7,2.19-0.7,2.97,0
			c0.33,1.21-1.13,0.78-1.18,1.64c0.54,1.49,2.08-0.97,2.96,0.54c1.08,9.17-10.46,9.12-7.11,18.61
			C147.35,297.81,150.6,285.18,150.43,276.78z M160.52,321.1c-3.57-5.1-6.94-10.38-9.49-16.41
			C154.18,310.17,158.48,314.6,160.52,321.1z M159.93,246.13c-0.37-1.66,0.76-4.71-0.6-5.47c0.44-0.97,1.08-0.08,1.78,0
			c-1.23-1.6-2.31-3.34-1.78-6.57c5.51,0.83,0.21,8.23,4.75,9.85c-0.27,0.81-0.76-0.22-1.78,0c-0.22,0.93,0.46,1.03,1.18,1.1
			c-0.76,0.74-1.8,1.09,0,1.64C162.46,248.46,161.93,245.27,159.93,246.13z M161.71,297.57c2.76-0.49,2.25,4.71,0,4.38
			C162.24,299.86,160.75,298.46,161.71,297.57z M162.31,319.46c-0.35-0.96,0.71-3.22-0.6-3.28
			C163.83,314.25,167.8,320.11,162.31,319.46z M163.49,329.31c1.21,0.98,0.17,2.02,2.37,1.09c-2.08-1.21,0.04-0.71,0.6-2.19
			c1.23,0.68,9.59-0.35,11.86,1.09c-0.18,3.05,1.37,5,1.2,7.66c2.2-2.87,1.44-6.15,1.78,0.55c1.05,0.9,3.87,0.36,5.34,1.64
			c1.59-0.91-0.33-5.05,1.19-6.02c1.31,1.08-0.78,3.63,0,6.02c2.72-1.89,1.08-0.85,4.15,0c0.76-0.45,0.58-4.4,0.6-7.11
			c1.97,0.19,0.93,3.16,1.19,4.92c1.33-0.24,0.24-2.69,0.58-3.83c0.83-1.75,0.37,2.14,1.19,2.19c1.31-0.07,0.26-2.33,0.59-3.29
			c1.93,3.13,5.42-1.83,7.13,1.1c5.01-2.52,12.99-2.89,17.79-2.74c-0.39,2.74,0.55,4.24,0.6,6.57c1.03,1.16,4.12-0.08,4.75,2.74
			c-9.49-5.36-16.07,2.65-26.71,2.19c-3.04-0.14-8.4-0.87-13.05-1.64c-6.68-1.11-13.32-6.59-17.8-4.92c-1,0-5.08-0.68-6.52,1.64
			C160.96,334.98,164.11,332.46,163.49,329.31z M224.61,348.46c5.23,1.35-15.91,3.41-14.25-4.38
			C211.02,349.85,225.31,348.64,224.61,348.46z M218.08,347.37c1-1.48,5.3-2.09,7.12-1.09
			C222.75,347.66,220.29,346.59,218.08,347.37z M169.42,340.8c-1.82-0.39-2.16,0.56-3.56,0.55
			C165.3,339.8,169.72,338.65,169.42,340.8z M166.46,337.52c0.52-0.42,1.34-0.58,2.37-0.55c0,0.55,0,1.1,0,1.64
			C167.77,338.49,165.85,339.17,166.46,337.52z M166.46,341.9c1.4,0.15-0.69,1.46-0.6,2.19c1.03,0.31,5.49,0.28,7.12,1.65
			c-0.13,0.78-1.77,0.19-1.78,1.09c-0.7-0.09-0.5-0.99-0.6-1.64c-3.12,0.3-3.23,0.74-7.71,1.09c0.79-1.08,1.13-2.61,1.78-3.83
			C165.52,342.49,166.35,342.53,166.46,341.9z M169.42,347.91c-1.25,1.68-4.09,0.67-7.71,1.1c0.31-0.44,0.61-0.89,0.6-1.65
			C164.88,347.36,167.64,347.18,169.42,347.91z M168.82,351.75c-3.08-1.42-5.66,0.75-8.31-0.55
			C161.28,349.45,168.83,349.31,168.82,351.75z M242.4,277.87c0.5,2.3-4.8,3.95-5.93,6.57C235.95,282.13,241.11,280.33,242.4,277.87
			z M250.72,200.72c4.62-4.13,9.52-7.99,13.05-13.14C262.85,192.6,255.69,199.43,250.72,200.72z M244.19,211.12
			c0.15-0.96,1.02-1.25,2.37-1.09c-6.45-4.04-12.95-2.33-19.58-4.92c0.54,0.96,2.08,1,2.96,1.64c-1.45,1.12-3.43-1.92-5.93-1.64
			c-0.31,1.08,3.5,1.45,0.6,1.64c0.53,1.49,2.07-0.98,2.96,0.54c-1.24,0.17-1.56,0.94,0.6,1.64c-8.53,1.44-6.62-13.53,1.78-10.95
			c0.01,1.83-1.92,1.87-1.78,3.83c-0.15,3.44,4.69,3.9,7.72,2.74c3.47,1.42,9.06,2.64,10.67-1.1c-0.46-1.22-0.34-2.97-1.78-3.29
			C254.05,197.17,253.98,212.8,244.19,211.12z M236.48,196.89c-0.18-0.74-1.5-0.46-2.37-0.55c1.66-27.87,7.59-56.85,10.08-82.63
			c0.48-4.91-0.26-8.14,4.15-10.4c-1.76,15.46-3.83,32.64-4.75,48.7c0.83,2.1,2.06,0.66,2.97,2.19c-1.95,6.96-0.64,16.92-3.56,22.98
			c1.16-2.84,0.1-5.1-1.78-6.57c-1.13,1.28,0.21,4.89-1.19,7.12c0.9,1.36,2.02,2.52,3.56,3.28c-0.28,6.86-1.6,12.46-1.78,18.06
			c-2.16-5.89,3.19-13.45-1.18-18.61c-2.99,8.72-1.09,19.97-7.12,23.53C234.47,201.5,231.85,196.94,236.48,196.89z M245.37,152.57
			c1.45-13.98,2.91-32.22,4.16-48.16c0.64,0.13,0.41,1.09,1.18,1.1C248.74,121.34,249.28,137.31,245.37,152.57z M143.31,386.76
			c-19.95-12.24-35.46-28.58-49.25-46.51c17.06-17.65,36.5-33.1,54-50.34c-3.92,20.6,17.47,26.83,11.87,47.06
			c0.47,2.12,3.67,1.72,4.16,3.83c-5.99,5.79-21.38,2.9-18.99,16.42C136.73,364.14,145.38,376.19,143.31,386.76z M152.81,375.27
			c-1.71-0.07-2.82-0.68-2.38-2.73c-1.42-0.22,0.33,2.5-1.78,1.64c0-0.91,0-1.83,0-2.74c-1.57-0.17,0.56,3.07-1.78,2.19
			c0-0.92,0-1.83,0-2.74c-1.82,9.26-1.37-15.4-0.59-4.92c0.05,0.7-0.55,1.76,0.59,3.83c0.42-2.51,1.21-7.36-1.78-9.85
			c-2.76,2.8-1.02,6.36-1.78,9.85c-1.36-2.91-0.65-8.62,1.19-10.4c3.38,0.72,5.67,2.44,8.9,3.28
			C153.06,366.75,154.11,372.1,152.81,375.27z M154,393.33c-3.12-0.23-4.2-2.33-6.53-3.28c-0.35-1.13,0.75-3.59-0.59-3.83
			c-1.53,0.13,0.82,0.94,0,2.19c-1.32,1.36-0.07-4.28-2.37-3.83c-0.44-4.78,0.74-10.92,0.59-2.73c0.57-0.92,1.87-1.61,2.97-0.55
			c-0.51-0.8-0.47-2.12-2.37-1.64c0-1.28,0-2.56,0-3.83c1.04-1.37-0.15,5.91,2.96,2.74c-0.72-0.8-2.59-0.53-1.78-2.74
			c2.5,1.99,3.8,1.44,6.53,2.19C154.64,382.16,153.7,388.31,154,393.33z M151.62,358.86c0.31-2.36,0.17-3.07,0.59-4.38
			c2.17,0.41-0.05,1.74,0.6,3.83c1.33-0.23,0.01-2.9,1.18-3.28c-0.39-0.56-1.37-0.57-1.18-1.64c-3.04-0.24-1.35,3.87-1.78,6.02
			c-1.72-1.93-3.86-0.75-3.57-3.83c0.58,0.01,0.46,0.67,0.59,1.1c1.05-0.13,1.36-0.94,1.19-2.19c1.18-1.41,0.37,2.71,0,3.28
			c2.34,0.33,0.7-3.01,1.19-4.38c-0.69,0.09-1.05-0.12-1.19-0.55c-0.7,0.09-0.51,1-0.6,1.64c-1.65,0.25,0.47-2.99-1.19-2.74
			c1.82-0.56,6.04,1.35,8.9,1.64c-1.36,1.48-2.07,3.57-1.78,6.57C152.76,360.36,153.87,358.06,151.62,358.86z M155.18,363.78
			c6.23,0.04,13.22,1.84,18.39,1.09c-0.3,5.87,0.7,10.04,0,13.68c-0.79,0-1.57,0-2.37,0c-0.07-0.98,0.72-1.15,0.6-2.19
			c-1.04,0.13-1.36,0.94-1.19,2.19c-1.95-0.29-2.96-0.82-4.15,0c-1.31-0.8,0.22-4.22-2.97-3.29c-0.23,2.63,1.02,0.47,1.78,2.19
			c-1.16,0.8-2.53,0.59-2.96-1.09c-0.7,0.09-0.5,1-0.6,1.64c-1.34-2.52-5.04,0.57-4.75-3.28c-0.69,0.09-0.5,1-0.59,1.64
			C152.24,374.68,155.87,365.8,155.18,363.78z M157.56,383.48c-2.8,0.04,1.4-1.54-0.6-3.28c1.67-2.03,1.15,2.55,1.19,3.83
			c1.01-4.78,1.24-4.57,1.19,1.09c-3.18,2.36,0.84,5.29-1.19,7.66c-0.75-3.75-0.95-6.08-1.78-8.75
			C157.25,384.8,157.64,385.77,157.56,383.48z M172.39,402.08c-0.6,0.36-0.61,1.26-1.78,1.1c0-0.55,0-1.1,0-1.64
			c-2.25,2.2-1.23-1.23-2.97,0c-1.61,0.39,0.43-2.58-1.18-2.19c-0.18,2.9-1.53-1.73-1.78,0.55c-2.15-0.39-0.82-3.99-1.19-6.02
			c-0.97,8.4-1.8,2.49-1.78-3.28c-1.35,0.59-0.23,3.44-0.6,4.92c-1.3-1.18-1.28,0.14-1.19,1.64c-0.51,0.1-0.56-0.21-0.6-0.55
			c-0.33,0-0.66,0-0.99,0c-0.06,0.03-0.13,0.04-0.19,0c0.06,0,0.13,0,0.19,0c0.82-0.45,1.24-6.66,1.59-3.83
			c0.6,4.76,0.03-2.98,0-3.83c-0.1-3.14,0.5-7.07,0-9.3c1.23,1.42,1.26,3.94,1.19,6.56c0.92-3.07,0.98-9.1,1.19-1.64
			c1.32-0.23,0.23-2.7,0.59-3.83c0.82-1.75,0.36,2.14,1.19,2.19c1.62-0.5-1.06-1.92,0.6-2.73c0.49,1.96,2.24-0.65,2.37,1.64
			c1.24-1.67,3.13-0.28,5.93-1.09c1.68,7.03,1.5,15.76,1.78,24.08C173.09,404.72,172.23,403.87,172.39,402.08z M175.95,378.56
			c-1.1,1.33-0.4-3.61-0.59-4.92C176.46,372.3,175.76,377.24,175.95,378.56z M189.59,379.65c-3.71-1.13-0.9-8.29-1.78-12.04
			c-2.52,3.31,0.21,7.15-0.59,12.04c-3.38-1.62-1.12-8.46-1.78-12.59c-2.07,2.34,0.13,7.26-0.59,12.59
			c-2.94-3.76-1.04-6.8-1.78-12.59c-1.7,1.55,0.02,8.49-0.59,12.59c-2.95-2.21,0.21-10.04-1.78-13.14
			c-1.38,3.29-0.2,8.94-0.59,13.14c-2.41-2.34-0.66-8.52-1.19-12.59c-3.08,1.72,0.33,9.42-1.78,12.04c0-5.77-0.07-9.9-0.59-13.13
			c-1.34,0.41-0.23,3.07-0.59,4.38c-2.16-1.13-0.36-2.55-1.19-4.92c27.61,0.48,48.95-1.02,70.61-4.93
			c1.75,4.49,3.03,9.45,1.78,14.23c-1.53,1.46-0.85-1.05-2.37-1.09c-0.15,4.03-11.39,1.92-14.25,3.83
			c-0.07-1.57,0.33-3.58-0.59-4.38c-1.75,0.71,1.7,4.04-1.18,4.38c-2.69-1.9-0.46-8.33-1.19-12.03c-2.93,3.27,0.49,6.65-0.59,12.03
			c-3.21,0.59-8.08,0.35-13.05,1.64c-1.73-0.59-1.93-2.6-1.79-4.92c-1.33,0.58-0.22,3.44-0.59,4.92
			c-7.25-0.57-14.49,0.24-20.17,0.55c-1.11-3.55-0.4-8.76-1.19-12.59C188.63,370.07,190.25,377.45,189.59,379.65z M229.94,388.96
			c-0.62,0.57-7.84,0.05-8.3-0.55C220.74,387.22,230.2,388.72,229.94,388.96z M219.86,384.03c0.13-1.36,6.45,0.46,8.9,0.54
			C226.48,385.92,223.12,383.59,219.86,384.03z M216.89,384.57c-3.2,1.41-10.19-0.83-4.15-0.54
			C214.64,384.12,215.46,385.05,216.89,384.57z M197.91,394.97c1.27-0.96,5.13,0.34,7.12,0.55
			C203.94,396.31,199.61,395.44,197.91,394.97z M200.28,411.39c-1.51,1.35-4.54-0.52-6.52-0.55
			C195.36,409.4,197.69,411.92,200.28,411.39z M197.31,390.59c-0.48-1.1,5.4,0.66,7.71,0.55
			C203.15,392.48,199.59,390.7,197.31,390.59z M191.38,388.96c1.17,0.75,3.39,0.52,4.75,1.09
			C195.6,390.84,191.35,390.47,191.38,388.96z M231.72,398.8c3.83,0.75-6.36,5.06-8.3,6.57c-0.77-0.93-1.96-1.48-3.56-1.64
			c-0.36,1.42,0.24,1.97,1.78,1.64c-6.83,3.07-17.54,10.9-28.48,7.11c2.31-1.56,5.31,0.92,8.31,0.55c1.93-1.03-0.69-2.38,3.56-2.19
			c0.28-1.17-0.85-1.04-1.78-1.1c-1.71-0.91,3.03-0.44,4.15-0.55c0.28-1.16-0.84-1.04-1.78-1.09c-1.31-1.71,4.13,1.06,3.56-1.1
			c-0.25-1.22-2.92-0.22-4.15-0.54c-4.74-2.29,5.02,0.5,5.93-0.55c-0.08-2.66-4.81-1.04-6.52-2.19c2.29-1.5,6.37,1.55,8.9,0
			c-0.07-1.4-2-1.09-3.57-1.1c-0.52-1.05,6.24-0.06,7.12-1.64c-0.9-0.81-2.6-0.88-4.15-1.09c0.63-1.24,3.72-0.2,5.34-0.55
			c-0.14-1.08,4.79-2.51,1.18-2.73c-0.1-1.19,2.11-0.25,2.97-0.55c-0.57-1.11-2.28-1.18-4.15-1.09c-1.28-1.06,4.53-0.52,5.34,0
			c0.53-0.24,1.06-0.48,1.19-1.1c-1.84-1.23-5.2-1.04-7.73-1.64c-0.78,0.2-0.93,0.96-1.77,1.1c0.38,0.56,1.36,0.57,1.18,1.64
			c-3.19-1.63-4.08,3.02-7.12,3.28c0.16,1.14,2.61,0.15,2.97,1.09c-2.42,0.26-6.37,0.13-7.71,2.74c0.4-2.63,3.17-5.79,5.93-7.11
			c0.32-2.31-4.64,0.27-4.15-2.18c1.91-0.12,2.51,0.97,4.75,0.54c1.56-2.23,3.25-3.55,5.93-4.92c-0.08-1.57-2.47-1-4.15-1.1
			c-0.35-1.92,6.56,1.36,7.12-1.09c-0.1-0.64-1.08-0.46-1.78-0.55c-1.63-0.83,4.42-0.83,4.74,0c-2.25-0.07-0.84,3.23-3.56,2.74
			c-0.53,1.77,1.93,0.77,2.37,1.64c-0.73,1.66-2.04-0.59-3.56,0c0.09,0.64-0.14,0.98-0.6,1.1c1.33,1.88,6,0.67,8.31,1.64
			c0.78-0.2,0.94-0.96,1.78-1.1c-1.1-2.21-4.45,0.58-5.34-2.19c3.87,0.53,9.28,2.26,13.06,1.09c0.26-2.43-5.15,0.37-4.75-2.19
			c0.97,1.12,4.38-0.03,5.35,1.1c1.02-0.5,1.86-2.22-0.59-1.65c1.44-1.48,3.87,0.78,6.52,0c-1.98-2.31-1.29-0.83,1.19-2.19
			c-0.57-1.19-9.3-1.22-3.56-1.64c1.42,0.33,2.71,0.78,4.75,0.54c-0.84-1.59-3.51-1.5-5.33-2.19c-1-1.2,3.71,0.64,5.93,0
			c0.2-1.1-0.12-1.71-1.19-1.64c0.74-1.67,2.05,0.59,3.57,0c0.93,3.75,0.46,8.35,1.18,10.94
			C242.78,394.09,237.6,400.01,231.72,398.8z M339.72,239.57c-0.71,23.55-6.31,45.5-14.83,64.57
			c-16.71,37.39-41.82,65.41-75.36,85.91c-2.21-11.58,3.98-27.79-7.13-32.83c0.3-6.66-3.58-12.39-7.12-13.68
			c19.98-42.83,35.75-95.88,30.26-157.05c-7.75,2.52-8.83,11.2-17.21,13.14c5.51-7.88,13.99-14,21.37-20.8
			c22.46-20.71,46.25-42.5,69.43-62.93c0.5-0.1,0.55,0.21,0.59,0.55C339.23,155.5,340.96,198.59,339.72,239.57z"/>
		<path class="st1" d="M141.6,103.77l11.5-10.6l22.97,20.62l6.83-5.73l-60.86-56.41l-52.17,0.57l87.88,80.46l6.83-7.16L141.6,103.77
			z M94.72,61.1H118l27.33,25.49l-12.11,10.88L94.72,61.1z"/>
		<path class="st1" d="M185.44,226.44c1.87-0.27,1.34,1.67,3.56,1.09c0.29-1.97,0.97-3.16,0-4.93c-1.37,0.17-2.28-0.09-2.97-0.55
			C186.49,224.12,185.31,224.68,185.44,226.44z"/>
		<path class="st1" d="M146.28,382.93c0.87-1.27,1.88,1.07,1.78-1.09c-1.51,0.06-3.05,0.1-2.97,1.64c1.07-0.07,1.39,0.54,1.19,1.64
			c0.79,0,1.58,0,2.37,0C149.22,383.13,145.99,384.66,146.28,382.93z"/>
		<path class="st1" d="M155.18,367.07c0.16,1.17-0.46,5.84,0.59,4.38C155.61,370.27,156.23,365.61,155.18,367.07z"/>
		<path class="st1" d="M156.96,289.91c-1.83-0.54-2.3,2.92-3.56,1.1c1.3-1.17,3.3-1.7,4.16-3.28c-2.84,0.3-3.28,2.81-5.94,3.28
			c0.19-1.28,1.84-1.23,2.37-2.19c-1.36-0.75-2.23,1.41-2.37,0c0.93-0.96,2.72-1.13,2.96-2.73c-1.86-0.26-1.57,1.47-2.96,1.64
			c-0.01-0.81,0.22-4.48-0.59-2.74c-0.77,4.94,0.79,6.82-1.19,12.04C152.56,294.97,154.21,291.94,156.96,289.91z"/>
		<path class="st1" d="M226.98,181.57c1.49-0.45,5.11,1.07,4.74-1.1C230.7,179.21,227.37,180.43,226.98,181.57z"/>
		<path class="st1" d="M152.81,286.08c0.1-1.54,2.82-0.69,2.37-2.74C153.74,283.35,151.39,285.26,152.81,286.08z"/>
		<path class="st1" d="M240.63,170.08c0.76-2.19,1.23,0.15,2.96,0c0.92-1.25-0.47-4.02-1.78-4.92
			C243.13,168.04,238.96,168.68,240.63,170.08z"/>
		<path class="st1" d="M243,153.66c-0.33,4.1-2.02,9.72,0,11.49C245.7,163.05,243.24,156.65,243,153.66z"/>
		<path class="st1" d="M245.37,208.38c1.82-0.4,1.75,0.95,3.56,0.55c0.79-0.92,1.57-1.83,1.19-3.83c-0.79,0-1.58,0-2.37,0
			C248.32,207.46,245.52,206.69,245.37,208.38z"/>
		<path class="st1" d="M178.32,219.32c-0.35,0.03-0.69,0.09-0.58,0.55c2.26,0.45,2.29-1.16,2.96-2.19
			c-0.46-0.12-1.17-0.02-1.18-0.55c-0.01-0.55,0.47-0.65,0.59-1.1c-1.42,0.34-4.3-0.69-4.75,0.55
			C178.41,216.81,175.61,219.02,178.32,219.32z"/>
		<path class="st1" d="M181.29,246.68c-1.4-0.38,1.37-3.03-1.19-3.83C180.32,244.77,178.5,248.54,181.29,246.68z"/>
		<path class="st1" d="M186.04,231.36c-0.64,0.32-1.49-0.36-2.97-1.1c-0.68,2.27,1.25,2.14,1.19,3.83
			C186.42,234.94,187.55,232.09,186.04,231.36z"/>
		<path class="st1" d="M148.65,369.8c0.7-3.45-0.66-6.92-0.6-7.11C147.37,364.63,148,368.87,148.65,369.8z"/>
		<path class="st1" d="M198.5,208.93c-1.34-2.31-7.54-2.04-7.72-1.1c-1.99-1.92-4.24-0.48-5.34-2.73c0.05,0.95-0.13,1.7-0.59,2.18
			C189.91,209.58,193.95,207.59,198.5,208.93z"/>
		<path class="st1" d="M225.2,376.37c-0.44-4.63,0.22-6.9-1.19-10.39C224.07,369.74,223.62,374,225.2,376.37z"/>
		<path class="st1" d="M221.64,371.44c0.66,7.43,0.39-7.49-0.6-4.38C221.1,366.9,221.78,373.02,221.64,371.44z"/>
		<path class="st1" d="M172.98,238.48c-0.42-1.62-0.16-3.86-1.78-4.38C171.04,236.25,171.43,237.9,172.98,238.48z"/>
		<path class="st1" d="M170.01,254.34c0.1,1.53-1.68,1.79-2.37,1.09c0,0.55,0,1.1,0,1.64C169.79,257.38,172.35,254.9,170.01,254.34z
			"/>
		<path class="st1" d="M216.89,371.99c0.43-0.09,0.16-6.02-0.59-4.92C216.67,368.55,215.55,371.41,216.89,371.99z"/>
		<path class="st1" d="M219.86,371.44c-0.16-1.17,0.46-5.83-0.59-4.38C219.43,368.24,218.81,372.91,219.86,371.44z"/>
		<path class="st1" d="M177.13,201.27c0.13,1.03-0.67,1.21-0.59,2.19c2.4-1.33,1.71,1.6,3.56,2.19c-0.14-1.04,0.67-1.2,0.59-2.19
			C177.67,205.37,180.16,200.77,177.13,201.27z"/>
		<path class="st1" d="M203.25,208.93c0.72-1.82-4.02-1.34-4.16-0.55C201.22,209.1,201.27,208.34,203.25,208.93z"/>
		<path class="st1" d="M209.77,377.46c-0.28-3.21-0.31-9.54-1.19-10.39C208.86,371.68,207.96,375.18,209.77,377.46z"/>
		<path class="st1" d="M186.63,208.93c0,0.73,0,1.46,0,2.19c8.31,2.88,20.15,6,30.86,6.02c-10.93-3.43-19.11-1.92-29.07-7.66
			C188.34,212.03,187.32,209.09,186.63,208.93z"/>
		<path class="st1" d="M181.29,205.1c-0.1,1.54,1.68,1.37,2.37,2.18c-0.24-1.42-0.31-3-1.19-3.83
			C182.43,204.31,182.56,205.35,181.29,205.1z"/>
		<path class="st1" d="M167.64,271.85c-1.56-0.17-1.94,0.76-1.78,2.19C167.42,274.21,167.81,273.29,167.64,271.85z"/>
		<path class="st1" d="M229.35,219.32c-1.35-0.54-2.82-0.5-4.74,0.55c0.19,0.16,0.43,0.29,0.71,0.38c1.12-0.02,2.22-0.09,3.31-0.22
			C228.98,219.85,229.24,219.62,229.35,219.32z"/>
	</g>
</g>
</svg>
