<?xml version="1.0" encoding="utf-8"?>
<!-- Generator: Adobe Illustrator 19.0.0, SVG Export Plug-In . SVG Version: 6.00 Build 0)  -->
<svg version="1.1" xmlns="http://www.w3.org/2000/svg" xmlns:xlink="http://www.w3.org/1999/xlink" x="0px" y="0px"
	 viewBox="0 0 75 75" style="enable-background:new 0 0 75 75;" xml:space="preserve">
<style type="text/css">
	.st0{opacity:0.8;fill:url(#SVGID_1_);}
	.st1{fill:url(#SVGID_2_);}
	.st2{fill:#FFFFFF;}
	.st3{opacity:0.8;fill:url(#SVGID_3_);}
	.st4{fill:url(#SVGID_4_);}
	.st5{opacity:0.8;fill:url(#SVGID_5_);}
	.st6{fill:url(#SVGID_6_);}
	.st7{fill-rule:evenodd;clip-rule:evenodd;fill:#FFFFFF;}
	.st8{opacity:0.8;fill:url(#SVGID_7_);}
	.st9{fill:url(#SVGID_8_);}
	.st10{opacity:0.8;fill:url(#SVGID_9_);}
	.st11{fill:url(#SVGID_10_);}
	.st12{opacity:0.8;fill:url(#SVGID_11_);}
	.st13{fill:url(#SVGID_12_);}
	.st14{opacity:0.8;fill:url(#SVGID_13_);}
	.st15{fill:url(#SVGID_14_);}
	.st16{opacity:0.8;fill:url(#SVGID_15_);}
	.st17{fill:url(#SVGID_16_);}
	.st18{fill-rule:evenodd;clip-rule:evenodd;fill:#EE1D52;}
	.st19{fill-rule:evenodd;clip-rule:evenodd;fill:#69C9D0;}
	.st20{opacity:0.8;fill:url(#SVGID_17_);}
	.st21{fill:url(#SVGID_18_);}
	.st22{opacity:0.8;fill:url(#SVGID_19_);}
	.st23{fill:url(#SVGID_20_);}
	.st24{opacity:0.8;fill:url(#SVGID_21_);}
	.st25{fill:url(#SVGID_22_);}
	.st26{opacity:0.8;fill:url(#SVGID_23_);}
	.st27{fill:url(#SVGID_24_);}
	.st28{opacity:0.8;fill:url(#SVGID_25_);}
	.st29{opacity:0.8;fill:url(#SVGID_26_);}
	.st30{opacity:0.8;fill:url(#SVGID_27_);}
	.st31{opacity:0.8;fill:url(#SVGID_28_);}
	.st32{opacity:0.8;fill:url(#SVGID_29_);}
	.st33{opacity:0.8;fill:url(#SVGID_30_);}
	.st34{opacity:0.8;fill:url(#SVGID_31_);}
	.st35{opacity:0.8;fill:url(#SVGID_32_);}
	.st36{opacity:0.8;fill:url(#SVGID_33_);}
</style>
<g id="BACKGROUND">
</g>
<g id="ELEMENTS">
	<g>
		<g>
			<radialGradient id="SVGID_1_" cx="-121.9138" cy="-94.0717" r="21.5" gradientUnits="userSpaceOnUse">
				<stop  offset="0" style="stop-color:#000056"/>
				<stop  offset="0.2482" style="stop-color:#4C4C88;stop-opacity:0.7518"/>
				<stop  offset="0.5193" style="stop-color:#9898BB;stop-opacity:0.4807"/>
				<stop  offset="0.744" style="stop-color:#D0D0E0;stop-opacity:0.256"/>
				<stop  offset="0.9103" style="stop-color:#F2F2F6;stop-opacity:8.971435e-002"/>
				<stop  offset="1" style="stop-color:#FFFFFF;stop-opacity:0"/>
			</radialGradient>
			<circle class="st0" cx="-121.9" cy="-94.1" r="21.5"/>
			
				<linearGradient id="SVGID_2_" gradientUnits="userSpaceOnUse" x1="32.4191" y1="-258.1418" x2="57.1678" y2="-233.3931" gradientTransform="matrix(0 1 -1 0 -372.9219 -147.1393)">
				<stop  offset="0" style="stop-color:#FEFB01"/>
				<stop  offset="1" style="stop-color:#FCBB45"/>
			</linearGradient>
			<path class="st1" d="M-141.8-95.4v-13.9c0-4.2,3.4-7.6,7.6-7.6h13.9c4.2,0,7.6,3.4,7.6,7.6l0,13.9c0,4.2-3.4,7.6-7.6,7.6h-13.9
				C-138.3-87.7-141.8-91.2-141.8-95.4z"/>
			<path class="st2" d="M-136.1-97.6c0-0.1,0-0.2,0-0.3c0.1-0.1,0.2-0.2,0.4-0.3c1.5-0.3,2.5-1.2,3.2-2.5c0.6-1,0.5-1.3-0.6-1.7
				c-0.1,0-0.1,0-0.2-0.1c-0.2-0.1-0.5-0.2-0.7-0.4c-0.5-0.4-0.2-1.1,0.4-1.2c0.4-0.1,0.8,0.2,1.3,0.2c0.3,0,0.4-0.1,0.4-0.4
				c-0.1-0.8-0.1-1.6-0.1-2.4c0.1-1.5,0.8-2.7,2.1-3.4c1.8-1.1,3.8-1.1,5.6,0c1.2,0.7,1.9,1.7,2.1,3.1c0.1,0.9,0.1,1.8,0,2.7
				c0,0.4,0,0.5,0.4,0.4c0.5-0.1,0.9-0.4,1.4-0.1c0.3,0.1,0.5,0.4,0.5,0.7c0,0.2-0.1,0.4-0.3,0.5c-0.2,0.2-0.5,0.3-0.8,0.4
				c-0.2,0.1-0.4,0.2-0.7,0.3c-0.4,0.2-0.6,0.5-0.4,0.9c0.7,1.5,1.7,2.6,3.4,3c0.2,0,0.4,0.1,0.5,0.3c0,0.1,0,0.2,0,0.3
				c-0.2,0.3-0.4,0.5-0.8,0.6c-0.3,0.1-0.7,0.3-1,0.3c-0.5,0-0.7,0.2-0.8,0.7c-0.1,0.5-0.2,0.5-0.7,0.5c-0.1,0-0.2,0-0.3-0.1
				c-1-0.2-1.9-0.1-2.6,0.6c-0.2,0.1-0.3,0.2-0.5,0.3c-1.3,0.9-2.7,1-4.1,0.2c-0.4-0.2-0.7-0.5-1.1-0.7c-0.3-0.2-0.6-0.3-1-0.4
				c-0.6-0.1-1.1,0-1.7,0.1c-0.3,0-0.6-0.1-0.6-0.4c0-0.7-0.5-0.9-1.1-1c-0.3,0-0.6-0.1-0.8-0.3C-135.7-97.1-136-97.3-136.1-97.6z"
				/>
		</g>
		<g>
			<radialGradient id="SVGID_3_" cx="-36.1506" cy="-136.2844" r="21" gradientUnits="userSpaceOnUse">
				<stop  offset="0" style="stop-color:#000056"/>
				<stop  offset="0.2482" style="stop-color:#4C4C88;stop-opacity:0.7518"/>
				<stop  offset="0.5193" style="stop-color:#9898BB;stop-opacity:0.4807"/>
				<stop  offset="0.744" style="stop-color:#D0D0E0;stop-opacity:0.256"/>
				<stop  offset="0.9103" style="stop-color:#F2F2F6;stop-opacity:8.971435e-002"/>
				<stop  offset="1" style="stop-color:#FFFFFF;stop-opacity:0"/>
			</radialGradient>
			<circle class="st3" cx="-36.2" cy="-136.3" r="21"/>
			
				<linearGradient id="SVGID_4_" gradientUnits="userSpaceOnUse" x1="62.4495" y1="-348.2538" x2="87.1982" y2="-323.5051" gradientTransform="matrix(0 1 -1 0 -378.0804 -219.6537)">
				<stop  offset="0" style="stop-color:#33CCFF"/>
				<stop  offset="1" style="stop-color:#337FFF"/>
			</linearGradient>
			<path class="st4" d="M-56.8-137.9v-13.9c0-4.2,3.4-7.6,7.6-7.6h13.9c4.2,0,7.6,3.4,7.6,7.6v13.9c0,4.2-3.4,7.6-7.6,7.6h-13.9
				C-53.4-130.2-56.8-133.7-56.8-137.9z"/>
			<path class="st2" d="M-34.1-149.8c-0.5,0.2-1.1,0.4-1.6,0.5c0.3,0,0.6-0.5,0.8-0.7c0.2-0.3,0.4-0.6,0.5-1c0,0,0-0.1,0-0.1
				c0,0-0.1,0-0.1,0c-0.6,0.3-1.2,0.6-1.9,0.7c-0.1,0-0.1,0-0.1,0c-0.1-0.1-0.1-0.1-0.2-0.2c-0.3-0.2-0.6-0.4-0.9-0.6
				c-0.4-0.2-0.9-0.3-1.4-0.2c-0.5,0-0.9,0.2-1.3,0.4c-0.4,0.2-0.8,0.5-1.1,0.9c-0.3,0.4-0.5,0.8-0.6,1.3c-0.1,0.5-0.1,0.9,0,1.4
				c0,0.1,0,0.1-0.1,0.1c-2.6-0.4-4.8-1.3-6.6-3.3c-0.1-0.1-0.1-0.1-0.2,0c-0.8,1.2-0.4,3,0.6,3.9c0.1,0.1,0.3,0.2,0.4,0.4
				c-0.1,0-0.7-0.1-1.3-0.4c-0.1,0-0.1,0-0.1,0.1c0,0.1,0,0.2,0,0.4c0.1,1.2,1,2.3,2.1,2.7c0.1,0.1,0.3,0.1,0.4,0.1
				c-0.3,0.1-0.5,0.1-1.2,0c-0.1,0-0.1,0-0.1,0.1c0.5,1.5,1.7,1.9,2.6,2.2c0.1,0,0.2,0,0.4,0c0,0,0,0,0,0c-0.3,0.4-1.3,0.8-1.8,0.9
				c-0.9,0.3-1.8,0.4-2.7,0.3c-0.1,0-0.2,0-0.2,0c0,0,0,0.1,0,0.1c0.2,0.1,0.4,0.2,0.6,0.3c0.6,0.3,1.2,0.6,1.8,0.7
				c3.3,0.9,6.9,0.2,9.4-2.2c1.9-1.9,2.6-4.5,2.6-7.2c0-0.1,0.1-0.2,0.2-0.2c0.5-0.4,0.9-0.8,1.3-1.3
				C-34.1-149.7-34.1-149.8-34.1-149.8C-34.1-149.8-34.1-149.8-34.1-149.8C-34.1-149.9-34.1-149.9-34.1-149.8z"/>
		</g>
		<g>
			<radialGradient id="SVGID_5_" cx="-36.1506" cy="-94.0717" r="21" gradientUnits="userSpaceOnUse">
				<stop  offset="0" style="stop-color:#000056"/>
				<stop  offset="0.2482" style="stop-color:#4C4C88;stop-opacity:0.7518"/>
				<stop  offset="0.5193" style="stop-color:#9898BB;stop-opacity:0.4807"/>
				<stop  offset="0.744" style="stop-color:#D0D0E0;stop-opacity:0.256"/>
				<stop  offset="0.9103" style="stop-color:#F2F2F6;stop-opacity:8.971435e-002"/>
				<stop  offset="1" style="stop-color:#FFFFFF;stop-opacity:0"/>
			</radialGradient>
			<circle class="st5" cx="-36.2" cy="-94.1" r="21"/>
			
				<linearGradient id="SVGID_6_" gradientUnits="userSpaceOnUse" x1="92.4904" y1="-318.213" x2="117.2391" y2="-293.4643" gradientTransform="matrix(0 1 -1 0 -348.0396 -207.2105)">
				<stop  offset="0" style="stop-color:#60FC7C"/>
				<stop  offset="1" style="stop-color:#4AB161"/>
			</linearGradient>
			<path class="st6" d="M-56.8-95.4v-13.9c0-4.2,3.4-7.6,7.6-7.6h13.9c4.2,0,7.6,3.4,7.6,7.6v13.9c0,4.2-3.4,7.6-7.6,7.6l-13.9,0
				C-53.4-87.7-56.8-91.2-56.8-95.4z"/>
			<path class="st2" d="M-50.1-94.1l1.2-4.5c-0.7-1.2-1.1-2.6-1.1-4.1c0-4.6,3.8-8.4,8.4-8.4c4.6,0,8.4,3.8,8.4,8.4
				c0,4.6-3.8,8.4-8.4,8.4c-1.4,0-2.8-0.4-4-1L-50.1-94.1z M-45.3-97l0.3,0.2c1.1,0.6,2.3,1,3.5,1c3.8,0,6.8-3.1,6.8-6.8
				s-3.1-6.8-6.8-6.8c-3.8,0-6.8,3.1-6.8,6.8c0,1.2,0.3,2.5,1,3.5l0.2,0.3l-0.7,2.5L-45.3-97z"/>
			<path class="st7" d="M-38.4-101.5c-0.3-0.2-0.8-0.4-1.2-0.3c-0.3,0.1-0.5,0.6-0.7,0.9c-0.1,0.1-0.2,0.1-0.4,0.1
				c-1.2-0.5-2.1-1.3-2.7-2.3c-0.1-0.2-0.1-0.3,0-0.5c0.2-0.2,0.4-0.5,0.5-0.8c0.1-0.3-0.1-0.7-0.2-0.9c-0.2-0.4-0.3-0.9-0.7-1.1
				c-0.3-0.2-0.8-0.1-1,0.2c-0.5,0.4-0.7,1-0.7,1.7c0,0.2,0,0.4,0.1,0.5c0.1,0.4,0.3,0.8,0.5,1.2c0.2,0.3,0.3,0.5,0.5,0.8
				c0.6,0.9,1.4,1.6,2.3,2.1c0.5,0.3,0.9,0.5,1.4,0.7c0.6,0.2,1.1,0.4,1.7,0.3c0.6-0.1,1.3-0.5,1.5-1.1c0.1-0.2,0.1-0.4,0.1-0.6
				C-37.6-101.1-38.1-101.3-38.4-101.5z"/>
		</g>
		<g>
			<radialGradient id="SVGID_7_" cx="-79.0323" cy="-94.0717" r="21" gradientUnits="userSpaceOnUse">
				<stop  offset="0" style="stop-color:#000056"/>
				<stop  offset="0.2482" style="stop-color:#4C4C88;stop-opacity:0.7518"/>
				<stop  offset="0.5193" style="stop-color:#9898BB;stop-opacity:0.4807"/>
				<stop  offset="0.744" style="stop-color:#D0D0E0;stop-opacity:0.256"/>
				<stop  offset="0.9103" style="stop-color:#F2F2F6;stop-opacity:8.971435e-002"/>
				<stop  offset="1" style="stop-color:#FFFFFF;stop-opacity:0"/>
			</radialGradient>
			<circle class="st8" cx="-79" cy="-94.1" r="21"/>
			
				<linearGradient id="SVGID_8_" gradientUnits="userSpaceOnUse" x1="62.4495" y1="-288.1723" x2="87.1983" y2="-263.4236" gradientTransform="matrix(0 1 -1 0 -360.4829 -177.1697)">
				<stop  offset="0" style="stop-color:#FF0000"/>
				<stop  offset="1" style="stop-color:#850000"/>
			</linearGradient>
			<path class="st9" d="M-99.3-95.4v-13.9c0-4.2,3.4-7.6,7.6-7.6l13.9,0c4.2,0,7.6,3.4,7.6,7.6l0,13.9c0,4.2-3.4,7.6-7.6,7.6h-13.9
				C-95.9-87.7-99.3-91.2-99.3-95.4z"/>
			<path class="st2" d="M-76.9-104.5c0-1.9-1.6-3.5-3.5-3.5h-9c-1.9,0-3.5,1.6-3.5,3.5v4.2c0,1.9,1.6,3.5,3.5,3.5h9
				c1.9,0,3.5-1.6,3.5-3.5V-104.5z M-82.1-102.1l-4,2c-0.2,0.1-0.7,0-0.7-0.2v-4.1c0-0.2,0.5-0.3,0.7-0.2l3.9,2.1
				C-82.1-102.4-82-102.2-82.1-102.1z"/>
		</g>
		<g>
			<radialGradient id="SVGID_9_" cx="-79.0323" cy="-136.2844" r="21" gradientUnits="userSpaceOnUse">
				<stop  offset="0" style="stop-color:#000056"/>
				<stop  offset="0.2482" style="stop-color:#4C4C88;stop-opacity:0.7518"/>
				<stop  offset="0.5193" style="stop-color:#9898BB;stop-opacity:0.4807"/>
				<stop  offset="0.744" style="stop-color:#D0D0E0;stop-opacity:0.256"/>
				<stop  offset="0.9103" style="stop-color:#F2F2F6;stop-opacity:8.971435e-002"/>
				<stop  offset="1" style="stop-color:#FFFFFF;stop-opacity:0"/>
			</radialGradient>
			<circle class="st10" cx="-79" cy="-136.3" r="21"/>
			
				<linearGradient id="SVGID_10_" gradientUnits="userSpaceOnUse" x1="29.8604" y1="-320.7615" x2="67.6797" y2="-282.9422" gradientTransform="matrix(0 1 -1 0 -390.5237 -189.613)">
				<stop  offset="1.104800e-003" style="stop-color:#FBE18A"/>
				<stop  offset="0.2094" style="stop-color:#FCBB45"/>
				<stop  offset="0.3765" style="stop-color:#F75274"/>
				<stop  offset="0.5238" style="stop-color:#D53692"/>
				<stop  offset="0.7394" style="stop-color:#8F39CE"/>
				<stop  offset="1" style="stop-color:#5B4FE9"/>
			</linearGradient>
			<path class="st11" d="M-99.3-137.9l0-13.9c0-4.2,3.4-7.6,7.6-7.6l13.9,0c4.2,0,7.6,3.4,7.6,7.6l0,13.9c0,4.2-3.4,7.6-7.6,7.6
				l-13.9,0C-95.9-130.2-99.3-133.7-99.3-137.9z"/>
			<g>
				<circle class="st2" cx="-80.1" cy="-149.3" r="1"/>
				<path class="st2" d="M-84.6-149.1c-2.3,0-4.2,1.9-4.2,4.2c0,2.3,1.9,4.2,4.2,4.2c2.3,0,4.2-1.9,4.2-4.2
					C-80.4-147.2-82.3-149.1-84.6-149.1z M-84.6-142.1c-1.5,0-2.7-1.2-2.7-2.7c0-1.5,1.2-2.7,2.7-2.7c1.5,0,2.7,1.2,2.7,2.7
					C-81.9-143.3-83.1-142.1-84.6-142.1z"/>
				<path class="st2" d="M-81.3-136.3h-6.8c-2.8,0-5.1-2.3-5.1-5.1v-6.8c0-2.8,2.3-5.1,5.1-5.1h6.8c2.8,0,5.1,2.3,5.1,5.1v6.8
					C-76.1-138.6-78.4-136.3-81.3-136.3z M-88.1-151.8c-2,0-3.5,1.6-3.5,3.5v6.8c0,2,1.6,3.5,3.5,3.5h6.8c2,0,3.5-1.6,3.5-3.5v-6.8
					c0-2-1.6-3.5-3.5-3.5H-88.1z"/>
			</g>
		</g>
		<radialGradient id="SVGID_11_" cx="-126.8974" cy="-137.8265" r="21.5" gradientUnits="userSpaceOnUse">
			<stop  offset="0" style="stop-color:#000056"/>
			<stop  offset="0.2482" style="stop-color:#4C4C88;stop-opacity:0.7518"/>
			<stop  offset="0.5193" style="stop-color:#9898BB;stop-opacity:0.4807"/>
			<stop  offset="0.744" style="stop-color:#D0D0E0;stop-opacity:0.256"/>
			<stop  offset="0.9103" style="stop-color:#F2F2F6;stop-opacity:8.971435e-002"/>
			<stop  offset="1" style="stop-color:#FFFFFF;stop-opacity:0"/>
		</radialGradient>
		<circle class="st12" cx="-126.9" cy="-137.8" r="21.5"/>
		<g>
			
				<linearGradient id="SVGID_12_" gradientUnits="userSpaceOnUse" x1="1.8784" y1="-288.1826" x2="26.6271" y2="-263.4339" gradientTransform="matrix(0 1 -1 0 -402.9627 -159.5826)">
				<stop  offset="0" style="stop-color:#4676ED"/>
				<stop  offset="0.1854" style="stop-color:#436DE4"/>
				<stop  offset="0.487" style="stop-color:#3C55CD"/>
				<stop  offset="0.8651" style="stop-color:#302EA8"/>
				<stop  offset="1" style="stop-color:#2B1E99"/>
			</linearGradient>
			<path class="st13" d="M-141.8-138.4v-13.9c0-4.2,3.4-7.6,7.6-7.6h13.9c4.2,0,7.6,3.4,7.6,7.6l0,13.9c0,4.2-3.4,7.6-7.6,7.6h-4.7
				l-2.5-0.6l-2.1,0.6l-4.7,0C-138.3-130.7-141.8-134.2-141.8-138.4z"/>
			<g>
				<path class="st2" d="M-121.5-140.6l0.6-4.2h-4.1v-2.7c0-1.2,0.6-2.3,2.4-2.3h1.8v-3.6c0,0-1.7-0.3-3.3-0.3c-3.3,0-5.5,2-5.5,5.7
					v3.2h-3.7v4.2h3.7v9.9h4.6v-9.9H-121.5z"/>
			</g>
		</g>
		<g>
			<radialGradient id="SVGID_13_" cx="-121.9138" cy="-50.8589" r="21.5" gradientUnits="userSpaceOnUse">
				<stop  offset="0" style="stop-color:#000056"/>
				<stop  offset="0.2482" style="stop-color:#4C4C88;stop-opacity:0.7518"/>
				<stop  offset="0.5193" style="stop-color:#9898BB;stop-opacity:0.4807"/>
				<stop  offset="0.744" style="stop-color:#D0D0E0;stop-opacity:0.256"/>
				<stop  offset="0.9103" style="stop-color:#F2F2F6;stop-opacity:8.971435e-002"/>
				<stop  offset="1" style="stop-color:#FFFFFF;stop-opacity:0"/>
			</radialGradient>
			<circle class="st14" cx="-121.9" cy="-50.9" r="21.5"/>
			
				<linearGradient id="SVGID_14_" gradientUnits="userSpaceOnUse" x1="62.4748" y1="-228.0862" x2="87.2235" y2="-203.3374" gradientTransform="matrix(0 1 -1 0 -342.8662 -134.6898)">
				<stop  offset="0" style="stop-color:#007AB5"/>
				<stop  offset="1" style="stop-color:#0046E5"/>
			</linearGradient>
			<path class="st15" d="M-141.8-52.9v-13.9c0-4.2,3.4-7.6,7.6-7.6h13.9c4.2,0,7.6,3.4,7.6,7.6l0,13.9c0,4.2-3.4,7.6-7.6,7.6
				l-13.9,0C-138.3-45.2-141.8-48.7-141.8-52.9z"/>
			<path class="st2" d="M-133.3-62.6h2.8v9.1h-2.8V-62.6z M-131.9-67.1c0.9,0,1.6,0.7,1.6,1.6c0,0.9-0.7,1.6-1.6,1.6
				c-0.9,0-1.6-0.7-1.6-1.6C-133.5-66.3-132.8-67.1-131.9-67.1"/>
			<path class="st2" d="M-128.7-62.6h2.7v1.2h0c0.4-0.7,1.3-1.5,2.7-1.5c2.9,0,3.4,1.9,3.4,4.3v5h-2.8v-4.4c0-1.1,0-2.4-1.5-2.4
				c-1.5,0-1.7,1.1-1.7,2.3v4.5h-2.8V-62.6z"/>
		</g>
		<g>
			<radialGradient id="SVGID_15_" cx="6.3204" cy="-135.8481" r="21" gradientUnits="userSpaceOnUse">
				<stop  offset="0" style="stop-color:#000056"/>
				<stop  offset="0.2482" style="stop-color:#4C4C88;stop-opacity:0.7518"/>
				<stop  offset="0.5193" style="stop-color:#9898BB;stop-opacity:0.4807"/>
				<stop  offset="0.744" style="stop-color:#D0D0E0;stop-opacity:0.256"/>
				<stop  offset="0.9103" style="stop-color:#F2F2F6;stop-opacity:8.971435e-002"/>
				<stop  offset="1" style="stop-color:#FFFFFF;stop-opacity:0"/>
			</radialGradient>
			<circle class="st16" cx="6.3" cy="-135.8" r="21"/>
			
				<linearGradient id="SVGID_16_" gradientUnits="userSpaceOnUse" x1="37.5568" y1="-305.8796" x2="62.3055" y2="-330.6283" gradientTransform="matrix(0 1 -1 0 -317.9839 -194.761)">
				<stop  offset="0" style="stop-color:#22004A"/>
				<stop  offset="0.9565" style="stop-color:#020003"/>
				<stop  offset="1" style="stop-color:#000000"/>
			</linearGradient>
			<path class="st17" d="M-14.4-137.9v-13.9c0-4.2,3.4-7.6,7.6-7.6H7.2c4.2,0,7.6,3.4,7.6,7.6v13.9c0,4.2-3.4,7.6-7.6,7.6H-6.7
				C-10.9-130.2-14.4-133.7-14.4-137.9z"/>
			<g>
				<path class="st18" d="M4.2-147.5c1.2,0.9,2.7,1.4,4.2,1.4v-3c-0.3,0-0.6,0-0.9-0.1v2.4c-1.6,0-3-0.5-4.2-1.4v6.2
					c0,3.1-2.5,5.6-5.6,5.6c-1.2,0-2.2-0.4-3.1-1c1,1,2.4,1.7,4,1.7c3.1,0,5.6-2.5,5.6-5.6L4.2-147.5L4.2-147.5z M5.3-150.6
					c-0.6-0.7-1-1.5-1.1-2.5v-0.4H3.4C3.6-152.2,4.3-151.2,5.3-150.6L5.3-150.6z M-3.5-139.7c-0.3-0.4-0.5-1-0.5-1.6
					c0-1.4,1.2-2.6,2.6-2.6c0.3,0,0.5,0,0.8,0.1v-3.1c-0.3,0-0.6-0.1-0.9-0.1v2.4c-0.3-0.1-0.5-0.1-0.8-0.1c-1.4,0-2.6,1.2-2.6,2.6
					C-4.9-141-4.3-140.2-3.5-139.7z"/>
				<path class="st7" d="M3.3-148.3c1.2,0.9,2.7,1.4,4.2,1.4v-2.4c-0.9-0.2-1.7-0.6-2.3-1.3c-1-0.6-1.7-1.7-1.9-2.9H1.2v12.2
					c0,1.4-1.2,2.6-2.6,2.6c-0.8,0-1.6-0.4-2.1-1c-0.8-0.4-1.4-1.3-1.4-2.3c0-1.4,1.2-2.6,2.6-2.6c0.3,0,0.5,0,0.8,0.1v-2.4
					c-3.1,0.1-5.5,2.6-5.5,5.6c0,1.5,0.6,2.9,1.6,3.9c0.9,0.6,2,1,3.1,1c3.1,0,5.6-2.5,5.6-5.6V-148.3z"/>
				<path class="st19" d="M7.6-149.3v-0.6c-0.8,0-1.6-0.2-2.3-0.6C5.9-149.9,6.7-149.5,7.6-149.3z M3.4-153.5c0-0.1,0-0.2,0-0.3
					v-0.4H0.3v12.2c0,1.4-1.2,2.6-2.6,2.6c-0.4,0-0.8-0.1-1.2-0.3c0.5,0.6,1.2,1,2.1,1c1.4,0,2.6-1.1,2.6-2.6v-12.2H3.4z
					 M-1.5-146.9v-0.7c-0.3,0-0.5-0.1-0.8-0.1c-3.1,0-5.6,2.5-5.6,5.6c0,1.9,1,3.7,2.5,4.7c-1-1-1.6-2.4-1.6-3.9
					C-7-144.4-4.6-146.9-1.5-146.9L-1.5-146.9z"/>
			</g>
		</g>
		<g>
			<radialGradient id="SVGID_17_" cx="-79.0323" cy="-50.8589" r="21" gradientUnits="userSpaceOnUse">
				<stop  offset="0" style="stop-color:#000056"/>
				<stop  offset="0.2482" style="stop-color:#4C4C88;stop-opacity:0.7518"/>
				<stop  offset="0.5193" style="stop-color:#9898BB;stop-opacity:0.4807"/>
				<stop  offset="0.744" style="stop-color:#D0D0E0;stop-opacity:0.256"/>
				<stop  offset="0.9103" style="stop-color:#F2F2F6;stop-opacity:8.971435e-002"/>
				<stop  offset="1" style="stop-color:#FFFFFF;stop-opacity:0"/>
			</radialGradient>
			<circle class="st20" cx="-79" cy="-50.9" r="21"/>
			
				<linearGradient id="SVGID_18_" gradientUnits="userSpaceOnUse" x1="90.2582" y1="-245.7422" x2="119.501" y2="-245.7422" gradientTransform="matrix(0 1 -1 0 -330.4272 -164.7202)">
				<stop  offset="0" style="stop-color:#F26798"/>
				<stop  offset="0.8664" style="stop-color:#C82093"/>
				<stop  offset="1" style="stop-color:#C11592"/>
			</linearGradient>
			<path class="st21" d="M-99.3-52.9l0-13.9c0-4.2,3.4-7.6,7.6-7.6l13.9,0c4.2,0,7.6,3.4,7.6,7.6l0,13.9c0,4.2-3.4,7.6-7.6,7.6
				l-13.9,0C-95.9-45.2-99.3-48.7-99.3-52.9z"/>
			<path class="st2" d="M-84.7-68.1c-4.5,0-8.2,3.7-8.2,8.2s3.7,8.2,8.2,8.2c4.5,0,8.2-3.7,8.2-8.2C-76.5-64.4-80.1-68.1-84.7-68.1
				L-84.7-68.1z M-79.3-64.2c0.9,1.2,1.5,2.6,1.5,4.2c-0.3-0.1-1.6-0.3-3.2-0.3c-0.5,0-1,0-1.6,0.1c0-0.1-0.1-0.2-0.1-0.3
				c-0.1-0.3-0.3-0.7-0.4-1C-80.7-62.5-79.5-63.9-79.3-64.2L-79.3-64.2z M-84.7-66.8c1.8,0,3.4,0.7,4.6,1.7
				c-0.2,0.3-1.2,1.6-3.6,2.5c-1.1-2-2.3-3.6-2.6-4C-85.7-66.7-85.2-66.8-84.7-66.8L-84.7-66.8z M-87.7-66.1c0.2,0.3,1.4,2,2.5,4
				c-3,0.8-5.6,0.8-6.3,0.8h-0.1C-91-63.4-89.6-65.2-87.7-66.1L-87.7-66.1z M-91.6-59.8c0-0.1,0-0.1,0-0.2c0,0,0.1,0,0.2,0
				c0.9,0,3.9-0.1,6.9-1c0.2,0.4,0.4,0.7,0.5,1.1c-0.1,0-0.2,0-0.2,0.1c-3.5,1.1-5.4,4.1-5.7,4.6C-91-56.5-91.6-58.1-91.6-59.8
				L-91.6-59.8z M-84.7-52.9c-1.6,0-3.1-0.5-4.2-1.4c0.2-0.4,1.6-3,5.4-4.3c0,0,0,0,0,0c1,2.5,1.4,4.6,1.5,5.2
				C-82.8-53.1-83.7-52.9-84.7-52.9L-84.7-52.9z M-80.7-54.1c-0.1-0.5-0.5-2.5-1.3-4.9c0.5-0.1,1-0.1,1.4-0.1c1.5,0,2.6,0.3,2.9,0.4
				C-78.1-56.8-79.2-55.2-80.7-54.1L-80.7-54.1z"/>
		</g>
		<g>
			<radialGradient id="SVGID_19_" cx="6.7311" cy="-94.0717" r="21" gradientUnits="userSpaceOnUse">
				<stop  offset="0" style="stop-color:#000056"/>
				<stop  offset="0.2482" style="stop-color:#4C4C88;stop-opacity:0.7518"/>
				<stop  offset="0.5193" style="stop-color:#9898BB;stop-opacity:0.4807"/>
				<stop  offset="0.744" style="stop-color:#D0D0E0;stop-opacity:0.256"/>
				<stop  offset="0.9103" style="stop-color:#F2F2F6;stop-opacity:8.971435e-002"/>
				<stop  offset="1" style="stop-color:#FFFFFF;stop-opacity:0"/>
			</radialGradient>
			<circle class="st22" cx="6.7" cy="-94.1" r="21"/>
			
				<linearGradient id="SVGID_20_" gradientUnits="userSpaceOnUse" x1="122.531" y1="-348.2538" x2="147.2797" y2="-323.5051" gradientTransform="matrix(0 1 -1 0 -335.5964 -237.2512)">
				<stop  offset="0" style="stop-color:#006EF5"/>
				<stop  offset="0.7752" style="stop-color:#2131AE"/>
				<stop  offset="1" style="stop-color:#2B1E99"/>
			</linearGradient>
			<path class="st23" d="M-14.3-95.4v-13.9c0-4.2,3.4-7.6,7.6-7.6H7.3c4.2,0,7.6,3.4,7.6,7.6l0,13.9c0,4.2-3.4,7.6-7.6,7.6H-6.7
				C-10.9-87.7-14.3-91.2-14.3-95.4z"/>
			<path class="st2" d="M1.1-99.7c0,0.4-0.1,0.8-0.3,1.2c-0.2,0.3-0.4,0.6-0.7,0.8c-0.3,0.2-0.7,0.4-1.1,0.5
				C-1.4-97.1-1.8-97-2.3-97h-5.1v-10.5h5.6c0.4,0,0.7,0.1,1,0.2c0.3,0.2,0.5,0.4,0.8,0.6c0.2,0.3,0.4,0.5,0.5,0.9
				c0.1,0.3,0.2,0.6,0.2,1c0,0.5-0.1,1-0.4,1.4c-0.3,0.5-0.6,0.8-1.1,1c0.6,0.2,1.1,0.5,1.4,1C0.9-101,1.1-100.4,1.1-99.7z
				 M-5.3-105.8v2.7h2.7c0.3,0,0.6-0.1,0.9-0.4c0.2-0.2,0.4-0.6,0.4-1c0-0.4-0.1-0.7-0.3-1c-0.2-0.2-0.5-0.4-0.8-0.4H-5.3z
				 M-1-100.1c0-0.2,0-0.4-0.1-0.5c-0.1-0.2-0.2-0.3-0.3-0.5c-0.1-0.1-0.2-0.2-0.4-0.3c-0.1-0.1-0.3-0.1-0.5-0.1h-3.1v2.8h3
				c0.2,0,0.4,0,0.5-0.1c0.2-0.1,0.3-0.2,0.4-0.3c0.1-0.1,0.2-0.3,0.3-0.4C-1-99.7-1-99.9-1-100.1z"/>
			<path class="st2" d="M5.5-97c-0.6,0-1.2-0.1-1.6-0.3c-1-0.4-1.7-1.1-2-2.1c-0.2-0.5-0.3-1-0.3-1.5c0-0.5,0.1-1,0.3-1.5
				c0.4-1,1.1-1.7,2-2.1c0.5-0.2,1-0.3,1.7-0.3c0.6,0,1.2,0.1,1.6,0.3c1.6,0.7,2.3,2.2,2.3,3.9c0,0.1,0,0.2,0,0.3H3.6
				c0,0.3,0.1,0.6,0.2,0.8c0.1,0.2,0.3,0.4,0.4,0.6c0.2,0.2,0.4,0.3,0.6,0.4c0.2,0.1,0.5,0.1,0.7,0.1c0.4,0,0.7-0.1,1.1-0.3
				c0.3-0.2,0.6-0.4,0.7-0.7L9-99c-0.3,0.6-0.7,1-1.3,1.4C7.1-97.2,6.4-97,5.5-97z M7.5-101.5c0-0.6-0.3-1-0.6-1.4
				c-0.4-0.3-0.8-0.5-1.3-0.5c-0.3,0-0.5,0-0.7,0.1c-0.2,0.1-0.4,0.2-0.6,0.4c-0.2,0.2-0.3,0.4-0.4,0.6c-0.1,0.2-0.2,0.5-0.2,0.8
				L7.5-101.5L7.5-101.5z"/>
			<path class="st2" d="M3-107h5v1.3H3V-107z"/>
		</g>
		<g>
			<radialGradient id="SVGID_21_" cx="6.7311" cy="-50.8589" r="21" gradientUnits="userSpaceOnUse">
				<stop  offset="0" style="stop-color:#000056"/>
				<stop  offset="0.2482" style="stop-color:#4C4C88;stop-opacity:0.7518"/>
				<stop  offset="0.5193" style="stop-color:#9898BB;stop-opacity:0.4807"/>
				<stop  offset="0.744" style="stop-color:#D0D0E0;stop-opacity:0.256"/>
				<stop  offset="0.9103" style="stop-color:#F2F2F6;stop-opacity:8.971435e-002"/>
				<stop  offset="1" style="stop-color:#FFFFFF;stop-opacity:0"/>
			</radialGradient>
			<circle class="st24" cx="6.7" cy="-50.9" r="21"/>
			
				<linearGradient id="SVGID_22_" gradientUnits="userSpaceOnUse" x1="-14.1199" y1="-80.1009" x2="6.5581" y2="-59.4229" gradientTransform="matrix(0.7071 0.7071 -0.7071 0.7071 -46.3721 -7.8385)">
				<stop  offset="0" style="stop-color:#00D95F"/>
				<stop  offset="0.9956" style="stop-color:#199250"/>
				<stop  offset="1" style="stop-color:#199250"/>
			</linearGradient>
			<path class="st25" d="M-14.3-52.9v-13.9c0-4.2,3.4-7.6,7.6-7.6H7.3c4.2,0,7.6,3.4,7.6,7.6l0,13.9c0,4.2-3.4,7.6-7.6,7.6l-13.9,0
				C-10.9-45.2-14.3-48.7-14.3-52.9z"/>
			<path class="st2" d="M5.9-54c-0.2,0.3-0.5,0.4-0.8,0.4c-0.2,0-0.3,0-0.4-0.1c-2.3-1.4-5-1.6-6.9-1.5c-2,0.1-3.5,0.5-3.6,0.5
				c-0.5,0.1-1-0.1-1.1-0.6c-0.1-0.5,0.1-1,0.6-1.1c0.1,0,1.7-0.5,3.9-0.5c1.3,0,2.6,0,3.8,0.3c1.5,0.3,2.9,0.8,4.1,1.5
				C6-55,6.2-54.4,5.9-54z"/>
			<path class="st2" d="M7.6-57.4c-0.2,0.3-0.5,0.5-0.9,0.5c-0.2,0-0.4,0-0.5-0.1c-2.8-1.6-5.9-1.9-8.1-1.8
				c-2.4,0.1-4.2,0.6-4.2,0.6c-0.6,0.2-1.1-0.2-1.3-0.7c-0.2-0.6,0.2-1.1,0.7-1.3c0.1,0,2-0.5,4.6-0.6c1.6-0.1,3.1,0.1,4.5,0.3
				c1.8,0.3,3.4,0.9,4.8,1.8C7.7-58.6,7.9-57.9,7.6-57.4z"/>
			<path class="st2" d="M8.6-60.5c-0.2,0-0.4-0.1-0.6-0.2c-6.6-3.8-15.1-1.6-15.1-1.5c-0.7,0.2-1.4-0.2-1.6-0.9
				c-0.2-0.7,0.2-1.4,0.9-1.6c0.1,0,2.4-0.7,5.7-0.8c1.9-0.1,3.8,0.1,5.5,0.4c2.2,0.4,4.2,1.1,5.9,2.2c0.6,0.4,0.8,1.1,0.5,1.8
				C9.5-60.8,9-60.5,8.6-60.5z"/>
		</g>
		<g>
			<radialGradient id="SVGID_23_" cx="-35.753" cy="-51.291" r="21" gradientUnits="userSpaceOnUse">
				<stop  offset="0" style="stop-color:#000056"/>
				<stop  offset="0.2482" style="stop-color:#4C4C88;stop-opacity:0.7518"/>
				<stop  offset="0.5193" style="stop-color:#9898BB;stop-opacity:0.4807"/>
				<stop  offset="0.744" style="stop-color:#D0D0E0;stop-opacity:0.256"/>
				<stop  offset="0.9103" style="stop-color:#F2F2F6;stop-opacity:8.971435e-002"/>
				<stop  offset="1" style="stop-color:#FFFFFF;stop-opacity:0"/>
			</radialGradient>
			<circle class="st26" cx="-35.8" cy="-51.3" r="21"/>
			
				<linearGradient id="SVGID_24_" gradientUnits="userSpaceOnUse" x1="177.4838" y1="-335.8105" x2="202.2325" y2="-311.0618" gradientTransform="matrix(0 1 -1 0 -365.6371 -249.6945)">
				<stop  offset="0" style="stop-color:#FC4D3F"/>
				<stop  offset="1" style="stop-color:#CD083F"/>
			</linearGradient>
			<path class="st27" d="M-56.8-52.9v-13.9c0-4.2,3.4-7.6,7.6-7.6h13.9c4.2,0,7.6,3.4,7.6,7.6l0,13.9c0,4.2-3.4,7.6-7.6,7.6h-13.9
				C-53.4-45.2-56.8-48.7-56.8-52.9z"/>
			<path class="st7" d="M-43.3-56.7c0,0.1,0,0.1,0,0.1c-0.7,2.6-0.7,3.1-1.4,4.3c-0.3,0.6-0.7,1.1-1.1,1.6c0,0.1-0.1,0.1-0.2,0.1
				c-0.1,0-0.1-0.1-0.1-0.2c-0.1-0.8-0.2-1.6-0.1-2.3c0-1,0.2-1.4,1.5-6.9c0-0.1,0-0.2,0-0.2c-0.3-0.8-0.4-1.7-0.1-2.6
				c0.6-1.9,2.7-2,3.1-0.5c0.2,1-0.4,2.2-0.8,4.1c-0.4,1.5,1.4,2.6,3,1.5c1.4-1,2-3.5,1.9-5.3c-0.2-3.5-4-4.3-6.5-3.1
				c-2.8,1.3-3.4,4.8-2.2,6.3c0.2,0.2,0.3,0.3,0.2,0.5c-0.1,0.3-0.2,0.6-0.2,1c-0.1,0.2-0.3,0.3-0.5,0.2c-0.5-0.2-0.9-0.5-1.2-0.9
				c-1.1-1.3-1.4-4,0-6.2c1.6-2.5,4.5-3.5,7.2-3.2c3.2,0.4,5.2,2.5,5.6,5c0.2,1.1,0,3.9-1.5,5.9c-1.8,2.3-4.8,2.4-6.1,1
				C-43.1-56.4-43.2-56.5-43.3-56.7z"/>
		</g>
	</g>
	<g>
		<radialGradient id="SVGID_25_" cx="52.8503" cy="-94.0717" r="21.5" gradientUnits="userSpaceOnUse">
			<stop  offset="0" style="stop-color:#000056"/>
			<stop  offset="0.2482" style="stop-color:#4C4C88;stop-opacity:0.7518"/>
			<stop  offset="0.5193" style="stop-color:#9898BB;stop-opacity:0.4807"/>
			<stop  offset="0.744" style="stop-color:#D0D0E0;stop-opacity:0.256"/>
			<stop  offset="0.9103" style="stop-color:#F2F2F6;stop-opacity:8.971435e-002"/>
			<stop  offset="1" style="stop-color:#FFFFFF;stop-opacity:0"/>
		</radialGradient>
		<circle class="st28" cx="52.9" cy="-94.1" r="21.5"/>
		<path d="M33-95.4l0-13.9c0-4.2,3.4-7.6,7.6-7.6h13.9c4.2,0,7.6,3.4,7.6,7.6v13.9c0,4.2-3.4,7.6-7.6,7.6H40.6
			C36.4-87.7,33-91.2,33-95.4z"/>
		<path class="st2" d="M38.7-97.6c0-0.1,0-0.2,0-0.3c0.1-0.1,0.2-0.2,0.4-0.3c1.5-0.3,2.5-1.2,3.2-2.5c0.6-1,0.5-1.3-0.6-1.7
			c-0.1,0-0.1,0-0.2-0.1c-0.2-0.1-0.5-0.2-0.7-0.4c-0.5-0.4-0.2-1.1,0.4-1.2c0.4-0.1,0.8,0.2,1.3,0.2c0.3,0,0.4-0.1,0.4-0.4
			c-0.1-0.8-0.1-1.6-0.1-2.4c0.1-1.5,0.8-2.7,2.1-3.4c1.8-1.1,3.8-1.1,5.6,0c1.2,0.7,1.9,1.7,2.1,3.1c0.1,0.9,0.1,1.8,0,2.7
			c0,0.4,0,0.5,0.4,0.4c0.5-0.1,0.9-0.4,1.4-0.1c0.3,0.1,0.5,0.4,0.5,0.7c0,0.2-0.1,0.4-0.3,0.5c-0.2,0.2-0.5,0.3-0.8,0.4
			c-0.2,0.1-0.4,0.2-0.7,0.3c-0.4,0.2-0.6,0.5-0.4,0.9c0.7,1.5,1.7,2.6,3.4,3c0.2,0,0.4,0.1,0.5,0.3c0,0.1,0,0.2,0,0.3
			c-0.2,0.3-0.4,0.5-0.8,0.6c-0.3,0.1-0.7,0.3-1,0.3c-0.5,0-0.7,0.2-0.8,0.7c-0.1,0.5-0.2,0.5-0.7,0.5c-0.1,0-0.2,0-0.3-0.1
			c-1-0.2-1.9-0.1-2.6,0.6c-0.2,0.1-0.3,0.2-0.5,0.3c-1.3,0.9-2.7,1-4.1,0.2c-0.4-0.2-0.7-0.5-1.1-0.7c-0.3-0.2-0.6-0.3-1-0.4
			c-0.6-0.1-1.1,0-1.7,0.1c-0.3,0-0.6-0.1-0.6-0.4c0-0.7-0.5-0.9-1.1-1c-0.3,0-0.6-0.1-0.8-0.3C39.1-97.1,38.8-97.3,38.7-97.6z"/>
	</g>
	<g>
		<path d="M0,67.4V7.6C0,3.4,3.4,0,7.6,0h59.7C71.6,0,75,3.4,75,7.6v59.7c0,4.2-3.4,7.6-7.6,7.6H7.6C3.4,75,0,71.6,0,67.4z"/>
		<path class="st2" d="M58.2,24.7c-1.3,0.6-2.7,0.9-4.1,1.2c0.7-0.1,1.6-1.3,2-1.8c0.6-0.7,1.1-1.6,1.4-2.5c0-0.1,0.1-0.2,0-0.2
			c-0.1,0-0.1,0-0.2,0c-1.6,0.8-3.2,1.4-4.9,1.9c-0.1,0-0.2,0-0.3-0.1c-0.1-0.2-0.3-0.3-0.4-0.4c-0.7-0.6-1.5-1.1-2.4-1.5
			c-1.1-0.5-2.4-0.7-3.6-0.6c-1.2,0.1-2.4,0.4-3.5,1c-1.1,0.6-2,1.3-2.8,2.3c-0.8,1-1.4,2.1-1.7,3.3c-0.3,1.2-0.3,2.3-0.1,3.5
			c0,0.2,0,0.2-0.2,0.2c-6.7-1-12.3-3.4-16.9-8.6c-0.2-0.2-0.3-0.2-0.5,0c-2,3-1,7.7,1.5,10.1c0.3,0.3,0.7,0.6,1,0.9
			c-0.1,0-1.8-0.2-3.3-0.9c-0.2-0.1-0.3-0.1-0.3,0.2c0,0.3,0,0.6,0.1,1c0.4,3,2.5,5.8,5.3,6.9c0.3,0.1,0.7,0.3,1.1,0.3
			c-0.7,0.1-1.3,0.2-3.2,0.1c-0.2,0-0.3,0.1-0.2,0.3c1.4,3.8,4.4,5,6.7,5.6c0.3,0.1,0.6,0.1,0.9,0.1c0,0,0,0-0.1,0.1
			c-0.8,1.1-3.4,2-4.6,2.4c-2.2,0.8-4.6,1.1-6.9,0.9c-0.4-0.1-0.5-0.1-0.6,0c-0.1,0.1,0,0.2,0.1,0.2c0.5,0.3,1,0.6,1.4,0.9
			c1.5,0.8,3,1.4,4.6,1.9c8.3,2.3,17.8,0.6,24-5.6c4.9-4.9,6.6-11.6,6.6-18.4c0-0.3,0.3-0.4,0.5-0.5c1.3-1,2.3-2.1,3.3-3.4
			c0.2-0.3,0.2-0.5,0.2-0.7c0,0,0,0,0,0C58.4,24.5,58.4,24.6,58.2,24.7z"/>
	</g>
	<g>
		<radialGradient id="SVGID_26_" cx="138.6136" cy="-94.0717" r="21" gradientUnits="userSpaceOnUse">
			<stop  offset="0" style="stop-color:#000056"/>
			<stop  offset="0.2482" style="stop-color:#4C4C88;stop-opacity:0.7518"/>
			<stop  offset="0.5193" style="stop-color:#9898BB;stop-opacity:0.4807"/>
			<stop  offset="0.744" style="stop-color:#D0D0E0;stop-opacity:0.256"/>
			<stop  offset="0.9103" style="stop-color:#F2F2F6;stop-opacity:8.971435e-002"/>
			<stop  offset="1" style="stop-color:#FFFFFF;stop-opacity:0"/>
		</radialGradient>
		<circle class="st29" cx="138.6" cy="-94.1" r="21"/>
		<path d="M117.9-95.4l0-13.9c0-4.2,3.4-7.6,7.6-7.6h13.9c4.2,0,7.6,3.4,7.6,7.6v13.9c0,4.2-3.4,7.6-7.6,7.6l-13.9,0
			C121.4-87.7,117.9-91.2,117.9-95.4z"/>
		<path class="st2" d="M124.7-94.1l1.2-4.5c-0.7-1.2-1.1-2.6-1.1-4.1c0-4.6,3.8-8.4,8.4-8.4c4.6,0,8.4,3.8,8.4,8.4
			c0,4.6-3.8,8.4-8.4,8.4c-1.4,0-2.8-0.4-4-1L124.7-94.1z M129.5-97l0.3,0.2c1.1,0.6,2.3,1,3.5,1c3.8,0,6.8-3.1,6.8-6.8
			s-3.1-6.8-6.8-6.8c-3.8,0-6.8,3.1-6.8,6.8c0,1.2,0.3,2.5,1,3.5l0.2,0.3l-0.7,2.5L129.5-97z"/>
		<path class="st7" d="M136.4-101.5c-0.3-0.2-0.8-0.4-1.2-0.3c-0.3,0.1-0.5,0.6-0.7,0.9c-0.1,0.1-0.2,0.1-0.4,0.1
			c-1.2-0.5-2.1-1.3-2.7-2.3c-0.1-0.2-0.1-0.3,0-0.5c0.2-0.2,0.4-0.5,0.5-0.8c0.1-0.3-0.1-0.7-0.2-0.9c-0.2-0.4-0.3-0.9-0.7-1.1
			c-0.3-0.2-0.8-0.1-1,0.2c-0.5,0.4-0.7,1-0.7,1.7c0,0.2,0,0.4,0.1,0.5c0.1,0.4,0.3,0.8,0.5,1.2c0.2,0.3,0.3,0.5,0.5,0.8
			c0.6,0.9,1.4,1.6,2.3,2.1c0.5,0.3,0.9,0.5,1.4,0.7c0.6,0.2,1.1,0.4,1.7,0.3c0.6-0.1,1.3-0.5,1.5-1.1c0.1-0.2,0.1-0.4,0.1-0.6
			C137.2-101.1,136.7-101.3,136.4-101.5z"/>
	</g>
	<g>
		<radialGradient id="SVGID_27_" cx="95.7319" cy="-94.0717" r="21" gradientUnits="userSpaceOnUse">
			<stop  offset="0" style="stop-color:#000056"/>
			<stop  offset="0.2482" style="stop-color:#4C4C88;stop-opacity:0.7518"/>
			<stop  offset="0.5193" style="stop-color:#9898BB;stop-opacity:0.4807"/>
			<stop  offset="0.744" style="stop-color:#D0D0E0;stop-opacity:0.256"/>
			<stop  offset="0.9103" style="stop-color:#F2F2F6;stop-opacity:8.971435e-002"/>
			<stop  offset="1" style="stop-color:#FFFFFF;stop-opacity:0"/>
		</radialGradient>
		<circle class="st30" cx="95.7" cy="-94.1" r="21"/>
		<path d="M75.5-95.4v-13.9c0-4.2,3.4-7.6,7.6-7.6l13.9,0c4.2,0,7.6,3.4,7.6,7.6v13.9c0,4.2-3.4,7.6-7.6,7.6H83.1
			C78.9-87.7,75.5-91.2,75.5-95.4z"/>
		<path class="st2" d="M97.9-104.5c0-1.9-1.6-3.5-3.5-3.5h-9c-1.9,0-3.5,1.6-3.5,3.5v4.2c0,1.9,1.6,3.5,3.5,3.5h9
			c1.9,0,3.5-1.6,3.5-3.5V-104.5z M92.6-102.1l-4,2c-0.2,0.1-0.7,0-0.7-0.2v-4.1c0-0.2,0.5-0.3,0.7-0.2l3.9,2.1
			C92.6-102.4,92.8-102.2,92.6-102.1z"/>
	</g>
	<path d="M-287.8-114.7v-60c0-4.2,3.4-7.6,7.6-7.6l60,0c4.2,0,7.6,3.4,7.6,7.6v60c0,4.2-3.4,7.6-7.6,7.6l-60,0
		C-284.4-107.1-287.8-110.5-287.8-114.7z"/>
	<g>
		<circle class="st2" cx="-238.5" cy="-156.4" r="2.6"/>
		<path class="st2" d="M-250-155.6c-6,0-10.9,4.9-10.9,10.9c0,6,4.9,10.9,10.9,10.9c6,0,10.9-4.9,10.9-10.9
			C-239.1-150.7-244-155.6-250-155.6z M-250-137.8c-3.8,0-7-3.1-7-7c0-3.8,3.1-7,7-7c3.8,0,7,3.1,7,7
			C-243-140.9-246.1-137.8-250-137.8z"/>
		<path class="st2" d="M-241.3-122.7H-259c-7.3,0-13.3-5.9-13.3-13.3v-17.6c0-7.3,5.9-13.3,13.3-13.3h17.6c7.3,0,13.3,5.9,13.3,13.3
			v17.6C-228.1-128.6-234-122.7-241.3-122.7z M-259-162.7c-5,0-9.1,4.1-9.1,9.1v17.6c0,5,4.1,9.1,9.1,9.1h17.6c5,0,9.1-4.1,9.1-9.1
			v-17.6c0-5-4.1-9.1-9.1-9.1H-259z"/>
	</g>
	<g>
		<path d="M-171.1,57.6V21.9c0-10.8,8.8-19.6,19.6-19.6h35.7c10.8,0,19.6,8.8,19.6,19.6l0,35.7c0,10.8-8.8,19.6-19.6,19.6h-12
			l-6.3-1.5l-5.4,1.5l-12,0C-162.3,77.2-171.1,68.4-171.1,57.6z"/>
		<g>
			<path class="st2" d="M-119.2,51.8l1.7-10.8h-10.4v-7c0-3,1.4-5.8,6.1-5.8h4.7v-9.2c0,0-4.3-0.7-8.4-0.7
				c-8.5,0-14.1,5.2-14.1,14.6V41h-9.5v10.8h9.5v25.4h11.7V51.8H-119.2z"/>
		</g>
	</g>
	<g>
		<radialGradient id="SVGID_28_" cx="52.8503" cy="-50.8589" r="21.5" gradientUnits="userSpaceOnUse">
			<stop  offset="0" style="stop-color:#000056"/>
			<stop  offset="0.2482" style="stop-color:#4C4C88;stop-opacity:0.7518"/>
			<stop  offset="0.5193" style="stop-color:#9898BB;stop-opacity:0.4807"/>
			<stop  offset="0.744" style="stop-color:#D0D0E0;stop-opacity:0.256"/>
			<stop  offset="0.9103" style="stop-color:#F2F2F6;stop-opacity:8.971435e-002"/>
			<stop  offset="1" style="stop-color:#FFFFFF;stop-opacity:0"/>
		</radialGradient>
		<circle class="st31" cx="52.9" cy="-50.9" r="21.5"/>
		<path d="M33-52.9v-13.9c0-4.2,3.4-7.6,7.6-7.6h13.9c4.2,0,7.6,3.4,7.6,7.6l0,13.9c0,4.2-3.4,7.6-7.6,7.6l-13.9,0
			C36.4-45.2,33-48.7,33-52.9z"/>
		<path class="st2" d="M41.5-62.6h2.8v9.1h-2.8V-62.6z M42.9-67.1c0.9,0,1.6,0.7,1.6,1.6c0,0.9-0.7,1.6-1.6,1.6
			c-0.9,0-1.6-0.7-1.6-1.6C41.3-66.3,42-67.1,42.9-67.1"/>
		<path class="st2" d="M46.1-62.6h2.7v1.2h0c0.4-0.7,1.3-1.5,2.7-1.5c2.9,0,3.4,1.9,3.4,4.3v5h-2.8v-4.4c0-1.1,0-2.4-1.5-2.4
			c-1.5,0-1.7,1.1-1.7,2.3v4.5h-2.8V-62.6z"/>
	</g>
	<g>
		<radialGradient id="SVGID_29_" cx="95.7319" cy="-50.8589" r="21" gradientUnits="userSpaceOnUse">
			<stop  offset="0" style="stop-color:#000056"/>
			<stop  offset="0.2482" style="stop-color:#4C4C88;stop-opacity:0.7518"/>
			<stop  offset="0.5193" style="stop-color:#9898BB;stop-opacity:0.4807"/>
			<stop  offset="0.744" style="stop-color:#D0D0E0;stop-opacity:0.256"/>
			<stop  offset="0.9103" style="stop-color:#F2F2F6;stop-opacity:8.971435e-002"/>
			<stop  offset="1" style="stop-color:#FFFFFF;stop-opacity:0"/>
		</radialGradient>
		<circle class="st32" cx="95.7" cy="-50.9" r="21"/>
		<path d="M75.5-52.9v-13.9c0-4.2,3.4-7.6,7.6-7.6l13.9,0c4.2,0,7.6,3.4,7.6,7.6v13.9c0,4.2-3.4,7.6-7.6,7.6l-13.9,0
			C78.9-45.2,75.5-48.7,75.5-52.9z"/>
		<path class="st2" d="M89.9-68.1c-4.5,0-8.2,3.7-8.2,8.2s3.7,8.2,8.2,8.2c4.5,0,8.2-3.7,8.2-8.2C98.1-64.4,94.4-68.1,89.9-68.1
			L89.9-68.1z M95.3-64.2c0.9,1.2,1.5,2.6,1.5,4.2c-0.3-0.1-1.6-0.3-3.2-0.3c-0.5,0-1,0-1.6,0.1c0-0.1-0.1-0.2-0.1-0.3
			c-0.1-0.3-0.3-0.7-0.4-1C93.9-62.5,95.1-63.9,95.3-64.2L95.3-64.2z M89.9-66.8c1.8,0,3.4,0.7,4.6,1.7c-0.2,0.3-1.2,1.6-3.6,2.5
			c-1.1-2-2.3-3.6-2.6-4C88.8-66.7,89.4-66.8,89.9-66.8L89.9-66.8z M86.9-66.1c0.2,0.3,1.4,2,2.5,4c-3,0.8-5.6,0.8-6.3,0.8h-0.1
			C83.6-63.4,85-65.2,86.9-66.1L86.9-66.1z M83-59.8c0-0.1,0-0.1,0-0.2c0,0,0.1,0,0.2,0c0.9,0,3.9-0.1,6.9-1
			c0.2,0.4,0.4,0.7,0.5,1.1c-0.1,0-0.2,0-0.2,0.1c-3.5,1.1-5.4,4.1-5.7,4.6C83.6-56.5,83-58.1,83-59.8L83-59.8z M89.9-52.9
			c-1.6,0-3.1-0.5-4.2-1.4c0.2-0.4,1.6-3,5.4-4.3c0,0,0,0,0,0c1,2.5,1.4,4.6,1.5,5.2C91.8-53.1,90.9-52.9,89.9-52.9L89.9-52.9z
			 M93.8-54.1c-0.1-0.5-0.5-2.5-1.3-4.9c0.5-0.1,1-0.1,1.4-0.1c1.5,0,2.6,0.3,2.9,0.4C96.4-56.8,95.4-55.2,93.8-54.1L93.8-54.1z"/>
	</g>
	<g>
		<radialGradient id="SVGID_30_" cx="181.4952" cy="-94.0717" r="21" gradientUnits="userSpaceOnUse">
			<stop  offset="0" style="stop-color:#000056"/>
			<stop  offset="0.2482" style="stop-color:#4C4C88;stop-opacity:0.7518"/>
			<stop  offset="0.5193" style="stop-color:#9898BB;stop-opacity:0.4807"/>
			<stop  offset="0.744" style="stop-color:#D0D0E0;stop-opacity:0.256"/>
			<stop  offset="0.9103" style="stop-color:#F2F2F6;stop-opacity:8.971435e-002"/>
			<stop  offset="1" style="stop-color:#FFFFFF;stop-opacity:0"/>
		</radialGradient>
		<circle class="st33" cx="181.5" cy="-94.1" r="21"/>
		<path d="M160.4-95.4l0-13.9c0-4.2,3.4-7.6,7.6-7.6H182c4.2,0,7.6,3.4,7.6,7.6v13.9c0,4.2-3.4,7.6-7.6,7.6h-13.9
			C163.9-87.7,160.4-91.2,160.4-95.4z"/>
		<path class="st2" d="M175.9-99.7c0,0.4-0.1,0.8-0.3,1.2c-0.2,0.3-0.4,0.6-0.7,0.8c-0.3,0.2-0.7,0.4-1.1,0.5
			c-0.4,0.1-0.8,0.2-1.3,0.2h-5.1v-10.5h5.6c0.4,0,0.7,0.1,1,0.2c0.3,0.2,0.5,0.4,0.8,0.6c0.2,0.3,0.4,0.5,0.5,0.9
			c0.1,0.3,0.2,0.6,0.2,1c0,0.5-0.1,1-0.4,1.4c-0.3,0.5-0.6,0.8-1.1,1c0.6,0.2,1.1,0.5,1.4,1C175.7-101,175.9-100.4,175.9-99.7z
			 M169.4-105.8v2.7h2.7c0.3,0,0.6-0.1,0.9-0.4c0.2-0.2,0.4-0.6,0.4-1c0-0.4-0.1-0.7-0.3-1c-0.2-0.2-0.5-0.4-0.8-0.4H169.4z
			 M173.8-100.1c0-0.2,0-0.4-0.1-0.5c-0.1-0.2-0.2-0.3-0.3-0.5c-0.1-0.1-0.2-0.2-0.4-0.3c-0.1-0.1-0.3-0.1-0.5-0.1h-3.1v2.8h3
			c0.2,0,0.4,0,0.5-0.1c0.2-0.1,0.3-0.2,0.4-0.3c0.1-0.1,0.2-0.3,0.3-0.4C173.8-99.7,173.8-99.9,173.8-100.1z"/>
		<path class="st2" d="M180.3-97c-0.6,0-1.2-0.1-1.6-0.3c-1-0.4-1.7-1.1-2-2.1c-0.2-0.5-0.3-1-0.3-1.5c0-0.5,0.1-1,0.3-1.5
			c0.4-1,1.1-1.7,2-2.1c0.5-0.2,1-0.3,1.7-0.3c0.6,0,1.2,0.1,1.6,0.3c1.6,0.7,2.3,2.2,2.3,3.9c0,0.1,0,0.2,0,0.3h-5.8
			c0,0.3,0.1,0.6,0.2,0.8c0.1,0.2,0.3,0.4,0.4,0.6c0.2,0.2,0.4,0.3,0.6,0.4c0.2,0.1,0.5,0.1,0.7,0.1c0.4,0,0.7-0.1,1.1-0.3
			c0.3-0.2,0.6-0.4,0.7-0.7l1.7,0.5c-0.3,0.6-0.7,1-1.3,1.4C181.9-97.2,181.1-97,180.3-97z M182.3-101.5c0-0.6-0.3-1-0.6-1.4
			c-0.4-0.3-0.8-0.5-1.3-0.5c-0.3,0-0.5,0-0.7,0.1c-0.2,0.1-0.4,0.2-0.6,0.4c-0.2,0.2-0.3,0.4-0.4,0.6c-0.1,0.2-0.2,0.5-0.2,0.8
			L182.3-101.5L182.3-101.5z"/>
		<path class="st2" d="M177.8-107h5v1.3h-5V-107z"/>
	</g>
	<g>
		<radialGradient id="SVGID_31_" cx="181.4952" cy="-136.2844" r="21" gradientUnits="userSpaceOnUse">
			<stop  offset="0" style="stop-color:#000056"/>
			<stop  offset="0.2482" style="stop-color:#4C4C88;stop-opacity:0.7518"/>
			<stop  offset="0.5193" style="stop-color:#9898BB;stop-opacity:0.4807"/>
			<stop  offset="0.744" style="stop-color:#D0D0E0;stop-opacity:0.256"/>
			<stop  offset="0.9103" style="stop-color:#F2F2F6;stop-opacity:8.971435e-002"/>
			<stop  offset="1" style="stop-color:#FFFFFF;stop-opacity:0"/>
		</radialGradient>
		<circle class="st34" cx="181.5" cy="-136.3" r="21"/>
		<path d="M160.4-137.9v-13.9c0-4.2,3.4-7.6,7.6-7.6H182c4.2,0,7.6,3.4,7.6,7.6l0,13.9c0,4.2-3.4,7.6-7.6,7.6l-13.9,0
			C163.9-130.2,160.4-133.7,160.4-137.9z"/>
		<path class="st2" d="M182.6-146.5c-0.1,0-0.3,0-0.4,0c-1.6,0-3.2-0.8-4.1-2.2v7.5c0,3.1-2.5,5.6-5.6,5.6c-3.1,0-5.6-2.5-5.6-5.6
			c0-3.1,2.5-5.6,5.6-5.6l0,0c0.1,0,0.2,0,0.3,0v2.7c-0.1,0-0.2,0-0.3,0c-1.6,0-2.8,1.3-2.8,2.8s1.3,2.8,2.8,2.8c1.6,0,3-1.2,3-2.8
			l0-12.8h2.6c0.2,2.4,2.1,4.2,4.5,4.4L182.6-146.5"/>
	</g>
	<g>
		<radialGradient id="SVGID_32_" cx="181.4952" cy="-50.8589" r="21" gradientUnits="userSpaceOnUse">
			<stop  offset="0" style="stop-color:#000056"/>
			<stop  offset="0.2482" style="stop-color:#4C4C88;stop-opacity:0.7518"/>
			<stop  offset="0.5193" style="stop-color:#9898BB;stop-opacity:0.4807"/>
			<stop  offset="0.744" style="stop-color:#D0D0E0;stop-opacity:0.256"/>
			<stop  offset="0.9103" style="stop-color:#F2F2F6;stop-opacity:8.971435e-002"/>
			<stop  offset="1" style="stop-color:#FFFFFF;stop-opacity:0"/>
		</radialGradient>
		<circle class="st35" cx="181.5" cy="-50.9" r="21"/>
		<path d="M160.4-52.9v-13.9c0-4.2,3.4-7.6,7.6-7.6H182c4.2,0,7.6,3.4,7.6,7.6l0,13.9c0,4.2-3.4,7.6-7.6,7.6l-13.9,0
			C163.9-45.2,160.4-48.7,160.4-52.9z"/>
		<path class="st2" d="M180.7-54c-0.2,0.3-0.5,0.4-0.8,0.4c-0.2,0-0.3,0-0.4-0.1c-2.3-1.4-5-1.6-6.9-1.5c-2,0.1-3.5,0.5-3.6,0.5
			c-0.5,0.1-1-0.1-1.1-0.6c-0.1-0.5,0.1-1,0.6-1.1c0.1,0,1.7-0.5,3.9-0.5c1.3,0,2.6,0,3.8,0.3c1.5,0.3,2.9,0.8,4.1,1.5
			C180.8-55,180.9-54.4,180.7-54z"/>
		<path class="st2" d="M182.3-57.4c-0.2,0.3-0.5,0.5-0.9,0.5c-0.2,0-0.4,0-0.5-0.1c-2.8-1.6-5.9-1.9-8.1-1.8
			c-2.4,0.1-4.2,0.6-4.2,0.6c-0.6,0.2-1.1-0.2-1.3-0.7c-0.2-0.6,0.2-1.1,0.7-1.3c0.1,0,2-0.5,4.6-0.6c1.6-0.1,3.1,0.1,4.5,0.3
			c1.8,0.3,3.4,0.9,4.8,1.8C182.5-58.6,182.6-57.9,182.3-57.4z"/>
		<path class="st2" d="M183.3-60.5c-0.2,0-0.4-0.1-0.6-0.2c-6.6-3.8-15.1-1.6-15.1-1.5c-0.7,0.2-1.4-0.2-1.6-0.9
			c-0.2-0.7,0.2-1.4,0.9-1.6c0.1,0,2.4-0.7,5.7-0.8c1.9-0.1,3.8,0.1,5.5,0.4c2.2,0.4,4.2,1.1,5.9,2.2c0.6,0.4,0.8,1.1,0.5,1.8
			C184.2-60.8,183.8-60.5,183.3-60.5z"/>
	</g>
	<g>
		<radialGradient id="SVGID_33_" cx="139.0112" cy="-51.2955" r="21" gradientUnits="userSpaceOnUse">
			<stop  offset="0" style="stop-color:#000056"/>
			<stop  offset="0.2482" style="stop-color:#4C4C88;stop-opacity:0.7518"/>
			<stop  offset="0.5193" style="stop-color:#9898BB;stop-opacity:0.4807"/>
			<stop  offset="0.744" style="stop-color:#D0D0E0;stop-opacity:0.256"/>
			<stop  offset="0.9103" style="stop-color:#F2F2F6;stop-opacity:8.971435e-002"/>
			<stop  offset="1" style="stop-color:#FFFFFF;stop-opacity:0"/>
		</radialGradient>
		<circle class="st36" cx="139" cy="-51.3" r="21"/>
		<path d="M117.9-52.9v-13.9c0-4.2,3.4-7.6,7.6-7.6h13.9c4.2,0,7.6,3.4,7.6,7.6l0,13.9c0,4.2-3.4,7.6-7.6,7.6h-13.9
			C121.4-45.2,117.9-48.7,117.9-52.9z"/>
		<path class="st7" d="M131.4-56.7c0,0.1,0,0.1,0,0.1c-0.7,2.6-0.7,3.1-1.4,4.3c-0.3,0.6-0.7,1.1-1.1,1.6c0,0.1-0.1,0.1-0.2,0.1
			c-0.1,0-0.1-0.1-0.1-0.2c-0.1-0.8-0.2-1.6-0.1-2.3c0-1,0.2-1.4,1.5-6.9c0-0.1,0-0.2,0-0.2c-0.3-0.8-0.4-1.7-0.1-2.6
			c0.6-1.9,2.7-2,3.1-0.5c0.2,1-0.4,2.2-0.8,4.1c-0.4,1.5,1.4,2.6,3,1.5c1.4-1,2-3.5,1.9-5.3c-0.2-3.5-4-4.3-6.5-3.1
			c-2.8,1.3-3.4,4.8-2.2,6.3c0.2,0.2,0.3,0.3,0.2,0.5c-0.1,0.3-0.2,0.6-0.2,1c-0.1,0.2-0.3,0.3-0.5,0.2c-0.5-0.2-0.9-0.5-1.2-0.9
			c-1.1-1.3-1.4-4,0-6.2c1.6-2.5,4.5-3.5,7.2-3.2c3.2,0.4,5.2,2.5,5.6,5c0.2,1.1,0,3.9-1.5,5.9c-1.8,2.3-4.8,2.4-6.1,1
			C131.6-56.4,131.5-56.5,131.4-56.7z"/>
	</g>
</g>
</svg>
